<?xml version="1.0" encoding="utf-8"?>
<!-- Generator: Adobe Illustrator 23.0.2, SVG Export Plug-In . SVG Version: 6.00 Build 0)  -->
<svg version="1.1" id="Layer_1" xmlns="http://www.w3.org/2000/svg" xmlns:xlink="http://www.w3.org/1999/xlink" x="0px" y="0px"
	 viewBox="0 0 865 440" style="enable-background:new 0 0 865 440;" xml:space="preserve">
<style type="text/css">
	.st0{fill-rule:evenodd;clip-rule:evenodd;fill:#FFFFFF;}
	.st1{fill-rule:evenodd;clip-rule:evenodd;fill:#009EE3;}
	.st2{fill:#414141;}
	.st3{fill:#FF0000;}
	.st4{fill:#009EE3;}
	.st5{fill:#FFFFFF;}
	.st6{fill:#00D646;}
	.st7{fill:#009FE3;}
	.st8{fill:#404040;}
</style>
<g>
	<g>
		<rect x="40" y="390" class="st0" width="50" height="2"/>
		<rect x="41" y="426" class="st1" width="50" height="4"/>
	</g>
</g>
<g>
	<rect x="465" y="0" class="st2" width="400" height="210"/>
	<rect x="465" y="230" class="st2" width="400" height="210"/>
	<g>
		<path class="st3" d="M640.2,358.7l21.1-21.1l-21.1-21.1l8.9-8.9l21.1,21.1l21.1-21.1l8.9,8.9l-21.1,21.1l21.1,21.1l-8.9,8.9
			l-21.1-21.1l-21.1,21.1L640.2,358.7z"/>
		<g>
			<path class="st4" d="M606.7,392.7v-85.9c0-13.3-10.8-24.1-24.1-24.1s-24.1,10.8-24.1,24.1v85.9h6.9v-85.9
				c0-9.5,7.7-17.2,17.2-17.2c9.5,0,17.2,7.7,17.2,17.2v85.9H606.7z"/>
			<path class="st5" d="M597.8,392.7v-85.9c0-7.1-5.8-12.9-12.9-12.9s-12.9,5.8-12.9,12.9v85.9h2.6v-85.9c0-5.7,4.6-10.3,10.3-10.3
				c5.7,0,10.3,4.6,10.3,10.3v85.9H597.8z"/>
		</g>
		<g>
			<path class="st4" d="M508.5,386c7.4,0,13.3-6,13.3-13.3v-90.2H515v90.2c0,3.6-2.9,6.5-6.5,6.5c-3.6,0-6.5-2.9-6.5-6.5v-90.2h-6.9
				v90.2C495.2,380,501.1,386,508.5,386z"/>
			<path class="st5" d="M486.2,282.4v90.2c0,10.9,8.9,19.8,19.8,19.8c10.9,0,19.8-8.9,19.8-19.8v-90.2h-2.6v90.2
				c0,9.5-7.7,17.2-17.2,17.2c-9.5,0-17.2-7.7-17.2-17.2v-90.2H486.2z"/>
		</g>
		<g>
			<path class="st4" d="M843.5,344.5h-85.9c-13.3,0-24.1,10.8-24.1,24.1s10.8,24.1,24.1,24.1h85.9v-6.9h-85.9
				c-9.5,0-17.2-7.7-17.2-17.2c0-9.5,7.7-17.2,17.2-17.2h85.9V344.5z"/>
			<path class="st5" d="M843.5,358.1h-85.9c-7.1,0-12.9,5.8-12.9,12.9c0,7.1,5.8,12.9,12.9,12.9h85.9v-2.6h-85.9
				c-5.7,0-10.3-4.6-10.3-10.3s4.6-10.3,10.3-10.3h85.9V358.1z"/>
		</g>
		<g>
			<path class="st4" d="M837.3,300c0-7.4-6-13.3-13.3-13.3h-90.2v6.9H824c3.6,0,6.5,2.9,6.5,6.5c0,3.6-2.9,6.5-6.5,6.5h-90.2v6.9
				H824C831.4,313.3,837.3,307.3,837.3,300z"/>
			<path class="st5" d="M733.8,322.3H824c10.9,0,19.8-8.9,19.8-19.8c0-10.9-8.9-19.8-19.8-19.8h-90.2v2.6H824
				c9.5,0,17.2,7.7,17.2,17.2c0,9.5-7.7,17.2-17.2,17.2h-90.2V322.3z"/>
		</g>
	</g>
	<g>
		<path class="st6" d="M638.3,109.8l-2.3-2.5c-0.3-0.3-0.4-0.7-0.4-1.1c0-0.5,0.2-0.9,0.5-1.2l6.6-6.2c0.3-0.3,0.7-0.4,1.1-0.4
			c0.2,0,0.4,0,0.6,0.1c0.2,0.1,0.4,0.2,0.5,0.4l18.2,19.6l31.4-40.4c0.4-0.4,0.8-0.6,1.3-0.6c0.4,0,0.7,0.1,1,0.4l7.2,5.6
			c0.1,0.1,0.3,0.3,0.4,0.5c0.1,0.2,0.2,0.4,0.2,0.6c0,0.4-0.1,0.8-0.4,1.1l-40.3,51.8L638.3,109.8z"/>
		<g>
			<g>
				<path class="st7" d="M582.6,52.7c-13.3,0-24.1,10.8-24.1,24.1v85.9h6.9V76.7c0-9.5,7.7-17.2,17.2-17.2c9.5,0,17.2,7.7,17.2,17.2
					v85.9h6.9V76.7C606.7,63.5,595.9,52.7,582.6,52.7z"/>
				<path class="st5" d="M582.6,63.8c-7.1,0-12.9,5.8-12.9,12.9v85.9h2.6V76.7c0-5.7,4.6-10.3,10.3-10.3c5.7,0,10.3,4.6,10.3,10.3
					v85.9h2.6V76.7C595.5,69.6,589.7,63.8,582.6,63.8z"/>
			</g>
			<g>
				<path class="st4" d="M506,156c7.4,0,13.3-6,13.3-13.3V52.4h-6.9v90.2c0,3.6-2.9,6.5-6.5,6.5c-3.6,0-6.5-2.9-6.5-6.5V52.4h-6.9
					v90.2C492.7,150,498.6,156,506,156z"/>
				<path class="st5" d="M486.2,52.4v90.2c0,10.9,8.9,19.8,19.8,19.8c10.9,0,19.8-8.9,19.8-19.8V52.4h-2.6v90.2
					c0,9.5-7.7,17.2-17.2,17.2c-9.5,0-17.2-7.7-17.2-17.2V52.4H486.2z"/>
			</g>
		</g>
		<g>
			<path class="st4" d="M843.5,114.5h-85.9c-13.3,0-24.1,10.8-24.1,24.1s10.8,24.1,24.1,24.1h85.9v-6.9h-85.9
				c-9.5,0-17.2-7.7-17.2-17.2c0-9.5,7.7-17.2,17.2-17.2h85.9V114.5z"/>
			<path class="st5" d="M843.5,125.7h-85.9c-7.1,0-12.9,5.8-12.9,12.9s5.8,12.9,12.9,12.9h85.9v-2.6h-85.9
				c-5.7,0-10.3-4.6-10.3-10.3c0-5.7,4.6-10.3,10.3-10.3h85.9V125.7z"/>
		</g>
		<g>
			<path class="st4" d="M837.3,72.5c0-7.4-6-13.3-13.3-13.3h-90.2V66H824c3.6,0,6.5,2.9,6.5,6.5c0,3.6-2.9,6.5-6.5,6.5h-90.2v6.9
				H824C831.4,85.8,837.3,79.8,837.3,72.5z"/>
			<path class="st5" d="M733.8,92.3H824c10.9,0,19.8-8.9,19.8-19.8c0-10.9-8.9-19.8-19.8-19.8h-90.2v2.6H824
				c9.5,0,17.2,7.7,17.2,17.2c0,9.5-7.7,17.2-17.2,17.2h-90.2V92.3z"/>
		</g>
	</g>
</g>
<g>
	<g>
		<g>
			<path class="st7" d="M225,68h32.3c4.1,0,7.5-3.4,7.5-7.5c0-4.1-3.4-7.5-7.5-7.5H225c-5.5,0-10-4.5-10-10c0-5.5,4.5-10,10-10h32.3
				c4.1,0,7.5-3.4,7.5-7.5c0-4.1-3.4-7.5-7.5-7.5h-81.8v89.2L188,113l-12.5,5.8v56.7h-56.7L113,188l-5.8-12.5H18v81.8
				c0,4.1,3.4,7.5,7.5,7.5s7.5-3.4,7.5-7.5V225c0-5.5,4.5-10,10-10s10,4.5,10,10v32.3c0,4.1,3.4,7.5,7.5,7.5s7.5-3.4,7.5-7.5V225
				c0-5.5,4.5-10,10-10c5.5,0,10,4.5,10,10v32.3c0,4.1,3.4,7.5,7.5,7.5c4.1,0,7.5-3.4,7.5-7.5V225c0-5.5,4.5-10,10-10
				c5.5,0,10,4.5,10,10v32.3c0,4.1,3.4,7.5,7.5,7.5s7.5-3.4,7.5-7.5V225c0-5.5,4.5-10,10-10s10,4.5,10,10v32.3
				c0,4.1,3.4,7.5,7.5,7.5c4.1,0,7.5-3.4,7.5-7.5V225c0-5.5,4.5-10,10-10c5.5,0,10,4.5,10,10v32.3c0,4.1,3.4,7.5,7.5,7.5
				c4.1,0,7.5-3.4,7.5-7.5V208h49.3c4.1,0,7.5-3.4,7.5-7.5c0-4.1-3.4-7.5-7.5-7.5H225c-5.5,0-10-4.5-10-10s4.5-10,10-10h32.3
				c4.1,0,7.5-3.4,7.5-7.5s-3.4-7.5-7.5-7.5H225c-5.5,0-10-4.5-10-10c0-5.5,4.5-10,10-10h32.3c4.1,0,7.5-3.4,7.5-7.5
				c0-4.1-3.4-7.5-7.5-7.5H225c-5.5,0-10-4.5-10-10c0-5.5,4.5-10,10-10h32.3c4.1,0,7.5-3.4,7.5-7.5c0-4.1-3.4-7.5-7.5-7.5H225
				c-5.5,0-10-4.5-10-10C215,72.5,219.5,68,225,68z M213.5,78c0,6.4,5.1,11.5,11.5,11.5h32.3c3.3,0,6,2.7,6,6c0,3.3-2.7,6-6,6H225
				c-6.4,0-11.5,5.2-11.5,11.5c0,6.4,5.1,11.5,11.5,11.5h32.3c3.3,0,6,2.7,6,6c0,3.3-2.7,6-6,6H225c-6.4,0-11.5,5.1-11.5,11.5
				c0,6.4,5.1,11.5,11.5,11.5h32.3c3.3,0,6,2.7,6,6c0,3.3-2.7,6-6,6H225c-6.4,0-11.5,5.1-11.5,11.5c0,6.4,5.1,11.5,11.5,11.5h32.3
				c3.3,0,6,2.7,6,6s-2.7,6-6,6h-50.8v50.8c0,3.3-2.7,6-6,6s-6-2.7-6-6V225c0-6.4-5.1-11.5-11.5-11.5c-6.4,0-11.5,5.1-11.5,11.5
				v32.3c0,3.3-2.7,6-6,6s-6-2.7-6-6V225c0-6.4-5.1-11.5-11.5-11.5c-6.4,0-11.5,5.1-11.5,11.5v32.3c0,3.3-2.7,6-6,6
				c-3.3,0-6-2.7-6-6V225c0-6.4-5.2-11.5-11.5-11.5c-6.4,0-11.5,5.1-11.5,11.5v32.3c0,3.3-2.7,6-6,6c-3.3,0-6-2.7-6-6V225
				c0-6.4-5.1-11.5-11.5-11.5c-6.4,0-11.5,5.1-11.5,11.5v32.3c0,3.3-2.7,6-6,6c-3.3,0-6-2.7-6-6V225c0-6.4-5.1-11.5-11.5-11.5
				c-6.4,0-11.5,5.1-11.5,11.5v32.3c0,3.3-2.7,6-6,6s-6-2.7-6-6V177h86.7l6.8,14.6l6.8-14.6H177v-57.2l14.6-6.8l-14.6-6.8V19.5h80.3
				c3.3,0,6,2.7,6,6c0,3.3-2.7,6-6,6H225c-6.4,0-11.5,5.1-11.5,11.5c0,6.4,5.1,11.5,11.5,11.5h32.3c3.3,0,6,2.7,6,6s-2.7,6-6,6H225
				C218.7,66.5,213.5,71.7,213.5,78z"/>
		</g>
		<path class="st5" d="M280.1,240.1l19.9-29.7V15c0-8.3-6.7-15-15-15H185c-5.5,0-10,4.5-10,10v3.7h81.8c5.5,0,10,4.5,10,10
			c0,5.5-4.5,10-10,10h-32.3c-4.3,0-7.7,3.5-7.7,7.8c0,4.3,3.5,7.7,7.7,7.7h32.3c5.5,0,10,4.5,10,10s-4.5,10-10,10h-32.3
			c-4.3,0-7.7,3.5-7.7,7.7c0,4.3,3.5,7.8,7.7,7.8h32.3c5.5,0,10,4.5,10,10c0,5.5-4.5,10-10,10h-32.3c-4.3,0-7.7,3.5-7.7,7.7
			c0,4.3,3.5,7.7,7.7,7.7h32.3c5.5,0,10,4.5,10,10c0,5.5-4.5,10-10,10h-32.3c-4.3,0-7.7,3.5-7.7,7.7c0,4.3,3.5,7.8,7.7,7.8h32.3
			c5.5,0,10,4.5,10,10c0,5.5-4.5,10-10,10h-32.3c-4.3,0-7.7,3.5-7.7,7.7c0,4.3,3.5,7.7,7.7,7.7h32.3c5.5,0,10,4.5,10,10
			c0,5.5-4.5,10-10,10h-45.6v45.6c0,5.5-4.5,10-10,10c-5.5,0-10-4.5-10-10v-32.3c0-4.3-3.5-7.7-7.8-7.7c-4.3,0-7.7,3.5-7.7,7.7v32.3
			c0,5.5-4.5,10-10,10c-5.5,0-10-4.5-10-10v-32.3c0-4.3-3.5-7.7-7.8-7.7c-4.3,0-7.7,3.5-7.7,7.7v32.3c0,5.5-4.5,10-10,10
			s-10-4.5-10-10v-32.3c0-4.3-3.5-7.7-7.7-7.7c-4.3,0-7.7,3.5-7.7,7.7v32.3c0,5.5-4.5,10-10,10s-10-4.5-10-10v-32.3
			c0-4.3-3.5-7.7-7.8-7.7c-4.3,0-7.7,3.5-7.7,7.7v32.3c0,5.5-4.5,10-10,10c-5.5,0-10-4.5-10-10v-32.3c0-4.3-3.5-7.7-7.7-7.7
			c-4.3,0-7.7,3.5-7.7,7.7v32.3c0,5.5-4.5,10-10,10s-10-4.5-10-10V175H10c-5.5,0-10,4.5-10,10v100c0,8.3,6.7,15,15,15h245.9
			l-16.3-22.6l-7.3,10.1h-3.1l8.9-12.8l-8.9-12.2h3.1l7.3,10.1l7.3-10.1h3.1l-8.9,12.2l17.5,25.3H285c8.3,0,15-6.7,15-15v-69.7
			l-18.3,26.9V255h-3.1v-12.8l-8.3-12.2h3.1L280.1,240.1z M274.5,243.5V259h11.1v-15.5l10.3-15.2V285c0,6.1-4.9,11-11,11h-19.2
			L251,274.8l11.8-16.3h-13l-5.2,7.3l-5.2-7.3h-13l11.8,16.3l-11.6,16.7h12.8l5.2-7.3l8.5,11.8H15c-6.1,0-11-4.9-11-11V185
			c0-3.2,2.5-5.9,5.7-6v77.8c0,7.7,6.3,14,14,14c7.7,0,14-6.3,14-14v-32.3c0-2.1,1.7-3.7,3.7-3.7c2.1,0,3.8,1.7,3.8,3.7v32.3
			c0,7.7,6.3,14,14,14c7.7,0,14-6.3,14-14v-32.3c0-2.1,1.7-3.7,3.7-3.7c2.1,0,3.8,1.7,3.8,3.7v32.3c0,7.7,6.3,14,14,14
			c7.7,0,14-6.3,14-14v-32.3c0-2.1,1.7-3.7,3.7-3.7c2.1,0,3.8,1.7,3.8,3.7v32.3c0,7.7,6.3,14,14,14s14-6.3,14-14v-32.3
			c0-2.1,1.7-3.7,3.7-3.7s3.8,1.7,3.8,3.7v32.3c0,7.7,6.3,14,14,14c7.7,0,14-6.3,14-14v-32.3c0-2.1,1.7-3.7,3.7-3.7
			c2.1,0,3.8,1.7,3.8,3.7v32.3c0,7.7,6.3,14,14,14c7.7,0,14-6.3,14-14v-41.6h41.6c7.7,0,14-6.3,14-14s-6.3-14-14-14h-32.3
			c-2.1,0-3.7-1.7-3.7-3.8c0-2.1,1.7-3.7,3.7-3.7h32.3c7.7,0,14-6.3,14-14c0-7.7-6.3-14-14-14h-32.3c-2.1,0-3.7-1.7-3.7-3.8
			c0-2.1,1.7-3.7,3.7-3.7h32.3c7.7,0,14-6.3,14-14c0-7.7-6.3-14-14-14h-32.3c-2.1,0-3.7-1.7-3.7-3.8c0-2.1,1.7-3.7,3.7-3.7h32.3
			c7.7,0,14-6.3,14-14c0-7.7-6.3-14-14-14h-32.3c-2.1,0-3.7-1.7-3.7-3.8c0-2.1,1.7-3.7,3.7-3.7h32.3c7.7,0,14-6.3,14-14
			c0-7.7-6.3-14-14-14h-32.3c-2.1,0-3.7-1.7-3.7-3.8c0-2.1,1.7-3.8,3.7-3.8h32.3c7.7,0,14-6.3,14-14c0-7.7-6.3-14-14-14H179
			c0.1-3.2,2.8-5.8,6-5.8h100c6.1,0,11,4.9,11,11v194.2l-15.9,23.7l-4.6-6.9h-12.8L274.5,243.5z"/>
		<g>
			<path class="st8" d="M285,1c7.7,0,14,6.3,14,14v270c0,7.7-6.3,14-14,14H15c-7.7,0-14-6.3-14-14V185c0-7.7,6.3-14,14-14h140
				c8.8,0,16-7.2,16-16V15c0-7.7,6.3-14,14-14H285 M285,0H185c-8.3,0-15,6.7-15,15v140c0,8.3-6.7,15-15,15H15c-8.3,0-15,6.7-15,15
				v100c0,8.3,6.7,15,15,15h270c8.3,0,15-6.7,15-15V15C300,6.7,293.3,0,285,0L285,0z"/>
		</g>
	</g>
	<g>
		<g>
			<path class="st4" d="M29.6,290.7H28l-1.3-3.5h-5.3l-1.3,3.5h-1.6l4.8-12.6h1.5L29.6,290.7z M26.2,285.8l-2-5.4
				c-0.1-0.2-0.1-0.5-0.2-0.8h0c-0.1,0.4-0.1,0.6-0.2,0.8l-2,5.4H26.2z"/>
		</g>
		<g>
			<g>
				<path class="st4" d="M285.8,31h-1.4V20.1c-0.1,0.1-0.3,0.2-0.5,0.4c-0.2,0.1-0.5,0.3-0.7,0.4s-0.5,0.3-0.8,0.4s-0.6,0.2-0.9,0.3
					v-1.5c0.3-0.1,0.7-0.2,1-0.4c0.4-0.1,0.7-0.3,1-0.5c0.3-0.2,0.7-0.4,1-0.6c0.3-0.2,0.6-0.4,0.8-0.6h0.5L285.8,31L285.8,31z"/>
			</g>
		</g>
		<g>
			<g>
				<path class="st4" d="M287.8,62.9c0,0.6-0.1,1.1-0.3,1.6c-0.2,0.5-0.5,0.9-0.9,1.2c-0.4,0.3-0.9,0.6-1.4,0.8s-1.1,0.3-1.8,0.3
					c-1.2,0-2.2-0.2-2.9-0.7v-1.5c0.9,0.7,1.8,1,2.9,1c0.4,0,0.8-0.1,1.2-0.2s0.7-0.3,0.9-0.5s0.5-0.5,0.6-0.8s0.2-0.6,0.2-1
					c0-1.6-1.2-2.5-3.5-2.5h-1v-1.2h1c2.1,0,3.1-0.8,3.1-2.3c0-1.4-0.8-2.1-2.4-2.1c-0.9,0-1.7,0.3-2.5,0.9v-1.4
					c0.8-0.5,1.8-0.7,2.9-0.7c0.5,0,1,0.1,1.4,0.2s0.8,0.4,1.1,0.6s0.5,0.6,0.7,0.9s0.3,0.8,0.3,1.2c0,1.7-0.8,2.7-2.5,3.2v0
					c0.4,0,0.8,0.2,1.2,0.3s0.7,0.4,0.9,0.6s0.5,0.6,0.6,0.9C287.8,62.1,287.8,62.5,287.8,62.9z"/>
			</g>
		</g>
		<g>
			<g>
				<path class="st4" d="M288,98.1c0,0.6-0.1,1.2-0.3,1.7s-0.5,0.9-0.9,1.3s-0.9,0.6-1.4,0.8s-1.2,0.3-1.8,0.3c-1.2,0-2-0.2-2.6-0.5
					v-1.5c0.9,0.6,1.7,0.8,2.6,0.8c0.5,0,0.9-0.1,1.2-0.2s0.7-0.3,0.9-0.6s0.5-0.5,0.6-0.9s0.2-0.7,0.2-1.1c0-0.8-0.3-1.5-0.8-1.9
					c-0.6-0.5-1.4-0.7-2.4-0.7c-0.2,0-0.3,0-0.5,0s-0.4,0-0.6,0c-0.2,0-0.4,0-0.5,0s-0.3,0-0.5,0l0.4-6.3h5.8v1.3h-4.6l-0.3,3.7
					c0.2,0,0.4,0,0.6,0c0.2,0,0.4,0,0.6,0c0.7,0,1.3,0.1,1.8,0.3s1,0.4,1.3,0.8c0.4,0.3,0.6,0.7,0.8,1.2S288,97.5,288,98.1z"/>
			</g>
		</g>
		<g>
			<g>
				<path class="st4" d="M288.3,125.6c-0.2,0.3-0.4,0.8-0.7,1.2s-0.6,1.1-0.9,1.7s-0.6,1.3-0.9,2s-0.6,1.5-0.9,2.2s-0.5,1.5-0.7,2.3
					c-0.2,0.8-0.4,1.6-0.5,2.3h-1.5c0.1-0.8,0.3-1.5,0.5-2.3c0.2-0.8,0.5-1.5,0.7-2.3c0.3-0.8,0.6-1.5,0.9-2.2s0.6-1.3,0.9-1.9
					s0.6-1.1,0.8-1.6c0.2-0.4,0.4-0.8,0.6-1.1h-6.3v-1.3h8L288.3,125.6L288.3,125.6z"/>
			</g>
		</g>
		<g>
			<g>
				<path class="st4" d="M288.3,165.8c0,1.2-0.1,2.2-0.3,3.1s-0.6,1.7-1,2.3c-0.4,0.6-1,1.1-1.6,1.4c-0.6,0.3-1.4,0.5-2.2,0.5
					c-0.8,0-1.6-0.1-2.2-0.4v-1.4c0.7,0.4,1.4,0.6,2.2,0.6c0.6,0,1.1-0.1,1.5-0.4s0.8-0.6,1.1-1c0.3-0.4,0.5-1,0.7-1.7
					s0.2-1.4,0.2-2.3h0c-0.5,1.1-1.5,1.6-2.8,1.6c-0.5,0-1-0.1-1.5-0.3s-0.8-0.5-1.2-0.8s-0.6-0.8-0.8-1.2s-0.3-1-0.3-1.6
					c0-0.6,0.1-1.2,0.3-1.7s0.5-1,0.8-1.3s0.8-0.7,1.3-0.9s1-0.3,1.6-0.3c0.6,0,1.2,0.1,1.7,0.4c0.5,0.3,0.9,0.6,1.2,1.1
					c0.3,0.5,0.6,1.1,0.8,1.8S288.3,164.8,288.3,165.8z M286.7,164.5c0-0.5-0.1-0.9-0.2-1.3s-0.3-0.7-0.5-1
					c-0.2-0.3-0.5-0.5-0.8-0.7s-0.6-0.2-1-0.2c-0.3,0-0.7,0.1-1,0.2c-0.3,0.1-0.6,0.3-0.8,0.6c-0.2,0.3-0.4,0.5-0.5,0.9
					c-0.1,0.3-0.2,0.7-0.2,1.1c0,0.4,0.1,0.8,0.2,1.2s0.3,0.6,0.5,0.9c0.2,0.2,0.5,0.4,0.8,0.6s0.7,0.2,1,0.2c0.3,0,0.6-0.1,0.9-0.2
					c0.3-0.1,0.6-0.3,0.8-0.5c0.2-0.2,0.4-0.5,0.5-0.8C286.7,165.1,286.7,164.8,286.7,164.5z"/>
			</g>
		</g>
		<g>
			<g>
				<path class="st4" d="M204.1,40.7c0-0.4-0.1-0.7-0.2-1s-0.3-0.5-0.5-0.7s-0.5-0.3-0.7-0.4s-0.6-0.1-0.9-0.1c-0.3,0-0.6,0-0.8,0.1
					s-0.5,0.2-0.8,0.3s-0.5,0.3-0.7,0.5s-0.5,0.4-0.7,0.6v-1.5c0.4-0.4,0.9-0.7,1.4-0.9s1.1-0.3,1.8-0.3c0.5,0,1,0.1,1.4,0.2
					c0.4,0.1,0.8,0.4,1.1,0.7s0.6,0.6,0.8,1.1s0.3,0.9,0.3,1.5c0,0.5-0.1,0.9-0.2,1.4s-0.3,0.8-0.5,1.1s-0.5,0.7-0.9,1
					s-0.8,0.7-1.2,1c-0.6,0.4-1.1,0.8-1.5,1.1s-0.7,0.6-0.9,0.8s-0.4,0.5-0.5,0.8c-0.1,0.3-0.1,0.6-0.1,0.9h6.3V50h-7.8v-0.6
					c0-0.5,0.1-1,0.2-1.4s0.3-0.8,0.6-1.2s0.6-0.7,1.1-1.1s1-0.8,1.6-1.2c0.5-0.3,0.8-0.6,1.1-0.9s0.6-0.6,0.7-0.9s0.3-0.6,0.4-0.9
					C204,41.4,204.1,41.1,204.1,40.7z"/>
			</g>
		</g>
		<g>
			<g>
				<path class="st4" d="M204.8,72.7V81h1.6v1.3h-1.6v3h-1.4v-3h-5.9V81c0.6-0.6,1.1-1.3,1.7-2c0.6-0.7,1.1-1.4,1.6-2.1
					s1-1.5,1.4-2.2c0.4-0.7,0.8-1.4,1.1-2.1H204.8z M199,81h4.3v-6.2c-0.4,0.8-0.9,1.5-1.2,2.1s-0.8,1.2-1.1,1.6s-0.7,0.9-1,1.3
					S199.3,80.6,199,81z"/>
			</g>
		</g>
		<g>
			<g>
				<path class="st4" d="M206.3,116.5c0,0.6-0.1,1.2-0.3,1.7s-0.5,1-0.8,1.3s-0.8,0.7-1.3,0.9c-0.5,0.2-1,0.3-1.6,0.3
					c-0.6,0-1.2-0.1-1.7-0.4s-0.9-0.6-1.3-1.1c-0.3-0.5-0.6-1.1-0.8-1.8s-0.3-1.5-0.3-2.4c0-1.1,0.1-2.1,0.4-3s0.6-1.7,1-2.3
					c0.4-0.6,1-1.1,1.6-1.5s1.3-0.5,2.1-0.5c0.9,0,1.6,0.1,2.1,0.4v1.4c-0.6-0.3-1.3-0.5-2.1-0.5c-0.6,0-1.1,0.1-1.5,0.4
					s-0.8,0.6-1.2,1.1s-0.6,1-0.7,1.7s-0.3,1.4-0.3,2.2h0c0.6-1,1.5-1.6,2.9-1.6c0.6,0,1,0.1,1.5,0.3s0.8,0.5,1.1,0.8
					c0.3,0.3,0.6,0.8,0.7,1.2S206.3,115.9,206.3,116.5z M204.8,116.7c0-0.4-0.1-0.8-0.2-1.2s-0.3-0.6-0.5-0.9s-0.5-0.4-0.8-0.6
					c-0.3-0.1-0.6-0.2-1-0.2c-0.4,0-0.7,0.1-1,0.2s-0.6,0.3-0.8,0.5s-0.4,0.5-0.5,0.8c-0.1,0.3-0.2,0.6-0.2,1c0,0.4,0.1,0.8,0.2,1.2
					c0.1,0.4,0.3,0.7,0.5,1s0.5,0.5,0.8,0.7s0.6,0.2,1,0.2c0.4,0,0.7-0.1,1-0.2s0.6-0.3,0.8-0.6s0.4-0.5,0.5-0.9
					C204.7,117.5,204.8,117.1,204.8,116.7z"/>
			</g>
		</g>
		<g>
			<g>
				<path class="st4" d="M199.1,152.2c0-0.3,0.1-0.7,0.2-1c0.1-0.3,0.3-0.7,0.5-0.9s0.4-0.6,0.7-0.8s0.6-0.4,1-0.6
					c-0.5-0.3-1-0.7-1.3-1.2c-0.3-0.5-0.5-1-0.5-1.6c0-0.5,0.1-0.9,0.3-1.3s0.4-0.7,0.7-1s0.7-0.5,1.1-0.7c0.4-0.2,0.9-0.2,1.4-0.2
					c0.5,0,1,0.1,1.4,0.2s0.8,0.4,1.1,0.7s0.6,0.6,0.7,1s0.3,0.8,0.3,1.3c0,0.6-0.2,1.1-0.5,1.6c-0.3,0.5-0.8,0.9-1.3,1.2
					c0.4,0.1,0.7,0.3,1,0.6s0.5,0.5,0.7,0.8s0.3,0.6,0.5,0.9c0.1,0.3,0.2,0.7,0.2,1c0,0.6-0.1,1.1-0.3,1.5s-0.5,0.8-0.8,1.2
					c-0.4,0.3-0.8,0.6-1.3,0.8s-1.1,0.3-1.7,0.3c-0.6,0-1.1-0.1-1.6-0.3s-0.9-0.4-1.3-0.8c-0.4-0.3-0.6-0.7-0.8-1.2
					S199.1,152.7,199.1,152.2z M200.6,152.1c0,0.4,0.1,0.7,0.2,1.1s0.3,0.6,0.5,0.8s0.5,0.4,0.8,0.5c0.3,0.1,0.7,0.2,1,0.2
					c0.4,0,0.7-0.1,1-0.2s0.6-0.3,0.8-0.5s0.4-0.5,0.5-0.8s0.2-0.7,0.2-1.1c0-0.4-0.1-0.7-0.2-1c-0.1-0.3-0.3-0.6-0.5-0.8
					s-0.5-0.4-0.8-0.6s-0.7-0.2-1-0.2c-0.4,0-0.7,0.1-1,0.2c-0.3,0.1-0.6,0.3-0.8,0.5c-0.2,0.2-0.4,0.5-0.5,0.8
					C200.7,151.3,200.6,151.7,200.6,152.1z M201.1,146.2c0,0.3,0.1,0.6,0.2,0.8c0.1,0.3,0.3,0.5,0.4,0.7c0.2,0.2,0.4,0.3,0.7,0.4
					c0.3,0.1,0.5,0.2,0.8,0.2s0.6-0.1,0.8-0.2s0.5-0.3,0.7-0.5c0.2-0.2,0.3-0.4,0.4-0.7c0.1-0.3,0.2-0.5,0.2-0.8
					c0-0.3-0.1-0.6-0.2-0.8s-0.3-0.5-0.4-0.7s-0.4-0.3-0.7-0.4c-0.3-0.1-0.5-0.2-0.8-0.2c-0.3,0-0.6,0.1-0.8,0.2s-0.5,0.3-0.7,0.5
					c-0.2,0.2-0.3,0.4-0.4,0.7S201.1,145.9,201.1,146.2z"/>
			</g>
		</g>
		<g>
			<g>
				<path class="st4" d="M198.8,190.9h-1.4V180c-0.1,0.1-0.3,0.2-0.5,0.4c-0.2,0.1-0.5,0.3-0.7,0.4s-0.5,0.3-0.8,0.4
					s-0.6,0.2-0.9,0.3v-1.5c0.3-0.1,0.7-0.2,1-0.4c0.4-0.1,0.7-0.3,1-0.5c0.3-0.2,0.7-0.4,1-0.6c0.3-0.2,0.6-0.4,0.8-0.6h0.5
					L198.8,190.9L198.8,190.9z"/>
				<path class="st4" d="M211.1,184.6c0,1.1-0.1,2-0.3,2.8s-0.5,1.5-0.8,2.1c-0.4,0.6-0.8,1-1.3,1.3c-0.5,0.3-1.1,0.4-1.8,0.4
					c-0.6,0-1.2-0.1-1.7-0.4c-0.5-0.3-0.9-0.7-1.3-1.2s-0.6-1.2-0.8-2s-0.3-1.7-0.3-2.7c0-1.1,0.1-2.1,0.3-2.9s0.5-1.6,0.8-2.1
					c0.4-0.6,0.8-1,1.3-1.3c0.5-0.3,1.1-0.4,1.8-0.4C209.8,178.1,211.1,180.2,211.1,184.6z M209.6,184.7c0-3.6-0.9-5.4-2.6-5.4
					c-1.8,0-2.7,1.8-2.7,5.5c0,3.4,0.9,5.1,2.6,5.1C208.8,189.9,209.6,188.2,209.6,184.7z"/>
			</g>
		</g>
		<g>
			<g>
				<path class="st4" d="M281,208.3h-1.4v-10.9c-0.1,0.1-0.3,0.2-0.5,0.4c-0.2,0.1-0.5,0.3-0.7,0.4s-0.5,0.3-0.8,0.4
					s-0.6,0.2-0.9,0.3v-1.5c0.3-0.1,0.7-0.2,1-0.4c0.4-0.1,0.7-0.3,1-0.5c0.3-0.2,0.7-0.4,1-0.6c0.3-0.2,0.6-0.4,0.8-0.6h0.5
					L281,208.3L281,208.3z"/>
				<path class="st4" d="M290.7,208.3h-1.4v-10.9c-0.1,0.1-0.3,0.2-0.5,0.4c-0.2,0.1-0.5,0.3-0.7,0.4s-0.5,0.3-0.8,0.4
					s-0.6,0.2-0.9,0.3v-1.5c0.3-0.1,0.7-0.2,1-0.4c0.4-0.1,0.7-0.3,1-0.5c0.3-0.2,0.7-0.4,1-0.6c0.3-0.2,0.6-0.4,0.8-0.6h0.5
					L290.7,208.3L290.7,208.3z"/>
			</g>
		</g>
		<g>
			<path class="st4" d="M64.4,290.2c-0.9,0.5-2.1,0.7-3.5,0.7c-1.8,0-3.2-0.6-4.3-1.7s-1.6-2.7-1.6-4.5c0-2,0.6-3.6,1.8-4.9
				s2.8-1.9,4.6-1.9c1.2,0,2.2,0.2,3,0.5v1.6c-0.9-0.5-1.9-0.8-3-0.8c-1.4,0-2.6,0.5-3.5,1.4s-1.3,2.3-1.3,3.9
				c0,1.5,0.4,2.8,1.3,3.7c0.8,0.9,1.9,1.4,3.3,1.4c1.3,0,2.4-0.3,3.3-0.8L64.4,290.2L64.4,290.2z"/>
		</g>
		<g>
			<path class="st4" d="M99.2,290.7h-6.7v-12.6H99v1.3H94v4.2h4.6v1.3H94v4.4h5.2L99.2,290.7L99.2,290.7z"/>
		</g>
		<g>
			<path class="st4" d="M136.1,289.8c-1.3,0.7-2.7,1.1-4.2,1.1c-1.8,0-3.3-0.6-4.4-1.7s-1.7-2.7-1.7-4.6c0-2,0.6-3.6,1.9-4.8
				c1.2-1.3,2.8-1.9,4.7-1.9c1.4,0,2.5,0.2,3.5,0.7v1.6c-1-0.6-2.2-1-3.6-1c-1.4,0-2.6,0.5-3.5,1.5s-1.4,2.2-1.4,3.8
				c0,1.6,0.4,2.8,1.3,3.8c0.8,0.9,2,1.4,3.4,1.4c1,0,1.8-0.2,2.6-0.6v-3.5h-2.8v-1.3h4.2L136.1,289.8L136.1,289.8z"/>
		</g>
		<g>
			<path class="st4" d="M167.6,290.7h-1.5v-12.6h1.5V290.7z"/>
		</g>
		<g>
			<path class="st4" d="M39.3,208.9v-12.6h3.6c1.1,0,2,0.3,2.6,0.8s1,1.2,1,2.1c0,0.7-0.2,1.3-0.6,1.9s-0.9,0.9-1.6,1.1v0
				c0.9,0.1,1.5,0.4,2,1s0.8,1.2,0.8,2.1c0,1.1-0.4,2-1.2,2.6s-1.7,1-2.9,1L39.3,208.9L39.3,208.9z M40.8,197.7v4.1h1.5
				c0.8,0,1.4-0.2,1.9-0.6c0.5-0.4,0.7-0.9,0.7-1.6c0-1.2-0.8-1.8-2.4-1.8H40.8z M40.8,203.1v4.5h2c0.9,0,1.5-0.2,2-0.6
				s0.7-1,0.7-1.7c0-1.5-1-2.2-3-2.2H40.8z"/>
		</g>
		<g>
			<path class="st4" d="M74.2,208.9v-12.6h3.5c4.4,0,6.7,2,6.7,6.1c0,1.9-0.6,3.5-1.9,4.7c-1.2,1.2-2.9,1.8-5,1.8L74.2,208.9
				L74.2,208.9z M75.6,197.7v9.9h1.9c1.7,0,2.9-0.4,3.9-1.3s1.4-2.1,1.4-3.8c0-3.2-1.7-4.8-5.1-4.8L75.6,197.7L75.6,197.7z"/>
		</g>
		<g>
			<path class="st4" d="M117.7,197.7h-4.9v4.4h4.6v1.3h-4.6v5.6h-1.5v-12.6h6.4L117.7,197.7L117.7,197.7z"/>
		</g>
		<g>
			<path class="st4" d="M154.2,208.9h-1.5v-5.7h-6.5v5.7h-1.5v-12.6h1.5v5.5h6.5v-5.5h1.5V208.9z"/>
		</g>
		<g>
			<path class="st4" d="M185.3,204.4c0,1.5-0.3,2.7-0.9,3.5c-0.6,0.8-1.5,1.2-2.5,1.2c-0.5,0-0.9-0.1-1.2-0.2v-1.5
				c0.3,0.2,0.7,0.3,1.2,0.3c1.3,0,2-1.1,2-3.4v-8.1h1.5L185.3,204.4L185.3,204.4z"/>
		</g>
		<g>
			<path class="st4" d="M207.8,290.7h-2.1l-4.9-5.8c-0.2-0.2-0.3-0.4-0.3-0.4h0v6.2h-1.5v-12.6h1.5v5.9h0c0.1-0.1,0.2-0.3,0.3-0.4
				l4.7-5.5h1.8l-5.4,6L207.8,290.7z"/>
		</g>
	</g>
</g>
</svg>
