<?xml version="1.0" encoding="utf-8"?>
<!-- Generator: Adobe Illustrator 16.0.3, SVG Export Plug-In . SVG Version: 6.00 Build 0)  -->
<!DOCTYPE svg PUBLIC "-//W3C//DTD SVG 1.1//EN" "http://www.w3.org/Graphics/SVG/1.1/DTD/svg11.dtd">
<svg version="1.1" id="Layer_1" xmlns="http://www.w3.org/2000/svg" xmlns:xlink="http://www.w3.org/1999/xlink" x="0px" y="0px"
	 width="40px" height="40px" viewBox="0 0 40 40" enable-background="new 0 0 40 40" xml:space="preserve">
<g>
	<g>
		<rect y="39.594" fill="#A8A8A8" width="40" height="0.406"/>
	</g>
	<g>
		<rect y="38.578" fill="#A8A8A8" width="38.984" height="0.406"/>
	</g>
	<g>
		<rect y="37.563" fill="#A8A8A8" width="37.969" height="0.406"/>
	</g>
	<g>
		<rect y="36.549" fill="#A8A8A8" width="36.953" height="0.406"/>
	</g>
	<g>
		<rect y="35.533" fill="#A8A8A8" width="35.938" height="0.405"/>
	</g>
	<g>
		<rect y="34.518" fill="#A8A8A8" width="34.922" height="0.406"/>
	</g>
	<g>
		<rect y="33.503" fill="#A8A8A8" width="33.906" height="0.405"/>
	</g>
	<g>
		<rect y="32.487" fill="#A8A8A8" width="32.893" height="0.406"/>
	</g>
	<g>
		<rect y="31.472" fill="#A8A8A8" width="31.877" height="0.407"/>
	</g>
	<g>
		<rect y="30.457" fill="#A8A8A8" width="30.863" height="0.406"/>
	</g>
	<g>
		<rect y="29.441" fill="#A8A8A8" width="29.848" height="0.406"/>
	</g>
	<g>
		<rect y="28.426" fill="#A8A8A8" width="28.832" height="0.407"/>
	</g>
	<g>
		<rect y="27.412" fill="#A8A8A8" width="27.816" height="0.405"/>
	</g>
	<g>
		<rect y="26.396" fill="#A8A8A8" width="26.801" height="0.405"/>
	</g>
	<g>
		<rect y="25.381" fill="#A8A8A8" width="25.787" height="0.406"/>
	</g>
	<g>
		<rect y="24.365" fill="#A8A8A8" width="24.771" height="0.407"/>
	</g>
	<g>
		<rect y="23.351" fill="#A8A8A8" width="23.756" height="0.405"/>
	</g>
	<g>
		<rect y="22.336" fill="#A8A8A8" width="22.74" height="0.405"/>
	</g>
	<g>
		<rect y="21.32" fill="#A8A8A8" width="21.725" height="0.406"/>
	</g>
	<g>
		<rect y="20.305" fill="#A8A8A8" width="20.711" height="0.406"/>
	</g>
	<g>
		<rect y="19.289" fill="#A8A8A8" width="19.695" height="0.406"/>
	</g>
	<g>
		<rect y="18.274" fill="#A8A8A8" width="18.68" height="0.406"/>
	</g>
	<g>
		<rect y="17.26" fill="#A8A8A8" width="17.664" height="0.406"/>
	</g>
	<g>
		<rect y="16.244" fill="#A8A8A8" width="16.648" height="0.405"/>
	</g>
	<g>
		<rect y="15.229" fill="#A8A8A8" width="15.635" height="0.406"/>
	</g>
	<g>
		<rect y="14.214" fill="#A8A8A8" width="14.619" height="0.406"/>
	</g>
	<g>
		<rect y="13.198" fill="#A8A8A8" width="13.604" height="0.406"/>
	</g>
	<g>
		<rect y="12.183" fill="#A8A8A8" width="12.588" height="0.407"/>
	</g>
	<g>
		<rect y="11.168" fill="#A8A8A8" width="11.572" height="0.406"/>
	</g>
	<g>
		<rect y="10.153" fill="#A8A8A8" width="10.557" height="0.405"/>
	</g>
	<g>
		<rect y="9.138" fill="#A8A8A8" width="9.543" height="0.406"/>
	</g>
	<g>
		<rect y="8.123" fill="#A8A8A8" width="8.527" height="0.405"/>
	</g>
	<g>
		<rect y="7.106" fill="#A8A8A8" width="7.514" height="0.406"/>
	</g>
	<g>
		<rect y="6.092" fill="#A8A8A8" width="6.498" height="0.406"/>
	</g>
	<g>
		<rect y="5.076" fill="#A8A8A8" width="5.482" height="0.406"/>
	</g>
	<g>
		<rect y="4.062" fill="#A8A8A8" width="4.467" height="0.405"/>
	</g>
	<g>
		<rect y="3.047" fill="#A8A8A8" width="3.451" height="0.405"/>
	</g>
	<g>
		<rect y="2.031" fill="#A8A8A8" width="2.436" height="0.406"/>
	</g>
	<g>
		<rect y="1.016" fill="#A8A8A8" width="1.422" height="0.406"/>
	</g>
	<g>
		<rect fill="#A8A8A8" width="0.406" height="0.406"/>
	</g>
</g>
</svg>
