<svg xmlns="http://www.w3.org/2000/svg" viewBox="0 0 50 48"><title>+20 Arrow</title><rect width="50" height="48" style="fill:#009ee3"/><path d="M13,24.53H8.57v-.91H13V18.8h1v4.82h4.44v.91H14v4.83H13Z" style="fill:#303030"/><path d="M20.24,31.33c5-5.12,7.56-8,7.56-10.64a3.09,3.09,0,0,0-3.34-3.4,4.82,4.82,0,0,0-3.58,2l-.69-.67a5.79,5.79,0,0,1,4.37-2.26,4,4,0,0,1,4.32,4.3c0,3-2.79,6-7,10.49.84-.05,1.73-.12,2.57-.12h5.23v1h-9.4Z" style="fill:#303030"/><path d="M31.9,24.27c0-5.09,1.66-7.9,4.58-7.9s4.59,2.81,4.59,7.9-1.66,8-4.59,8S31.9,29.38,31.9,24.27Zm8.09,0c0-4.68-1.37-7-3.51-7s-3.5,2.3-3.5,7,1.39,7.1,3.5,7.1S40,29,40,24.27Z" style="fill:#303030"/></svg>