<svg xmlns="http://www.w3.org/2000/svg" viewBox="0 0 79 64"><title>-50 Arrow</title><polygon points="0 32 29 64 29 56 79 56 79 8 29 8 29 0 0 32" style="fill:#009ee3;fill-rule:evenodd"/><path d="M39.6,33.54h5.28v.94H39.6Z" style="fill:#303030"/><path d="M46.44,38.22l.59-.74a5.53,5.53,0,0,0,4.21,1.87,3.9,3.9,0,0,0,3.81-4.13c0-2.47-1.46-4-3.74-4a4.69,4.69,0,0,0-2.86,1l-.74-.45.55-7.18h7.08v.94H49.22l-.48,5.54a5,5,0,0,1,2.74-.81c2.59,0,4.68,1.48,4.68,4.84a4.88,4.88,0,0,1-4.9,5.12A6.33,6.33,0,0,1,46.44,38.22Z" style="fill:#303030"/><path d="M58.46,32.27c0-5.09,1.66-7.9,4.58-7.9s4.59,2.81,4.59,7.9-1.66,8-4.59,8S58.46,37.38,58.46,32.27Zm8.09,0c0-4.68-1.37-7-3.51-7s-3.5,2.3-3.5,7,1.39,7.1,3.5,7.1S66.55,37,66.55,32.27Z" style="fill:#303030"/></svg>