<svg xmlns="http://www.w3.org/2000/svg" viewBox="0 0 296 117.9"><title>Background-Move-Bed_1</title><path d="M2.39,97.32l.15.26h0l.29.31.43.28h0l.26.12.6.19.67.12.7,0h.36l.72-.08.69-.16.63-.23.55-.29.45-.36.26-.31h0l0-.07.1-.22.06-.19s0,0,0,0v-.26l0-.23L9.31,96l-.12-.2L9,95.6l-.39-.33L8.14,95l-.6-.2-.66-.11-.7,0H5.82l-.71.08-.69.16-.63.22-.55.3-.44.35-.18.2-.14.2-.11.22-.05.19a0,0,0,0,0,0,0s0,0,0,0l0,.23,0,.23Zm5.78-.42-.29.46-.93.5-1.29.21L4.85,98l-.76-.24-.4-.3-.15-.37V97l.28-.46.93-.5,1.29-.21.59,0,.9.24.48.34.15.37ZM3,96.29l.3-.3.43-.28.53-.23.6-.18.64-.11.67,0,.65,0,.59.11.53.17.42.22.3.24.18.26.07.26,0,.17,0,.12-.1.2-.1.1v-.23h0v-.09l0-.09-.14-.33-.4-.42-.8-.37-1.13-.16-.94.08-1.09.34-.65.42-.32.39-.12.32v0h0l0,.18H3v.27l-.1-.11-.09-.15-.06-.26v-.16l0-.13Z" style="fill:#fff"/><path d="M144.41,96.69l0,.23.08.22.13.24h0l.3.34.45.33.55.26.64.2.68.11.72,0,.72,0,.68-.12.63-.2.54-.26.44-.34.24-.28h0l.17-.33.06-.22v-.19a0,0,0,0,0,0,0s0,0,0,0l0-.23-.07-.22-.11-.21-.16-.2-.18-.18-.45-.32-.55-.26-.64-.2-.68-.11-.71,0-.71,0-.68.12-.63.19-.55.27-.44.33-.17.19-.15.21-.1.22,0,.22,0,.19s0,0,0,0Zm5.85.28v0l-.17.38-.8.49-1.24.21-1.16-.14-.74-.31-.38-.33-.12-.35h0l.17-.39.8-.48,1.24-.21L149,96l.73.3.38.34.13.35ZM145,96.26l.23-.29.36-.26.47-.23.56-.18.62-.11.66,0h.33l.64.08.61.14.52.2.43.24.31.28.18.27.07.3,0,.25-.11.22-.09.11V97h0v0h0l0-.18-.19-.42-.44-.41-.83-.39L148,95.34l-1.05.1-.91.32-.51.37-.28.39-.09.41h0v.27l-.1-.12h0L145,97l-.06-.31v-.11Z" style="fill:#fff"/><path d="M286.53,96.71s0,0,0,0l.08.23.1.18,0,0h0l.15.2.39.37.51.31.6.26.67.2.71.11.73,0,.7,0,.67-.12.59-.2.31-.17,0,0,.14-.07h0l.21-.17.22-.25h0l.18-.34.06-.23v-.23l0-.18s0,0,0,0v0l-.08-.22-.12-.22-.15-.19-.4-.37-.51-.32-.6-.26-.66-.19-.71-.11-.72,0-.7,0-.66.12-.6.2-.5.27-.2.16-.18.19-.14.2-.1.21-.06.23v.22l0,.19A0,0,0,0,0,286.53,96.71Zm5.83.3,0,.13-.09.26-.67.46-1.18.21-1-.09-1-.32-.56-.4-.21-.37v-.12l.09-.26.67-.47,1.18-.2,1,.09,1,.32.56.4ZM287,96.23l.16-.27.29-.26.41-.23.52-.17.59-.11.65,0H290l.67.08.63.14.58.2.49.25.38.29.25.29.14.32,0,.1,0,.27-.13.22-.1.1v-.27h0v-.07l0-.15h0s0,0,0,0l0-.09-.24-.4-.47-.42-1-.44-1.31-.19-.91.08-.79.25-.51.34-.27.38-.09.38h0V97l-.1-.11-.07-.13L287,96.6l0-.11Z" style="fill:#fff"/><path d="M296,104.52s0,0,0,0,0,0,0,0l-.47-2,.05-.06.14-.28.1-.29,0-.28v-.12h0l.06-4.36h0l0-.44h0L273.51,4.32h0l-.08-.23-.12-.22-.16-.21-.41-.39-.53-.35-.63-.31-.58-.2V1.58h0s0-.08,0-.08,0-.08,0-.08V1.32h0V1.24l0-.06s0-.07,0-.07L270.86,1l0-.06-.21-.25-.7-.38L269.8.26h0l-.09,0L268.31,0l-.55,0-.46.12-.18,0-.1,0-.24.06-.5.35,0,.06a.15.15,0,0,0-.05.06s0,.06,0,.06l0,.07,0,.07a.49.49,0,0,1,0,.07s0,.07,0,.08,0,.07,0,.08,0,.07,0,.08v.08h0v.58H25.83V1.37h0l0-.14V1.12a.26.26,0,0,1,0-.08l0-.07s0-.07,0-.07a.49.49,0,0,0,0-.07L25.63.76,25.58.69,25.52.63,25.47.57l-.55-.3-.07,0h0l-.1-.05L23.62,0h-.14l-.16,0H23l-.23.06-.52.07L21.94.3l-.11,0-.1.07-.29.12L21,.91,21,1S21,1,21,1a.79.79,0,0,1,0,.09.49.49,0,0,1,0,.07l0,.13h0s0,.06,0,.07v.14h0v.79l-.33.1-.66.28-.58.34-.46.38-.18.21-.14.22-.11.22-.06.2h0L0,96.61H0L0,97H0l.05,4.38h0l0,.23.07.29.11.28.16.27h0l-.39,2a0,0,0,0,0,0,0s0,0,0,0H0l.08,7.31s0,.07,0,.11,0,0,0,.06a.24.24,0,0,0,.17.07H1l.13.25.19.29.21.26.23.22.24.2.26.15.27.11.28.06.25,0h.09l0,2.54h0v0h0v0l0,.13v0l0,.2.25.45.41.37.76.34,1.14.14,1-.12,1-.34.58-.42.32-.42.17-.45h0v-.06s0-.08,0-.09v-.12h0v-1.21H145.09V116h0v.07h0l.08.39.25.44.5.43.88.37,1.14.15h.39l1-.2.74-.37.4-.37.24-.45.05-.32,0-.06v-.07h0v-1.38h83.06a.19.19,0,0,0,.1,0l0,0,0,0,0,0,0-.08v0h0l0,0h0l0,0h0l.66-1.27.06-.11.21-.22.32-.2.4-.16.47-.12.79-.06h25.52l.81.06.76.19.43.19.35.22.28.26,1.1,1.27h0l.05,0,.05,0s0,0,0,.05l.08.06h0l0,0h0l.05,0h20.27l0,1.17h0v.2s0,.09,0,.1v0h0l.09.28.28.43.63.49.93.37,1.17.15h.26l1-.17.63-.3.41-.37.24-.45,0-.2,0-.06h0v-.11h0l0-2.57h.11l.29,0,.27-.07.27-.12.25-.15.24-.2.23-.22.39-.55.12-.23h.79a.26.26,0,0,0,.17-.07s0,0,0,0a.18.18,0,0,0,.05-.12l.11-7.31Zm-2,7.06.09-6.81h1.37l-.1,6.81Zm-6.85,2.59H267l.15-2.1h24.19l-.05,1.39-.09.71Zm-49.86-4.91h25l0,2.41h-25Zm25.3-.5H237.07l-.58,0-.56.1-.5.16-.44.22-.35.29-.23.3v0h0l-.16.3,0-5.67h0s0,0,0,0,0,0,0,0l-.15-1s0,0,0,0l.26-.14.55-.41.22-.23.19-.24.14-.23h0l.46-.86h0l0,0,.21-.19.51-.21.68-.08H262.6l.35,0,.66.15.4.18.28.23.75.86h0l.24.24.55.45.67.4.13.05s0,0,0,.08,0,0,0,0,0,0,0,0l-.09,7.37-.89-1h0l-.16-.16-.38-.28-.47-.24-.52-.19-.57-.12Zm-28.29,4.1-.19.37.08-1.4h0v-.54l.13-.25ZM8.67,114.17H4.74l-.12-2.1h229.1l-.05,1.66,0,.44ZM.6,111.58l-.08-6.81H1.88L2,111.58Zm266.65-7.31-.1-.51h.46l.51.17.9.19.92.13.53,0Zm26.05-.36.09.36h-2.14l.91-.09.9-.19Zm.78.36-.13-.58.29-.14.34-.19.3-.21.24-.2.32,1.32Zm1.28-2.85h0l0,.3-.07.21-.11.21-.11.15h0l0,.06-.19.2-.49.38-.65.32-.34.13-.81.22-.88.13-.69,0,.05-3.9.75,0,.93-.14.86-.23.77-.32.33-.18.3-.21.27-.23.2-.21Zm-4.91,2.37H271.13l.05-3.89H290.5Zm-19.82,0h-.2l-.89-.08-.87-.15-.83-.22-.75-.29-.67-.34-.56-.38-.38-.37,0-3.71.37.3.67.39.76.34.84.27.9.19.92.12.69,0ZM265,101.4l-.27-.3,0-3.63.26.3Zm-.76-.71-.45-.21-.57-.14-.35,0,0-3.88h.1l.66.15.4.18.22.17Zm-1.87-.4H237.62l0-3.88H262.4Zm-25.24,0H237l-.56.12-.42.19,0-3.71.22-.22.51-.2.42,0ZM235,102l-.08.14-.35.39-.47.36-.6.31-.7.25-.78.19-.84.12-.64,0,0-3.9.68,0,.89-.12.83-.2.76-.27.66-.35.55-.41.09-.09ZM2.69,103.91l.73.19.93.14.62,0H2.62Zm230.71-.15h.28l.07.51h-3l.54,0,.88-.12.83-.2Zm-3.33,0H5.58l0-3.89H230.1ZM5,99.88l0,3.9-.68,0-.88-.13-.83-.21-.35-.13L1.69,103l-.51-.37-.2-.2-.09-.12h0l-.06-.08L.7,102l-.09-.21,0-.22v-.19h0l0-3.08.05.06.24.23.27.22.31.21.34.18.78.31.87.23.93.14ZM.85,103l.27.22.31.2.34.19.27.11-.12.6H.57l.26-1.34Zm1.8,8.63-.08-6.81H233.79l-.06,6.81H2.65Zm1.47.49,0,1.22-.26-.09-.33,0h0v-1.09Zm261.55-1.4.83,1,0,2.16-.83-1Zm26.68,2.48-.38.06-.18.06.08-1.2h.49Zm.27-1.57H267.21l.08-6.81h26.16l-.1,6.81ZM266.65,1h.06l0,0,.06,0h0l0,0,.06,0h0l.72-.18-.36.34a0,0,0,0,1,0,0h0a.17.17,0,0,0,0,.07.29.29,0,0,0,0,.09.32.32,0,0,0,0,.09s0,.05,0,.06h0l0,0,.48.32-.46-.11-.49-.33-.12.05s0,0,0-.06l.06-.05h-.05s0-.06,0-.1h0a0,0,0,0,1,0,0s0,0,0-.06h.06l-.22-.14.11,0Zm3.2-.13.42.28h0l.05,0h0l0,0s0,0,0,.07h0s0,0,0,0l0,.05h0l.17.11a0,0,0,0,0,0,0h0l-.23,0,.21.14-.26-.08.19.16-.24-.12-.72.19.35-.35v0l0,0s0-.05,0-.07a.29.29,0,0,0,0-.09.18.18,0,0,0,0-.09s0,0,0-.06h0a0,0,0,0,0,0,0l-.48-.32.29.07Zm.69,3.66-.16,0-.22.16-1.4.3-.95-.09-.93-.32-.37-.33h0v0h0l0,0h0V4.06h0V4l0-1.59a.25.25,0,0,0,.2-.19l.63.31,1.49.2.46,0,1-.25.24-.16,0,1.93h0v.09h0l.06.07h-.07l.12,0,0,0ZM268.06,1h.66v.42h-.61l-.05,0Zm1.16.3V1.21l0,0ZM25,.91h0l.07,0V1l0,0,.05,0,0,.05.11,0,0,.05h0l0,0,0,0h0s0,0,0,0h0s0,0,0,0h0s0,0,0,0,0,0,0,0h-.05l.05,0s0,0,0,.05l-.1,0,.2.14L25,1.36l-.35.24-.49.1.42-.28,0,0s0,0,0,0,0,0,0-.07,0-.05,0-.08a.29.29,0,0,0,0-.09s0,0,0-.07l0,0a0,0,0,0,0,0,0L24.19.6l.35.07ZM23.74,1v.42h-.66V1Zm-1.15.22v.05l0,0Zm-1.3,3.22.08-.07v0h0l0-.12h0l0-1.93.54.28,1.31.17,1.15-.14.86-.34.15-.12V4h0v0h0v0h0s0,0,0,0l0,.06h0l-.52.38-1.55.3H23l-1-.18-.5-.28-.17.1.09-.12h0l.05-.05ZM25.37,1ZM22,.82l.48-.1L22,1s0,0,0,0,0,0,0,0,0,0,0,.07,0,0,0,.08a.24.24,0,0,0,0,.09s0,.05,0,.07l0,0a0,0,0,0,0,0,0l.47.44-.28,0-.58-.28-.16.19.1-.25-.18.16.14-.22-.18,0h0a.24.24,0,0,0,.11-.09l0,0h0s0,0,0,0h0s0,0,0,0h0s0,0,0,0,0,0,0,0h0l.07,0h0l.22-.17ZM18.79,4.45l.12-.31.24-.33.39-.32.52-.3.61-.26.17-.05V4.25h0v0h0a.15.15,0,0,0,0,.06v.11s0,.07,0,.08l0,.08,0,.07,0,.07.05.07.05.07.11.11.72.4,1.27.18,1.11-.14.86-.34.44-.38s0-.06.05-.06l0-.07,0-.07,0-.08,0-.08,0-.12V4.2h0V4h0V2.43H266L266,4s0,0,0,0h0v.24l0,0v0l0,.08,0,.07,0,.08,0,.07.27.3.85.45,1.4.22.65,0,.88-.25.49-.33.05-.06,0-.06s0-.06,0-.07l0-.06,0-.07,0-.07,0-.08,0-.1V4.25h0l0-1.35.07,0,.63.25.53.3.4.32.26.31.15.34,22.35,92.26.05.35,0,.29-.07.21-.11.21-.15.21-.41.39-.57.35-.69.29-.81.21-.88.13-.95.05H270.48l-.88-.08-.88-.15-.82-.22-.76-.29-.67-.34-.55-.38-.46-.42-.75-.86h0l-.38-.3-.49-.23-.58-.14-.59,0H237.4l-.4,0-.56.12-.47.21-.25.2-.16.21h0l-.45.86-.12.19-.35.38-.47.36-.6.31-.7.26-.78.18-.84.12-.9,0H4.81L3.9,99.3,3,99.13l-.76-.25-.64-.32-.51-.37L.93,98l-.16-.21-.12-.2-.09-.21-.05-.22V97l0-.25ZM2.73,113.08l-.2-.08-.4-.28-.19-.18-.34-.47h.63l.08,0,.09,0H3v1.06H2.93Zm5.7,2.79v.1l0,.1-.46.55-1,.43-1.21.15L5,117.11l-.74-.27-.38-.33-.12-.35h0l0-2.12.05,0,.52.26v.06s0,.08,0,.09a.31.31,0,0,0,.07.09h0s0,0,0,0h0a.25.25,0,0,0,.14,0H8.42Zm141.85.16h0l0,.11-.32.49-.85.42-1.18.15-1.06-.14-.74-.32-.4-.36-.13-.36h0v-1.35h4.7Zm85.63-4.23-.51.17-.44.22-.11.09,0-2.19.12-.18.26-.21.36-.18.68-.19.54,0,0,2.4-.35,0Zm28.66.26-.53-.19-.57-.13-.63,0,0-2.41.56,0,.75.19.44.18.35.22.21.19,0,2.28-.12-.09Zm26.82,2.6.06,0,.09,0,0,0h0a.23.23,0,0,0,.07-.07l.06-.18.31-.15.17-.14,0,2.16h0v.05l-.2.38-.75.41-1.14.15-1.09-.15-.91-.37-.45-.38-.18-.33v-.11h0l0-1.18Zm2.59-2.14-.38.34-.2.12-.19.08-.21.06h-.15v-1.06h.74s0,0,.08,0l.08,0h.53Z" style="fill:#fff"/><path d="M7.63,96.88s0-.06,0-.08h0L7,96.07H7s0,0-.06,0,0,0,0,0,0,0,0,0H5.16l0,0-.06,0-.91.72h0s0,0,0,.07a.18.18,0,0,0,0,.09s0,.06,0,.09a.32.32,0,0,0,0,.09h0l.65.72h0a.25.25,0,0,0,.18.08H6.5a.27.27,0,0,0,.15,0l.92-.72h0s0,0,0-.08a.26.26,0,0,0,0-.09S7.64,96.92,7.63,96.88Zm-2.58.54-.15-.16.16-.13v.29Zm.51-.55H6.4v.55H5.56Z" style="fill:#fff"/><path d="M291.85,96.93s0-.06,0-.09,0-.06,0-.08h0l-.95-.71-.05,0s0,0,0,0h-1.66s0,0,0,0,0,0,0,0-.05,0-.06,0h0l-.61.72h0s0,.06,0,.09a.32.32,0,0,0,0,.09s0,0,0,.08,0,.06,0,.08h0l.94.72a.3.3,0,0,0,.15,0H291a.25.25,0,0,0,.18-.08h0l.38-.45h0l.23-.27h0s0-.06,0-.08S291.86,97,291.85,96.93Zm-1,.49h-.07v-.3l.19.15Zm-1.35,0-.06,0v-.51h.84v.55Z" style="fill:#fff"/><path d="M149.72,96.86s0-.06,0-.08h0l-.8-.72,0,0-.05,0h-1.65s0,0,0,0,0,0,0,0l-.06,0-.76.72h0s0,0,0,.07,0,.06,0,.09,0,.06,0,.1,0,0,0,.07h0l.79.72a.27.27,0,0,0,.17.06h1.56a.23.23,0,0,0,.17-.07l.76-.72h0s0-.05,0-.08a.15.15,0,0,0,0-.18Zm-2.2,0h.84v.55h-.84Zm1.34.36v0l0,0Z" style="fill:#fff"/></svg>