<?xml version="1.0" encoding="utf-8"?>
<!-- Generator: Adobe Illustrator 22.1.0, SVG Export Plug-In . SVG Version: 6.00 Build 0)  -->
<svg version="1.1" id="Layer_1" xmlns="http://www.w3.org/2000/svg" xmlns:xlink="http://www.w3.org/1999/xlink" x="0px" y="0px"
	 viewBox="0 0 48 48" style="enable-background:new 0 0 48 48;" xml:space="preserve">
<style type="text/css">
	.st0{fill:#009EE3;}
</style>
<title>Button-Tweak-White</title>
<polygon class="st0" points="31.3,12.3 31.3,10.5 25.8,10.5 25.8,12.3 9,12.3 9,15.6 25.8,15.6 25.8,17.4 31.3,17.4 31.3,15.6 
	39,15.6 39,12.3 "/>
<polygon class="st0" points="23.1,20.5 17.5,20.5 17.5,22.3 9,22.3 9,25.6 17.5,25.6 17.5,27.4 23.1,27.4 23.1,25.6 39,25.6 
	39,22.3 23.1,22.3 "/>
<polygon class="st0" points="30.9,30.6 25.4,30.6 25.4,32.3 9,32.3 9,35.6 25.4,35.6 25.4,37.5 30.9,37.5 30.9,35.6 39,35.6 
	39,32.3 30.9,32.3 "/>
<path class="st0" d="M0,24c0-2.1,0.3-4.3,0.9-6.3c0.6-2,1.4-3.9,2.5-5.7c1-1.8,2.3-3.4,3.8-4.9c1.5-1.5,3.1-2.7,4.9-3.8
	c1.8-1.1,3.7-1.9,5.7-2.4c4.1-1.2,8.5-1.2,12.6,0c2,0.6,3.9,1.4,5.7,2.5c1.8,1.1,3.4,2.3,4.9,3.8c1.5,1.5,2.7,3.1,3.8,4.9
	c1,1.8,1.9,3.7,2.5,5.7c1.2,4.1,1.2,8.5,0,12.7c-0.6,2-1.4,3.9-2.5,5.7c-1,1.8-2.3,3.4-3.8,4.9c-1.5,1.4-3.1,2.7-4.9,3.7
	c-1.8,1.1-3.7,1.9-5.7,2.4c-2,0.6-4.2,0.9-6.3,0.9c-2.1,0-4.3-0.3-6.3-0.9c-2-0.6-3.9-1.4-5.7-2.5c-1.8-1-3.4-2.3-4.9-3.8
	c-1.4-1.5-2.7-3.1-3.8-4.9c-1.1-1.8-1.9-3.7-2.5-5.7C0.3,28.3,0,26.1,0,24z M2.2,24c0,1.9,0.2,3.9,0.8,5.8c0.5,1.8,1.2,3.6,2.2,5.3
	c0.9,1.6,2.1,3.1,3.4,4.4c1.3,1.3,2.8,2.5,4.4,3.4c1.6,1,3.4,1.7,5.2,2.2c3.8,1,7.7,1,11.5,0c1.8-0.5,3.6-1.3,5.2-2.2
	c4.9-2.9,8.5-7.5,10-13c1.1-3.8,1.1-7.7,0-11.5c-0.5-1.8-1.3-3.6-2.2-5.2c-0.9-1.6-2.1-3.1-3.4-4.4c-1.3-1.3-2.8-2.5-4.4-3.4
	c-1.6-1-3.3-1.7-5.1-2.3C25,1.7,20,2,15.5,3.9C13,5.1,10.6,6.6,8.6,8.6c-2,2-3.5,4.3-4.6,6.9C2.8,18.2,2.2,21.1,2.2,24z"/>
</svg>
