<svg xmlns="http://www.w3.org/2000/svg" viewBox="0 0 48 48"><title>Button-Reset-White</title><path d="M14.91,23.6a10,10,0,0,0-.19,1.86,9.06,9.06,0,0,0,.18,1.79A9.67,9.67,0,0,0,15.42,29a10.19,10.19,0,0,0,.86,1.63,9.29,9.29,0,0,0,1.21,1.46,8.91,8.91,0,0,0,3.05,2,9.36,9.36,0,0,0,3.45.66,9,9,0,0,0,1.79-.17,9.1,9.1,0,0,0,1.74-.51,9.5,9.5,0,0,0,1.63-.87A9.77,9.77,0,0,0,30.6,32a8.86,8.86,0,0,0,2-3,9.35,9.35,0,0,0,0-7,9.17,9.17,0,0,0-2.07-3.1,8.89,8.89,0,0,0-3-2A9.66,9.66,0,0,0,24,16.19v5.26l-7.27-7.28L24,6.87v5.35a13.31,13.31,0,0,1,2.5.24,12.68,12.68,0,0,1,2.42.71,13,13,0,0,1,2.29,1.17A12.06,12.06,0,0,1,33.29,16,13.06,13.06,0,0,1,35,18.09a12.64,12.64,0,0,1,1.24,2.32A13.35,13.35,0,0,1,37,22.89a13.6,13.6,0,0,1,.24,2.55A14.15,14.15,0,0,1,37,28a13,13,0,0,1-.72,2.45,14.3,14.3,0,0,1-1.2,2.29,12.56,12.56,0,0,1-1.66,2.07,13.06,13.06,0,0,1-2.09,1.73A14,14,0,0,1,29,37.74a13.25,13.25,0,0,1-2.47.74,13.7,13.7,0,0,1-2.56.24,13.15,13.15,0,0,1-2.5-.24A13.25,13.25,0,0,1,13,32.83a13.37,13.37,0,0,1-1.24-2.33A12.93,12.93,0,0,1,11,28a13.89,13.89,0,0,1-.24-2.57,14.21,14.21,0,0,1,.12-1.84Z" style="fill:#fff"/><path d="M0,24A22.67,22.67,0,0,1,.89,17.7,25.21,25.21,0,0,1,3.35,12,24.71,24.71,0,0,1,7.11,7.09,24.06,24.06,0,0,1,12,3.32,24.33,24.33,0,0,1,17.68.88a23.1,23.1,0,0,1,12.63,0A24,24,0,0,1,36,3.34a24.48,24.48,0,0,1,4.88,3.79A24,24,0,0,1,44.68,12a24.86,24.86,0,0,1,2.45,5.72,23.46,23.46,0,0,1,0,12.66,24.86,24.86,0,0,1-2.45,5.72A24,24,0,0,1,40.91,41,24.66,24.66,0,0,1,36,44.71a24,24,0,0,1-5.72,2.43A23.16,23.16,0,0,1,24,48a22.91,22.91,0,0,1-6.32-.87A24.78,24.78,0,0,1,12,44.68a23.71,23.71,0,0,1-4.86-3.77A24.67,24.67,0,0,1,.89,30.35,22.55,22.55,0,0,1,0,24Zm2.24,0A21.06,21.06,0,0,0,3,29.75,22,22,0,0,0,5.21,35a21.21,21.21,0,0,0,3.42,4.4A22.36,22.36,0,0,0,13,42.75,21.64,21.64,0,0,0,29.72,45a22.36,22.36,0,0,0,5.2-2.21,21.76,21.76,0,0,0,4.41-3.41A22.08,22.08,0,0,0,45,29.75a21.32,21.32,0,0,0,0-11.5,22.37,22.37,0,0,0-2.22-5.19,21.36,21.36,0,0,0-3.43-4.43A22.44,22.44,0,0,0,29.68,3a21.05,21.05,0,0,0-14.13.94A22.07,22.07,0,0,0,4,15.56,21.12,21.12,0,0,0,2.24,24Z" style="fill:#fff"/></svg>