<svg xmlns="http://www.w3.org/2000/svg" viewBox="0 0 48 48"><title>Button-Cancel-White</title><path d="M13,31.72,20.72,24,13,16.28,16.27,13,24,20.72,31.72,13,35,16.26,27.27,24,35,31.73,31.72,35,24,27.28,16.27,35Z" style="fill:#fff"/><path d="M0,24A22.67,22.67,0,0,1,.89,17.7,24.77,24.77,0,0,1,3.35,12,24.08,24.08,0,0,1,7.11,7.1,23.49,23.49,0,0,1,12,3.32,24.33,24.33,0,0,1,17.68.88a23.1,23.1,0,0,1,12.63,0A24,24,0,0,1,36,3.34a24.48,24.48,0,0,1,4.88,3.79A24,24,0,0,1,44.68,12a25.49,25.49,0,0,1,2.45,5.72,23.46,23.46,0,0,1,0,12.66,25.3,25.3,0,0,1-2.45,5.72A23.65,23.65,0,0,1,40.91,41,24.34,24.34,0,0,1,36,44.71a24,24,0,0,1-5.72,2.43A23.16,23.16,0,0,1,24,48a22.91,22.91,0,0,1-6.32-.87A24.78,24.78,0,0,1,12,44.68a23.44,23.44,0,0,1-4.86-3.77,24.88,24.88,0,0,1-3.76-4.86,24.55,24.55,0,0,1-2.46-5.7A22.55,22.55,0,0,1,0,24Zm2.24,0A21.11,21.11,0,0,0,3,29.75,22,22,0,0,0,5.21,35a21.47,21.47,0,0,0,3.42,4.4A22.36,22.36,0,0,0,13,42.75,21.64,21.64,0,0,0,29.72,45,22.07,22.07,0,0,0,45,29.75a21.32,21.32,0,0,0,0-11.5,22.45,22.45,0,0,0-2.22-5.2,21.56,21.56,0,0,0-3.43-4.42,22.65,22.65,0,0,0-4.44-3.42A22.86,22.86,0,0,0,29.68,3a21.05,21.05,0,0,0-14.13.94A22.4,22.4,0,0,0,8.63,8.63,22.07,22.07,0,0,0,4,15.56,21.12,21.12,0,0,0,2.24,24Z" style="fill:#fff"/></svg>