<svg id="Layer_1" data-name="Layer 1" xmlns="http://www.w3.org/2000/svg" viewBox="0 0 120 120"><defs><style>.cls-1{fill:#fff;}</style></defs><title>Speed Test</title><path class="cls-1" d="M102.43,27.38A60,60,0,0,0,10.5,103.71a2.34,2.34,0,0,0,1.94,1,2.31,2.31,0,0,0,1.32-.41,2.33,2.33,0,0,0,.61-3.25q-.54-.79-1.06-1.61L18,96.75a2.34,2.34,0,0,0-2.35-4.06L11,95.4A55,55,0,0,1,4.74,72.14h5.42a2.34,2.34,0,1,0,0-4.68H4.74A54.92,54.92,0,0,1,11,44.2l4.67,2.7a2.32,2.32,0,0,0,1.17.31A2.34,2.34,0,0,0,18,42.84l-4.67-2.7a55.75,55.75,0,0,1,17-17L33,27.8a2.34,2.34,0,1,0,4.06-2.35l-2.7-4.68a54.87,54.87,0,0,1,23.25-6.23V20a2.34,2.34,0,1,0,4.69,0V14.54A54.85,54.85,0,0,1,85.6,20.78l-2.7,4.68A2.35,2.35,0,1,0,87,27.8l2.7-4.67a55.7,55.7,0,0,1,17,17L102,42.84a2.34,2.34,0,1,0,2.34,4.06L109,44.2a54.94,54.94,0,0,1,6.24,23.25h-5.41a2.34,2.34,0,1,0,0,4.68h5.41A55,55,0,0,1,109,95.41l-4.7-2.72A2.34,2.34,0,0,0,102,96.75l4.69,2.71c-.27.42-.54.84-.82,1.26a2.34,2.34,0,1,0,3.88,2.63,60,60,0,0,0-7.32-76Z"/><rect class="cls-1" x="36.41" y="101.23" width="47.18" height="8.98"/><path class="cls-1" d="M71.87,71.71,97.31,48.26,64.23,58.35a12.19,12.19,0,1,0,7.63,13.36ZM53.35,73.46A7.5,7.5,0,1,1,63.6,76.2,7.51,7.51,0,0,1,53.35,73.46Z"/></svg>