<svg xmlns="http://www.w3.org/2000/svg" viewBox="0 0 50 48"><title>Icon-Move-Mat1-20</title><rect width="50" height="48" style="fill:#009ee3"/><path d="M10.88,25.6h5.28v.93H10.88Z" style="fill:#303030"/><path d="M18.08,31.38c5-5.11,7.56-8,7.56-10.63a3.1,3.1,0,0,0-3.34-3.41,4.83,4.83,0,0,0-3.58,2L18,18.69a5.76,5.76,0,0,1,4.37-2.26,4,4,0,0,1,4.32,4.3c0,3-2.79,6-7,10.49.84,0,1.73-.12,2.57-.12h5.23v1h-9.4Z" style="fill:#303030"/><path d="M29.74,24.33c0-5.09,1.66-7.9,4.58-7.9s4.59,2.81,4.59,7.9-1.66,8-4.59,8S29.74,29.44,29.74,24.33Zm8.09,0c0-4.68-1.37-7-3.51-7s-3.5,2.31-3.5,7,1.39,7.1,3.5,7.1S37.83,29,37.83,24.33Z" style="fill:#303030"/></svg>