<svg xmlns="http://www.w3.org/2000/svg" viewBox="0 0 100 50"><title>Icon-Home-UnknownReel</title><path d="M99.91,46.93A50,50,0,0,0,0,50H100C100,49,100,48,99.91,46.93Zm-49.4-25.3a1.51,1.51,0,0,1-2.17,0,1.43,1.43,0,0,1-.46-1.08A1.46,1.46,0,0,1,48,20a1.6,1.6,0,0,1,.34-.49,1.52,1.52,0,0,1,2.18,0A1.48,1.48,0,0,1,51,20.55,1.44,1.44,0,0,1,50.51,21.63ZM54.11,9.8a4.71,4.71,0,0,1-.35.67,4.61,4.61,0,0,1-.44.62,6.55,6.55,0,0,1-.49.56c-.17.18-.35.34-.53.5s-.36.3-.53.45l-.49.45a4.92,4.92,0,0,0-.79.95,2,2,0,0,0-.32,1.09,3,3,0,0,0,.13.91c.05.14.09.27.14.38s.09.22.13.32H48a2.72,2.72,0,0,1-.11-.34c0-.13-.06-.27-.09-.43a3.87,3.87,0,0,1-.06-.46c0-.16,0-.31,0-.46a3,3,0,0,1,.29-1.3,5.3,5.3,0,0,1,.74-1.08c.15-.17.3-.33.46-.49s.32-.33.49-.48l.5-.46.46-.45a5,5,0,0,0,.73-.94,2,2,0,0,0,.3-1.08,1.78,1.78,0,0,0-.22-.91,1.9,1.9,0,0,0-.6-.66,2,2,0,0,0-.4-.23A2.6,2.6,0,0,0,50,6.77a3.69,3.69,0,0,0-.5-.1l-.54,0A4.86,4.86,0,0,0,45.57,8.2V5.5a8.72,8.72,0,0,1,2-.85,7.74,7.74,0,0,1,2.09-.28,6.77,6.77,0,0,1,1.84.24A4.57,4.57,0,0,1,53,5.34a3.57,3.57,0,0,1,1,1.19,3.54,3.54,0,0,1,.37,1.67A3.94,3.94,0,0,1,54.11,9.8Z" style="fill:#b2b2b2;fill-rule:evenodd"/></svg>