<svg xmlns="http://www.w3.org/2000/svg" viewBox="0 0 48 48"><title>Icon-Move-Fan-Hover</title><path d="M48,24A24.43,24.43,0,0,1,33,46.23,24,24,0,0,1,2.22,13.91,24.33,24.33,0,0,1,25.17,0,24.41,24.41,0,0,1,48,24Zm-2.21,0a22,22,0,0,0-16-21,22,22,0,0,0-24.58,10A21.78,21.78,0,0,0,34.38,43.17,22.09,22.09,0,0,0,45.79,24Z" style="fill:#fff"/><path d="M33.29,30.32c3.09.6,6.06.46,7.69-.36a17.39,17.39,0,0,0,.84-8.5c-1,1.7-4.55,2.78-8,3,0-.15,0-.31,0-.46a9.5,9.5,0,0,0-.09-1.31c.42-.24.86-.5,1.28-.79,2.61-1.76,4.61-4,5.18-5.7A17.35,17.35,0,0,0,34.8,9.6c.47,1.94-1.25,5.19-3.52,7.77A10.49,10.49,0,0,0,30,16.18c.13-.48.25-1,.34-1.47.6-3.09.46-6.06-.36-7.69a17.39,17.39,0,0,0-8.5-.84c1.7,1,2.78,4.55,3,8H24a9.36,9.36,0,0,0-1.3.09c-.25-.43-.51-.85-.8-1.27-1.76-2.62-4-4.62-5.7-5.19A17.25,17.25,0,0,0,9.61,13.2c1.93-.47,5.18,1.25,7.76,3.52A10.49,10.49,0,0,0,16.18,18c-.47-.13-1-.25-1.46-.34-3.1-.61-6.07-.46-7.7.36a17.39,17.39,0,0,0-.84,8.5c1-1.7,4.55-2.78,8-3,0,.15,0,.31,0,.46a11.05,11.05,0,0,0,.09,1.3c-.43.25-.85.51-1.27.8-2.62,1.76-4.62,4-5.19,5.69a17.3,17.3,0,0,0,5.42,6.6c-.47-1.93,1.25-5.18,3.52-7.76A11.25,11.25,0,0,0,18,31.82c-.13.47-.24,1-.34,1.46-.6,3.1-.46,6.07.37,7.7a17.24,17.24,0,0,0,8.49.83c-1.7-1-2.78-4.54-3-8H24a11.07,11.07,0,0,0,1.3-.08c.25.43.52.85.8,1.28,1.76,2.61,4,4.61,5.7,5.18a17.35,17.35,0,0,0,6.59-5.42c-1.93.47-5.18-1.25-7.76-3.52A9.76,9.76,0,0,0,31.82,30C32.29,30.11,32.79,30.22,33.29,30.32Zm-9.29.6A6.92,6.92,0,1,1,30.92,24,6.92,6.92,0,0,1,24,30.92Z" style="fill:#009ee2;fill-rule:evenodd"/></svg>