<svg xmlns="http://www.w3.org/2000/svg" viewBox="0 0 79 64"><title>Icon-Move-Mat1-50-Hover</title><polygon points="0 32 29 64 29 56 79 56 79 8 29 8 29 0 0 32" style="fill:#fff;fill-rule:evenodd"/><path d="M39.6,33.6h5.28v.93H39.6Z" style="fill:#009ee3"/><path d="M46.44,38.28l.6-.75a5.46,5.46,0,0,0,4.2,1.88,3.9,3.9,0,0,0,3.81-4.13c0-2.47-1.46-4-3.74-4a4.69,4.69,0,0,0-2.86,1l-.74-.46.55-7.17h7.08v.93H49.22l-.48,5.55a5,5,0,0,1,2.74-.82c2.59,0,4.68,1.49,4.68,4.85a4.88,4.88,0,0,1-4.9,5.11A6.36,6.36,0,0,1,46.44,38.28Z" style="fill:#009ee3"/><path d="M58.46,32.33c0-5.09,1.66-7.9,4.58-7.9s4.59,2.81,4.59,7.9-1.66,8-4.59,8S58.46,37.44,58.46,32.33Zm8.09,0c0-4.68-1.37-7-3.51-7s-3.5,2.31-3.5,7,1.39,7.1,3.5,7.1S66.55,37,66.55,32.33Z" style="fill:#009ee3"/></svg>