<svg xmlns="http://www.w3.org/2000/svg" viewBox="0 0 48 48"><title>Icon-Move-X-Home_1</title><path d="M25.17,0a24.33,24.33,0,0,0-23,13.88A24,24,0,0,0,33,46.23,24.43,24.43,0,0,0,48,24,24.41,24.41,0,0,0,25.17,0Zm9.2,43.14h0A21.77,21.77,0,0,1,5.2,13.08a22,22,0,0,1,24.58-10,22,22,0,0,1,16,21A22.08,22.08,0,0,1,34.37,43.17Z" style="fill:#fff;fill-rule:evenodd"/><path d="M24,7.68l-15,15h4.09V36.32H34.91V22.68H39Zm2.45,23.86-1.34-2.66c-.33-.68-.64-1.34-1-2.14H24c-.31.8-.62,1.46-.91,2.14l-1.26,2.66H18.57l3.75-6.7L18.8,18.49h3.39L23.37,21c.31.6.6,1.28,1,2.1h.09c.31-.82.6-1.5.87-2.1l1.07-2.47h3.25L26.12,25l3.73,6.56Z" style="fill:#fff;fill-rule:evenodd"/></svg>