<svg xmlns="http://www.w3.org/2000/svg" viewBox="0 0 48 48"><title>Icon-Minus-Yellow</title><polygon points="10.6 21.66 37.4 21.66 37.41 26.34 10.59 26.34 10.6 21.66 10.6 21.66" style="fill:#ffc800;fill-rule:evenodd"/><path d="M0,24A23,23,0,0,1,.87,17.7,24.61,24.61,0,0,1,7.08,7.09a24.34,24.34,0,0,1,4.86-3.77A24.86,24.86,0,0,1,17.66.87,23.39,23.39,0,0,1,30.3.87,24.57,24.57,0,0,1,44.68,12a24.83,24.83,0,0,1,2.44,5.72,23.21,23.21,0,0,1,0,12.66,24.83,24.83,0,0,1-2.44,5.72A24.25,24.25,0,0,1,36,44.71a23.79,23.79,0,0,1-5.72,2.43A23.23,23.23,0,0,1,24,48a22.6,22.6,0,0,1-6.32-.88,24.4,24.4,0,0,1-5.72-2.44,24,24,0,0,1-4.86-3.77,24.88,24.88,0,0,1-3.76-4.86,24.52,24.52,0,0,1-2.45-5.7A22.86,22.86,0,0,1,0,24Zm2.2,0A21.06,21.06,0,0,0,3,29.75,22,22,0,0,0,5.19,35a21.5,21.5,0,0,0,3.41,4.4A22.8,22.8,0,0,0,13,42.76,21.73,21.73,0,0,0,18.2,45a21.89,21.89,0,0,0,11.51,0,22.15,22.15,0,0,0,5.2-2.2A22.11,22.11,0,0,0,45,29.75a21.32,21.32,0,0,0,0-11.5,22.45,22.45,0,0,0-2.22-5.2,21.61,21.61,0,0,0-3.44-4.42A22.17,22.17,0,0,0,29.67,3a21.11,21.11,0,0,0-14.15.94A22.07,22.07,0,0,0,3.92,15.56,21.13,21.13,0,0,0,2.2,24Z" style="fill:#fff"/></svg>