<svg id="Layer_1" data-name="Layer 1" xmlns="http://www.w3.org/2000/svg" viewBox="0 0 120 120"><defs><style>.cls-1{fill:#fff;fill-rule:evenodd;}</style></defs><title>Icon-Pause</title><path class="cls-1" d="M45,112.44a7.49,7.49,0,0,1-.58,2.91,7.3,7.3,0,0,1-1.59,2.4,7.88,7.88,0,0,1-2.41,1.64,7.18,7.18,0,0,1-2.91.61H22.43a6.85,6.85,0,0,1-2.86-.61,8,8,0,0,1-2.37-1.64,7.25,7.25,0,0,1-1.6-2.4,7.51,7.51,0,0,1-.58-2.91V7.58a7.52,7.52,0,0,1,.58-2.91,7.2,7.2,0,0,1,1.6-2.39A7.92,7.92,0,0,1,19.57.62,6.71,6.71,0,0,1,22.43,0H37.49a7,7,0,0,1,2.91.62,7.83,7.83,0,0,1,2.41,1.65A7.25,7.25,0,0,1,44.4,4.66,7.5,7.5,0,0,1,45,7.58V112.44Z"/><path class="cls-1" d="M105,112.44h0a7.63,7.63,0,0,1-.57,2.91,7.38,7.38,0,0,1-1.61,2.4,7.77,7.77,0,0,1-2.4,1.64,7.22,7.22,0,0,1-2.91.61h-15a7.13,7.13,0,0,1-2.9-.61,7.76,7.76,0,0,1-2.41-1.64,7.33,7.33,0,0,1-1.6-2.4,7.49,7.49,0,0,1-.57-2.91V7.58a7.49,7.49,0,0,1,.57-2.91,7.28,7.28,0,0,1,1.6-2.39A7.72,7.72,0,0,1,79.6.62,7,7,0,0,1,82.51,0h15a7.07,7.07,0,0,1,2.91.62,7.72,7.72,0,0,1,2.4,1.65,7.33,7.33,0,0,1,1.61,2.39A7.64,7.64,0,0,1,105,7.58V112.44Z"/></svg>