<svg id="Layer_1" data-name="Layer 1" xmlns="http://www.w3.org/2000/svg" viewBox="0 0 120 120"><defs><style>.cls-1{fill:#fff;}</style></defs><title>Icon-Options</title><path class="cls-1" d="M8.44,22.14,7,20.69A1.11,1.11,0,0,1,6.8,20a1,1,0,0,1,.29-.73l4-5.21a.92.92,0,0,1,.67-.24.93.93,0,0,1,.72.34L22.57,24.75,40.9.34A1,1,0,0,1,41.62,0a.87.87,0,0,1,.63.2L46.55,5a1,1,0,0,1,.38.63,1.16,1.16,0,0,1-.19.72L22.57,37.67Zm0,41.29L7,61.93a1.12,1.12,0,0,1-.25-.67,1,1,0,0,1,.29-.72l4-5.17a.78.78,0,0,1,.67-.28,1.31,1.31,0,0,1,.72.28L22.57,66,40.9,41.58a.92.92,0,0,1,1.36-.15l4.29,4.78a1,1,0,0,1,.38.67,1.18,1.18,0,0,1-.19.73L22.57,78.91Zm0,41.09L7,103.07a1.11,1.11,0,0,1-.25-.68,1.05,1.05,0,0,1,.29-.76l4-5.16a.82.82,0,0,1,.67-.24,1,1,0,0,1,.72.29l10.08,10.56L40.9,82.72a1,1,0,0,1,1.36-.19l4.29,4.81a.93.93,0,0,1,.38.68,1.45,1.45,0,0,1-.19.72L22.57,120ZM113.2,27.35h-57V17h57Zm0,41.2h-57V58.17h57Zm0,41.18h-57V99.36h57Z"/></svg>