<svg id="Layer_1" data-name="Layer 1" xmlns="http://www.w3.org/2000/svg" viewBox="0 0 120 120"><defs><style>.cls-1{fill:#fff;}</style></defs><title>Icon-Spanner</title><path class="cls-1" d="M99.53,38.52l17.09-16.68,1.29-.17A26.7,26.7,0,0,1,119,24.54a26.42,26.42,0,0,1,.72,2.89,16,16,0,0,1,.32,3.19A27.07,27.07,0,0,1,117.61,42a27.8,27.8,0,0,1-6.79,9.21,32.6,32.6,0,0,1-10.56,6.26,40.45,40.45,0,0,1-13.72,2.43,22.94,22.94,0,0,1-2.63-.14,13,13,0,0,1-2.69-.62L24.69,114.23A15.34,15.34,0,0,1,20,117.51a11.85,11.85,0,0,1-4.68,1,12,12,0,0,1-5.3-1.23,17.76,17.76,0,0,1-4.71-3.33,20.87,20.87,0,0,1-3.81-5A12,12,0,0,1,0,103.12a9.83,9.83,0,0,1,1.17-4.5,20.84,20.84,0,0,1,3-4.39L60.27,39.17V30.68a28.08,28.08,0,0,1,2.34-11.41A29,29,0,0,1,69,10,30.51,30.51,0,0,1,90.34,1.49a18.67,18.67,0,0,1,3.19.26c1,.18,1.95.36,2.72.55a25.66,25.66,0,0,1,2.63.82l.06,1.4L81.73,21.26,85,35.66ZM11.7,107.21a5.61,5.61,0,0,0,1.94,1.3,5.88,5.88,0,0,0,2.16.4A5.5,5.5,0,0,0,21,105.4a5.85,5.85,0,0,0,0-4.32,5.46,5.46,0,0,0-1.22-1.87,5.52,5.52,0,0,0-4-1.7,5.77,5.77,0,0,0-4,1.63,5.56,5.56,0,0,0-1.7,4,5.46,5.46,0,0,0,.44,2.16A5.68,5.68,0,0,0,11.7,107.21Z"/></svg>