<svg id="Layer_1" data-name="Layer 1" xmlns="http://www.w3.org/2000/svg" viewBox="0 0 120 120"><defs><style>.cls-1{fill:#fff;}</style></defs><title>Icon-HeadParams</title><path class="cls-1" d="M39.24,80.23a2.85,2.85,0,0,0-2.09-.87,3,3,0,0,0-2.09.84,2.87,2.87,0,0,0-.88,2.09,2.81,2.81,0,0,0,.23,1.12,2.93,2.93,0,0,0,.65,1,2.88,2.88,0,0,0,1,.67,3,3,0,0,0,1.11.21,2.83,2.83,0,0,0,2.69-1.81,3,3,0,0,0,0-2.23A2.82,2.82,0,0,0,39.24,80.23Z"/><path class="cls-1" d="M99.12,14.06,95.84,2.32,93.68.11A2.13,2.13,0,0,0,93,0H26.29a1.77,1.77,0,0,0-.72.11L23.44,2.24,20.63,14.06A106.79,106.79,0,0,0,19.27,28l.21,10.78,1.85,13Q22.1,68,23.65,84.25q1.64,17.08,4,34.08A5.46,5.46,0,0,0,32.35,120h54.9a5.36,5.36,0,0,0,4.63-1.62q2.41-17,4.07-34.08,1.46-15,2.28-30l2.25-15.45.24-10.8A90.21,90.21,0,0,0,99.12,14.06ZM89.73,50.7a14.35,14.35,0,0,1-3.5,4.75,16.82,16.82,0,0,1-5.45,3.23,20.85,20.85,0,0,1-7.08,1.26,11.77,11.77,0,0,1-1.36-.07,6.73,6.73,0,0,1-1.39-.32L41.77,88a7.91,7.91,0,0,1-2.42,1.69,6.1,6.1,0,0,1-2.42.52,6.17,6.17,0,0,1-2.73-.64,9.17,9.17,0,0,1-2.43-1.72,10.75,10.75,0,0,1-2-2.58,6.22,6.22,0,0,1-.79-3,5.07,5.07,0,0,1,.6-2.32,10.73,10.73,0,0,1,1.57-2.26L60.14,49.25V44.87A14.49,14.49,0,0,1,61.35,39a15,15,0,0,1,3.31-4.79,15.75,15.75,0,0,1,11-4.39,9.64,9.64,0,0,1,1.65.13c.53.09,1,.19,1.4.29a13.26,13.26,0,0,1,1.36.42l0,.73L71.22,40l1.69,7.43,7.49,1.48,8.82-8.61.66-.09a13.72,13.72,0,0,1,.54,1.48,13.52,13.52,0,0,1,.37,1.49A8.26,8.26,0,0,1,91,44.84,14,14,0,0,1,89.73,50.7Z"/></svg>