<svg xmlns="http://www.w3.org/2000/svg" viewBox="0 0 141 141"><title>Icon-Menu-Grid-Calibration</title><path d="M48,92.42a3.1,3.1,0,0,0-2.26-1,3.27,3.27,0,0,0-2.26.91,3.12,3.12,0,0,0-1,2.27,3,3,0,0,0,.25,1.2,3.26,3.26,0,0,0,1.78,1.77,3.21,3.21,0,0,0,1.21.23,3.15,3.15,0,0,0,3.14-3.17,3.14,3.14,0,0,0-.23-1.21A3,3,0,0,0,48,92.42Z" style="fill:#b2b2b2"/><path d="M112.88,20.73,109.33,8,107,5.62a2.18,2.18,0,0,0-.77-.12H34a1.88,1.88,0,0,0-.78.12L30.9,7.93l-3,12.8a115.29,115.29,0,0,0-1.47,15.06l.22,11.68,2,14.06q.84,17.66,2.52,35.24,1.77,18.51,4.37,36.92a5.92,5.92,0,0,0,5.06,1.77H100a5.8,5.8,0,0,0,5-1.76q2.61-18.39,4.41-36.91,1.59-16.25,2.47-32.55l2.44-16.74.26-11.71A97.72,97.72,0,0,0,112.88,20.73ZM102.71,60.42a15.54,15.54,0,0,1-3.79,5.15A18.23,18.23,0,0,1,93,69.07a22.46,22.46,0,0,1-7.67,1.36,11.85,11.85,0,0,1-1.47-.08A7.39,7.39,0,0,1,82.36,70l-31.6,30.81a8.68,8.68,0,0,1-2.62,1.84,6.56,6.56,0,0,1-5.58-.13,9.82,9.82,0,0,1-2.63-1.87,11.6,11.6,0,0,1-2.13-2.79A6.78,6.78,0,0,1,37,94.61a5.56,5.56,0,0,1,.65-2.52,12.06,12.06,0,0,1,1.71-2.45L70.65,58.85V54.11A15.7,15.7,0,0,1,72,47.73a16.11,16.11,0,0,1,3.58-5.19,17.12,17.12,0,0,1,11.92-4.76,10.46,10.46,0,0,1,1.79.15c.57.1,1.09.2,1.52.31a13.39,13.39,0,0,1,1.47.46l0,.78-9.62,9.36,1.84,8,8.11,1.6,9.56-9.32.72-.1a15.71,15.71,0,0,1,.58,1.6,13.63,13.63,0,0,1,.41,1.62,9.21,9.21,0,0,1,.18,1.79A15.18,15.18,0,0,1,102.71,60.42Z" style="fill:#b2b2b2"/></svg>