<svg xmlns="http://www.w3.org/2000/svg" viewBox="0 0 50.05 50"><title>Icon-Status-Error-Black</title><path d="M45.48,5.69a4.18,4.18,0,0,1,1.68-.42,2.49,2.49,0,0,1,1.28.33,3.18,3.18,0,0,1,.9.89,3.89,3.89,0,0,1,.53,1.23,5.43,5.43,0,0,1,.18,1.37,62.12,62.12,0,0,1-.49,8A51.71,51.71,0,0,1,48.2,24a44.85,44.85,0,0,1-2.05,5.91,45.22,45.22,0,0,1-2.59,5A34.07,34.07,0,0,1,40.64,39a39.26,39.26,0,0,1-3.11,3.35A34.29,34.29,0,0,1,25,50a34,34,0,0,1-12.51-7.67A39.26,39.26,0,0,1,7.91,37a36.44,36.44,0,0,1-4-7.15,48.46,48.46,0,0,1-2.84-9.23A57.18,57.18,0,0,1,0,9.09,4.62,4.62,0,0,1,.21,7.71,3.85,3.85,0,0,1,.78,6.5a3.15,3.15,0,0,1,1-.86A2.52,2.52,0,0,1,3,5.32a3.72,3.72,0,0,1,1.54.37A18.39,18.39,0,0,0,8,6.91,13.31,13.31,0,0,0,11,7.27a9.39,9.39,0,0,0,3.23-.53,13.07,13.07,0,0,0,2.63-1.36,19.26,19.26,0,0,0,2.21-1.74c.68-.63,1.33-1.21,2-1.75A11.47,11.47,0,0,1,23,.54a4.3,4.3,0,0,1,4.17,0,11.08,11.08,0,0,1,1.93,1.35c.65.54,1.3,1.12,2,1.75a19.26,19.26,0,0,0,2.21,1.74,12.48,12.48,0,0,0,2.62,1.36,9.39,9.39,0,0,0,3.23.53A13.14,13.14,0,0,0,42,6.91,18.56,18.56,0,0,0,45.48,5.69Zm-18,25.58L28.8,12.48H21.27l1.34,18.79ZM25,44.09a3.41,3.41,0,0,0,1.45-.32,4,4,0,0,0,1.21-.87,4.33,4.33,0,0,0,.81-4.48,3.92,3.92,0,0,0-2-2.16,3.57,3.57,0,0,0-2.91,0,4,4,0,0,0-1.2.87,4.15,4.15,0,0,0-.81,1.29,4.33,4.33,0,0,0,.81,4.48,3.81,3.81,0,0,0,1.2.87A3.42,3.42,0,0,0,25,44.09Z"/></svg>