<svg id="Layer_1" data-name="Layer 1" xmlns="http://www.w3.org/2000/svg" viewBox="0 0 120 120"><defs><style>.cls-1{fill:#fff;}</style></defs><title>Icon-Settings</title><path class="cls-1" d="M103.26,73.15l-4.55,9.56,10.67,13.82L94.85,110.85,81.74,99.76,71.44,104.4,68.93,120H49.2l-1.34-15-11.1-4.75-13.18,9.3-14-15.06L20.08,82.8,15.38,72.72,0,70.2.43,48.62l16.31-.95,2.79-10.38L10.41,23.89,25.14,10,38.32,20.75l8.37-4.85L49.25,0,69,0l2.85,15.42,9.79,4.73,14.76-8.87,12.23,14.26-8.59,12.19,2.67,9.83L120,50.66l0,20ZM32.18,52.82A27.88,27.88,0,0,0,31.42,64,29.07,29.07,0,0,0,34.9,74.36a27.7,27.7,0,0,0,7,8.2,26.92,26.92,0,0,0,9.94,5.05A27.29,27.29,0,0,0,63,88.37a27.78,27.78,0,0,0,10.17-3.49,29.16,29.16,0,0,0,8.12-7.11,27.21,27.21,0,0,0,5-10.06A27.9,27.9,0,0,0,87,56.42a29.23,29.23,0,0,0-3.45-10.29,28.6,28.6,0,0,0-7-8.23,27.7,27.7,0,0,0-21.06-5.8A28,28,0,0,0,32.18,52.82Z"/></svg>