<svg id="Layer_1" data-name="Layer 1" xmlns="http://www.w3.org/2000/svg" viewBox="0 0 120 120"><defs><style>.cls-1{fill:#fff;}.cls-2{fill:#009ee3;}</style></defs><title>Icon-QuickFill</title><polygon class="cls-1" points="13.06 0.24 2.31 0.24 2.31 19.39 2.31 19.39 2.31 19.39 23.01 39.47 25.68 39.47 25.68 33.15 13.06 21.28 13.06 0.24"/><polygon class="cls-1" points="40.02 0.24 50.77 0.24 50.77 19.39 50.77 19.39 50.77 19.39 30.06 39.47 27.39 39.47 27.39 33.15 40.02 21.28 40.02 0.24"/><polygon class="cls-1" points="79.98 0.24 69.23 0.24 69.23 19.39 69.23 19.39 69.23 19.39 89.93 39.47 92.61 39.47 92.61 33.15 79.98 21.28 79.98 0.24"/><polygon class="cls-1" points="106.94 0.24 117.69 0.24 117.69 19.39 117.69 19.39 117.69 19.39 96.99 39.47 94.31 39.47 94.31 33.15 106.94 21.28 106.94 0.24"/><polygon class="cls-2" points="16.15 0 16.15 20.01 25.47 29.41 25.47 120 27.61 120 27.61 29.41 36.92 20.01 36.92 0 16.15 0"/><polygon class="cls-2" points="90.08 120 96.84 120 96.84 27.11 103.84 20.01 103.84 0 83.07 0 83.07 20.01 90.08 27.11 90.08 120"/></svg>