<svg xmlns="http://www.w3.org/2000/svg" viewBox="0 0 48 48"><title>Icon-Move-Unlock-Hover</title><path d="M25.17,0a24.33,24.33,0,0,0-23,13.88A24,24,0,0,0,33,46.23,24.43,24.43,0,0,0,48,24,24.41,24.41,0,0,0,25.17,0Zm9.2,43.14A21.77,21.77,0,0,1,5.2,13.08a22,22,0,0,1,24.58-10,22,22,0,0,1,16,21A22.08,22.08,0,0,1,34.37,43.17Z" style="fill:#fff"/><path d="M31.24,23.81V34.16H16.75V23.81H28.14V18.06a4.14,4.14,0,0,0-.32-1.62,4.3,4.3,0,0,0-.88-1.32A4.1,4.1,0,0,0,24,13.91a4.09,4.09,0,0,0-1.61.32,4.27,4.27,0,0,0-1.32.89,4.13,4.13,0,0,0-.88,1.32,4,4,0,0,0-.33,1.62v1.61H17.8V18.06A6,6,0,0,1,18,16.4a6.32,6.32,0,0,1,1.6-2.74,5.9,5.9,0,0,1,1.25-1,5.81,5.81,0,0,1,1.49-.63,6,6,0,0,1,3.3,0,6.12,6.12,0,0,1,1.49.63,6.45,6.45,0,0,1,1.25,1,6.61,6.61,0,0,1,1,1.26A5.87,5.87,0,0,1,30,16.4a6.05,6.05,0,0,1,.23,1.66v5.75Z" style="fill:#009ee2"/></svg>