<svg id="Layer_1" data-name="Layer 1" xmlns="http://www.w3.org/2000/svg" viewBox="0 0 120 120"><defs><style>.cls-1{fill:#fff;}</style></defs><title>Icon-Error</title><path class="cls-1" d="M109.05,13.65a9.89,9.89,0,0,1,4-1,5.88,5.88,0,0,1,3.07.8,7,7,0,0,1,2.16,2.13,9.62,9.62,0,0,1,1.27,3,12.54,12.54,0,0,1,.43,3.27,148.49,148.49,0,0,1-1.17,19.13,125.49,125.49,0,0,1-3.28,16.58,106.43,106.43,0,0,1-4.92,14.18,104.26,104.26,0,0,1-6.2,11.93,83.57,83.57,0,0,1-7,9.94,94.15,94.15,0,0,1-7.46,8A82.26,82.26,0,0,1,60,120a81.7,81.7,0,0,1-30-18.4A95.55,95.55,0,0,1,19,88.85,88.26,88.26,0,0,1,9.37,71.69a116.36,116.36,0,0,1-6.8-22.14A137.18,137.18,0,0,1,0,21.81a11.32,11.32,0,0,1,.49-3.29A9.31,9.31,0,0,1,1.87,15.6a7.39,7.39,0,0,1,2.29-2.07,6.17,6.17,0,0,1,3.09-.77,8.89,8.89,0,0,1,3.7.89,44.53,44.53,0,0,0,8.31,2.93,31.58,31.58,0,0,0,7,.87,22.22,22.22,0,0,0,7.75-1.28,30.7,30.7,0,0,0,6.3-3.24,47.12,47.12,0,0,0,5.32-4.2c1.62-1.5,3.19-2.88,4.71-4.2A28.16,28.16,0,0,1,55,1.29a10.36,10.36,0,0,1,10,0,27.2,27.2,0,0,1,4.63,3.24c1.55,1.31,3.12,2.7,4.75,4.2a49.41,49.41,0,0,0,5.31,4.2A29.81,29.81,0,0,0,86,16.16a22.2,22.2,0,0,0,7.74,1.28,31.15,31.15,0,0,0,7-.87A45.59,45.59,0,0,0,109.05,13.65ZM65.87,75,69,30H51L54.21,75ZM60,105.8a8.25,8.25,0,0,0,3.48-.76,9.06,9.06,0,0,0,2.89-2.09,10.37,10.37,0,0,0,1.95-10.74,10.09,10.09,0,0,0-1.95-3.11A9.58,9.58,0,0,0,63.49,87,8.45,8.45,0,0,0,60,86.28,8.55,8.55,0,0,0,56.5,87a9.33,9.33,0,0,0-2.86,2.07,9.59,9.59,0,0,0-1.94,3.11,10.66,10.66,0,0,0,0,7.61,9.81,9.81,0,0,0,1.94,3.13A8.83,8.83,0,0,0,56.5,105,8.35,8.35,0,0,0,60,105.8Z"/></svg>