<svg xmlns="http://www.w3.org/2000/svg" viewBox="0 0 32.31 80"><title>Icon-Head-SingleX</title><polygon points="25.15 0.16 32.31 0.16 32.31 12.93 32.31 12.93 32.31 12.93 23.81 23.99 22.4 23.99 22.4 22.03 16.87 22.03 16.87 20.99 18.07 20.99 25.15 14.19 25.15 0.16" style="fill:#fff"/><polygon points="7.17 0.16 0 0.16 0 12.93 0 12.93 0 12.93 8.5 23.99 9.91 23.99 9.91 22.03 15.44 22.03 15.44 20.99 14.24 20.99 7.17 14.19 7.17 0.16" style="fill:#fff"/><polygon points="9.23 0 9.23 13.34 15.44 19.61 15.44 80 16.87 80 16.87 19.61 23.08 13.34 23.08 0 9.23 0" style="fill:#009ee3"/><polygon points="22.4 22.03 22.4 24.98 17.64 29.81 16.87 29.81 16.87 22.03 22.4 22.03" style="fill:#f200a8"/><polygon points="9.91 22.03 9.91 24.98 14.67 29.81 15.44 29.81 15.44 22.03 9.91 22.03" style="fill:#f200a8"/></svg>