<svg xmlns="http://www.w3.org/2000/svg" viewBox="0 0 48 48.03"><title>Icon_Menu_Back</title><path d="M0,24.05a23.11,23.11,0,0,1,.87-6.34A24.61,24.61,0,0,1,7.08,7.1a24,24,0,0,1,4.86-3.78A24.86,24.86,0,0,1,17.66.87,23.39,23.39,0,0,1,30.3.87,24.31,24.31,0,0,1,36,3.34,24.63,24.63,0,0,1,44.68,12a24.83,24.83,0,0,1,2.44,5.72,23.24,23.24,0,0,1,0,12.67,24.83,24.83,0,0,1-2.44,5.72A23.76,23.76,0,0,1,40.9,41,24.06,24.06,0,0,1,36,44.74a23.79,23.79,0,0,1-5.72,2.43,23.52,23.52,0,0,1-12.64,0,24.86,24.86,0,0,1-5.72-2.45,24.34,24.34,0,0,1-4.86-3.77,24.94,24.94,0,0,1-3.76-4.87,24.52,24.52,0,0,1-2.45-5.7A22.91,22.91,0,0,1,0,24.05Zm2.2,0A21.17,21.17,0,0,0,3,29.77,22,22,0,0,0,8.6,39.38,22.36,22.36,0,0,0,13,42.78,21.75,21.75,0,0,0,18.2,45a21.89,21.89,0,0,0,11.51,0,22.18,22.18,0,0,0,5.2-2.21,21.87,21.87,0,0,0,4.42-3.42A21.53,21.53,0,0,0,42.75,35,21.94,21.94,0,0,0,45,29.77a21.36,21.36,0,0,0,0-11.51,22.45,22.45,0,0,0-2.22-5.2,21.61,21.61,0,0,0-3.44-4.42A22.32,22.32,0,0,0,29.67,3a21.11,21.11,0,0,0-14.15.94A22.13,22.13,0,0,0,3.92,15.57,21.17,21.17,0,0,0,2.2,24Zm18.28-10.7h7.39l-7.78,7.91H37V26.7H20.09l7.78,8H20.48L10.34,24v-.1Z" style="fill:#fff"/></svg>