<svg xmlns="http://www.w3.org/2000/svg" viewBox="0 0 64 99"><title>Icon-Move-Z+10</title><polygon points="32 0 0 29 8 29 8 99 56 99 56 29 64 29 32 0" style="fill:#646464;fill-rule:evenodd"/><path d="M20,61.59H15.57v-.91H20V55.85h1v4.83h4.44v.91H21v4.82H20Z" style="fill:#fff"/><path d="M28.27,68.12h3.6V55.4H29.13v-.72a9.18,9.18,0,0,0,2.95-1H33v14.4h3.34v.93h-8Z" style="fill:#fff"/><path d="M38.9,61.33c0-5.09,1.66-7.9,4.58-7.9s4.59,2.81,4.59,7.9-1.66,8-4.59,8S38.9,66.44,38.9,61.33Zm8.09,0c0-4.68-1.37-7-3.51-7s-3.5,2.31-3.5,7,1.39,7.1,3.5,7.1S47,66,47,61.33Z" style="fill:#fff"/></svg>