<svg xmlns="http://www.w3.org/2000/svg" viewBox="0 0 48 48"><title>Icon-Move-Valve</title><path d="M25.17,0a24.33,24.33,0,0,0-23,13.88A24,24,0,0,0,33,46.23,24.43,24.43,0,0,0,48,24,24.41,24.41,0,0,0,25.17,0Zm9.2,43.14h0A21.77,21.77,0,0,1,5.2,13.08a22,22,0,0,1,24.58-10,22,22,0,0,1,16,21A22.08,22.08,0,0,1,34.37,43.17Z" style="fill:#fff;fill-rule:evenodd"/><polygon points="16.61 17.24 10.71 17.24 10.71 27.75 10.71 27.75 10.71 27.75 22.06 38.76 22.53 38.76 22.53 35.29 16.61 28.78 16.61 17.24" style="fill:#fff;fill-rule:evenodd"/><polygon points="31.39 17.24 37.29 17.24 37.29 27.75 25.93 38.76 25.47 38.76 25.47 35.29 31.39 28.78 31.39 17.24" style="fill:#fff;fill-rule:evenodd"/><polygon points="26.98 20 26.98 9.24 21.01 9.24 21.01 20 21.01 20 24.01 24.83 27 20 26.98 20" style="fill:#009ee2;fill-rule:evenodd"/></svg>