<svg xmlns="http://www.w3.org/2000/svg" viewBox="0 0 40 11.53"><title>Icon-Menu-PIN-White</title><path d="M1.53,10,3.3,6.87,0,5.34.8,2.89l3.57.71L4.78,0H7.37l.42,3.63,3.57-.74.79,2.45L8.82,6.87,10.62,10l-2.07,1.5L6.08,8.85,3.6,11.53Z" style="fill:#fff"/><path d="M15.46,10l1.77-3.16L13.92,5.34l.8-2.45,3.57.71L18.7,0h2.6l.41,3.63,3.57-.74.8,2.45L22.74,6.87,24.54,10l-2.06,1.5L20,8.85l-2.48,2.68Z" style="fill:#fff"/><path d="M29.38,10l1.77-3.16-3.3-1.53.79-2.45,3.57.71L32.63,0h2.59l.41,3.63,3.57-.74L40,5.34,36.67,6.87,38.47,10l-2.07,1.5L33.92,8.85l-2.47,2.68Z" style="fill:#fff"/></svg>