<svg xmlns="http://www.w3.org/2000/svg" viewBox="0 0 89 64"><title>Icon-Move-X+10</title><polygon points="89 32 60 0 60 8 0 8 0 56 60 56 60 64 89 32" style="fill:#646464;fill-rule:evenodd"/><path d="M21.89,32.59H17.45v-.91h4.44V26.85h1v4.83h4.45v.91H22.87v4.82h-1Z" style="fill:#fff"/><path d="M30.15,39.12h3.6V26.4H31v-.72a9.27,9.27,0,0,0,2.95-1h.87v14.4h3.33v.94h-8Z" style="fill:#fff"/><path d="M40.78,32.33c0-5.09,1.66-7.9,4.58-7.9S50,27.24,50,32.33s-1.66,8-4.59,8S40.78,37.44,40.78,32.33Zm8.09,0c0-4.68-1.37-7-3.51-7s-3.5,2.31-3.5,7,1.39,7.1,3.5,7.1S48.87,37,48.87,32.33Z" style="fill:#fff"/></svg>