<svg xmlns="http://www.w3.org/2000/svg" viewBox="0 0 120 120"><title>Icon-Macro-Stuck1</title><path d="M60,0a60,60,0,1,0,60,60A60,60,0,0,0,60,0ZM94.58,21c.07-.08.14-.17.21-.24a3.47,3.47,0,0,1,4.91,0,55.11,55.11,0,0,1,5.86,7c.06.08.11.18.17.27a3.47,3.47,0,0,1-1.27,4.74l-10,5.75A3.47,3.47,0,0,1,90,37.55a37.48,37.48,0,0,0-3.35-3.87,9.81,9.81,0,0,0-2.2-1.7.65.65,0,0,1-.3-.37.68.68,0,0,1,.41-.88A10.33,10.33,0,0,0,89,27.63ZM20.73,20.3a56.55,56.55,0,0,1,7-5.86,1.61,1.61,0,0,1,.28-.17,3.46,3.46,0,0,1,4.73,1.27l5.76,10A3.48,3.48,0,0,1,37.55,30a37.24,37.24,0,0,0-3.88,3.33A10.75,10.75,0,0,0,32,35.56a.76.76,0,0,1-.36.3.7.7,0,0,1-.89-.42A10.37,10.37,0,0,0,27.63,31l-6.69-5.61-.23-.22A3.46,3.46,0,0,1,20.73,20.3Zm-14.59,25a55.57,55.57,0,0,1,3.12-8.57c.05-.1.1-.19.14-.29a3.49,3.49,0,0,1,4.75-1.26l10,5.75a3.47,3.47,0,0,1,1.46,4.37,36.89,36.89,0,0,0-1.69,4.83,10.37,10.37,0,0,0-.37,2.76.66.66,0,0,1-.17.44.7.7,0,0,1-1,.09,10.53,10.53,0,0,0-4.87-2.28L8.88,49.58l-.31-.07A3.47,3.47,0,0,1,6.14,45.25Zm4.08,31.38A3.47,3.47,0,0,1,6,74.15a55.79,55.79,0,0,1-1.58-9c0-.11,0-.22,0-.32a3.47,3.47,0,0,1,3.47-3.47H19.36a3.45,3.45,0,0,1,3.44,3,39,39,0,0,0,1,5,11,11,0,0,0,1,2.57.68.68,0,0,1,.09.46.71.71,0,0,1-.81.57,10.3,10.3,0,0,0-5.36.47l-8.21,3ZM25.41,99.05a2.41,2.41,0,0,1-.21.24,3.47,3.47,0,0,1-4.9,0,55.9,55.9,0,0,1-5.87-7c-.06-.08-.11-.18-.17-.27a3.48,3.48,0,0,1,1.27-4.74l10-5.75a3.47,3.47,0,0,1,4.51.92,36.33,36.33,0,0,0,3.34,3.88,10.35,10.35,0,0,0,2.2,1.7.65.65,0,0,1,.3.37.67.67,0,0,1-.41.88A10.54,10.54,0,0,0,31,92.36Zm53.33-5.86A19.65,19.65,0,0,1,74.89,105l1.64,4.5a2.63,2.63,0,0,1,.09.3A3.47,3.47,0,0,1,74.15,114a57,57,0,0,1-9,1.58h-.32a3.45,3.45,0,0,1-3.42-3.25c-.47,0-1,.08-1.43.08a18.44,18.44,0,0,1-10.13-3l-.29,1.66c0,.11,0,.21-.08.32a3.48,3.48,0,0,1-4.25,2.43,56.63,56.63,0,0,1-8.57-3.12l-.28-.15a3.47,3.47,0,0,1-1.27-4.74l5.75-10a3.42,3.42,0,0,1,.49-.58,20.83,20.83,0,0,1-.11-2.11A19.91,19.91,0,0,1,43.49,84a29.11,29.11,0,0,1,.22-48.14L42.8,13.56h1.77l-1.11-3-.09-.31A3.46,3.46,0,0,1,45.84,6a54.85,54.85,0,0,1,9-1.59h.32a3.46,3.46,0,0,1,3.47,3.46v5.71h11l.83-4.67c0-.11,0-.21.07-.32a3.46,3.46,0,0,1,4.26-2.42,54.43,54.43,0,0,1,8.56,3.12,1.92,1.92,0,0,1,.29.14,3.48,3.48,0,0,1,1.27,4.74l-5.76,10a3.39,3.39,0,0,1-2.4,1.62L76.3,35.86A29.12,29.12,0,0,1,76.51,84,19.91,19.91,0,0,1,78.74,93.19ZM99.26,99.7a55.82,55.82,0,0,1-7,5.86l-.27.17a3.47,3.47,0,0,1-4.74-1.27l-5.75-10A3.45,3.45,0,0,1,82.44,90a37.43,37.43,0,0,0,3.88-3.35A10.63,10.63,0,0,0,88,84.45a.68.68,0,0,1,.36-.31.69.69,0,0,1,.89.42A10.42,10.42,0,0,0,92.36,89l6.69,5.62.24.22A3.47,3.47,0,0,1,99.26,99.7Zm14.59-25a55.45,55.45,0,0,1-3.12,8.56,1.59,1.59,0,0,1-.15.29,3.45,3.45,0,0,1-4.73,1.27l-10-5.75a3.47,3.47,0,0,1-1.45-4.37,37.87,37.87,0,0,0,1.69-4.83,10.31,10.31,0,0,0,.37-2.76.75.75,0,0,1,.16-.45.7.7,0,0,1,1-.08,10.47,10.47,0,0,0,4.88,2.28l8.6,1.51.32.07A3.47,3.47,0,0,1,113.85,74.75Zm-1.71-16.13H100.63a3.48,3.48,0,0,1-3.44-3.06,37.61,37.61,0,0,0-1-5A10.64,10.64,0,0,0,95.18,48a.73.73,0,0,1-.08-.48.7.7,0,0,1,.8-.56,10.34,10.34,0,0,0,5.37-.47l8.2-3,.31-.1A3.47,3.47,0,0,1,114,45.84a55.94,55.94,0,0,1,1.59,9c0,.11,0,.21,0,.32A3.47,3.47,0,0,1,112.14,58.62Z" style="fill:#009ee3;fill-rule:evenodd"/><path d="M47.26,93.19c0-7.39,5.35-13.25,12.74-13.25S72.74,85.8,72.74,93.19,67.39,106.44,60,106.44,47.26,100.58,47.26,93.19Zm2.55-54.78L49,19.56H71l-.77,18.85L67.13,73.83H52.86Z" style="fill:#009ee3"/></svg>