<?xml version="1.0" encoding="utf-8"?>
<!-- Generator: Adobe Illustrator 23.0.0, SVG Export Plug-In . SVG Version: 6.00 Build 0)  -->
<svg version="1.1" id="Layer_1" xmlns="http://www.w3.org/2000/svg" xmlns:xlink="http://www.w3.org/1999/xlink" x="0px" y="0px"
	 viewBox="0 0 240 240" style="enable-background:new 0 0 240 240;" xml:space="preserve">
<style type="text/css">
	.st0{fill:#303030;}
</style>
<g>
	<path class="st0" d="M85.5,163.1c0,4.7-4.2,7.8-10.2,7.8c-5.2,0-8.5-3.9-9.5-7.8c2.5-20.2,27.9-38.9,54.2-38.9
		c26.2,0,51.7,18.7,54.2,38.9c-1,3.9-4.3,7.8-9.5,7.8c-6,0-10.2-3.1-10.2-7.8l-0.5-0.8c-2.8-12.8-17-20.4-34-20.4
		c-17,0-31.1,7.6-34,20.4L85.5,163.1z M107.5,90.8c0,11.5-6.5,20.8-14.6,20.8c-8.1,0-14.6-9.3-14.6-20.8L95,70.2
		C102.1,71.7,107.5,80.3,107.5,90.8z M132.5,90.8c0-10.5,5.4-19.2,12.5-20.6l16.7,20.6c0,11.5-6.5,20.8-14.6,20.8
		C139,111.7,132.5,102.3,132.5,90.8z"/>
	<path class="st0" d="M120,33.6c23.1,0,44.8,9,61.1,25.3c16.3,16.3,25.3,38,25.3,61.1c0,23.1-9,44.8-25.3,61.1
		c-16.3,16.3-38,25.3-61.1,25.3c-23.1,0-44.8-9-61.1-25.3c-16.3-16.3-25.3-38-25.3-61.1c0-23.1,9-44.7,25.3-61.1
		C75.2,42.6,96.9,33.6,120,33.6 M120,20C64.8,20,20,64.8,20,120c0,55.2,44.8,100,100,100c55.2,0,100-44.8,100-100
		C220,64.8,175.2,20,120,20L120,20z"/>
</g>
</svg>
