<svg xmlns="http://www.w3.org/2000/svg" viewBox="0 0 42 64"><title>Icon-Move-Head-Outline_1</title><path d="M42,23.91h0L41.9,20h0V20h0v-.1s0,0,0,0v-.06l0-.07h0s0,0,0,0h0s0,0,0,0l-.46-.93s0,0,0,0l0-2.22.46-3.89h0v0h0V7.24h0V7.11h0l-.24-2.9s0,0,0,0h0V4.11h0s0,0,0-.06l0,0h-.07a0,0,0,0,1,0,0V4h0l0,0V3.88h0v0h0l0-.23-.16-.86-.12-.26h0v0l-1-1.23h0l-1-1.06-.05,0s0,0,0,0h-.22V.12h0s0,0,0,.07l0-.16h-.24L32.05,0h0l-.38.05-.35.16L31,.46,30.8.78l-.09.27-2.56.1h-.07l-5.56.06h-3l-4.91-.05h-.66L11.4,1.06l-.11-.3L11.07.44,10.77.2,10.42.05l-.36,0h0L3.61.05h-.5l-.06,0s0,0,0,0l0,0L1.92,1.2h0L.79,2.44s0,0,0,0h0L.69,2.6l-.16.62L.14,7.1h0v.13h0v5.33h0v0h0l.5,4.19v1h0l0,1-.47.89h0s0,0,0,0,0,0,0,0a.19.19,0,0,1,0,.07V20L0,23.91v7.65a.76.76,0,0,1,0,.11l.06.08.06,0,.06,0H.3l.87.08.49,7.23h0l.54,6.22.67,6.48.66,5.47s0,0,0,0,0,0,0,0a.2.2,0,0,0,.05.09l0,.06.08,0,.16.07L5,57.76l.28,1h0a.79.79,0,0,0,0,.09l0,.09.29.26.66.26.8.1h0l4.48,0v.17h0v0a.31.31,0,0,0,0,.1s0,0,0,0a.24.24,0,0,0,.16.07h.27v.09h0s0,.07,0,.09l.05.08,0,.06.05,0,.06,0,.08,0,.06,0,.4,0v.73h0v.08h0a.06.06,0,0,0,0,0s0,0,0,0h0v.07s0,.05,0,.06h0s0,0,0,.05,0,0,0,0l1.84,2.17h0a.69.69,0,0,0,.42.16h.3a1.23,1.23,0,0,0,.71-.16s0,0,0,0h0l1.8-2.15,0,0h0s0,0,0,0a.26.26,0,0,0,.05-.12v-.31h0V61.1h0v-.25L24,60.13l.07,0,.06,0,.41,0,.05.45s0,0,0,0v0h0v.14h0s0,0,0,.07h0a.31.31,0,0,0,0,.08h0s0,0,0,0,0,0,0,0L27,63.24s0,0,.05,0l0,0,.08,0h.4l.12,0h.12l.07,0,.06,0,.06,0,.05,0h0l0,0,1.76-2.61a.22.22,0,0,0,0-.16v0h0v0h0v0h0v-.1h0v-.09h0l0-.16h0l0-.21h0v0l.23-.07h0l4.94,0h0l.81-.11.57-.21.33-.26.12-.22h0l.26-1,.63,0,.54-.14.07,0,.08-.06.06-.07a.36.36,0,0,0,0-.09h0l.66-5.47.68-6.47h0l0-.23V45h0v-.1l0-.08,0-.1v-.29l-.17,0v0h.17l-.16,0v0h.16v-.26l-.15,0v0l.16,0v-.09l-.15,0v0l.15,0v-.1l-.15,0v0l.15,0v-.41l-.15,0v0l.16,0V43h0s0-.05,0-.08h0s0,0,0,0h0a.15.15,0,0,0,0-.09h.07l-.1,0s0,0,0,0h0l.14,0-.14,0v0l.15,0-.14,0v0H40l-.14,0v0H40l-.13,0v0H40v-.09l-.13,0v0H40l0-.1-.14,0v0H40l-.13,0v0H40v-.08l-.13,0v0h.13v-.07l-.13,0v0h.14v-.08l-.12,0,0,0h.1l-.08,0,0,0h.07v-.06h0l0,0a.17.17,0,0,0,0-.06l0-.07s0,0,0-.06h0l.15-1.86h0l.22-2.93.31-4.89h0s0,0,0,0,0,0,0,0l.12-.06.56-.05h0l.08,0h0a.23.23,0,0,0,.16-.18v-.07l0-.05v-.2s0,0,0-.06h0V29.43l0-1.95v-.11h0ZM41,30.7H41l-1.28.16.11-.94h0l.37-2.49a.28.28,0,0,0-.06-.18l.38-3.13a.22.22,0,0,0,.08-.15L41,20.11l.07,0v0l0,0h0l0,.06h.07l.08,0V20h.06l0,.05.06,0h0v0h0v.06h0l.1,3.82V27.2a.23.23,0,0,0-.07.17l0,2.11-.07,1.19ZM37.61,48.58h0l-.14,1-.31,1.58-.3,1.13-.43,1.2-.25.44-.53.82-.58.7-.61.6-.63.5-.69.4-.69.26-.69.14h-.41l-2.13,0H21l-6.31,0h0l-3,0H10l-.89-.28-.59-.31-.65-.46-.65-.58-.55-.61-.53-.74-.53-.88-.5-1.49L4.78,51l-.22-1.15-.17-1.25h0L3.79,43l.83,6h0l.23,1.26.28,1.07.35,1,.42.95h0l.49.91.5.74.51.61.6.59.6.46.54.31h0l.16.08.61.21.59.08h0l10.48,0H31.62l.52-.09.51-.17.52-.26.51-.34h0L34,56l.57-.55.55-.65.51-.77.47-.85h0l.27-.6.23-.57L37,51l.25-1,.18-1.05h0l.78-5.67ZM30,59.09l-.58.09.57-.11H30v0H30Zm-5.75.6,0,0s0,0,0,0v0l.83.06,1.61-.11-1.32.19Zm-8.43,1.07,1.64-.08.29,0v.46l-.46.29-.65.16-.82-.27ZM6.06,57.37l-.34-2.63.53.73.58.65.69.61.69.49.32.17Zm1.25,1.06-.08-.57,2.68,0h1.24l0,.24v.2a.14.14,0,0,1,0,.06l0,0s0,0,0,0ZM12,58.06l2.55-.14L21,58h0l9.36-.1,0,.67-7.83.66h-.06l0,.24-.13-.24,0,.24-.12-.23h-.1l0,.25-.1-.24H22l-1.48.08h-.09v0a.2.2,0,0,0-.08,0v0a.15.15,0,0,0,0,.11l-.05-.17,0,.24-.06-.24H20l-7.88.16ZM18.5,60h0v.06h0s0,0,0,0L18.43,60l-.58.06.65-.13Zm.41.28,0-.07a.14.14,0,0,0,0-.06v0s0,0,0,0,0,0,0,0h0v-.2l1.07,0h.06v-.24l.12.24h.1v-.18a.28.28,0,0,0,.08.11l0,.06h.14L22,59.73l0-.25.06.24h.09l0-.25.06.24h.11l0-.24.07.24h.06l.55,0h.55v0l-4.78.59Zm8.52.13,0-.34L29,59.87l.27-.08,0,.23-.5.38-.68.18Zm3.43-1.94,0-.54.52,0h.14v-.06a.36.36,0,0,0,0-.09l0,.15h.1v0a.19.19,0,0,0,.08,0h0l3.06,0-.08.57Zm2.58-1.08L34.1,57h0l.34-.25.65-.58.63-.69.54-.73-.34,2.61Zm-33-26v0a.28.28,0,0,0,.05-.16.19.19,0,0,0-.05-.1V23.91L.6,20H.67v0H.74V20l.09,0H.88l.06,0,.08,0,0,.3h0L1.43,24h0l.65,5.52h0l.19,1.73a.21.21,0,0,0,.09.15v.1H2.32a.19.19,0,0,0-.12.07ZM.61,8.63.85,9l.46.48.53.43.6.39.66.34.76.3.79.22.77.15h.07l0,0,0,0h.23L21,11.21l15.1,0h0l1.15-.1h0l.81-.22.81-.32.78-.4.65-.45.56-.49.46-.54.06-.09v3.93l-2,17.31h0L38.11,40l-.88.24-3.06.27s-.05,0-.08,0v0l-.07,0v-.08l0,.17a.22.22,0,0,0-.05-.11v0a.11.11,0,0,0-.08,0v0H32.66a.25.25,0,0,0,0,.49h1.12v0h.41l2.27-.16,1.31-.21.27-.08L37,48.38v0s0,0,0,0l-.06.41h0l-.18,1-.23,1-.35,1L35.65,53l-.22.42L35,54.2l-.5.67-.52.56-.55.47-.23.17-.46.27-.45.19-.45.11-.45,0H21l-10.46,0-.5-.06-.66-.25h0l-.49-.28-.56-.43-.56-.55-.48-.57-.47-.71L6.34,53l-.41-.92-.34-1-.27-1L5.1,48.87h0L5,48.42H5L3.94,40.57l.52.15L7.8,41H9.3V41l0,0,0,.09h0a.23.23,0,0,0,.23-.24.26.26,0,0,0-.26-.25H8.21l-.39,0h0l-2-.14-1.41-.2-.46-.15,0,0-1-8.21h0a0,0,0,0,0,0,0L.61,12.56ZM39.3,42.82h0l-.06.7-.13-.32h0l0-.22,0-.2.29-.5ZM36.76,9.75l-.69.1L21,9.79h0L5.79,9.86H5.72v0l0,0L5.38,9.8,4.19,9.36l-1-.62-.7-.67-.43-.62-.27-.63-.08-.56V6.14h0l.14-1.9.19-1.75.14-.71,0-.06,11.68-.08h.61l5.36.05h.91a.25.25,0,0,0,.21.16h0a.21.21,0,0,0,.2-.16h1.46l5.43-.06,11.67.08.07.22.4,4.19h0v.1l0,.32L40,7.31l-.51.75-.71.68-1,.62ZM3.55.53h2l-.35,0L4.94.65a.52.52,0,0,0-.11.1.29.29,0,0,0,0,.3.24.24,0,0,0,.1.1l.23.07H2.63L3.31.48h0l0,.05h.1V.46l.1,0Zm34.94,0h.12V.48L38.69.4l0,.13,0-.15v0s0,0,0,.06l0,0h0V.54h0l.59.7H36.94l.19-.07A.43.43,0,0,0,37.24,1a.3.3,0,0,0,0-.3L37.13.65,36.9.56,36.3.51ZM32,1l.18-.24.25-.09,2,.12.82.07Zm-.53,0,0,.06H31.4l0-.06.14-.11ZM10.59,1,10.51.84l.21.19h-.13Zm-1-.36L10,.86,10,1,6.74.89ZM.76,5.3,1,3.59l.14-.68.08-.16.46-.47,0,.13-.34,3.7h0v.41l.19.73L1.84,8l.67.8.85.67,1.1.57,1.12.33h.21L21,10.28l15.09.05h0l.82-.11h0l.64-.22,1.08-.56.85-.67L40,8.1l.42-.72.2-.58.06-.56V6.12h0l0-.69-.23-2.64-.07-.52.49.5.22,1.14h0v.27h0s0,0,0,.07l.24,2.87h0v.11l0,.29L41.2,8l-.28.48-.41.48L40,9.38l-.6.41-.73.38-.76.3-.77.21-1.05.1-15.1,0h0l-15.2.06H5.52v0l0,0-.36-.06-.74-.17-.74-.26L3,10l-.59-.33-.52-.39-.46-.41-.36-.44L.79,8,.65,7.57l0-.32V7.13h0ZM4,57.16l-.65-5.38-.68-6.47L2.13,39.1h0l-.21-2.93L1.65,32l.49.05L3,40l.89,8.69h0l.08.65.2,1.23.26,1.13.31,1.07.35,1,.46,3.65L4.2,57.22Zm2.25,1.76-.36-.17-.13-.16-.22-.78.31,0h.77l.25.89,0,.06,0,.05H7a.24.24,0,0,0,.14,0h0l4.47,0v.14l-4.43,0H7ZM12.62,60v0h.05l2.85.21,2.12-.11-2.11.21-1.82-.09L12.64,60Zm2.67.73v.54l-.2.11-.6.14h-.18l-.92-.45v-.53Zm-.12,2.73L13.84,61.9l.66.12.25,0,.77-.3.46.21.61.11.52-.07.24-.13L16,63.47A1.91,1.91,0,0,1,15.17,63.48Zm10.11-3.21,1.63-.17,0,.36-.29.18L26,60.8l-1-.35,0-.21Zm2.16,2.57v.24l-.07-.23V63s0,0,0-.06l0-.13v0h0l-1.78-1.7.51.1.47-.07.72-.37.17.07.75.14.62-.1.3-.21-1.38,2h0l0,0s0,0,0,0l0-.08V63l-.07-.2v.24Zm.16.21h0Zm8.71-4.47-.47.31-.91.15h0l-4.43.05h0V59h.16s0,0,.07,0l.07,0,4.18,0h0a.29.29,0,0,0,.13,0l0,0s0,0,0,0a.1.1,0,0,0,0-.07l.24-.88h.71l.38,0Zm2.34-6.81L38,57.13l-1.58.18.46-3.62.44-1.22.31-1.16.23-1.07.22-1.61h0l.53-5.14.34.73.39.8h0l0,0,0,.23h0ZM39.87,39.1h0l-.14,1.81,0,0-1,1.2.33-3.27.73-7.54h0l.58-.07v0h0Z" style="fill:#fff"/></svg>