<svg xmlns="http://www.w3.org/2000/svg" viewBox="0 0 81.26 250.17"><defs><style>.cls-1{fill:#303030;}</style></defs><title>Icon-NoUSB</title><g id="Layer_2" data-name="Layer 2"><g id="Layer_1-2" data-name="Layer 1"><path class="cls-1" d="M70.65,0h-60V50.51h60ZM31.52,19.49H19.41V10.41H31.52Zm16.53.15V10.56H60.16v9.08Z"/><path class="cls-1" d="M81.26,98.83V57H0V98.82c0,7.44,3.9,28.07,9.77,38.68A8.95,8.95,0,0,0,16,150v28.66H29.83v71.54H48.51V178.63H61.88V150.19h.59a9,9,0,0,0,9-9A8.86,8.86,0,0,0,70.4,137C76.87,126.29,81.26,106.71,81.26,98.83Zm-16.69,16-6.78,6.78L40.63,104.5,23.46,121.66l-6.78-6.78L33.85,97.72,16.68,80.55l6.78-6.78L40.63,90.93,57.79,73.77l6.78,6.78L47.41,97.72Z"/></g></g></svg>