<svg id="Layer_1" data-name="Layer 1" xmlns="http://www.w3.org/2000/svg" viewBox="0 0 120 120"><defs><style>.cls-1{fill:#fff;}</style></defs><title>Icon-HeadChange</title><path class="cls-1" d="M99.12,14.06,95.84,2.32,93.68.11A2.11,2.11,0,0,0,93,0H26.29a1.76,1.76,0,0,0-.72.11L23.44,2.24,20.63,14.06A106.79,106.79,0,0,0,19.27,28l.21,10.78,1.85,13Q22.1,68,23.65,84.25q1.64,17.08,4,34.08A5.46,5.46,0,0,0,32.35,120h54.9a5.36,5.36,0,0,0,4.63-1.62q2.41-17,4.07-34.07,1.46-15,2.28-30l2.25-15.45.24-10.8A90.2,90.2,0,0,0,99.12,14.06ZM86.34,69.77A31.9,31.9,0,0,1,83,75.65a30.12,30.12,0,0,1-4.48,4.92,28.86,28.86,0,0,1-5.38,3.76A28,28,0,0,1,67,86.73a25.62,25.62,0,0,1-6.59.85,24.9,24.9,0,0,1-5.89-.69,26.82,26.82,0,0,1-5.48-1.94,27.6,27.6,0,0,1-5-3.07,28.54,28.54,0,0,1-4.28-4L30,87.71V63.13h24.6L44.88,72.8a19.83,19.83,0,0,0,6.94,4.9,22.65,22.65,0,0,0,15.69.59,20,20,0,0,0,6.07-3.23,19.66,19.66,0,0,0,7.21-11.93h7.61A30.52,30.52,0,0,1,86.34,69.77ZM90,52.22H65.47l9.64-9.49a19.7,19.7,0,0,0-7-5.13,22.32,22.32,0,0,0-15.81-.65,20.33,20.33,0,0,0-6.07,3.29,19.73,19.73,0,0,0-4.6,5.17A20,20,0,0,0,39,52.22H31.4a30.73,30.73,0,0,1,2.06-6.64,31.67,31.67,0,0,1,3.38-5.9,32,32,0,0,1,4.48-4.94,28.74,28.74,0,0,1,5.37-3.8,27.07,27.07,0,0,1,6.08-2.43,25.49,25.49,0,0,1,6.56-.85,24.89,24.89,0,0,1,6,.72,26.69,26.69,0,0,1,5.56,2,28.06,28.06,0,0,1,5,3.16,29.37,29.37,0,0,1,4.31,4.17L90,28Z"/></svg>