<svg xmlns="http://www.w3.org/2000/svg" viewBox="0 0 27.15 40"><title>Icon-Menu-Remove-White</title><path d="M26.61,4.69,25.52.77,24.8,0a.61.61,0,0,0-.24,0H2.34A.49.49,0,0,0,2.1,0L1.39.75.45,4.69A35.92,35.92,0,0,0,0,9.32l.07,3.59.61,4.33q.27,5.43.78,10.84Q2,33.78,2.8,39.44A1.83,1.83,0,0,0,4.36,40h18.3a1.8,1.8,0,0,0,1.54-.54q.81-5.67,1.36-11.36.5-5,.76-10l.75-5.15.08-3.6A30,30,0,0,0,26.61,4.69ZM22.36,23.26a11.44,11.44,0,0,1-1.12,2,10.15,10.15,0,0,1-1.5,1.64,9.39,9.39,0,0,1-3.81,2.05,8.56,8.56,0,0,1-2.2.28,8.1,8.1,0,0,1-2-.23,8.4,8.4,0,0,1-1.82-.65,8.93,8.93,0,0,1-1.66-1,9.54,9.54,0,0,1-1.42-1.35l-3.3,3.3V21h8.2L8.54,24.27a6.55,6.55,0,0,0,2.31,1.63,7.26,7.26,0,0,0,2.88.57,7.36,7.36,0,0,0,2.35-.37,6.77,6.77,0,0,0,2-1.08,6.61,6.61,0,0,0,1.53-1.71A6.54,6.54,0,0,0,20.5,21H23A10.8,10.8,0,0,1,22.36,23.26Zm1.23-5.85H15.4l3.21-3.17a6.55,6.55,0,0,0-2.32-1.71,7.39,7.39,0,0,0-2.94-.59,7.09,7.09,0,0,0-2.34.38,6.8,6.8,0,0,0-2,1.09,6.7,6.7,0,0,0-1.53,1.73,6.54,6.54,0,0,0-.87,2.27H4a10.59,10.59,0,0,1,.69-2.22,10.94,10.94,0,0,1,1.13-2,10.56,10.56,0,0,1,1.49-1.64,9.55,9.55,0,0,1,1.79-1.27,9,9,0,0,1,2-.81,8.42,8.42,0,0,1,2.18-.29,8.3,8.3,0,0,1,2,.24,8.62,8.62,0,0,1,1.86.68,9.66,9.66,0,0,1,1.66,1,10.5,10.5,0,0,1,1.44,1.39l3.28-3.24Z" style="fill:#fff"/></svg>