<svg xmlns="http://www.w3.org/2000/svg" viewBox="0 0 47.52 70"><title>Icon-Head-Change-Grey</title><path d="M46.58,8.2,44.67,1.35,43.4.06A1.4,1.4,0,0,0,43,0H4.09a1.19,1.19,0,0,0-.42.06L2.43,1.31.79,8.2A63.07,63.07,0,0,0,0,16.31L.12,22.6,1.2,30.17q.45,9.51,1.35,19,1,10,2.36,19.88a3.2,3.2,0,0,0,2.72,1h32a3.14,3.14,0,0,0,2.7-1q1.39-9.9,2.37-19.88.85-8.74,1.33-17.52l1.32-9,.14-6.3A53.87,53.87,0,0,0,46.58,8.2ZM39.12,40.7a18.37,18.37,0,0,1-2,3.43A17.36,17.36,0,0,1,34.55,47a16.39,16.39,0,0,1-3.14,2.19,16.22,16.22,0,0,1-3.54,1.4,15,15,0,0,1-3.85.5,14.5,14.5,0,0,1-3.43-.41,15.39,15.39,0,0,1-3.2-1.13,15.77,15.77,0,0,1-2.89-1.79A16.38,16.38,0,0,1,12,45.4L6.23,51.16V36.83H20.58l-5.64,5.64a11.63,11.63,0,0,0,4,2.85,12.62,12.62,0,0,0,5,1,12.83,12.83,0,0,0,4.12-.65,11.61,11.61,0,0,0,3.54-1.89,11.28,11.28,0,0,0,2.67-3,11.68,11.68,0,0,0,1.53-4h4.44A18.12,18.12,0,0,1,39.12,40.7Zm2.16-10.24H27l5.62-5.54a11.63,11.63,0,0,0-4.07-3,13.12,13.12,0,0,0-9.23-.38,12,12,0,0,0-3.53,1.92,11.43,11.43,0,0,0-2.68,3,11.61,11.61,0,0,0-1.53,4H7.08a17.74,17.74,0,0,1,1.2-3.87,18.58,18.58,0,0,1,2-3.45,19.34,19.34,0,0,1,2.61-2.88A16.8,16.8,0,0,1,16,18a15.87,15.87,0,0,1,3.55-1.42,15,15,0,0,1,3.83-.5,14.58,14.58,0,0,1,3.5.42,15.88,15.88,0,0,1,3.24,1.18A16.45,16.45,0,0,1,33,19.57,17,17,0,0,1,35.54,22l5.74-5.67Z" style="fill:#b2b2b2"/></svg>