<svg xmlns="http://www.w3.org/2000/svg" viewBox="0 0 141 141"><title>Icon-Menu-Grid-Maintenance-Inverse</title><path d="M125.43,80.62,84.14,72.41c1-2.3.72-20.73-9.55-25L59,40.86l1.78-4.26,4.73,2c1.72.73,4.18-1.23,4.89-3S70.74,30.76,69,30L57.58,25.26c-1.72-.72-4.18,1.24-4.9,3S52.3,33.07,54,33.79l2.44,1-1.78,4.27L37.17,31.76c-2.3-1-4.12-.82-5.09,1.47l-1.43,3.43c-8.74-3-19.88,1.22-23.78,10.54s.9,20.25,9.22,24.32l-1.37,3.3c-1,2.3-1.22,7.15,1.07,8.1l48.86,20.41c2.3,1,6.52.12,9.6-1l51.39-15.62ZM18.77,65.11c-8.32-4-7.89-9.45-5.48-15.23S19.24,40,28,43.08Z" style="fill:#fff"/><path d="M135.5,106.66v1.07c-.06.2,0,.47-.08.68-.3,3.49-2.57,6.67-5.21,7.28a2.83,2.83,0,0,1-.85.19h-1a3.26,3.26,0,0,1-.86-.2c-2.84-.65-5.16-4.25-5.3-8v-1.1a13.48,13.48,0,0,1,.44-2.19,16.2,16.2,0,0,1,.71-1.64l.83-1.5a47.75,47.75,0,0,0,4.75-9.48l.33.94a28.62,28.62,0,0,0,4.37,8.87c.19.36.39.71.62,1.06a18.65,18.65,0,0,1,.91,2.08A11,11,0,0,1,135.5,106.66Z" style="fill:#fff"/></svg>