<svg id="Layer_1" data-name="Layer 1" xmlns="http://www.w3.org/2000/svg" viewBox="0 0 120 120"><defs><style>.cls-1{fill:#fff;}</style></defs><title>Icon-Border</title><path class="cls-1" d="M120,60c0,24.08-15.29,46.43-37.47,55.61-22.72,9.4-49,3.39-65.89-14.31A59.86,59.86,0,0,1,5.55,34.77C15.78,13,38.82-1.12,62.93.07,94.15,1.6,120,28.76,120,60Zm-5.52.08c0-24.22-16.76-45.91-40-52.44C50.92,1,25.36,11.8,13,32.7a54.36,54.36,0,0,0,8.6,65.82c17,16.82,43.31,21,64.33,9.39A55.17,55.17,0,0,0,114.48,60.06Z"/></svg>