<svg xmlns="http://www.w3.org/2000/svg" viewBox="0 0 124.55 120"><title>Icon-Macro-Clean</title><polygon points="27.64 19.14 0.01 19.14 0.01 68.4 0 68.4 0.01 68.4 53.21 120 55.4 120 55.4 103.76 27.64 73.23 27.64 19.14" style="fill:#009ee3"/><polygon points="96.92 19.14 124.56 19.14 124.56 68.4 124.56 68.4 124.56 68.4 71.34 120 69.16 120 69.16 103.76 96.92 73.23 96.92 19.14" style="fill:#009ee3"/><polygon points="76.26 50.43 76.26 0 48.27 0 48.27 50.43 48.26 50.43 62.31 73.08 76.34 50.43 76.26 50.43" style="fill:#009ee3"/><polygon points="62.31 85.81 47.22 61.48 49.3 60.19 62.31 81.16 75.3 60.19 77.38 61.48 62.31 85.81" style="fill:#009ee3"/><polygon points="62.31 97.43 47.22 73.1 49.3 71.81 62.31 92.79 75.3 71.81 77.38 73.1 62.31 97.43" style="fill:#009ee3"/></svg>