<svg id="Layer_1" data-name="Layer 1" xmlns="http://www.w3.org/2000/svg" viewBox="0 0 120 120"><defs><style>.cls-1{fill:#fff;}</style></defs><title>Icon-Move</title><path class="cls-1" d="M118.73,63,101.58,80.16a4.26,4.26,0,0,1-3,1.27,4.32,4.32,0,0,1-4.29-4.29V68.57H68.57V94.29h8.57a4.32,4.32,0,0,1,4.29,4.29,4.26,4.26,0,0,1-1.27,3L63,118.73a4.2,4.2,0,0,1-6,0L39.84,101.59a4.26,4.26,0,0,1-1.27-3,4.32,4.32,0,0,1,4.29-4.29h8.57V68.57H25.71v8.57a4.32,4.32,0,0,1-4.29,4.29,4.26,4.26,0,0,1-3-1.27L1.27,63a4.2,4.2,0,0,1,0-6L18.42,39.84a4.26,4.26,0,0,1,3-1.27,4.32,4.32,0,0,1,4.29,4.29v8.57H51.43V25.71H42.86a4.32,4.32,0,0,1-4.29-4.29,4.26,4.26,0,0,1,1.27-3L57,1.27a4.2,4.2,0,0,1,6,0L80.16,18.41a4.26,4.26,0,0,1,1.27,3,4.32,4.32,0,0,1-4.29,4.29H68.57V51.43H94.29V42.86a4.32,4.32,0,0,1,4.29-4.29,4.26,4.26,0,0,1,3,1.27L118.73,57a4.2,4.2,0,0,1,0,6Z"/></svg>