<?xml version="1.0" encoding="utf-8"?>
<!-- Generator: Adobe Illustrator 23.0.0, SVG Export Plug-In . SVG Version: 6.00 Build 0)  -->
<svg version="1.1" id="Layer_1" xmlns="http://www.w3.org/2000/svg" xmlns:xlink="http://www.w3.org/1999/xlink" x="0px" y="0px"
	 viewBox="0 0 240 240" style="enable-background:new 0 0 240 240;" xml:space="preserve">
<style type="text/css">
	.st0{fill:#303030;}
</style>
<path class="st0" d="M118.4,37.9l-19.2,6.1V72l-16.6,6.2l0.4,21.1l19.2,10.2l34.7-18.8V43.2L118.4,37.9z M118.4,40.9l13.3,3.9
	l-13.4,5l-13.9-4.4L118.4,40.9z M102,46.3l15.5,4.9l0,27.6L102,72.7V46.3z M101.4,74.3l14.8,5.9l-14,6.3L87,79.6L101.4,74.3z
	 M85.5,80.8l15.8,7.1v17.9l-15.5-8.3L85.5,80.8z M102.9,105.9V88l16.2-7.3l0-29.4l14.7-5.5v43.4L102.9,105.9z M238.6,127.5
	l-39.5,74.7c-1.9,3.7-7.4,7.6-11.6,7.6l-14.7,0l21.6-21.6l-14.2-14.2l-21.6,21.6L137,174.1l-14.2,14.2l21.6,21.6l-115.2,0
	c-3.3,0-6.6-1.3-8.9-3.7c-2.4-2.4-3.7-5.6-3.7-8.9l0-122.9c0-7,5.6-12.6,12.6-12.6l11.6,0v10.7H33c-1.5,0-3,0.6-4,1.7
	c-1.1,1.1-1.7,2.5-1.7,4l0,115.2c0,3.2,2.6,5.7,5.7,5.7H41l37.4-75.7c2.1-4.2,6.1-7.6,10.3-7.6h91.6l0-30.5
	c6,0.6,10.7,5.5,10.7,11.6v18.8h42C238.1,115.9,242.3,120.8,238.6,127.5z M50.1,165l6.6-13.4V10.3c0-0.9,0.7-1.7,1.7-1.7h76.4
	c1.2,0,2.2,1,2.2,2.2v23c0,2.4,1.9,4.3,4.3,4.3h20.5c1.2,0,2.2,1,2.2,2.2v68.8h8.7V33.8c0-1.2-0.4-2.3-1.3-3.2L144.7,1.5
	c-0.9-1-2.2-1.5-3.5-1.5H58.4c-5.7,0-10.3,4.6-10.3,10.3c0,0-0.3,113,0,150.7C48.1,164.9,50.1,165,50.1,165z M145.7,15.5l12.9,14
	h-12.9l0,0V15.5z M128.5,188.3l8.5-8.5l21.6,21.6l21.6-21.6l8.5,8.5l-21.6,21.6l21.6,21.6l-8.5,8.5l-21.6-21.6L137,240l-8.5-8.5
	l21.6-21.6L128.5,188.3z"/>
</svg>
