<svg xmlns="http://www.w3.org/2000/svg" viewBox="0 0 66.83 76.13"><title>Icon-Home-RoboxPro</title><g style="opacity:0.7000000000000001"><path d="M20.84,0H20.7l-.18,0-.18.06-.19.09-.78.4L2.86,10l-.2.12-.19.16-.2.18-.19.2-.18.24-.19.25-.17.28-.18.3-.16.32-.15.34-.15.35-.14.37-.13.39-.12.4-.1.41-.1.42-.08.42-.07.43L.1,16l0,.44,0,.43v1.28l0,1.5L1.61,62.37v0l0,1.34,0,.42,0,.4.05.38.07.36.09.34.1.31.11.28.13.26.14.23.15.19.16.17.17.13.18.09.19.06h.05l6.55,1.23-.36-.2-.18-.13-.16-.17L9,67.9l-.14-.23-.13-.25-.11-.29-.1-.31-.09-.34-.07-.36,0-.38,0-.4,0-.42,0-1.34L8.08,59v-.34L13,34.47v-.36l-.31-12.73,0-1.82v-.93l0-.31,0-.32,0-.31,0-.32.05-.31.05-.31.06-.31.06-.31.07-.3.08-.3.08-.29.09-.28.09-.28.1-.27.1-.26.1-.26.11-.24.11-.24.12-.22.11-.21.13-.21.12-.19.13-.17.12-.17.13-.15,9-9.71L26.75.64ZM6.11,60.4l0,.12,0,.1,0,.11L6,60.82l-.07.08,0,.06h0L5.73,61l-.1,0-.1,0-.11,0H5.19l-.12,0-.12,0-.11,0L4.72,61l-.1-.07-.1-.08-.1-.1-.08-.1-.07-.11L4.2,60.4l0-.12,0-.12,0-.12V59.8l0-.12,0-.1,0-.1.06-.1.07-.08.06-.06h0l.09-.07.1,0,.1,0,.11,0H5l.12,0,.12,0,.11,0,.12.06.1.08.1.08.1.09.08.11.08.1L6,59.8l0,.12,0,.12,0,.12v.24ZM5.17,32.94,4.86,22.1l6.33.86.26,10.91Z" style="fill:#fff"/><polygon points="21.57 53.03 30.26 45.16 44.53 47.43 44.35 56.87 21.57 53.03" style="fill:#fff"/><polygon points="50.48 57.9 57.91 49.56 50.13 48.31 49.99 57.81 50.48 57.9" style="fill:#fff"/><polygon points="60.2 5.02 61.02 4.36 27.4 0.71 26.38 1.33 60.2 5.02" style="fill:#fff"/><path d="M66.82,8.14l0-.39,0-.38,0-.35,0-.34-.06-.31-.07-.28-.07-.26-.09-.24-.09-.2-.1-.17-.11-.14L66,5l-.12-.08-.13,0h0l-4.06-.44L47.87,15.52l-.16.14-.16.17-.15.2-.16.22-.15.25-.15.27-.15.3-.14.32-.14.34-.13.36-.13.38-.12.39-.11.41-.11.42-.1.44-.09.44-.08.45-.07.45-.06.45-.06.46,0,.46,0,.45,0,.44v.45l-.05,1.68-.57,44.36v2.32l0,.4,0,.37,0,.35.06.32.07.29.08.26.1.23.1.19.11.17.12.12.13.09.14,0h0l4,.73h.11l.15,0,.15-.06.16-.09.16-.12.16-.16.16-.2L65.08,57.22,66.82,9.41V8.14ZM66.34,9V9.4L64.59,57,50.42,75.18l-.14.16-.13.13-.11.08-.08,0-.07,0h-.07l0,0-.06-.06-.07-.11-.08-.15-.07-.18-.07-.23-.07-.28-.06-.29,0-.33,0-.35,0-.37v-2.3L50,26.43,50,24.29l0-.43,0-.44,0-.45,0-.45.06-.45.07-.44.08-.44.09-.44.1-.42.1-.41.11-.4.11-.39.13-.37.12-.35.13-.32.14-.31.13-.28.14-.26.14-.23.13-.19.13-.17.12-.14.14-.12L64.92,5.88l.57-.43.09-.07,0,0h.05l0,0,.07.08.07.12.08.16L66,6l.07.24.06.26.06.3,0,.31,0,.34,0,.36,0,.38V9Z" style="fill:#fff"/><polygon points="44.97 75.24 10.57 68.62 10.21 68.41 9.97 68.24 9.72 68.05 9.52 67.82 9.35 67.57 9.21 67.28 9.1 66.97 9.01 66.63 8.93 66.27 8.86 65.89 8.83 65.49 8.79 65.07 8.75 63.73 44.19 70.14 44.2 71.61 44.2 72.05 44.21 72.47 44.24 72.86 44.27 73.23 44.32 73.58 44.37 73.9 44.43 74.19 44.5 74.46 44.59 74.69 44.68 74.88 44.8 75.07 44.97 75.24" style="fill:#fff"/></g></svg>