<svg id="Layer_1" data-name="Layer 1" xmlns="http://www.w3.org/2000/svg" viewBox="0 0 120 120"><defs><style>.cls-1{fill:#fff;}</style></defs><title>Icon-Warning</title><path class="cls-1" d="M60,12.35a1.59,1.59,0,0,0-1.38.79L5.43,105.28a1.58,1.58,0,0,0,1.37,2.38H113.21a1.58,1.58,0,0,0,1.36-2.38L61.37,13.13A1.59,1.59,0,0,0,60,12.35m53.2,100.53H6.8a6.8,6.8,0,0,1-5.89-10.2l53.2-92.16a6.81,6.81,0,0,1,11.78,0l53.2,92.16a6.8,6.8,0,0,1-5.88,10.2"/><polygon class="cls-1" points="84.01 63.02 73.88 52.89 59.99 66.77 46.12 52.89 35.99 63.02 49.87 76.9 35.99 90.78 46.12 100.91 59.99 87.03 73.88 100.91 84.01 90.78 70.13 76.9 84.01 63.02"/></svg>