<svg xmlns="http://www.w3.org/2000/svg" viewBox="0 0 40 40"><title>Icon-About-Grey</title><path d="M22.35,15.92V31.61h-4.7V15.92Z" style="fill:#b2b2b2"/><path d="M0,20a19,19,0,0,1,.74-5.28A21.4,21.4,0,0,1,2.79,10,20.93,20.93,0,0,1,5.92,5.91,20.25,20.25,0,0,1,14.74.73a19.32,19.32,0,0,1,10.52,0A20.21,20.21,0,0,1,30,2.78a20.61,20.61,0,0,1,4.06,3.16A20.23,20.23,0,0,1,37.23,10a20.53,20.53,0,0,1,2,4.76,19.46,19.46,0,0,1,0,10.56,20.34,20.34,0,0,1-2,4.76,19.89,19.89,0,0,1-3.14,4.05A20.84,20.84,0,0,1,30,37.26a20.12,20.12,0,0,1-4.77,2A19.14,19.14,0,0,1,20,40a18.77,18.77,0,0,1-5.26-.73,20.25,20.25,0,0,1-8.82-5.18,20.59,20.59,0,0,1-5.18-8.8A18.83,18.83,0,0,1,0,20Zm1.86,0a17.69,17.69,0,0,0,.65,4.79,18,18,0,0,0,4.68,8,18.67,18.67,0,0,0,3.67,2.84,18,18,0,0,0,4.32,1.83,18,18,0,0,0,9.59,0,18.59,18.59,0,0,0,4.33-1.83,18.13,18.13,0,0,0,3.68-2.85,18.18,18.18,0,0,0,4.69-8,17.46,17.46,0,0,0,0-9.58,18.25,18.25,0,0,0-4.7-8,18.86,18.86,0,0,0-3.7-2.84A18.29,18.29,0,0,0,24.74,2.5,17.72,17.72,0,0,0,13,3.28,18.82,18.82,0,0,0,7.19,7.19,18.47,18.47,0,0,0,3.29,13,17.57,17.57,0,0,0,1.86,20Z" style="fill:#b2b2b2"/><path d="M22.35,10.24A2.35,2.35,0,1,0,20,12.59,2.35,2.35,0,0,0,22.35,10.24Z" style="fill:#b2b2b2"/></svg>