<svg id="Layer_1" data-name="Layer 1" xmlns="http://www.w3.org/2000/svg" viewBox="0 0 120 120"><defs><style>.cls-1{fill:#009ee3;}.cls-2{fill:#fff;}</style></defs><title>Icon-Purge</title><path class="cls-1" d="M116.7,70.9a60.93,60.93,0,0,1-4.1,13.26,63.33,63.33,0,0,1-6.7,11.75A60.12,60.12,0,0,1,97,105.75a58.38,58.38,0,0,1-10.75,7.5A55.73,55.73,0,0,1,74.08,118a51.22,51.22,0,0,1-13.16,1.7,50.32,50.32,0,0,1-11.76-1.37,54.62,54.62,0,0,1-10.95-3.89,55.41,55.41,0,0,1-9.91-6.13,57.42,57.42,0,0,1-8.54-8.08L0,120V70.9H49.13L29.82,90.22A39.51,39.51,0,0,0,43.66,100a43.53,43.53,0,0,0,17.25,3.43A44.2,44.2,0,0,0,75,101.2a40.46,40.46,0,0,0,12.12-6.46A39.25,39.25,0,0,0,96.27,84.5a39.69,39.69,0,0,0,5.23-13.6Z"/><path class="cls-2" d="M120,.71V49.09H70.93l19.25-19A39.1,39.1,0,0,0,76.23,19.9a44.57,44.57,0,0,0-31.58-1.3,40.63,40.63,0,0,0-12.11,6.56,39.76,39.76,0,0,0-9.18,10.35,40.22,40.22,0,0,0-5.22,13.59H2.89A61.4,61.4,0,0,1,7,35.84,63.46,63.46,0,0,1,13.76,24a64.13,64.13,0,0,1,8.94-9.88,57.21,57.21,0,0,1,10.72-7.6A54.41,54.41,0,0,1,45.57,1.7,51.15,51.15,0,0,1,58.68,0a50.43,50.43,0,0,1,12,1.42,54,54,0,0,1,11.1,4,56.6,56.6,0,0,1,10,6.33,59.45,59.45,0,0,1,8.61,8.34Z"/></svg>