<?xml version="1.0" encoding="utf-8"?>
<!-- Generator: Adobe Illustrator 23.0.0, SVG Export Plug-In . SVG Version: 6.00 Build 0)  -->
<svg version="1.1" id="Layer_1" xmlns="http://www.w3.org/2000/svg" xmlns:xlink="http://www.w3.org/1999/xlink" x="0px" y="0px"
	 viewBox="0 0 240 240" style="enable-background:new 0 0 240 240;" xml:space="preserve">
<style type="text/css">
	.st0{fill:#303030;}
</style>
<g>
	<path class="st0" d="M148.8,0L91.2,0l0,48.5h57.6L148.8,0z M111.3,18.7l-11.6,0l0-8.7l11.6,0L111.3,18.7z M127.1,18.8l0-8.7l11.6,0
		l0,8.7L127.1,18.8z"/>
	<path class="st0" d="M159,94.8l0-40.2l-77.9,0l0,40.2c0,7.1,3.7,26.9,9.4,37.1c-0.5,1.1-0.8,2.3-0.8,3.5c0,4.1,2.9,7.6,6.8,8.4
		l0,27.5l13.2,0V240l17.9,0l0-68.6l12.8,0l0-27.3l0.6,0c4.8,0,8.6-3.9,8.6-8.6c0-1.5-0.4-2.8-1-4C154.8,121.2,159,102.4,159,94.8z
		 M122.6,132c-1.1,1.1-2.4,1.6-3.7,1.6c-1.4,0-2.7-0.5-3.8-1.6c-1.1-1-1.6-2.2-1.6-3.7c0-0.8,0.1-1.5,0.4-2.1
		c0.3-0.6,0.6-1.2,1.2-1.7c1.1-1.1,2.4-1.6,3.8-1.6c1.4,0,2.6,0.5,3.7,1.6c1.1,1,1.6,2.3,1.6,3.8C124.2,129.7,123.7,131,122.6,132z
		 M135.1,91.1c-0.4,0.8-0.8,1.6-1.2,2.3c-0.5,0.7-1,1.4-1.5,2.1c-0.5,0.7-1.1,1.3-1.7,1.9c-0.6,0.6-1.2,1.2-1.8,1.7
		c-0.6,0.5-1.2,1-1.8,1.6c-0.6,0.5-1.1,1-1.7,1.6c-1.1,1-2,2.1-2.7,3.3c-0.7,1.1-1.1,2.4-1.1,3.8c0,1.2,0.1,2.3,0.4,3.2
		c0.2,0.5,0.3,0.9,0.5,1.3c0.2,0.4,0.3,0.8,0.5,1.1H114c-0.1-0.3-0.2-0.7-0.4-1.2c-0.1-0.4-0.2-0.9-0.3-1.5
		c-0.1-0.6-0.2-1.1-0.2-1.6c0-0.5-0.1-1.1-0.1-1.6c0-1.6,0.3-3.1,1-4.5c0.7-1.4,1.5-2.6,2.5-3.7c0.5-0.6,1.1-1.2,1.6-1.7
		c0.5-0.6,1.1-1.1,1.7-1.6c0.6-0.5,1.2-1.1,1.7-1.6c0.5-0.5,1.1-1,1.6-1.6c1-1,1.8-2.1,2.5-3.2c0.7-1.1,1-2.4,1-3.7
		c0-1.2-0.3-2.3-0.8-3.2c-0.5-0.9-1.2-1.7-2.1-2.3c-0.4-0.3-0.9-0.6-1.4-0.8c-0.5-0.2-1-0.4-1.6-0.5c-0.5-0.1-1.1-0.3-1.7-0.3
		c-0.6-0.1-1.2-0.1-1.9-0.1c-4.2,0-8.1,1.8-11.8,5.4v-9.3c2.3-1.3,4.6-2.3,6.9-2.9c2.4-0.6,4.8-1,7.2-1c2.3,0,4.4,0.3,6.4,0.8
		c2,0.6,3.8,1.4,5.3,2.5c1.5,1.1,2.7,2.5,3.5,4.1c0.9,1.7,1.3,3.6,1.3,5.8C136.2,87.6,135.8,89.4,135.1,91.1z"/>
</g>
</svg>
