<svg xmlns="http://www.w3.org/2000/svg" viewBox="0 0 38.78 42"><defs><style>.cls-1{fill:#60b0e2;}.cls-1,.cls-2,.cls-3{fill-rule:evenodd;}.cls-2{fill:#fff;}.cls-3{fill:#0083cc;}.cls-4{fill:#009ee3;}</style></defs><title>Icon-Menu-USB-Print-White_1</title><g id="Layer_2" data-name="Layer 2"><g id="Layer_1-2" data-name="Layer 1"><polygon class="cls-1" points="18.96 6.2 28.36 2.72 28.36 27.95 9.99 37.89 9.99 26.53 18.95 22.49 18.96 6.2"/><polygon class="cls-2" points="18.96 6.2 9.15 3.1 18.98 0 28.36 2.72 18.96 6.2"/><polygon class="cls-3" points="9.15 3.1 9.15 18.6 18.95 22.49 18.96 6.2 9.15 3.1"/><polygon class="cls-2" points="18.95 22.49 9.99 26.53 0 22.01 9.15 18.6 18.95 22.49"/><polygon class="cls-3" points="9.99 37.89 0.18 32.65 0 22.01 9.99 26.53 9.99 37.89"/><path class="cls-2" d="M19.34,32.28A9.72,9.72,0,1,1,29.06,42,9.72,9.72,0,0,1,19.34,32.28Z"/><path class="cls-4" d="M28.88,24.51a.18.18,0,0,1,.18-.11.2.2,0,0,1,.19.11l1.31,2.19a.26.26,0,0,1,0,.11.36.36,0,0,1,0,.11.23.23,0,0,1-.2.11H29.5V32.9a7.74,7.74,0,0,1,1.13-.57l.37-.17.34-.16a1.68,1.68,0,0,0,.32-.19l.23-.18a.73.73,0,0,0,.18-.22.42.42,0,0,0,0-.22v-.66h-.65a.21.21,0,0,1-.22-.22V28.12a.2.2,0,0,1,.06-.15.21.21,0,0,1,.16-.06h2.19a.2.2,0,0,1,.15.06.21.21,0,0,1,.07.15v2.19a.22.22,0,0,1-.07.16.2.2,0,0,1-.15.06H33v.66a1.23,1.23,0,0,1-.07.42,1.53,1.53,0,0,1-.16.34,1.12,1.12,0,0,1-.28.31l-.31.26a3,3,0,0,1-.39.22l-.39.2-.42.19-.55.25-.45.25a1.33,1.33,0,0,0-.37.3.59.59,0,0,0-.11.32v2.46a1.69,1.69,0,0,1,.94.63,1.66,1.66,0,0,1,.37,1.07,1.75,1.75,0,1,1-3.5,0,1.66,1.66,0,0,1,.37-1.07,1.72,1.72,0,0,1,.94-.63V36a.59.59,0,0,0-.11-.32,1.33,1.33,0,0,0-.37-.3l-.44-.25-.56-.25-.41-.19-.4-.2a3,3,0,0,1-.39-.22L25.63,34a1,1,0,0,1-.28-.31,2.16,2.16,0,0,1-.16-.34,1.23,1.23,0,0,1-.07-.42v-.73a1.37,1.37,0,0,1-.63-.48,1.27,1.27,0,0,1-.24-.76,1.3,1.3,0,0,1,1.31-1.31,1.31,1.31,0,0,1,1.07,2.07,1.37,1.37,0,0,1-.63.48v.73a.54.54,0,0,0,.05.22.73.73,0,0,0,.18.22l.23.18a2.07,2.07,0,0,0,.32.19l.34.16.37.17a7.74,7.74,0,0,1,1.13.57V27h-.87a.21.21,0,0,1-.19-.11.18.18,0,0,1,0-.22Z"/></g></g></svg>