<?xml version="1.0" encoding="utf-8"?>
<!-- Generator: Adobe Illustrator 22.1.0, SVG Export Plug-In . SVG Version: 6.00 Build 0)  -->
<svg version="1.1" id="Layer_1" xmlns="http://www.w3.org/2000/svg" xmlns:xlink="http://www.w3.org/1999/xlink" x="0px" y="0px"
	 viewBox="0 0 56 56" style="enable-background:new 0 0 56 56;" xml:space="preserve">
<style type="text/css">
	.st0{fill:#EB672A;}
</style>
<title>Icon-Move-Mat2-Eject</title>
<rect x="19.6" y="31.2" class="st0" width="16.8" height="3"/>
<polygon class="st0" points="19.6,29 28,20 36.4,29 "/>
<path class="st0" d="M28,0C12.5,0,0,12.5,0,28s12.5,28,28,28s28-12.5,28-28S43.5,0,28,0z M41.5,12.9l2.6-3.1l0.1-0.1
	c0.6-0.6,1.7-0.6,2.3,0c1,1,1.9,2.1,2.7,3.3c0,0,0.1,0.1,0.1,0.1c0,0,0,0,0,0c0.4,0.8,0.2,1.8-0.6,2.2L44.1,18
	c-0.7,0.4-1.6,0.2-2.1-0.5c-0.5-0.6-1-1.3-1.6-1.8c-0.3-0.3-0.6-0.6-1-0.8c-0.1,0-0.1-0.1-0.1-0.2c-0.1-0.2,0-0.3,0.2-0.4
	C40.3,14,41,13.6,41.5,12.9z M31.1,10.5C31.1,10.4,31.1,10.4,31.1,10.5C31.6,9.8,32,9,32.2,8.2l0.7-4c0,0,0-0.1,0-0.1
	c0.2-0.9,1.1-1.4,2-1.1c0,0,0,0,0,0c1.4,0.4,2.7,0.9,4,1.5L39,4.4c0.8,0.4,1,1.4,0.6,2.2l-2.7,4.7c-0.4,0.7-1.3,1-2,0.7
	c-0.7-0.3-1.5-0.6-2.3-0.8C32.2,11,31.8,11,31.3,11c-0.1,0-0.1,0-0.2-0.1C31,10.8,31,10.6,31.1,10.5z M21.4,2.8
	C21.4,2.8,21.4,2.8,21.4,2.8L21.4,2.8c1.4-0.3,2.8-0.6,4.2-0.7h0.1c0.9,0,1.6,0.7,1.6,1.6c0,0,0,0,0,0V9c0,0.8-0.6,1.5-1.4,1.6
	c-0.8,0.1-1.6,0.2-2.3,0.5c-0.4,0.1-0.8,0.3-1.2,0.5c-0.1,0-0.1,0-0.2,0c-0.2,0-0.3-0.2-0.3-0.4c0,0,0,0,0,0
	c0.1-0.8,0.1-1.7-0.2-2.5l-1.4-3.8c0,0,0-0.1,0-0.1C20,3.9,20.5,3,21.4,2.8z M9.7,9.5c1-1,2.1-1.9,3.3-2.7l0.1-0.1
	c0.8-0.4,1.8-0.2,2.2,0.6l2.7,4.6c0.4,0.7,0.2,1.6-0.5,2.1c-0.6,0.5-1.2,1-1.8,1.6c-0.3,0.3-0.6,0.6-0.8,1c0,0.1-0.1,0.1-0.2,0.2
	c-0.2,0.1-0.3,0-0.4-0.2c-0.3-0.8-0.8-1.5-1.4-2.1l-3.1-2.6l-0.1-0.1C9,11.1,9,10.1,9.7,9.5z M2.9,21.1C2.9,21.1,2.9,21.1,2.9,21.1
	L2.9,21.1c0.4-1.4,0.9-2.7,1.5-4c0,0,0-0.1,0.1-0.1c0.4-0.8,1.4-1,2.2-0.6l4.7,2.7c0.7,0.4,1,1.3,0.7,2c-0.3,0.7-0.6,1.5-0.8,2.3
	C11,23.8,11,24.2,11,24.7c0,0.1,0,0.1-0.1,0.2c-0.1,0.1-0.3,0.1-0.5,0c0,0,0,0,0,0C9.8,24.3,9,24,8.2,23.8l-4-0.7H4
	C3.1,22.9,2.6,22,2.9,21.1z M4.8,35.8c-0.9,0.2-1.8-0.3-2-1.2c0,0,0,0,0,0c-0.4-1.4-0.6-2.8-0.7-4.2v-0.1c0-0.9,0.7-1.6,1.6-1.6
	c0,0,0,0,0,0H9c0.8,0,1.5,0.6,1.6,1.4c0.1,0.8,0.2,1.6,0.5,2.3c0.1,0.4,0.3,0.8,0.5,1.2c0,0.1,0,0.1,0,0.2c0,0.2-0.2,0.3-0.4,0.3
	C10.3,34,9.5,34,8.7,34.3L4.8,35.8L4.8,35.8L4.8,35.8z M14.5,43.1L14.5,43.1l-2.6,3.1l-0.1,0.1c-0.6,0.6-1.7,0.6-2.3,0
	c-1-1-1.9-2.1-2.7-3.3c0,0-0.1-0.1-0.1-0.1c0,0,0,0,0,0c-0.4-0.8-0.2-1.8,0.6-2.2l4.7-2.7c0.7-0.4,1.6-0.2,2.1,0.5
	c0.5,0.6,1,1.2,1.6,1.8c0.3,0.3,0.6,0.6,1,0.8c0.1,0,0.1,0.1,0.1,0.2c0.1,0.2,0,0.3-0.2,0.4C15.7,42,15,42.4,14.5,43.1z M24.9,45.6
	c-0.5,0.7-0.9,1.4-1.1,2.3l-0.7,4c0,0,0,0.1,0,0.2c-0.2,0.9-1.1,1.4-2,1.1c0,0,0,0,0,0c-1.4-0.4-2.7-0.9-4-1.5L17,51.6
	c-0.8-0.4-1-1.4-0.6-2.2l2.7-4.7c0.4-0.7,1.3-1,2-0.7c0.7,0.3,1.5,0.6,2.3,0.8c0.4,0.1,0.9,0.2,1.3,0.2c0.1,0,0.1,0,0.2,0.1
	C25,45.2,25,45.4,24.9,45.6L24.9,45.6z M14,28.4c-0.2-7.5,5.7-13.8,13.2-14c0.2,0,0.5,0,0.7,0c7.5-0.2,13.8,5.7,14,13.2
	c0.2,7.5-5.7,13.8-13.2,14c-0.2,0-0.5,0-0.7,0C20.5,41.8,14.2,35.9,14,28.4z M34.6,53.3C34.6,53.3,34.6,53.3,34.6,53.3L34.6,53.3
	c-1.4,0.3-2.8,0.5-4.2,0.6h-0.1c-0.9,0-1.6-0.7-1.6-1.6c0,0,0,0,0,0V47c0-0.8,0.6-1.5,1.4-1.6c0.8-0.1,1.6-0.2,2.3-0.5
	c0.4-0.1,0.8-0.3,1.2-0.5c0.1,0,0.1,0,0.2,0c0.2,0,0.3,0.2,0.3,0.4c0,0,0,0,0,0c-0.1,0.8-0.1,1.7,0.2,2.5l1.4,3.8c0,0,0,0.1,0,0.1
	C36,52.2,35.5,53.1,34.6,53.3z M46.3,46.5L46.3,46.5c-1,1-2.1,1.9-3.3,2.7l-0.1,0.1c-0.8,0.4-1.8,0.2-2.2-0.6L38,44.1
	c-0.4-0.7-0.2-1.6,0.5-2.1c0.6-0.5,1.2-1,1.8-1.6c0.3-0.3,0.6-0.6,0.8-1c0-0.1,0.1-0.1,0.2-0.1c0.2-0.1,0.3,0,0.4,0.2
	c0.3,0.8,0.8,1.5,1.4,2.1l3.1,2.6l0.1,0.1C47,44.9,47,45.9,46.3,46.5z M53.1,34.9c-0.4,1.4-0.9,2.7-1.5,4c0,0,0,0.1-0.1,0.1
	c-0.4,0.8-1.4,1-2.2,0.6l-4.7-2.7c-0.7-0.4-1-1.3-0.7-2c0.3-0.7,0.6-1.5,0.8-2.3c0.1-0.4,0.2-0.9,0.1-1.3c0-0.1,0-0.1,0.1-0.2
	c0.1-0.1,0.3-0.1,0.5,0c0,0,0,0,0,0c0.7,0.5,1.4,0.9,2.3,1.1l4,0.7H52C52.8,33.1,53.3,34,53.1,34.9C53.1,34.9,53.1,34.9,53.1,34.9
	L53.1,34.9z M52.4,27.3C52.4,27.4,52.4,27.4,52.4,27.3H47c-0.8,0-1.5-0.6-1.6-1.4c-0.1-0.8-0.2-1.6-0.5-2.3
	c-0.1-0.4-0.3-0.8-0.5-1.2c0-0.1,0-0.1,0-0.2c0-0.2,0.2-0.3,0.4-0.3c0.8,0.1,1.7,0.1,2.5-0.2l3.8-1.4h0.1l-0.1,0
	c0.9-0.2,1.8,0.3,2,1.2c0,0,0,0,0,0c0.4,1.4,0.6,2.8,0.8,4.2v0.1C54,26.6,53.3,27.3,52.4,27.3z"/>
</svg>
