<svg id="Layer_1" data-name="Layer 1" xmlns="http://www.w3.org/2000/svg" viewBox="0 0 120 120"><defs><style>.cls-1{fill:#fff;}</style></defs><title>Icon-Network</title><path class="cls-1" d="M5.69,118.32v-6.15H40.74v6.15ZM78.41,0a4,4,0,0,1,3.37,1.35,4.93,4.93,0,0,1,1,3V86.71H39V4.38A3.89,3.89,0,0,1,40.36,1a5,5,0,0,1,3-1ZM75,116.54a3.77,3.77,0,0,1-1.18,2.57,3.47,3.47,0,0,1-2.36.88H48.67a3.63,3.63,0,0,1-2.61-.88,3.39,3.39,0,0,1-.93-2.57v-2.61a3.22,3.22,0,0,1,3.54-3.54H56.5V91.1h7.92v19.3h7A3.22,3.22,0,0,1,75,113.93ZM73.52,14.41V9.69H48.24v4.72ZM73.19,67.5V64.89H48.67V67.5Zm0,9.61V74.49H48.67v2.61Zm6.15,41.21v-6.15h35v6.15Z"/></svg>