<svg xmlns="http://www.w3.org/2000/svg" viewBox="0 0 176.92 136.61"><title>Icon-Robox-Black70</title><g style="opacity:0.7"><path d="M25.1,96.93S9,90.61,8.41,90.2s-4-2.1-5.23-8.51c0,0-.24-1.36-.33-2.38S0,43.41,0,43.41A34.19,34.19,0,0,1,4.19,26.62c4.68-8.32,9.39-9.58,14-11.29L58.45.57A7.86,7.86,0,0,1,62.71.11C65.06.54,74.43,2.2,74.43,2.2L78.69,3a4.58,4.58,0,0,0-2.32.32c-.68.3-42.61,17.56-42.61,17.56s-14.7,4.59-14.85,29.28l1.87,35.25c.5,8.83,4.32,11.56,4.32,11.56"/><path d="M81.18,3.31l77.53,14a5.08,5.08,0,0,0-1.37.72l-6,4.11L71,6.87,78.5,3.68a6.18,6.18,0,0,1,2.68-.37"/><path d="M23.86,92.55a12.64,12.64,0,0,0,3.4,5.2L109,130.17s-1.39-1.31-1.92-5.37Z"/><path d="M129,85.59c0,.13-.54,5.15-1.23,11.81l11.57-12.52-10-2.75c-.27,2.1-.35,3.39-.35,3.46"/><path d="M110.29,81.49c0-.17.09-1.88.44-4.51L71,66,41.08,85.17,108.2,109Z"/><path d="M175.13,35.36c-1.87,11.07-7,44.27-7.07,44.62,0,0-.6,4.38-1,7.79a29.78,29.78,0,0,0-5.45,5.5c-1.67,2.16-31.66,40.48-31.93,40.81a4.73,4.73,0,0,1-3.11,1.34,3.67,3.67,0,0,1-2.65-1.4,10.92,10.92,0,0,1-.55-4.87c.64-7.46,4.47-43.69,4.47-43.69s1.27-22.21,12.51-37l32.51-27.2.94.16a4.72,4.72,0,0,1,1.87,4.18,45.89,45.89,0,0,1-.53,9.79m1.73-9.83a5.71,5.71,0,0,0-2.58-5.24l-.59-.1s0,0,.05,0c-1.75-.28-11.88-2.27-11.88-2.27a2.16,2.16,0,0,0-1.82.38c-1.13.68-9.71,7.09-9.71,7.09L126.16,43.44s-5.7,3.81-10.6,17.69a82.21,82.21,0,0,0-4.07,20.43l-2.81,36.83s-.58,11.19,2.88,12.78c4.58,2.11,14.2,5.4,14.2,5.4l-.1-.07a3.56,3.56,0,0,0,.86.11h.12a6.08,6.08,0,0,0,3.93-1.74c.3-.38,30.31-38.7,32-40.86A27.77,27.77,0,0,1,168,88.59l.22-.15,0-.27c.41-3.43,1-8,1-8,0-.33,5.2-33.52,7.07-44.59a47.36,47.36,0,0,0,.55-10"/></g></svg>