<svg xmlns="http://www.w3.org/2000/svg" viewBox="0 0 141 141"><title>Icon-Menu-Grid-Move-Inverse</title><polygon points="65.04 79.26 65.04 116.06 49.4 99.04 49.4 113.01 70.52 135.5 91.61 113.01 91.61 99.04 75.96 116.06 75.96 79.26 65.04 79.26 65.04 79.26" style="fill:#fff;fill-rule:evenodd"/><polygon points="78.82 76.44 115.91 76.44 98.77 91.97 112.84 91.97 135.5 71 112.84 50.08 98.77 50.08 115.91 65.6 78.82 65.6 78.82 76.44 78.82 76.44" style="fill:#fff;fill-rule:evenodd"/><polygon points="65.04 61.74 75.96 61.74 75.96 24.94 91.61 41.96 91.61 27.99 70.52 5.5 49.4 27.99 49.4 41.96 65.04 24.94 65.04 63.74 65.04 61.74" style="fill:#fff;fill-rule:evenodd"/><polygon points="62.18 76.44 62.18 65.6 25.09 65.6 42.23 50.08 28.16 50.08 5.5 71 28.16 91.97 42.23 91.97 25.09 76.44 62.18 76.44" style="fill:#fff;fill-rule:evenodd"/></svg>