<svg xmlns="http://www.w3.org/2000/svg" viewBox="0 0 56.69 40"><title>Icon-Wireless-Grey-White</title><path d="M22.66,34.39,28.34,40,34,34.39A8.23,8.23,0,0,0,22.66,34.39Z" style="fill:#fff"/><path d="M15.1,26.84l3.83,3.83a13.62,13.62,0,0,1,18.83,0l3.82-3.83a18.73,18.73,0,0,0-26.48,0Z" style="fill:#fff"/><path d="M7.55,19.29l3.83,3.83a24,24,0,0,1,33.93,0l3.82-3.83a29.41,29.41,0,0,0-41.58,0Z" style="fill:#fff"/><path d="M0,11.74l3.83,3.83a34.7,34.7,0,0,1,49,0l3.83-3.83A40.09,40.09,0,0,0,0,11.74Z" style="fill:#fff"/></svg>