<svg xmlns="http://www.w3.org/2000/svg" viewBox="0 0 48 48"><title>Icon-Menu-Save</title><path d="M34.57,12a1.32,1.32,0,0,1,.53.1,1.46,1.46,0,0,1,.44.29,1.33,1.33,0,0,1,.3.43,1.27,1.27,0,0,1,.11.52V34.62a1.41,1.41,0,0,1-.11.54,1.45,1.45,0,0,1-.3.43,1.46,1.46,0,0,1-.44.29,1.32,1.32,0,0,1-.53.1H30.64V28.7a.67.67,0,0,0-.21-.5A.65.65,0,0,0,30,28H18a.66.66,0,0,0-.5.2.7.7,0,0,0-.2.5V36H13.4a1.32,1.32,0,0,1-.53-.1,1.3,1.3,0,0,1-.43-.29,1.23,1.23,0,0,1-.28-.43,1.41,1.41,0,0,1-.11-.54V13.36a1.28,1.28,0,0,1,.39-.95,1.3,1.3,0,0,1,1-.39ZM32,15.37a.63.63,0,0,0-.21-.48.68.68,0,0,0-.5-.19H16.68a.67.67,0,0,0-.49.19.66.66,0,0,0-.2.48v5.28a.66.66,0,0,0,.2.48.64.64,0,0,0,.49.2H31.26a.65.65,0,0,0,.5-.2.63.63,0,0,0,.21-.48ZM24,36H20V32h4Z" style="fill:#fff"/><path d="M0,24A22.67,22.67,0,0,1,.89,17.7,25.21,25.21,0,0,1,3.35,12,24.08,24.08,0,0,1,7.11,7.1,23.76,23.76,0,0,1,12,3.32,24.33,24.33,0,0,1,17.68.88a23.1,23.1,0,0,1,12.63,0A24,24,0,0,1,36,3.34a24.48,24.48,0,0,1,4.88,3.79A24,24,0,0,1,44.68,12a25,25,0,0,1,2.45,5.72,23.46,23.46,0,0,1,0,12.66,24.86,24.86,0,0,1-2.45,5.72A23.65,23.65,0,0,1,40.91,41,24.34,24.34,0,0,1,36,44.71a24,24,0,0,1-5.72,2.43A23.16,23.16,0,0,1,24,48a22.91,22.91,0,0,1-6.32-.87A24.78,24.78,0,0,1,12,44.68a23.71,23.71,0,0,1-4.86-3.77A24.67,24.67,0,0,1,.89,30.35,22.55,22.55,0,0,1,0,24Zm2.24,0A21.11,21.11,0,0,0,3,29.75,22,22,0,0,0,5.21,35a21.47,21.47,0,0,0,3.42,4.4A22.36,22.36,0,0,0,13,42.75,21.64,21.64,0,0,0,29.72,45a22.36,22.36,0,0,0,5.2-2.21,22.09,22.09,0,0,0,10-13,21.32,21.32,0,0,0,0-11.5,22.45,22.45,0,0,0-2.22-5.2,21.56,21.56,0,0,0-3.43-4.42,22.65,22.65,0,0,0-4.44-3.42A22.86,22.86,0,0,0,29.68,3a21.05,21.05,0,0,0-14.13.94A22.07,22.07,0,0,0,4,15.56,21.12,21.12,0,0,0,2.24,24Z" style="fill:#fff"/></svg>