<svg xmlns="http://www.w3.org/2000/svg" viewBox="0 0 48 48"><title>Icon-Move-Mat2-Heat-Hover</title><path d="M25.17,0a24.33,24.33,0,0,0-23,13.88A24,24,0,0,0,33,46.23,24.43,24.43,0,0,0,48,24,24.41,24.41,0,0,0,25.17,0Zm9.2,43.14h0A21.77,21.77,0,0,1,5.2,13.08a22,22,0,0,1,24.58-10,22,22,0,0,1,16,21A22.08,22.08,0,0,1,34.37,43.17Z" style="fill:#fff;fill-rule:evenodd"/><rect x="12.44" y="33.9" width="23.13" height="1.79" style="fill:#fff"/><path d="M19,32.39l-2.4-1.95c1.72-2,1-3.49-.45-6.21-1.59-2.94-3.78-7,.44-11.92L19,14.24c-2.9,3.39-1.65,5.68-.08,8.59,1.44,2.64,3.22,5.93.07,9.56" style="fill:#fff"/><path d="M25.34,32.39l-2.4-1.95c1.72-2,1-3.49-.45-6.21-1.59-2.94-3.78-7,.44-11.92l2.42,1.93c-2.89,3.39-1.65,5.68-.08,8.59,1.44,2.64,3.23,5.93.07,9.56" style="fill:#fff"/><path d="M31.75,32.39l-2.4-1.95c1.71-2,1-3.49-.45-6.21-1.6-2.94-3.78-7,.44-11.92l2.42,1.93c-2.9,3.39-1.66,5.68-.08,8.59,1.43,2.64,3.22,5.93.07,9.56" style="fill:#fff"/></svg>