<svg xmlns="http://www.w3.org/2000/svg" viewBox="0 0 143.42 120"><title>Icon-Macro-Speed</title><path d="M122.42,21A71.71,71.71,0,0,0,12.55,112.25a2.79,2.79,0,0,0,2.31,1.21,2.72,2.72,0,0,0,1.58-.5,2.78,2.78,0,0,0,.73-3.88q-.66-.94-1.26-1.92l5.6-3.24a2.8,2.8,0,1,0-2.8-4.85l-5.61,3.24a65.77,65.77,0,0,1-7.44-27.8h6.48a2.8,2.8,0,1,0,0-5.6H5.67a65.5,65.5,0,0,1,7.45-27.79l5.59,3.22a2.73,2.73,0,0,0,1.4.38,2.8,2.8,0,0,0,1.4-5.22l-5.58-3.23A66.67,66.67,0,0,1,36.27,15.93l3.22,5.59a2.8,2.8,0,0,0,2.43,1.4,2.83,2.83,0,0,0,1.4-.38,2.8,2.8,0,0,0,1-3.83l-3.22-5.59A65.65,65.65,0,0,1,68.91,5.67v6.47a2.8,2.8,0,1,0,5.6,0V5.67a65.65,65.65,0,0,1,27.79,7.45l-3.23,5.59a2.81,2.81,0,0,0,4.86,2.81l3.22-5.59a66.67,66.67,0,0,1,20.34,20.34l-5.58,3.23a2.8,2.8,0,0,0,1.4,5.22,2.73,2.73,0,0,0,1.4-.38l5.59-3.22a65.8,65.8,0,0,1,7.46,27.79h-6.48a2.8,2.8,0,1,0,0,5.6h6.48a65.71,65.71,0,0,1-7.44,27.81l-5.61-3.25a2.8,2.8,0,1,0-2.8,4.85l5.6,3.24c-.32.51-.64,1-1,1.51a2.8,2.8,0,0,0,4.64,3.14A71.73,71.73,0,0,0,122.42,21Z" style="fill:#009ee3"/><rect x="43.51" y="109.27" width="56.39" height="10.73" style="fill:#009ee3"/><path d="M85.89,74l30.42-28L76.77,58a14.56,14.56,0,1,0,9.12,16Zm-22.12,2.1A9,9,0,1,1,76,79.37,9,9,0,0,1,63.77,76.09Z" style="fill:#009ee3"/></svg>