<?xml version="1.0" encoding="utf-8"?>
<!-- Generator: Adobe Illustrator 22.1.0, SVG Export Plug-In . SVG Version: 6.00 Build 0)  -->
<svg version="1.1" id="Layer_1" xmlns="http://www.w3.org/2000/svg" xmlns:xlink="http://www.w3.org/1999/xlink" x="0px" y="0px"
	 viewBox="0 0 48 48" style="enable-background:new 0 0 48 48;" xml:space="preserve">
<style type="text/css">
	.st0{fill:#FFFFFF;}
	.st1{fill:#009EE3;}
</style>
<title>Icon-Move-Mat1-Heat</title>
<path class="st0" d="M25.2,0c-9.7-0.4-18.8,5.1-23,13.9c-5.6,12-0.4,26.3,11.6,31.9c6,2.8,13,3,19.2,0.5c9-3.8,14.9-12.5,15-22.2
	C47.8,11.3,37.9,0.8,25.2,0z M34.4,43.1L34.4,43.1C23.8,48.8,10.6,44.9,5,34.3c-3.6-6.6-3.5-14.7,0.3-21.2c5-8.4,15-12.5,24.5-10
	c9.4,2.7,15.9,11.2,16,21C45.7,32,41.3,39.3,34.4,43.1L34.4,43.1z"/>
<rect x="12.5" y="33.9" class="st1" width="23.1" height="1.8"/>
<path class="st1" d="M19,32.4l-2.4-1.9c1.7-2,1-3.5-0.4-6.2c-1.6-2.9-3.8-7,0.4-11.9l2.4,1.9c-2.9,3.4-1.6,5.7-0.1,8.6
	C20.4,25.5,22.2,28.8,19,32.4"/>
<path class="st1" d="M25.4,32.4L23,30.4c1.7-2,1-3.5-0.4-6.2c-1.6-2.9-3.8-7,0.4-11.9l2.4,1.9c-2.9,3.4-1.6,5.7-0.1,8.6
	C26.7,25.5,28.5,28.8,25.4,32.4"/>
<path class="st1" d="M31.8,32.4l-2.4-1.9c1.7-2,1-3.5-0.4-6.2c-1.6-2.9-3.8-7,0.4-11.9l2.4,1.9c-2.9,3.4-1.7,5.7-0.1,8.6
	C33.1,25.5,34.9,28.8,31.8,32.4"/>
</svg>
