<svg xmlns="http://www.w3.org/2000/svg" viewBox="0 0 120 120"><title>Icon-Macro-Purge</title><path d="M116.71,70.9a61.17,61.17,0,0,1-4.1,13.26,63.63,63.63,0,0,1-6.7,11.75,60.69,60.69,0,0,1-9,9.84,58.77,58.77,0,0,1-10.75,7.5,56,56,0,0,1-12.13,4.8,51.26,51.26,0,0,1-13.17,1.7,50.51,50.51,0,0,1-11.76-1.37,54.83,54.83,0,0,1-10.95-3.89,55.41,55.41,0,0,1-9.9-6.14,56.7,56.7,0,0,1-8.54-8.07L0,120V70.9H49.13L29.82,90.22A39.5,39.5,0,0,0,43.66,100a43.51,43.51,0,0,0,17.25,3.43A44.26,44.26,0,0,0,75,101.2a40.7,40.7,0,0,0,12.12-6.46A39.3,39.3,0,0,0,96.27,84.5a39.7,39.7,0,0,0,5.24-13.6Z" style="fill:#eb672a;fill-rule:evenodd"/><path d="M120,.71V49.09H70.93l19.25-19A39.11,39.11,0,0,0,76.24,19.9a44.61,44.61,0,0,0-31.59-1.3,40.56,40.56,0,0,0-12.11,6.56,39.7,39.7,0,0,0-9.18,10.35,40.2,40.2,0,0,0-5.22,13.58H2.89A61.57,61.57,0,0,1,7,35.84,63.36,63.36,0,0,1,13.76,24a64.12,64.12,0,0,1,8.94-9.88,57.09,57.09,0,0,1,10.73-7.6A54.24,54.24,0,0,1,45.57,1.7a51.29,51.29,0,0,1,25.08-.28,53.77,53.77,0,0,1,11.1,4.05,56.51,56.51,0,0,1,10,6.32,59.51,59.51,0,0,1,8.61,8.34Z" style="fill:#009ee3;fill-rule:evenodd"/></svg>