<svg xmlns="http://www.w3.org/2000/svg" viewBox="0 0 81.46 120"><title>Icon-Macro-Remove</title><path d="M79.84,14.06,76.57,2.32,74.41.11A2.17,2.17,0,0,0,73.69,0H7A1.73,1.73,0,0,0,6.3.11L4.17,2.24,1.36,14.06A106.19,106.19,0,0,0,0,28L.21,38.74l1.84,13Q2.83,68,4.37,84.25q1.65,17.09,4,34.08A5.45,5.45,0,0,0,13.08,120H68a5.34,5.34,0,0,0,4.63-1.62q2.42-17,4.07-34.08,1.47-15,2.28-30l2.26-15.45L81.46,28A90.25,90.25,0,0,0,79.84,14.06ZM67.07,69.77a32.35,32.35,0,0,1-3.36,5.88,30.35,30.35,0,0,1-4.48,4.92,28.54,28.54,0,0,1-5.38,3.75,28,28,0,0,1-6.07,2.41,25.53,25.53,0,0,1-6.6.85,25.11,25.11,0,0,1-5.89-.69,26.86,26.86,0,0,1-5.48-2,27.73,27.73,0,0,1-5-3.06,28.69,28.69,0,0,1-4.27-4l-9.9,9.88V63.13h24.6L25.61,72.8a19.87,19.87,0,0,0,6.94,4.9,21.83,21.83,0,0,0,8.63,1.71,22.05,22.05,0,0,0,7-1.12,20,20,0,0,0,6.07-3.23,19.65,19.65,0,0,0,4.59-5.13,19.91,19.91,0,0,0,2.62-6.8h7.61A30.67,30.67,0,0,1,67.07,69.77Zm3.7-17.55H46.2l9.64-9.49a19.63,19.63,0,0,0-7-5.13A22.37,22.37,0,0,0,33,37,20.33,20.33,0,0,0,27,40.24a19.7,19.7,0,0,0-4.6,5.17,20,20,0,0,0-2.61,6.81H12.13a31.35,31.35,0,0,1,5.45-12.55,31.78,31.78,0,0,1,4.47-4.94,28.74,28.74,0,0,1,5.37-3.8A26.73,26.73,0,0,1,33.5,28.5a25.4,25.4,0,0,1,6.56-.86,25,25,0,0,1,6,.72,26.39,26.39,0,0,1,5.56,2,27.85,27.85,0,0,1,5,3.17,28.78,28.78,0,0,1,4.31,4.17L70.77,28Z" style="fill:#009ee3"/></svg>