<svg xmlns="http://www.w3.org/2000/svg" viewBox="0 0 38.78 42"><defs><style>.cls-1{fill:#60b0e2;}.cls-1,.cls-2,.cls-3{fill-rule:evenodd;}.cls-2{fill:#fff;}.cls-3{fill:#0083cc;}.cls-4{fill:#009ee3;}</style></defs><title>Icon-Menu-Reprint-White_1</title><g id="Layer_2" data-name="Layer 2"><g id="Layer_1-2" data-name="Layer 1"><polygon class="cls-1" points="18.96 6.2 28.36 2.72 28.36 27.95 9.99 37.89 9.99 26.53 18.95 22.49 18.96 6.2"/><polygon class="cls-2" points="18.96 6.2 9.15 3.1 18.98 0 28.36 2.72 18.96 6.2"/><polygon class="cls-3" points="9.15 3.1 9.15 18.6 18.95 22.49 18.96 6.2 9.15 3.1"/><polygon class="cls-2" points="18.95 22.49 9.99 26.53 0 22.01 9.15 18.6 18.95 22.49"/><polygon class="cls-3" points="9.99 37.89 0.18 32.65 0 22.01 9.99 26.53 9.99 37.89"/><path class="cls-2" d="M19.34,32.28A9.72,9.72,0,1,1,29.06,42,9.72,9.72,0,0,1,19.34,32.28Z"/><path class="cls-4" d="M35.17,33.46a6.7,6.7,0,0,1-.44,1.42A6.84,6.84,0,0,1,34,36.15a7,7,0,0,1-1,1.06,6.69,6.69,0,0,1-1.16.81,5.86,5.86,0,0,1-1.3.51,5.65,5.65,0,0,1-1.42.19,5.38,5.38,0,0,1-1.27-.15,6.14,6.14,0,0,1-1.18-.42,6.28,6.28,0,0,1-2-1.53L22.6,38.74V33.46h5.29l-2.08,2.08a4.38,4.38,0,0,0,1.49,1.05,4.64,4.64,0,0,0,1.86.37,4.84,4.84,0,0,0,1.52-.24,4.22,4.22,0,0,0,2.85-3.26Z"/><path class="cls-4" d="M35.52,25.9v5.21H30.24l2.07-2A4.14,4.14,0,0,0,30.81,28a4.8,4.8,0,0,0-1.89-.38,4.73,4.73,0,0,0-1.51.24,4.49,4.49,0,0,0-1.31.71,4.26,4.26,0,0,0-1,1.12,4.57,4.57,0,0,0-.56,1.46H22.91a6.4,6.4,0,0,1,.44-1.43,6.88,6.88,0,0,1,.73-1.27,7.47,7.47,0,0,1,1-1.06,6.11,6.11,0,0,1,1.16-.82A6,6,0,0,1,27.51,26a5.62,5.62,0,0,1,2.7,0,6.3,6.3,0,0,1,1.19.44,6.76,6.76,0,0,1,1.08.68,6.6,6.6,0,0,1,.93.9Z"/></g></g></svg>