<svg id="Layer_1" data-name="Layer 1" xmlns="http://www.w3.org/2000/svg" viewBox="0 0 120 120"><defs><style>.cls-1{fill:#fff;}</style></defs><title>Icon-Calibrate</title><path class="cls-1" d="M55.38,1.57q11,4.94,22,9.87c3.3,1.5,6.85,2.65,9.78,4.69s5.23,5,7.79,7.55L108.87,37.6a10.27,10.27,0,0,0,1.13.79l-6.72,6.7-6.57,6.56,12.61,12.49c-3.11,3.35-8.32,3.83-11.58.93-3.4-3.07-6.56-6.39-9.82-9.61a7,7,0,0,1-.75-1L77.8,63.83a.72.72,0,0,0,.13.23c3,3.09,5.92,6.21,8.9,9.29a9.85,9.85,0,0,1,3,5.41,8.74,8.74,0,0,1-2.47,7.52L74.52,73.41,41.84,105.82c-1.37-1.25-2.77-2.47-4.08-3.77Q32.14,96.5,26.58,90.89c-1.18-1.19-2.32-2.42-3.43-3.65a1.3,1.3,0,0,1-.36-.79A15.49,15.49,0,0,1,25,78.5a8.15,8.15,0,0,1,4.38-3.15c2.33-.85,4.69-1.58,7-2.56a10.74,10.74,0,0,0,3-2.1c2.18-2.08,4.27-4.24,6.39-6.36a2.36,2.36,0,0,0-.27-.35c-2.73-2.16-4.22-5.11-5.6-8.2C36.3,47.91,32.75,40.06,29,32.31c-2.64-5.45-.92-9.69,3.28-13.07L64.61,51,77.25,38.35,45.36,6.16a12.44,12.44,0,0,1,6.82-4.57C53.24,1.57,54.31,1.57,55.38,1.57Z"/><path class="cls-1" d="M21.25,94.79,33.66,107.2,22.42,118.43,10,106Z"/></svg>