<svg xmlns="http://www.w3.org/2000/svg" viewBox="0 0 47.49 40"><title>Icon_Menu_Level_Gantry</title><polygon points="42.35 36.6 42.35 29.02 40.23 29.47 40.23 36.6 7.26 36.6 7.26 29.36 5.13 29.81 5.13 36.6 0 36.6 0 40 47.49 40 47.49 36.6 42.35 36.6" style="fill:#b2b2b2"/><polygon points="7.26 22.57 5.13 23.01 5.13 23.22 7.26 22.77 7.26 22.57" style="fill:#b2b2b2"/><polygon points="7.26 22.14 5.13 22.59 5.13 22.8 7.26 22.35 7.26 22.14" style="fill:#b2b2b2"/><polygon points="7.26 22.99 5.13 23.44 5.13 23.65 7.26 23.2 7.26 22.99" style="fill:#b2b2b2"/><polygon points="7.26 27.24 5.13 27.69 5.13 27.9 7.26 27.45 7.26 27.24" style="fill:#b2b2b2"/><polygon points="7.26 23.41 5.13 23.86 5.13 24.07 7.26 23.62 7.26 23.41" style="fill:#b2b2b2"/><polygon points="7.26 27.66 5.13 28.11 5.13 28.32 7.26 27.87 7.26 27.66" style="fill:#b2b2b2"/><polygon points="7.26 26.39 5.13 26.84 5.13 27.05 7.26 26.6 7.26 26.39" style="fill:#b2b2b2"/><polygon points="7.26 28.09 5.13 28.54 5.13 28.75 7.26 28.3 7.26 28.09" style="fill:#b2b2b2"/><polygon points="5.13 29.6 7.26 29.15 7.26 28.94 5.13 29.39 5.13 29.6" style="fill:#b2b2b2"/><polygon points="7.26 28.52 5.13 28.96 5.13 29.17 7.26 28.72 7.26 28.52" style="fill:#b2b2b2"/><polygon points="7.26 26.82 5.13 27.26 5.13 27.47 7.26 27.02 7.26 26.82" style="fill:#b2b2b2"/><polygon points="7.26 24.27 5.13 24.71 5.13 24.92 7.26 24.47 7.26 24.27" style="fill:#b2b2b2"/><polygon points="7.26 25.96 5.13 26.41 5.13 26.62 7.26 26.17 7.26 25.96" style="fill:#b2b2b2"/><polygon points="7.26 24.69 5.13 25.14 5.13 25.35 7.26 24.9 7.26 24.69" style="fill:#b2b2b2"/><polygon points="7.26 23.84 5.13 24.29 5.13 24.5 7.26 24.05 7.26 23.84" style="fill:#b2b2b2"/><polygon points="7.26 25.54 5.13 25.99 5.13 26.2 7.26 25.75 7.26 25.54" style="fill:#b2b2b2"/><polygon points="7.26 25.11 5.13 25.56 5.13 25.77 7.26 25.32 7.26 25.11" style="fill:#b2b2b2"/><polygon points="7.26 7.52 5.13 7.97 5.13 8.16 7.26 7.71 7.26 7.52" style="fill:#b2b2b2"/><polygon points="7.26 8.33 5.13 8.78 5.13 8.96 7.26 8.51 7.26 8.33" style="fill:#b2b2b2"/><polygon points="7.26 7.12 5.13 7.57 5.13 7.76 7.26 7.31 7.26 7.12" style="fill:#b2b2b2"/><polygon points="7.26 8.73 5.13 9.18 5.13 9.36 7.26 8.91 7.26 8.73" style="fill:#b2b2b2"/><polygon points="7.26 7.92 5.13 8.38 5.13 8.56 7.26 8.11 7.26 7.92" style="fill:#b2b2b2"/><polygon points="7.26 9.13 5.13 9.58 5.13 9.76 7.26 9.31 7.26 9.13" style="fill:#b2b2b2"/><polygon points="7.26 0 5.13 0 5.13 5.75 7.26 5.3 7.26 0" style="fill:#b2b2b2"/><polygon points="7.26 5.52 5.13 5.96 5.13 6.15 7.26 5.7 7.26 5.52" style="fill:#b2b2b2"/><polygon points="7.26 6.72 5.13 7.17 5.13 7.36 7.26 6.91 7.26 6.72" style="fill:#b2b2b2"/><polygon points="7.26 5.92 5.13 6.37 5.13 6.55 7.26 6.1 7.26 5.92" style="fill:#b2b2b2"/><polygon points="7.26 6.32 5.13 6.77 5.13 6.95 7.26 6.5 7.26 6.32" style="fill:#b2b2b2"/><path d="M5.14,22.16v.21L7.06,22H7.9v-.62l31.63,3.36v.77H41l-.77.17v.21L42,25.48h1V13.56h-.82l.23-.05V13.3l-1.22.26h-1.6v.66L7.9,10.86V10H7.26V9.93l-.5.11h-1l1.52-.32V9.53L5.14,10V10H4.49V22H6.08ZM7.9,13l31.63,3.36v6.21L7.9,19.21Z" style="fill:#b2b2b2"/><polygon points="42.35 27.32 40.23 27.77 40.23 27.98 42.35 27.53 42.35 27.32" style="fill:#b2b2b2"/><polygon points="42.35 26.9 40.23 27.35 40.23 27.56 42.35 27.11 42.35 26.9" style="fill:#b2b2b2"/><polygon points="42.35 26.47 40.23 26.92 40.23 27.13 42.35 26.68 42.35 26.47" style="fill:#b2b2b2"/><polygon points="42.35 26.05 40.23 26.5 40.23 26.71 42.35 26.26 42.35 26.05" style="fill:#b2b2b2"/><polygon points="40.23 29.25 42.35 28.81 42.35 28.6 40.23 29.05 40.23 29.25" style="fill:#b2b2b2"/><polygon points="42.35 27.75 40.23 28.2 40.23 28.41 42.35 27.96 42.35 27.75" style="fill:#b2b2b2"/><polygon points="42.35 28.17 40.23 28.62 40.23 28.83 42.35 28.38 42.35 28.17" style="fill:#b2b2b2"/><polygon points="42.35 25.62 40.23 26.07 40.23 26.28 42.35 25.83 42.35 25.62" style="fill:#b2b2b2"/><polygon points="42.35 7.99 40.23 8.44 40.23 8.62 42.35 8.17 42.35 7.99" style="fill:#b2b2b2"/><polygon points="42.35 7.58 40.23 8.03 40.23 8.22 42.35 7.77 42.35 7.58" style="fill:#b2b2b2"/><polygon points="42.35 7.18 40.23 7.63 40.23 7.82 42.35 7.37 42.35 7.18" style="fill:#b2b2b2"/><polygon points="42.35 9.59 40.23 10.04 40.23 10.23 42.35 9.78 42.35 9.59" style="fill:#b2b2b2"/><polygon points="42.35 6.78 40.23 7.23 40.23 7.42 42.35 6.96 42.35 6.78" style="fill:#b2b2b2"/><polygon points="42.35 9.19 40.23 9.64 40.23 9.82 42.35 9.38 42.35 9.19" style="fill:#b2b2b2"/><polygon points="42.35 8.79 40.23 9.24 40.23 9.42 42.35 8.97 42.35 8.79" style="fill:#b2b2b2"/><polygon points="42.35 8.39 40.23 8.84 40.23 9.02 42.35 8.57 42.35 8.39" style="fill:#b2b2b2"/><polygon points="42.35 0 40.23 0 40.23 5.41 42.35 4.96 42.35 0" style="fill:#b2b2b2"/><polygon points="42.35 6.38 40.23 6.83 40.23 7.01 42.35 6.56 42.35 6.38" style="fill:#b2b2b2"/><polygon points="42.35 5.17 40.23 5.62 40.23 5.81 42.35 5.36 42.35 5.17" style="fill:#b2b2b2"/><polygon points="42.35 5.98 40.23 6.43 40.23 6.61 42.35 6.16 42.35 5.98" style="fill:#b2b2b2"/><polygon points="42.35 5.58 40.23 6.03 40.23 6.21 42.35 5.76 42.35 5.58" style="fill:#b2b2b2"/><polygon points="42.35 12.87 40.23 13.32 40.23 13.53 42.35 13.08 42.35 12.87" style="fill:#b2b2b2"/><polygon points="42.35 12.02 40.23 12.47 40.23 12.68 42.35 12.23 42.35 12.02" style="fill:#b2b2b2"/><polygon points="42.35 10.8 40.23 11.24 40.23 11.43 42.35 10.98 42.35 10.8" style="fill:#b2b2b2"/><polygon points="42.35 11.2 40.23 11.65 40.23 11.83 42.35 11.38 42.35 11.2" style="fill:#b2b2b2"/><polygon points="42.35 10.39 40.23 10.84 40.23 11.03 42.35 10.58 42.35 10.39" style="fill:#b2b2b2"/><polygon points="42.35 12.45 40.23 12.9 40.23 13.11 42.35 12.66 42.35 12.45" style="fill:#b2b2b2"/><polygon points="42.35 11.6 40.23 12.05 40.23 12.26 42.35 11.81 42.35 11.6" style="fill:#b2b2b2"/><polygon points="42.35 9.99 40.23 10.44 40.23 10.63 42.35 10.18 42.35 9.99" style="fill:#b2b2b2"/></svg>