<svg xmlns="http://www.w3.org/2000/svg" viewBox="0 0 29.46 40"><defs><style>.cls-1{fill:#fff;}</style></defs><title>Icon-Recycle-Bin-Hover</title><g id="Layer_2" data-name="Layer 2"><g id="Layer_1-2" data-name="Layer 1"><path class="cls-1" d="M29.46,8.42H0V4.21H29.46Zm-2.09,2.1v27.4a6.36,6.36,0,0,1-.13,1,1.44,1.44,0,0,1-.32.63,1.21,1.21,0,0,1-.63.31,4.75,4.75,0,0,1-1,.09H4.19a4.85,4.85,0,0,1-1-.09,1.21,1.21,0,0,1-.64-.31A1.25,1.25,0,0,1,2.21,39a5.15,5.15,0,0,1-.08-1V10.52ZM10.52,15.78a1.11,1.11,0,0,0-.13-.6.73.73,0,0,0-.36-.31,1.78,1.78,0,0,0-.55-.12l-.68,0H8l-.68,0a1.72,1.72,0,0,0-.54.12.75.75,0,0,0-.37.31,1.11,1.11,0,0,0-.13.6v19a1.11,1.11,0,0,0,.13.6.83.83,0,0,0,.37.32,1.3,1.3,0,0,0,.54.13l.68,0H8.8l.68,0a1.35,1.35,0,0,0,.55-.13.8.8,0,0,0,.36-.32,1.11,1.11,0,0,0,.13-.6ZM19,2.1H10.52V0H19ZM16.83,15.78a1.11,1.11,0,0,0-.13-.6.69.69,0,0,0-.36-.31,1.78,1.78,0,0,0-.55-.12l-.68,0h-.77l-.67,0a1.72,1.72,0,0,0-.55.12.75.75,0,0,0-.37.31,1.22,1.22,0,0,0-.12.6v19a1.22,1.22,0,0,0,.12.6.83.83,0,0,0,.37.32,1.31,1.31,0,0,0,.55.13l.67,0h.77l.68,0a1.35,1.35,0,0,0,.55-.13.75.75,0,0,0,.36-.32,1.11,1.11,0,0,0,.13-.6Zm6.31,0a1.22,1.22,0,0,0-.12-.6.77.77,0,0,0-.36-.31,1.65,1.65,0,0,0-.54-.12l-.65,0h-.79l-.68,0a1.78,1.78,0,0,0-.55.12.69.69,0,0,0-.36.31,1.11,1.11,0,0,0-.13.6v19a1.11,1.11,0,0,0,.13.6.75.75,0,0,0,.36.32,1.35,1.35,0,0,0,.55.13l.68,0h.79l.65,0a1.26,1.26,0,0,0,.54-.13.86.86,0,0,0,.36-.32,1.22,1.22,0,0,0,.12-.6Z"/></g></g></svg>