<svg xmlns="http://www.w3.org/2000/svg" viewBox="0 0 40 40"><title>Icon_Menu_Eject_Stuck</title><path d="M20,0A20,20,0,1,0,40,20,20,20,0,0,0,20,0ZM31.53,7l.07-.08a1.16,1.16,0,0,1,1.63,0,18.18,18.18,0,0,1,2,2.33l.05.09a1.16,1.16,0,0,1-.42,1.58L31.5,12.83a1.15,1.15,0,0,1-1.5-.31,12.63,12.63,0,0,0-1.12-1.29,3.06,3.06,0,0,0-.73-.57.19.19,0,0,1-.1-.12.22.22,0,0,1,.13-.3,3.4,3.4,0,0,0,1.47-1ZM6.91,6.77a18.18,18.18,0,0,1,2.33-2l.09,0a1.16,1.16,0,0,1,1.58.42L12.83,8.5A1.17,1.17,0,0,1,12.52,10a12.49,12.49,0,0,0-1.3,1.11,3.3,3.3,0,0,0-.56.73.23.23,0,0,1-.12.1.23.23,0,0,1-.3-.14,3.52,3.52,0,0,0-1-1.47L7,8.47,6.9,8.4A1.15,1.15,0,0,1,6.91,6.77ZM2.05,15.08a17.05,17.05,0,0,1,1-2.85,1,1,0,0,1,0-.1,1.17,1.17,0,0,1,1.59-.42L8,13.63a1.15,1.15,0,0,1,.48,1.45A14,14,0,0,0,8,16.69a3.63,3.63,0,0,0-.12.92.2.2,0,0,1-.06.15.24.24,0,0,1-.33,0A3.47,3.47,0,0,0,5.83,17L3,16.53l-.1,0A1.15,1.15,0,0,1,2.05,15.08ZM3.41,25.54A1.16,1.16,0,0,1,2,24.72a19.09,19.09,0,0,1-.52-3,.45.45,0,0,1,0-.11,1.16,1.16,0,0,1,1.16-1.16H6.45a1.16,1.16,0,0,1,1.15,1,13.46,13.46,0,0,0,.32,1.68,3.79,3.79,0,0,0,.35.86.2.2,0,0,1,0,.15.23.23,0,0,1-.27.19,3.41,3.41,0,0,0-1.79.16l-2.73,1ZM8.47,33l-.07.08a1.16,1.16,0,0,1-1.63,0,18.18,18.18,0,0,1-2-2.33l-.06-.09a1.16,1.16,0,0,1,.43-1.58L8.5,27.17a1.15,1.15,0,0,1,1.5.31,11.51,11.51,0,0,0,1.12,1.29,3.34,3.34,0,0,0,.73.57.23.23,0,0,1,0,.42,3.46,3.46,0,0,0-1.47,1Zm17.78-2A6.5,6.5,0,0,1,25,35l.55,1.5,0,.1A1.17,1.17,0,0,1,24.72,38a19.22,19.22,0,0,1-3,.52h-.1a1.15,1.15,0,0,1-1.14-1.09l-.48,0a6.16,6.16,0,0,1-3.38-1l-.09.56,0,.1a1.15,1.15,0,0,1-1.42.81,18,18,0,0,1-2.85-1l-.1,0a1.16,1.16,0,0,1-.42-1.58L13.63,32a.74.74,0,0,1,.16-.19c0-.23,0-.47,0-.71A6.59,6.59,0,0,1,14.5,28a9.71,9.71,0,0,1,.07-16l-.3-7.43h.59l-.37-1,0-.11A1.14,1.14,0,0,1,15.28,2a17.84,17.84,0,0,1,3-.53h.11a1.16,1.16,0,0,1,1.16,1.16v1.9H23.2L23.47,3l0-.1a1.15,1.15,0,0,1,1.42-.81,18.35,18.35,0,0,1,2.85,1l.1.05a1.16,1.16,0,0,1,.42,1.58L26.37,8a1.15,1.15,0,0,1-.8.54L25.43,12A9.71,9.71,0,0,1,25.5,28,6.59,6.59,0,0,1,26.25,31.06Zm6.84,2.17a18.89,18.89,0,0,1-2.33,2l-.09.05a1.16,1.16,0,0,1-1.58-.42L27.17,31.5a1.15,1.15,0,0,1,.31-1.5,12.63,12.63,0,0,0,1.29-1.12,3.68,3.68,0,0,0,.57-.73.19.19,0,0,1,.12-.1.23.23,0,0,1,.3.14,3.42,3.42,0,0,0,1,1.46L33,31.53l.08.07A1.16,1.16,0,0,1,33.09,33.23ZM38,24.92a19.44,19.44,0,0,1-1,2.85.47.47,0,0,1,0,.1,1.16,1.16,0,0,1-1.58.42L32,26.37a1.15,1.15,0,0,1-.48-1.45A14,14,0,0,0,32,23.31a3.57,3.57,0,0,0,.12-.92.2.2,0,0,1,.06-.15.22.22,0,0,1,.32,0,3.55,3.55,0,0,0,1.63.76l2.87.5.1,0A1.15,1.15,0,0,1,38,24.92Zm-.57-5.38H33.54a1.15,1.15,0,0,1-1.14-1,13.46,13.46,0,0,0-.32-1.68,3.54,3.54,0,0,0-.35-.85.23.23,0,0,1,.24-.35,3.42,3.42,0,0,0,1.79-.16l2.73-1,.1,0a1.16,1.16,0,0,1,1.41.82,17.84,17.84,0,0,1,.53,3,.41.41,0,0,1,0,.11A1.16,1.16,0,0,1,37.38,19.54Z" style="fill:#b2b2b2;fill-rule:evenodd"/><path d="M15.75,31.06a4.25,4.25,0,1,1,8.5,0,4.25,4.25,0,1,1-8.5,0ZM16.6,12.8l-.25-6.28h7.3L23.4,12.8l-1,11.81H17.62Z" style="fill:#b2b2b2"/></svg>