<svg xmlns="http://www.w3.org/2000/svg" viewBox="0 0 121.13 137.98"><title>Icon-RoboxPro-Black70</title><g style="opacity:0.7"><path d="M37.77,0h-.25l-.33,0-.33.1-.33.17L35.11,1,5.19,18.17l-.36.23-.36.28L4.12,19l-.34.37-.34.42-.34.46-.32.51-.31.54-.29.58-.29.61-.26.65-.25.67-.24.7-.21.73L.74,26l-.17.75-.15.78-.13.78-.11.78-.08.79L0,30.66l0,.77V33l.1,2.71L2.91,113v0L3,115.51l0,.76.07.73.1.69.13.65.15.61.19.57.2.51.23.47.26.41.27.35.29.3.31.23.33.18.34.11.09,0,11.87,2.23-.66-.38-.31-.23-.29-.3-.28-.35-.25-.41-.23-.47-.21-.51-.18-.57-.15-.61-.13-.66-.1-.68-.07-.73,0-.77-.09-2.43-.24-8.31v-.55l0-.07,8.91-43.81v-.66l-.55-23.07L23,35.46V34.9l0-.56,0-.57,0-.57.05-.57.06-.57.08-.57.08-.57.1-.57.11-.56.11-.55.13-.55.14-.54.15-.52.15-.52.17-.5.17-.49.18-.48.19-.46.2-.44.2-.43.21-.4.22-.39.22-.36.22-.35.23-.32.23-.3.24-.28L43.24,4.32l5.25-3.15ZM11.07,109.48l0,.21-.06.19-.08.19-.1.17-.12.15-.1.09,0,0-.16.11-.18.09-.18.06-.2,0H9.4l-.22,0L9,110.71l-.21-.08-.2-.12-.19-.13-.18-.15L8,110.06l-.15-.18-.14-.2-.11-.21-.09-.21-.07-.21,0-.22,0-.23v-.22l0-.2.06-.2.07-.18.11-.17.12-.15.11-.11,0,0,.16-.11.17-.09.19-.06.2,0,.21,0,.21,0,.21,0,.22.06.2.09.21.11.19.13.19.15.17.17.15.18.13.2.11.21.09.21.07.22,0,.22,0,.22ZM9.37,59.71,8.8,40.06l11.48,1.56.47,19.78Z"/><polygon points="39.1 96.11 54.84 81.86 80.71 85.97 80.39 103.07 39.1 96.11"/><polygon points="91.49 104.94 104.96 89.83 90.87 87.56 90.6 104.78 91.49 104.94"/><polygon points="109.12 9.1 110.6 7.89 49.67 1.3 47.81 2.41 109.12 9.1"/><path d="M121.11,14.76l0-.71-.06-.68-.07-.65-.09-.6-.11-.57-.12-.52-.14-.47-.15-.42-.17-.37L120,9.46l-.19-.25L119.58,9l-.22-.13-.22-.07h0L111.73,8l-25,20.11-.28.26-.29.3-.28.36-.28.4-.28.45-.27.5-.27.54-.26.58-.25.61-.24.66-.23.68-.22.72-.2.74-.2.76-.18.79-.16.8-.15.81-.13.82-.11.83-.09.83-.08.82-.06.82,0,.81,0,.8-.07,3.06-1.05,80.4,0,2.65v.8l0,.76,0,.71.07.68.09.63.11.58.13.53.15.47.17.41.18.36.21.29.22.23.23.16.25.1H83L90.18,138h0l.2,0,.27,0,.27-.1.29-.16.28-.22.3-.29.29-.35L118,103.71l3.15-86.66,0-.79V15.5Zm-.87,1.5,0,.77-3.14,86.36-25.7,32.88-.25.29-.23.22-.19.16-.16.09-.12,0h-.07l-.07,0-.07-.06-.11-.11L90,136.7l-.14-.26-.14-.34-.13-.42-.13-.49-.09-.53-.09-.6-.06-.64,0-.68,0-.72v-.78l0-2.66L90.54,47.9,90.65,44l0-.8.06-.8.08-.81.09-.81L91,40l.13-.81.14-.8.16-.78.17-.77.19-.75.2-.73.21-.69.22-.67.23-.63.23-.6.25-.55.24-.52.25-.46.25-.42.24-.34.23-.31.23-.25.25-.23,22.81-19,1-.77.17-.12.09,0h0l0,0,.09.08.11.15.14.22.13.29.13.36.13.44.11.47.1.53.09.57.06.62.06.65,0,.69,0,.71Z"/><polygon points="81.5 136.37 19.16 124.37 18.52 123.99 18.07 123.69 17.62 123.34 17.25 122.93 16.94 122.47 16.69 121.95 16.5 121.39 16.32 120.77 16.18 120.12 16.05 119.43 16 118.7 15.94 117.94 15.85 115.51 80.09 127.14 80.12 129.79 80.11 130.59 80.14 131.35 80.19 132.06 80.24 132.74 80.33 133.37 80.43 133.95 80.53 134.48 80.66 134.96 80.82 135.37 80.99 135.72 81.2 136.06 81.5 136.37"/></g></svg>