<svg xmlns="http://www.w3.org/2000/svg" viewBox="0 0 89 64"><title>Icon-Move-X-10</title><polygon points="0 32 29 64 29 56 89 56 89 8 29 8 29 0 0 32" style="fill:#646464;fill-rule:evenodd"/><path d="M40.6,33.6h5.28v.93H40.6Z" style="fill:#fff"/><path d="M48.83,39.12h3.6V26.4H49.69v-.72a9.27,9.27,0,0,0,3-1h.87v14.4h3.33v.94h-8Z" style="fill:#fff"/><path d="M59.46,32.33c0-5.09,1.66-7.9,4.58-7.9s4.59,2.81,4.59,7.9-1.66,8-4.59,8S59.46,37.44,59.46,32.33Zm8.09,0c0-4.68-1.37-7-3.51-7s-3.5,2.31-3.5,7,1.39,7.1,3.5,7.1S67.55,37,67.55,32.33Z" style="fill:#fff"/></svg>