<svg id="Layer_1" data-name="Layer 1" xmlns="http://www.w3.org/2000/svg" viewBox="0 0 120 120"><defs><style>.cls-1{fill:#fff;}</style></defs><title>Icon-Maintenance</title><path class="cls-1" d="M110.7,69.34,72.59,61.76c.88-2.12.66-19.14-8.81-23.1l-14.44-6L51,28.7l4.37,1.82c1.59.67,3.86-1.14,4.52-2.73s.35-4.47-1.23-5.14L48.08,18.24c-1.59-.66-3.86,1.14-4.52,2.73s-.36,4.47,1.24,5.14l2.25.94L45.4,31,29.23,24.24c-2.12-.89-3.8-.76-4.69,1.36l-1.32,3.16c-8.07-2.81-18.35,1.13-22,9.73S2.1,57.19,9.78,60.94L8.51,64c-.89,2.13-1.12,6.6,1,7.48L54.6,90.31c2.12.89,6,.11,8.85-1L110.9,74.93ZM12.25,55C4.57,51.28,5,46.3,7.19,41s5.49-9.11,13.55-6.28Z"/><path id="path412" class="cls-1" d="M120,93.38v1c-.05.18,0,.44-.07.63-.27,3.22-2.37,6.15-4.81,6.71a2.8,2.8,0,0,1-.79.18h-.94a3.41,3.41,0,0,1-.79-.18c-2.62-.6-4.76-3.92-4.88-7.37v-1a12.09,12.09,0,0,1,.4-2c.2-.52.41-1,.65-1.52l.77-1.38a44.32,44.32,0,0,0,4.38-8.76l.31.87a26.56,26.56,0,0,0,4,8.18,10.78,10.78,0,0,0,.57,1,18.66,18.66,0,0,1,.84,1.92A10.14,10.14,0,0,1,120,93.38Z"/></svg>