<svg id="Layer_1" data-name="Layer 1" xmlns="http://www.w3.org/2000/svg" viewBox="0 0 120 120"><defs><style>.cls-1{fill:#fff;}.cls-2{fill:#009ee3;}.cls-3{fill:#eb672a;}</style></defs><title>Icon-DualMaterial</title><polygon class="cls-1" points="106.94 0.23 117.69 0.23 117.69 19.39 117.69 19.39 117.69 19.39 96.99 39.47 94.32 39.47 94.32 33.15 106.94 21.28 106.94 0.23"/><polygon class="cls-1" points="79.98 0.23 69.23 0.23 69.23 19.39 69.23 19.39 69.23 19.39 89.94 39.47 92.61 39.47 92.61 33.15 79.98 21.28 79.98 0.23"/><polygon class="cls-1" points="40.02 0.23 50.77 0.23 50.77 19.39 50.77 19.39 50.77 19.39 30.07 39.47 27.39 39.47 27.39 33.15 40.02 21.28 40.02 0.23"/><polygon class="cls-1" points="13.06 0.23 2.31 0.23 2.31 19.39 2.31 19.39 2.31 19.39 23.01 39.47 25.69 39.47 25.69 33.15 13.06 21.28 13.06 0.23"/><polygon class="cls-2" points="103.85 0 103.85 20 94.53 29.41 94.53 120 92.39 120 92.39 29.41 83.08 20 83.08 0 103.85 0"/><polygon class="cls-3" points="27.61 120 25.47 120 25.47 29.41 16.16 20 16.16 0 36.93 0 36.93 20 27.61 29.41 27.61 120"/></svg>