<svg xmlns="http://www.w3.org/2000/svg" viewBox="0 0 48 48"><title>Icon-Move-Z-Home_1</title><path d="M25.17,0a24.33,24.33,0,0,0-23,13.88A24,24,0,0,0,33,46.23,24.43,24.43,0,0,0,48,24,24.41,24.41,0,0,0,25.17,0Zm9.2,43.14h0A21.77,21.77,0,0,1,5.2,13.08a22,22,0,0,1,24.58-10,22,22,0,0,1,16,21A22.08,22.08,0,0,1,34.37,43.17Z" style="fill:#fff;fill-rule:evenodd"/><path d="M24,7.68l-15,15h4.09V36.32H34.91V22.68H39Zm5.12,23.86H19.36V29.76l6-8.79H19.91V18.49h9.15v1.78l-6,8.79h6Z" style="fill:#fff;fill-rule:evenodd"/></svg>