<svg xmlns="http://www.w3.org/2000/svg" viewBox="0 0 41.52 40"><title>Icon-Menu-Clean-White</title><polygon points="9.21 6.38 0 6.38 0 22.8 0 22.8 0 22.8 17.74 40 18.46 40 18.46 34.59 9.21 24.41 9.21 6.38" style="fill:#fff"/><polygon points="32.31 6.38 41.52 6.38 41.52 22.8 41.52 22.8 41.52 22.8 23.78 40 23.05 40 23.05 34.59 32.31 24.41 32.31 6.38" style="fill:#fff"/><polygon points="25.42 16.81 25.42 0 16.09 0 16.09 16.81 16.09 16.81 20.77 24.36 25.45 16.81 25.42 16.81" style="fill:#fff"/><polygon points="20.77 28.6 15.74 20.49 16.43 20.06 20.77 27.05 25.1 20.06 25.79 20.49 20.77 28.6" style="fill:#fff"/><polygon points="20.77 32.48 15.74 24.37 16.43 23.94 20.77 30.93 25.1 23.94 25.79 24.37 20.77 32.48" style="fill:#fff"/></svg>