<svg xmlns="http://www.w3.org/2000/svg" viewBox="0 0 67 94"><title>Icon-Move-Y+10</title><polygon points="27.99 94 64.16 65 56.14 65 67 0 18.88 0 8.02 65 0 65 27.99 94" style="fill:#646464;fill-rule:evenodd"/><path d="M23.78,31.88H19.34l.12-.91H23.9l.68-4.83h1L24.89,31h4.44l-.13.91H24.76l-.68,4.82h-1Z" style="fill:#fff"/><path d="M31.11,38.4h3.6L36.5,25.69H33.77l.1-.72A10.78,10.78,0,0,0,37,24h.87l-2,14.39h3.34l-.13.94H31Z" style="fill:#fff"/><path d="M42.7,31.61c.72-5.08,2.77-7.89,5.69-7.89s4.19,2.81,3.48,7.89-2.78,8-5.71,8S42,36.72,42.7,31.61Zm8.09,0c.66-4.68-.39-7-2.52-7s-3.83,2.3-4.49,7,.39,7.11,2.51,7.11S50.13,36.29,50.79,31.61Z" style="fill:#fff"/></svg>