<svg id="Layer_1" data-name="Layer 1" xmlns="http://www.w3.org/2000/svg" viewBox="0 0 120 120"><defs><style>.cls-1{fill:#fff;fill-rule:evenodd;}</style></defs><title>Icon-SmartReel</title><path class="cls-1" d="M120,60A60,60,0,1,1,60,0,60,60,0,0,1,120,60ZM84.55,30.73a.68.68,0,0,0-.41.88.66.66,0,0,0,.3.37,10.21,10.21,0,0,1,2.2,1.7A38.11,38.11,0,0,1,90,37.55a3.47,3.47,0,0,0,4.51.93l10-5.75A3.46,3.46,0,0,0,105.73,28c-.06-.09-.11-.19-.17-.27a55.19,55.19,0,0,0-5.86-7,3.46,3.46,0,0,0-4.9,0,2.85,2.85,0,0,0-.22.23L89,27.63A10.28,10.28,0,0,1,84.55,30.73ZM66.71,23.35a.69.69,0,0,0,.44.16,10.32,10.32,0,0,1,2.76.37,37.82,37.82,0,0,1,4.83,1.68,3.47,3.47,0,0,0,4.37-1.45l5.76-10A3.47,3.47,0,0,0,83.6,9.41l-.29-.14a55.31,55.31,0,0,0-8.56-3.12,3.46,3.46,0,0,0-4.26,2.43c0,.11-.05.21-.07.32l-1.52,8.6a10.35,10.35,0,0,1-2.28,4.87A.7.7,0,0,0,66.71,23.35ZM43.37,10.21a3,3,0,0,0,.09.31l3,8.21a10.44,10.44,0,0,1,.47,5.37.69.69,0,0,0,.56.8.68.68,0,0,0,.46-.08,10.08,10.08,0,0,1,2.57-1.06,38.39,38.39,0,0,1,5-1,3.47,3.47,0,0,0,3.06-3.44V7.85a3.47,3.47,0,0,0-3.47-3.46,2.2,2.2,0,0,0-.32,0,55.73,55.73,0,0,0-9,1.58A3.46,3.46,0,0,0,43.37,10.21Zm-22.66,15,.24.22L27.63,31a10.41,10.41,0,0,1,3.09,4.41.7.7,0,0,0,.89.42.77.77,0,0,0,.36-.31,10.35,10.35,0,0,1,1.7-2.21A36.56,36.56,0,0,1,37.55,30a3.48,3.48,0,0,0,.92-4.51l-5.75-10A3.47,3.47,0,0,0,28,14.27a2.37,2.37,0,0,0-.27.18,56.19,56.19,0,0,0-7,5.86A3.47,3.47,0,0,0,20.71,25.21ZM8.57,49.51l.31.07,8.6,1.51a10.44,10.44,0,0,1,4.88,2.28.7.7,0,0,0,1-.09.67.67,0,0,0,.16-.44,10.55,10.55,0,0,1,.37-2.76,37.64,37.64,0,0,1,1.69-4.83,3.47,3.47,0,0,0-1.45-4.37l-10-5.75A3.48,3.48,0,0,0,9.4,36.39l-.14.28a55.85,55.85,0,0,0-3.12,8.57A3.46,3.46,0,0,0,8.57,49.51Zm2,27,8.21-3a10.38,10.38,0,0,1,5.36-.47.69.69,0,0,0,.72-1,10.46,10.46,0,0,1-1.05-2.57,37.4,37.4,0,0,1-1-5,3.47,3.47,0,0,0-3.44-3.06H7.85a3.47,3.47,0,0,0-3.47,3.47c0,.1,0,.21,0,.32a56.51,56.51,0,0,0,1.58,9,3.47,3.47,0,0,0,4.24,2.48ZM35.44,89.27A.69.69,0,0,0,35.55,88a10.32,10.32,0,0,1-2.2-1.7A36.66,36.66,0,0,1,30,82.44a3.47,3.47,0,0,0-4.51-.92l-10,5.75A3.47,3.47,0,0,0,14.26,92l.17.27a56,56,0,0,0,5.86,7,3.47,3.47,0,0,0,4.9,0l.21-.24L31,92.36A10.47,10.47,0,0,1,35.44,89.27Zm17.84,7.39a.71.71,0,0,0-.45-.16,10.29,10.29,0,0,1-2.75-.38,37.32,37.32,0,0,1-4.84-1.69,3.48,3.48,0,0,0-4.37,1.45l-5.75,10a3.46,3.46,0,0,0,1.27,4.73l.28.15a56.7,56.7,0,0,0,8.56,3.12,3.47,3.47,0,0,0,4.26-2.43,2.68,2.68,0,0,0,.07-.32l1.52-8.59a10.4,10.4,0,0,1,2.28-4.89A.69.69,0,0,0,53.28,96.66Zm23.34,13.12a2.59,2.59,0,0,0-.09-.31l-3-8.2a10.43,10.43,0,0,1-.47-5.37.69.69,0,0,0-1-.73,10.39,10.39,0,0,1-2.57,1.06,38.47,38.47,0,0,1-5,1,3.47,3.47,0,0,0-3.05,3.44v11.51a3.47,3.47,0,0,0,3.47,3.47l.32,0a57,57,0,0,0,9-1.58A3.48,3.48,0,0,0,76.62,109.78ZM89.13,60A29.13,29.13,0,1,0,60,89.14,29.13,29.13,0,0,0,89.13,60ZM99.29,94.8l-.24-.22L92.36,89a10.41,10.41,0,0,1-3.09-4.41.69.69,0,0,0-.89-.41.68.68,0,0,0-.36.3,10.33,10.33,0,0,1-1.7,2.2A38.07,38.07,0,0,1,82.44,90a3.46,3.46,0,0,0-.93,4.51l5.75,10A3.46,3.46,0,0,0,92,105.73l.27-.17a55.1,55.1,0,0,0,7-5.86A3.46,3.46,0,0,0,99.29,94.8Zm12.14-24.31-.32-.07-8.6-1.5a10.51,10.51,0,0,1-4.89-2.28.69.69,0,0,0-1,.08.71.71,0,0,0-.16.45,10.3,10.3,0,0,1-.37,2.75,37.61,37.61,0,0,1-1.69,4.83,3.47,3.47,0,0,0,1.45,4.37l10,5.76a3.46,3.46,0,0,0,4.73-1.27,2.34,2.34,0,0,0,.15-.29,55.55,55.55,0,0,0,3.12-8.56A3.47,3.47,0,0,0,111.43,70.49Zm4.18-15.34c0-.11,0-.21,0-.33a56.07,56.07,0,0,0-1.58-9,3.47,3.47,0,0,0-4.24-2.47l-.3.1-8.21,3a10.4,10.4,0,0,1-5.37.47.7.7,0,0,0-.8.56.7.7,0,0,0,.08.47,10.47,10.47,0,0,1,1.05,2.56,37.05,37.05,0,0,1,1,5,3.48,3.48,0,0,0,3.44,3.06h11.51A3.47,3.47,0,0,0,115.61,55.14Z"/></svg>