<svg id="Layer_1" data-name="Layer 1" xmlns="http://www.w3.org/2000/svg" viewBox="0 0 120 120"><defs><style>.cls-1{fill:#fff;}</style></defs><title>Icon-Language</title><path class="cls-1" d="M51.42,114.32H43.69L37.31,97.16H13.94L7.73,114.32H0L22.2,57.16h6.91ZM16,91.48H35.2L26.53,67.94a20.63,20.63,0,0,1-.88-3.87h-.18q-.23,1.23-.44,2.2a9.54,9.54,0,0,1-.5,1.67ZM57.1,22.84V37.13H51.42v-20H80V5.68h8.55a1.57,1.57,0,0,1-.29.7,9.18,9.18,0,0,1-.73,1,5.81,5.81,0,0,1-.94.91,2,2,0,0,1-.91.44V17.1H120v20h-5.68V22.84ZM120,57.16V62.9H85.68V80a4.58,4.58,0,0,1-.91,3,7.85,7.85,0,0,1-2,1.76,8.9,8.9,0,0,1-2.81,1H68.58L65.71,80H80V62.9H51.42V57.16H80V48.55L94.29,40H62.84V34.32H102.9l4,3L85.68,51.42v5.74Z"/></svg>