<svg id="Layer_1" data-name="Layer 1" xmlns="http://www.w3.org/2000/svg" viewBox="0 0 120 120"><defs><style>.cls-1{fill:none;}.cls-2{fill:#fff;}</style></defs><title>Icon-GantryLevel</title><polyline class="cls-1" points="18.71 103.01 18.71 21.51 101.29 21.51 101.29 103.01"/><polygon class="cls-2" points="107.02 101.95 107.02 82.8 101.66 83.94 101.66 101.95 18.34 101.95 18.34 83.66 12.98 84.8 12.98 101.95 0 101.95 0 110.54 120 110.54 120 101.95 107.02 101.95"/><polygon class="cls-2" points="18.34 66.48 12.98 67.62 12.98 68.14 18.34 67.01 18.34 66.48"/><polygon class="cls-2" points="18.34 65.41 12.98 66.54 12.98 67.07 18.34 65.93 18.34 65.41"/><polygon class="cls-2" points="18.34 67.56 12.98 68.69 12.98 69.22 18.34 68.08 18.34 67.56"/><polygon class="cls-2" points="18.34 78.29 12.98 79.43 12.98 79.95 18.34 78.82 18.34 78.29"/><polygon class="cls-2" points="18.34 68.63 12.98 69.77 12.98 70.29 18.34 69.16 18.34 68.63"/><polygon class="cls-2" points="18.34 79.37 12.98 80.5 12.98 81.03 18.34 79.89 18.34 79.37"/><polygon class="cls-2" points="18.34 76.15 12.98 77.28 12.98 77.81 18.34 76.67 18.34 76.15"/><polygon class="cls-2" points="18.34 80.44 12.98 81.58 12.98 82.1 18.34 80.97 18.34 80.44"/><polygon class="cls-2" points="12.98 84.25 18.34 83.11 18.34 82.59 12.98 83.72 12.98 84.25"/><polygon class="cls-2" points="18.34 81.52 12.98 82.65 12.98 83.18 18.34 82.04 18.34 81.52"/><polygon class="cls-2" points="18.34 77.22 12.98 78.36 12.98 78.88 18.34 77.75 18.34 77.22"/><polygon class="cls-2" points="18.34 70.78 12.98 71.91 12.98 72.44 18.34 71.3 18.34 70.78"/><polygon class="cls-2" points="18.34 75.07 12.98 76.21 12.98 76.73 18.34 75.6 18.34 75.07"/><polygon class="cls-2" points="18.34 71.85 12.98 72.99 12.98 73.51 18.34 72.38 18.34 71.85"/><polygon class="cls-2" points="18.34 69.7 12.98 70.84 12.98 71.36 18.34 70.23 18.34 69.7"/><polygon class="cls-2" points="18.34 74 12.98 75.13 12.98 75.66 18.34 74.53 18.34 74"/><polygon class="cls-2" points="18.34 72.92 12.98 74.06 12.98 74.59 18.34 73.45 18.34 72.92"/><polygon class="cls-2" points="18.34 28.48 12.98 29.61 12.98 30.08 18.34 28.94 18.34 28.48"/><polygon class="cls-2" points="18.34 30.5 12.98 31.64 12.98 32.11 18.34 30.97 18.34 30.5"/><polygon class="cls-2" points="18.34 27.46 12.98 28.6 12.98 29.06 18.34 27.93 18.34 27.46"/><polygon class="cls-2" points="18.34 31.52 12.98 32.65 12.98 33.12 18.34 31.98 18.34 31.52"/><polygon class="cls-2" points="18.34 29.49 12.98 30.62 12.98 31.09 18.34 29.96 18.34 29.49"/><polygon class="cls-2" points="18.34 32.53 12.98 33.67 12.98 34.14 18.34 33 18.34 32.53"/><polygon class="cls-2" points="18.34 9.46 12.98 9.46 12.98 23.99 18.34 22.85 18.34 9.46"/><polygon class="cls-2" points="18.34 23.4 12.98 24.54 12.98 25 18.34 23.87 18.34 23.4"/><polygon class="cls-2" points="18.34 26.45 12.98 27.58 12.98 28.05 18.34 26.91 18.34 26.45"/><polygon class="cls-2" points="18.34 24.42 12.98 25.55 12.98 26.02 18.34 24.88 18.34 24.42"/><polygon class="cls-2" points="18.34 25.43 12.98 26.57 12.98 27.03 18.34 25.9 18.34 25.43"/><path class="cls-2" d="M13,65.47V66l4.87-1H20V63.41L99.9,71.9v2h3.71l-1.95.41v.53l4.44-.94h2.42V43.72h-2.09l.6-.13v-.53l-3.09.65h-4v1.67L20,36.9V34.83H18.35v-.27l-1.26.27H14.5L18.35,34v-.47L13,34.68v.14H11.35V65h4ZM20,42.3,99.9,50.79V66.5L20,58Z"/><polygon class="cls-2" points="107.02 78.5 101.66 79.64 101.66 80.17 107.02 79.03 107.02 78.5"/><polygon class="cls-2" points="107.02 77.43 101.66 78.57 101.66 79.09 107.02 77.96 107.02 77.43"/><polygon class="cls-2" points="107.02 76.36 101.66 77.49 101.66 78.02 107.02 76.88 107.02 76.36"/><polygon class="cls-2" points="107.02 75.28 101.66 76.42 101.66 76.94 107.02 75.81 107.02 75.28"/><polygon class="cls-2" points="101.66 83.39 107.02 82.25 107.02 81.73 101.66 82.86 101.66 83.39"/><polygon class="cls-2" points="107.02 79.58 101.66 80.71 101.66 81.24 107.02 80.1 107.02 79.58"/><polygon class="cls-2" points="107.02 80.65 101.66 81.79 101.66 82.31 107.02 81.18 107.02 80.65"/><polygon class="cls-2" points="107.02 74.21 101.66 75.34 101.66 75.87 107.02 74.73 107.02 74.21"/><polygon class="cls-2" points="107.02 29.64 101.66 30.77 101.66 31.24 107.02 30.11 107.02 29.64"/><polygon class="cls-2" points="107.02 28.63 101.66 29.76 101.66 30.23 107.02 29.09 107.02 28.63"/><polygon class="cls-2" points="107.02 27.61 101.66 28.75 101.66 29.21 107.02 28.08 107.02 27.61"/><polygon class="cls-2" points="107.02 33.7 101.66 34.83 101.66 35.3 107.02 34.17 107.02 33.7"/><polygon class="cls-2" points="107.02 26.6 101.66 27.73 101.66 28.2 107.02 27.06 107.02 26.6"/><polygon class="cls-2" points="107.02 32.68 101.66 33.82 101.66 34.29 107.02 33.15 107.02 32.68"/><polygon class="cls-2" points="107.02 31.67 101.66 32.8 101.66 33.27 107.02 32.14 107.02 31.67"/><polygon class="cls-2" points="107.02 30.66 101.66 31.79 101.66 32.26 107.02 31.12 107.02 30.66"/><polygon class="cls-2" points="107.02 9.46 101.66 9.46 101.66 23.13 107.02 21.99 107.02 9.46"/><polygon class="cls-2" points="107.02 25.58 101.66 26.72 101.66 27.18 107.02 26.05 107.02 25.58"/><polygon class="cls-2" points="107.02 22.54 101.66 23.67 101.66 24.14 107.02 23 107.02 22.54"/><polygon class="cls-2" points="107.02 24.57 101.66 25.7 101.66 26.17 107.02 25.03 107.02 24.57"/><polygon class="cls-2" points="107.02 23.55 101.66 24.69 101.66 25.15 107.02 24.02 107.02 23.55"/><polygon class="cls-2" points="107.02 41.99 101.66 43.13 101.66 43.66 107.02 42.52 107.02 41.99"/><polygon class="cls-2" points="107.02 39.85 101.66 40.98 101.66 41.51 107.02 40.37 107.02 39.85"/><polygon class="cls-2" points="107.02 36.74 101.66 37.88 101.66 38.34 107.02 37.21 107.02 36.74"/><polygon class="cls-2" points="107.02 37.76 101.66 38.89 101.66 39.36 107.02 38.22 107.02 37.76"/><polygon class="cls-2" points="107.02 35.73 101.66 36.86 101.66 37.33 107.02 36.2 107.02 35.73"/><polygon class="cls-2" points="107.02 40.92 101.66 42.05 101.66 42.58 107.02 41.45 107.02 40.92"/><polygon class="cls-2" points="107.02 38.77 101.66 39.91 101.66 40.43 107.02 39.3 107.02 38.77"/><polygon class="cls-2" points="107.02 34.71 101.66 35.85 101.66 36.32 107.02 35.18 107.02 34.71"/></svg>