<svg id="Layer_1" data-name="Layer 1" xmlns="http://www.w3.org/2000/svg" viewBox="0 0 140 70"><defs><style>.cls-1{fill:#009ee3;fill-rule:evenodd;}</style></defs><title>Icon-HalfSmartReel</title><path class="cls-1" d="M36,70a34,34,0,0,1,67.92-2.08c0,.7.06,1.39.06,2.08h36c0-1.43,0-2.85-.12-4.3A70,70,0,0,0,0,70Zm90.77-22.93a4.05,4.05,0,0,1,5.11,2.58A64.78,64.78,0,0,1,134.38,60a3.58,3.58,0,0,1,0,.38,4,4,0,0,1-3.79,4.29l-13.4.82A4.06,4.06,0,0,1,113,62.16a43.65,43.65,0,0,0-1.47-5.8,11.88,11.88,0,0,0-1.41-2.9.81.81,0,0,1,.76-1.26,12.18,12.18,0,0,0,6.22-.93l9.34-4.06ZM96.5,34.16a12,12,0,0,0,4.91-3.92L107.47,22c.08-.09.15-.2.24-.29a4,4,0,0,1,5.71-.32,64.42,64.42,0,0,1,7.32,7.71c.08.09.15.2.23.31a4,4,0,0,1-1.14,5.6l-11.19,7.42a4.06,4.06,0,0,1-5.33-.75,42.52,42.52,0,0,0-4.16-4.29,12.36,12.36,0,0,0-2.68-1.82.75.75,0,0,1-.38-.41A.79.79,0,0,1,96.5,34.16ZM75,25.7a12.06,12.06,0,0,0,2.3-5.84L78.47,9.74a2.4,2.4,0,0,1,.07-.37,4,4,0,0,1,4.78-3.13,64.55,64.55,0,0,1,10.2,3,3,3,0,0,1,.35.14,4,4,0,0,1,1.82,5.42l-6,12a4.05,4.05,0,0,1-5,2A43.85,43.85,0,0,0,79,27.23,12.26,12.26,0,0,0,75.71,27a.85.85,0,0,1-.53-.16A.83.83,0,0,1,75,25.7ZM49.64,8.12A64.79,64.79,0,0,1,60,5.64l.38,0a4,4,0,0,1,4.29,3.78l.83,13.4A4,4,0,0,1,62.15,27a44.54,44.54,0,0,0-5.79,1.46,12.23,12.23,0,0,0-2.92,1.42.8.8,0,0,1-.53.13.81.81,0,0,1-.72-.9,12.3,12.3,0,0,0-.93-6.22l-4.07-9.34a2.72,2.72,0,0,1-.13-.36A4,4,0,0,1,49.64,8.12ZM21.42,26.58a65.35,65.35,0,0,1,7.71-7.32l.3-.23A4,4,0,0,1,35,20.18l7.41,11.19a4,4,0,0,1-.75,5.32,41.73,41.73,0,0,0-4.28,4.17,12.07,12.07,0,0,0-1.83,2.68.85.85,0,0,1-.4.39.82.82,0,0,1-1.06-.42,12.16,12.16,0,0,0-3.92-4.92L22,32.53c-.1-.07-.19-.16-.29-.23A4.05,4.05,0,0,1,21.42,26.58ZM9.23,46.48l.15-.35a4.07,4.07,0,0,1,5.44-1.82l12,6a4,4,0,0,1,2,5A44.09,44.09,0,0,0,27.21,61,12.36,12.36,0,0,0,27,64.28a.79.79,0,0,1-.15.53.81.81,0,0,1-1.13.17,12.14,12.14,0,0,0-5.85-2.3L9.72,61.53l-.37-.06a4.05,4.05,0,0,1-3.14-4.79A65.73,65.73,0,0,1,9.23,46.48Z"/></svg>