<?xml version="1.0" encoding="utf-8"?>
<!-- Generator: Adobe Illustrator 23.0.0, SVG Export Plug-In . SVG Version: 6.00 Build 0)  -->
<svg version="1.1" id="Layer_1" xmlns="http://www.w3.org/2000/svg" xmlns:xlink="http://www.w3.org/1999/xlink" x="0px" y="0px"
	 viewBox="0 0 141 141" style="enable-background:new 0 0 141 141;" xml:space="preserve">
<style type="text/css">
	.st0{fill:#B2B2B2;}
	.st1{fill-rule:evenodd;clip-rule:evenodd;fill:#B2B2B2;}
</style>
<title>Icon-Menu-Grid-Control</title>
<circle class="st0" cx="40.2" cy="58.5" r="7.5"/>
<circle class="st0" cx="32.8" cy="102.2" r="5"/>
<path class="st1" d="M114.3,54.5h-9.5V45c0-2.2-1.8-4-4-4s-4,1.8-4,4v9.5h-9.5c-2.2,0-4,1.8-4,4s1.8,4,4,4h9.5V72c0,2.2,1.8,4,4,4
	s4-1.8,4-4v-9.5h9.5c2.2,0,4-1.8,4-4S116.5,54.5,114.3,54.5z"/>
<path class="st1" d="M115.5,20.5h-90c-11,0-20,9-20,20v60c0,11,9,20,20,20h90c11,0,20-9,20-20v-60C135.5,29.5,126.5,20.5,115.5,20.5
	z M51.8,109.2h-24c-3.9,0-7-3.1-7-7s3.1-7,7-7h24c3.9,0,7,3.1,7,7S55.7,109.2,51.8,109.2L51.8,109.2z M40.2,84.2
	c-14.2,0-25.7-11.5-25.7-25.7c0-14.2,11.5-25.7,25.7-25.7c14.2,0,25.7,11.5,25.7,25.7C65.9,72.7,54.4,84.2,40.2,84.2
	C40.2,84.2,40.2,84.2,40.2,84.2z M90.3,109.2c-3.9,0-7-3.1-7-7s3.1-7,7-7s7,3.1,7,7S94.2,109.2,90.3,109.2z M111.3,109.2
	c-3.9,0-7-3.1-7-7s3.1-7,7-7s7,3.1,7,7S115.2,109.2,111.3,109.2z M100.8,84.2c-14.2,0-25.7-11.5-25.7-25.7s11.5-25.7,25.7-25.7
	c14.2,0,25.7,11.5,25.7,25.7C126.5,72.7,115,84.2,100.8,84.2z"/>
<circle class="st0" cx="111.3" cy="102.2" r="4"/>
</svg>
