<svg xmlns="http://www.w3.org/2000/svg" viewBox="0 0 26.5 26.51"><title>Icon-Remaining-White</title><path d="M13.23,0a13.25,13.25,0,0,1,3.53.47,13.55,13.55,0,0,1,3.17,1.34,12.9,12.9,0,0,1,2.69,2.08,13.8,13.8,0,0,1,2.07,2.68A13.46,13.46,0,0,1,26,9.74a13.15,13.15,0,0,1,0,7A13.46,13.46,0,0,1,24.69,20a13.8,13.8,0,0,1-2.07,2.68A13.39,13.39,0,0,1,16.76,26a13.45,13.45,0,0,1-7,0A13.58,13.58,0,0,1,6.56,24.7,13.29,13.29,0,0,1,1.81,20,13.92,13.92,0,0,1,.47,16.78a13.42,13.42,0,0,1,0-7A13.92,13.92,0,0,1,1.81,6.57,13.8,13.8,0,0,1,3.88,3.89,13.11,13.11,0,0,1,6.56,1.81,13.47,13.47,0,0,1,9.72.47,13.21,13.21,0,0,1,13.23,0Zm0,23.85a10.61,10.61,0,0,0,7.5-3.11A10.19,10.19,0,0,0,22.4,18.6a10.35,10.35,0,0,0,1.07-2.53,10.47,10.47,0,0,0,.38-2.81A10.27,10.27,0,0,0,23,9.13a10.68,10.68,0,0,0-2.28-3.37,10.79,10.79,0,0,0-3.37-2.28,10.19,10.19,0,0,0-4.13-.83,10.45,10.45,0,0,0-2.8.37A11.15,11.15,0,0,0,7.9,4.1,10.49,10.49,0,0,0,5.76,5.76,10.74,10.74,0,0,0,4.1,7.91,10.59,10.59,0,0,0,3,10.45a10,10,0,0,0-.38,2.81A10.11,10.11,0,0,0,3,16.08,10.45,10.45,0,0,0,4.1,18.6a10.15,10.15,0,0,0,1.66,2.14A10.49,10.49,0,0,0,7.9,22.4a10.69,10.69,0,0,0,2.53,1.07A10.45,10.45,0,0,0,13.23,23.85ZM20,15.2a1.11,1.11,0,0,1,.43.4,1.2,1.2,0,0,1,.14.57,1.61,1.61,0,0,1-.66,1.28,1.06,1.06,0,0,1-.64.22,1,1,0,0,1-.45-.11l-6.26-3.13a1,1,0,0,1-.36-.3,1.65,1.65,0,0,1-.21-.42.91.91,0,0,1-.05-.31v-7a1,1,0,0,1,.38-.8,1.52,1.52,0,0,1,.95-.3,1.48,1.48,0,0,1,.93.3,1,1,0,0,1,.39.8v6.08Z" style="fill:#fff"/></svg>