<svg xmlns="http://www.w3.org/2000/svg" viewBox="0 0 64 75"><title>Icon-Move-Y-10</title><polygon points="36.08 0 0 28.62 8 28.62 1.97 75 49.97 75 56 28.62 64 28.62 36.08 0" style="fill:#646464;fill-rule:evenodd"/><path d="M15,49.62h5.28l-.13.93H14.87Z" style="fill:#fff"/><path d="M22.46,55.13h3.6l1.79-12.71H25.11l.1-.72a10.54,10.54,0,0,0,3.09-1h.86l-2,14.39h3.34l-.13.94h-8Z" style="fill:#fff"/><path d="M34.05,48.34c.71-5.08,2.76-7.89,5.69-7.89s4.19,2.81,3.48,7.89-2.79,8-5.71,8S33.33,53.46,34.05,48.34Zm8.09,0c.65-4.67-.39-7-2.53-7s-3.83,2.31-4.48,7,.39,7.11,2.5,7.11S41.48,53,42.14,48.34Z" style="fill:#fff"/></svg>