<svg xmlns="http://www.w3.org/2000/svg" viewBox="0 0 141 141"><title>Icon-Menu-Grid-Console-Inverse</title><polygon points="25.34 104.02 25.34 121.2 92.8 121.2 92.8 124.07 22.46 124.07 22.46 101.18 92.8 101.18 92.8 104.02 25.34 104.02 25.34 104.02" style="fill:#fff;fill-rule:evenodd"/><polygon points="84.18 118.33 84.18 106.89 28.21 106.89 28.21 118.33 84.18 118.33 84.18 118.33 84.18 118.33" style="fill:#fff;fill-rule:evenodd"/><polygon points="95.64 92.59 95.64 92.59 89.93 92.59 89.93 89.72 95.64 89.72 95.64 92.59 95.64 92.59" style="fill:#fff;fill-rule:evenodd"/><polygon points="89.93 132.66 89.93 132.66 95.64 132.66 95.64 135.5 89.93 135.5 89.93 132.66 89.93 132.66" style="fill:#fff;fill-rule:evenodd"/><polygon points="95.64 92.73 95.64 92.73 101.36 92.73 101.36 132.54 95.64 132.54 95.64 92.73 95.64 92.73" style="fill:#fff;fill-rule:evenodd"/><polygon points="101.36 89.72 101.36 89.72 107.11 89.72 107.11 92.59 101.36 92.59 101.36 89.72 101.36 89.72" style="fill:#fff;fill-rule:evenodd"/><polygon points="107.11 135.5 107.11 135.5 101.36 135.5 101.36 132.66 107.11 132.66 107.11 135.5 107.11 135.5" style="fill:#fff;fill-rule:evenodd"/><polygon points="118.54 101.18 118.54 101.18 118.54 124.07 104.23 124.07 104.23 121.2 115.67 121.2 115.67 104.02 104.23 104.02 104.23 101.18 118.54 101.18 118.54 101.18" style="fill:#fff;fill-rule:evenodd"/><polygon points="25.34 8.34 92.8 8.34 92.8 5.5 22.46 5.5 22.46 98.43 92.8 98.43 92.8 95.55 25.34 95.55 25.34 8.34 25.34 8.34" style="fill:#fff;fill-rule:evenodd"/><polygon points="118.54 5.5 104.23 5.5 104.23 8.34 115.67 8.34 115.67 95.55 104.23 95.55 104.23 98.43 118.54 98.43 118.54 5.5 118.54 5.5 118.54 5.5" style="fill:#fff;fill-rule:evenodd"/><polygon points="30.73 13.2 80.28 13.2 80.28 18.6 30.73 18.6 30.73 13.2 30.73 13.2" style="fill:#fff;fill-rule:evenodd"/><polygon points="30.73 22.28 72.5 22.28 72.5 27.68 30.73 27.68 30.73 22.28 30.73 22.28" style="fill:#fff;fill-rule:evenodd"/><polygon points="30.73 31.37 64.87 31.37 64.87 36.77 30.73 36.77 30.73 31.37 30.73 31.37" style="fill:#fff;fill-rule:evenodd"/><polygon points="30.73 40.46 55.51 40.46 55.51 45.86 30.73 45.86 30.73 40.46 30.73 40.46" style="fill:#fff;fill-rule:evenodd"/><polygon points="30.73 49.54 45.99 49.54 45.99 54.94 30.73 54.94 30.73 49.54 30.73 49.54" style="fill:#fff;fill-rule:evenodd"/><polygon points="30.73 58.63 86.49 58.63 86.49 64.03 30.73 64.03 30.73 58.63 30.73 58.63" style="fill:#fff;fill-rule:evenodd"/><polygon points="30.73 67.71 63.8 67.71 63.8 73.11 30.73 73.11 30.73 67.71 30.73 67.71" style="fill:#fff;fill-rule:evenodd"/><polygon points="30.73 76.8 88.87 76.8 88.87 82.2 30.73 82.2 30.73 76.8 30.73 76.8" style="fill:#fff;fill-rule:evenodd"/><rect x="30.73" y="85.88" width="24.77" height="5.4" style="fill:#fff"/></svg>