<svg xmlns="http://www.w3.org/2000/svg" viewBox="0 0 37.49 50"><title>Icon-Status-Paused-White</title><path d="M12.49,46.85a3.07,3.07,0,0,1-.24,1.21,3.14,3.14,0,0,1-.67,1,3.28,3.28,0,0,1-1,.68A2.8,2.8,0,0,1,9.37,50H3.09a2.72,2.72,0,0,1-1.19-.26,3.36,3.36,0,0,1-1-.68,3.31,3.31,0,0,1-.67-1A3.26,3.26,0,0,1,0,46.85V3.15A3.3,3.3,0,0,1,.24,1.94a3.31,3.31,0,0,1,.67-1,3.18,3.18,0,0,1,1-.68A2.72,2.72,0,0,1,3.09,0H9.37a2.8,2.8,0,0,1,1.21.26,3.13,3.13,0,0,1,1.91,2.89Zm25,0a3.07,3.07,0,0,1-.24,1.21,3.14,3.14,0,0,1-.67,1,3.28,3.28,0,0,1-1,.68,2.77,2.77,0,0,1-1.21.26H28.12a2.8,2.8,0,0,1-1.21-.26,3.28,3.28,0,0,1-1-.68,3.34,3.34,0,0,1-.68-1A3.47,3.47,0,0,1,25,46.85V3.15a3.51,3.51,0,0,1,.23-1.21,3.34,3.34,0,0,1,.68-1,3.11,3.11,0,0,1,1-.68A2.8,2.8,0,0,1,28.12,0h6.25a2.77,2.77,0,0,1,1.21.26,3.13,3.13,0,0,1,1.91,2.89Z" style="fill:#fff"/></svg>