<svg xmlns="http://www.w3.org/2000/svg" viewBox="0 0 40 40.69"><title>Icon-Menu-Colour-White</title><path d="M20,0a20,20,0,0,1,5.32.71,20.26,20.26,0,0,1,4.78,2,19.57,19.57,0,0,1,4,3.13,20.44,20.44,0,0,1,3.12,4.05A19.74,19.74,0,0,1,40,20a25.58,25.58,0,0,1-.42,4.88,21.69,21.69,0,0,1-1.12,3.87,16.86,16.86,0,0,1-1.57,3,21.06,21.06,0,0,1-1.78,2.3,24.84,24.84,0,0,1-1.77,1.78c-.57.52-1.08,1-1.52,1.43a9.66,9.66,0,0,1-1.68,1.33A13.61,13.61,0,0,1,26,40.42a8,8,0,0,1-2,.27,4.53,4.53,0,0,1-1.26-.16,2.09,2.09,0,0,1-1-.55,4,4,0,0,1-.95-1.39,3.93,3.93,0,0,1-.27-1.42,5.26,5.26,0,0,1,.21-1.46c.13-.49.28-1,.45-1.46s.31-1,.44-1.43a4.92,4.92,0,0,0,.21-1.41,3.53,3.53,0,0,0-.22-1.19,3.26,3.26,0,0,0-.76-1.13,3.7,3.7,0,0,0-1.71-.95A8.33,8.33,0,0,0,17,27.88a14.87,14.87,0,0,0-2.38.19c-.81.13-1.58.27-2.3.42l-1.95.42a6.91,6.91,0,0,1-1.32.18,5.31,5.31,0,0,1-1.31-.24,11.13,11.13,0,0,1-1.86-.75,14.92,14.92,0,0,1-2.06-1.25A10.62,10.62,0,0,1,2,25.08,9.44,9.44,0,0,1,.55,22.8,6.86,6.86,0,0,1,0,20a20,20,0,0,1,.71-5.32,20.09,20.09,0,0,1,14-14A20,20,0,0,1,20,0ZM9.09,15.9a3,3,0,0,0,1.24-.25,3.18,3.18,0,0,0,1-.67,3.15,3.15,0,0,0,.68-3.5,3.16,3.16,0,0,0-.68-1,3.21,3.21,0,0,0-1-.68,3,3,0,0,0-1.24-.26,3.06,3.06,0,0,0-1.24.26,3.25,3.25,0,0,0-1,.68,3.3,3.3,0,0,0-.67,1,3.2,3.2,0,0,0,0,2.48,3,3,0,0,0,1.69,1.69A3.05,3.05,0,0,0,9.09,15.9Zm0,9.1a3.19,3.19,0,0,0,1.24-.25,3,3,0,0,0,1-.68,3,3,0,0,0,.68-1,3,3,0,0,0,.26-1.24A3,3,0,0,0,12,20.58a3,3,0,0,0-.68-1,3.24,3.24,0,0,0-1-.69,3,3,0,0,0-1.24-.25,3.05,3.05,0,0,0-1.24.25,3.28,3.28,0,0,0-1,.69,3.18,3.18,0,0,0-.67,1,3,3,0,0,0-.25,1.23,3,3,0,0,0,.25,1.24,3.07,3.07,0,0,0,1.69,1.7A3.23,3.23,0,0,0,9.09,25Zm7.29-14.55a3,3,0,0,0,1.23-.25,3,3,0,0,0,1-.68,3.12,3.12,0,0,0,.69-1,3.28,3.28,0,0,0,.25-1.25A3.18,3.18,0,0,0,19.31,6a3.24,3.24,0,0,0-1.7-1.69,3.14,3.14,0,0,0-1.23-.24,3.27,3.27,0,0,0-1.25.24,3.1,3.1,0,0,0-1,.68,3,3,0,0,0-.68,1,3,3,0,0,0-.25,1.23,3.1,3.1,0,0,0,.25,1.25,3.18,3.18,0,0,0,1.69,1.69A3.1,3.1,0,0,0,16.38,10.45Zm5.91-3.19a3.27,3.27,0,0,0,.24,1.25,3.1,3.1,0,0,0,.68,1,3,3,0,0,0,1,.68,3,3,0,0,0,1.23.25,3,3,0,0,0,1.24-.25,3.16,3.16,0,0,0,1-.68,3.24,3.24,0,0,0,.94-2.26A3,3,0,0,0,28.38,6a3.21,3.21,0,0,0-.68-1,3.33,3.33,0,0,0-1-.68,3.19,3.19,0,0,0-1.24-.24,3.14,3.14,0,0,0-1.23.24A3.18,3.18,0,0,0,22.53,6,3.17,3.17,0,0,0,22.29,7.26Zm6.8,26.83a3,3,0,0,0,1.24-.25,3.18,3.18,0,0,0,1-.67,3.28,3.28,0,0,0,.69-1,3.23,3.23,0,0,0,.25-1.24A3.19,3.19,0,0,0,32,29.67a3.36,3.36,0,0,0-.69-1,3.21,3.21,0,0,0-1-.68,3,3,0,0,0-1.24-.26,3.06,3.06,0,0,0-1.24.26,3.25,3.25,0,0,0-1,.68,3.3,3.3,0,0,0-.67,1,3,3,0,0,0-.25,1.24,3.05,3.05,0,0,0,.25,1.24,3,3,0,0,0,1.69,1.69A3.05,3.05,0,0,0,29.09,34.09ZM32.72,9.53a3,3,0,0,0-1.23.26,3.25,3.25,0,0,0-1,.68,3.3,3.3,0,0,0-.67,1,3.2,3.2,0,0,0,0,2.48,3,3,0,0,0,1.69,1.69,3,3,0,0,0,1.23.25A3.05,3.05,0,0,0,34,15.65,3.18,3.18,0,0,0,35.65,14a3.2,3.2,0,0,0,0-2.48,3.36,3.36,0,0,0-.69-1,3.28,3.28,0,0,0-1-.68A3.06,3.06,0,0,0,32.72,9.53Zm0,15.47A3.23,3.23,0,0,0,34,24.75a3.11,3.11,0,0,0,1-.68,3.17,3.17,0,0,0,.69-1,3,3,0,0,0,.25-1.24,3,3,0,0,0-.25-1.23,3.24,3.24,0,0,0-.69-1,3.31,3.31,0,0,0-1-.69,3.05,3.05,0,0,0-1.24-.25,3,3,0,0,0-1.23.25,3.28,3.28,0,0,0-1,.69,3.18,3.18,0,0,0-.67,1,3,3,0,0,0-.25,1.23,3,3,0,0,0,.25,1.24A3.17,3.17,0,0,0,32.72,25Z" style="fill:#fff"/></svg>