<svg xmlns="http://www.w3.org/2000/svg" viewBox="0 0 107.84 120"><title>Icon-Macro-Axis</title><polygon points="107.84 76.87 67 65.93 67 73.11 34.73 73.11 34.73 40.84 41.91 40.84 30.96 0 20.02 40.84 27.2 40.84 27.2 75.65 21.02 84.12 15.22 79.89 0 119.34 32.9 92.79 27.1 88.56 32.88 80.64 67 80.64 67 87.82 107.84 76.87" style="fill:#009ee3"/><path d="M92.24,61l-3.13-6h3.62l.83,2c.26.57.53,1.24.86,2h.08c.26-.79.53-1.46.76-2L96,55h3.47l-3.13,6.11,3.32,6.15H96l-1-2.19c-.3-.64-.57-1.28-.87-2h-.07c-.27.76-.53,1.4-.8,2l-.9,2.19H88.92Z" style="fill:#009ee3"/><path d="M24.43,115.78l-3.7-8H24.2l.9,2.56c.3.92.61,1.77.93,2.73h.07c.32-1,.64-1.81,1-2.73l.91-2.56h3.39l-3.69,8V120H24.43Z" style="fill:#009ee3"/><path d="M40.36,16.32l5-7.58H40.85V6h8.52V8l-5,7.58h5v2.71h-9Z" style="fill:#009ee3"/></svg>