<svg xmlns="http://www.w3.org/2000/svg" viewBox="0 0 48 48"><title>Icon-Move-AmbLights</title><path d="M14,25.53H10.16a2.26,2.26,0,0,1-.69-.1,1.85,1.85,0,0,1-.61-.31,1.44,1.44,0,0,1-.44-.48A1.23,1.23,0,0,1,8.26,24a1.27,1.27,0,0,1,.16-.64,1.5,1.5,0,0,1,.44-.5,1.83,1.83,0,0,1,.61-.3,2.26,2.26,0,0,1,.69-.1H14Zm1.82-7.47-2.75-2.75a2.55,2.55,0,0,1-.46-.71,1.81,1.81,0,0,1-.17-.76,1.37,1.37,0,0,1,.38-1,1.22,1.22,0,0,1,.48-.3,1.65,1.65,0,0,1,.52-.1,2,2,0,0,1,.77.17,2.33,2.33,0,0,1,.68.46l2.76,2.74Zm2.21,14.09-2.76,2.74a2.33,2.33,0,0,1-.68.46,2,2,0,0,1-.77.16,1.63,1.63,0,0,1-.52-.09,1.22,1.22,0,0,1-.48-.3,1.37,1.37,0,0,1-.38-1,1.78,1.78,0,0,1,.17-.76,2.55,2.55,0,0,1,.46-.71l2.75-2.75ZM16.47,24a6.86,6.86,0,0,1,.61-2.88,7.63,7.63,0,0,1,1.63-2.38,7.77,7.77,0,0,1,2.39-1.62,7.16,7.16,0,0,1,2.89-.6,7.37,7.37,0,0,1,3,.6,7.63,7.63,0,0,1,2.36,1.62,7.13,7.13,0,0,1,1.56,2.38A7.68,7.68,0,0,1,31.45,24a8.56,8.56,0,0,1-.54,3.06,7.48,7.48,0,0,1-1.56,2.46A7.36,7.36,0,0,1,27,31.16a7.22,7.22,0,0,1-3,.61,7,7,0,0,1-2.89-.61,7.49,7.49,0,0,1-2.39-1.64,8,8,0,0,1-1.63-2.46A7.64,7.64,0,0,1,16.47,24Zm6-10V10.11a2.37,2.37,0,0,1,.11-.69,2.06,2.06,0,0,1,.31-.61,1.47,1.47,0,0,1,.5-.43,1.33,1.33,0,0,1,.63-.15,1.37,1.37,0,0,1,.64.15,1.41,1.41,0,0,1,.48.43,2.71,2.71,0,0,1,.32.61,2.09,2.09,0,0,1,.12.69V14Zm3.11,20v3.88a2.08,2.08,0,0,1-.12.68,2.58,2.58,0,0,1-.32.62,1.52,1.52,0,0,1-.48.43,1.37,1.37,0,0,1-.64.15,1.33,1.33,0,0,1-.63-.15,1.59,1.59,0,0,1-.5-.43,2,2,0,0,1-.31-.62,2.35,2.35,0,0,1-.11-.68V34ZM30,15.85l2.75-2.74a2.2,2.2,0,0,1,.68-.46,1.91,1.91,0,0,1,.77-.17,1.71,1.71,0,0,1,.53.1,1.29,1.29,0,0,1,.86,1.26,2,2,0,0,1-.17.76,2.58,2.58,0,0,1-.47.71l-2.74,2.75Zm2.21,14.09,2.74,2.75a2.58,2.58,0,0,1,.47.71,1.94,1.94,0,0,1,.17.76,1.29,1.29,0,0,1-.86,1.26,1.69,1.69,0,0,1-.53.09,1.9,1.9,0,0,1-.77-.16,2.2,2.2,0,0,1-.68-.46L30,32.15ZM34,22.47h3.88a2.35,2.35,0,0,1,.69.1,1.93,1.93,0,0,1,.61.3,1.59,1.59,0,0,1,.43.5,1.37,1.37,0,0,1,.15.64,1.33,1.33,0,0,1-.15.63,1.52,1.52,0,0,1-.43.48,2,2,0,0,1-.61.31,2.35,2.35,0,0,1-.69.1H34Z" style="fill:#fff"/><path d="M25.17,0a24.33,24.33,0,0,0-23,13.88A24,24,0,0,0,33,46.23,24.43,24.43,0,0,0,48,24,24.41,24.41,0,0,0,25.17,0Zm9.2,43.14h0A21.77,21.77,0,0,1,5.2,13.08a22,22,0,0,1,24.58-10,22,22,0,0,1,16,21A22.08,22.08,0,0,1,34.37,43.17Z" style="fill:#fff;fill-rule:evenodd"/></svg>