<svg xmlns="http://www.w3.org/2000/svg" viewBox="0 0 142.47 120"><title>Icon-Macro-Level</title><polygon points="127.06 109.8 127.06 87.07 120.69 88.42 120.69 109.8 21.78 109.8 21.78 88.09 15.4 89.44 15.4 109.8 0 109.8 0 120 142.47 120 142.47 109.8 127.06 109.8" style="fill:#009ee3"/><polygon points="21.78 67.69 15.4 69.04 15.4 69.67 21.78 68.32 21.78 67.69" style="fill:#009ee3"/><polygon points="21.78 66.42 15.4 67.77 15.4 68.39 21.78 67.05 21.78 66.42" style="fill:#009ee3"/><polygon points="21.78 68.97 15.4 70.32 15.4 70.94 21.78 69.59 21.78 68.97" style="fill:#009ee3"/><polygon points="21.78 81.72 15.4 83.07 15.4 83.69 21.78 82.34 21.78 81.72" style="fill:#009ee3"/><polygon points="21.78 70.25 15.4 71.59 15.4 72.22 21.78 70.87 21.78 70.25" style="fill:#009ee3"/><polygon points="21.78 82.99 15.4 84.34 15.4 84.97 21.78 83.62 21.78 82.99" style="fill:#009ee3"/><polygon points="21.78 79.17 15.4 80.52 15.4 81.14 21.78 79.79 21.78 79.17" style="fill:#009ee3"/><polygon points="21.78 84.27 15.4 85.62 15.4 86.24 21.78 84.89 21.78 84.27" style="fill:#009ee3"/><polygon points="15.4 88.79 21.78 87.44 21.78 86.82 15.4 88.17 15.4 88.79" style="fill:#009ee3"/><polygon points="21.78 85.54 15.4 86.89 15.4 87.52 21.78 86.17 21.78 85.54" style="fill:#009ee3"/><polygon points="21.78 80.44 15.4 81.79 15.4 82.42 21.78 81.07 21.78 80.44" style="fill:#009ee3"/><polygon points="21.78 72.8 15.4 74.14 15.4 74.77 21.78 73.42 21.78 72.8" style="fill:#009ee3"/><polygon points="21.78 77.89 15.4 79.24 15.4 79.87 21.78 78.52 21.78 77.89" style="fill:#009ee3"/><polygon points="21.78 74.07 15.4 75.42 15.4 76.04 21.78 74.69 21.78 74.07" style="fill:#009ee3"/><polygon points="21.78 71.52 15.4 72.87 15.4 73.49 21.78 72.14 21.78 71.52" style="fill:#009ee3"/><polygon points="21.78 76.62 15.4 77.97 15.4 78.59 21.78 77.24 21.78 76.62" style="fill:#009ee3"/><polygon points="21.78 75.34 15.4 76.69 15.4 77.32 21.78 75.97 21.78 75.34" style="fill:#009ee3"/><polygon points="21.78 22.57 15.4 23.92 15.4 24.47 21.78 23.13 21.78 22.57" style="fill:#009ee3"/><polygon points="21.78 24.98 15.4 26.33 15.4 26.88 21.78 25.54 21.78 24.98" style="fill:#009ee3"/><polygon points="21.78 21.37 15.4 22.72 15.4 23.27 21.78 21.92 21.78 21.37" style="fill:#009ee3"/><polygon points="21.78 26.19 15.4 27.53 15.4 28.09 21.78 26.74 21.78 26.19" style="fill:#009ee3"/><polygon points="21.78 23.78 15.4 25.12 15.4 25.68 21.78 24.33 21.78 23.78" style="fill:#009ee3"/><polygon points="21.78 27.39 15.4 28.74 15.4 29.29 21.78 27.95 21.78 27.39" style="fill:#009ee3"/><polygon points="21.78 0 15.4 0 15.4 17.25 21.78 15.9 21.78 0" style="fill:#009ee3"/><polygon points="21.78 16.55 15.4 17.9 15.4 18.45 21.78 17.1 21.78 16.55" style="fill:#009ee3"/><polygon points="21.78 20.16 15.4 21.51 15.4 22.07 21.78 20.72 21.78 20.16" style="fill:#009ee3"/><polygon points="21.78 17.75 15.4 19.1 15.4 19.66 21.78 18.31 21.78 17.75" style="fill:#009ee3"/><polygon points="21.78 18.96 15.4 20.31 15.4 20.86 21.78 19.51 21.78 18.96" style="fill:#009ee3"/><path d="M15.41,66.49v.63l5.78-1.22h2.52V64.05L118.6,74.13v2.32H123l-2.31.49v.63L126,76.45h2.88V40.67h-2.48l.71-.15V39.9l-3.67.77H118.6v2L23.71,32.58V30.12H21.78V29.8l-1.49.32H17.21l4.57-1V28.6l-6.37,1.34v.18H13.48V65.9h4.75ZM23.71,39,118.6,49.07V67.72L23.71,57.64Z" style="fill:#009ee3"/><polygon points="127.06 81.97 120.69 83.32 120.69 83.94 127.06 82.59 127.06 81.97" style="fill:#009ee3"/><polygon points="127.06 80.69 120.69 82.04 120.69 82.67 127.06 81.32 127.06 80.69" style="fill:#009ee3"/><polygon points="127.06 79.42 120.69 80.77 120.69 81.39 127.06 80.04 127.06 79.42" style="fill:#009ee3"/><polygon points="127.06 78.14 120.69 79.49 120.69 80.12 127.06 78.77 127.06 78.14" style="fill:#009ee3"/><polygon points="120.69 87.77 127.06 86.42 127.06 85.79 120.69 87.14 120.69 87.77" style="fill:#009ee3"/><polygon points="127.06 83.24 120.69 84.59 120.69 85.22 127.06 83.87 127.06 83.24" style="fill:#009ee3"/><polygon points="127.06 84.52 120.69 85.87 120.69 86.49 127.06 85.14 127.06 84.52" style="fill:#009ee3"/><polygon points="127.06 76.87 120.69 78.22 120.69 78.84 127.06 77.49 127.06 76.87" style="fill:#009ee3"/><polygon points="127.06 23.95 120.69 25.3 120.69 25.86 127.06 24.51 127.06 23.95" style="fill:#009ee3"/><polygon points="127.06 22.75 120.69 24.1 120.69 24.65 127.06 23.3 127.06 22.75" style="fill:#009ee3"/><polygon points="127.06 21.55 120.69 22.89 120.69 23.45 127.06 22.1 127.06 21.55" style="fill:#009ee3"/><polygon points="127.06 28.77 120.69 30.12 120.69 30.68 127.06 29.33 127.06 28.77" style="fill:#009ee3"/><polygon points="127.06 20.34 120.69 21.69 120.69 22.24 127.06 20.9 127.06 20.34" style="fill:#009ee3"/><polygon points="127.06 27.57 120.69 28.92 120.69 29.47 127.06 28.12 127.06 27.57" style="fill:#009ee3"/><polygon points="127.06 26.36 120.69 27.71 120.69 28.27 127.06 26.92 127.06 26.36" style="fill:#009ee3"/><polygon points="127.06 25.16 120.69 26.51 120.69 27.06 127.06 25.71 127.06 25.16" style="fill:#009ee3"/><polygon points="127.06 0 120.69 0 120.69 16.22 127.06 14.87 127.06 0" style="fill:#009ee3"/><polygon points="127.06 19.14 120.69 20.48 120.69 21.04 127.06 19.69 127.06 19.14" style="fill:#009ee3"/><polygon points="127.06 15.52 120.69 16.87 120.69 17.43 127.06 16.08 127.06 15.52" style="fill:#009ee3"/><polygon points="127.06 17.93 120.69 19.28 120.69 19.83 127.06 18.49 127.06 17.93" style="fill:#009ee3"/><polygon points="127.06 16.73 120.69 18.08 120.69 18.63 127.06 17.28 127.06 16.73" style="fill:#009ee3"/><polygon points="127.06 38.62 120.69 39.97 120.69 40.59 127.06 39.25 127.06 38.62" style="fill:#009ee3"/><polygon points="127.06 36.07 120.69 37.42 120.69 38.05 127.06 36.7 127.06 36.07" style="fill:#009ee3"/><polygon points="127.06 32.39 120.69 33.74 120.69 34.29 127.06 32.94 127.06 32.39" style="fill:#009ee3"/><polygon points="127.06 33.59 120.69 34.94 120.69 35.49 127.06 34.15 127.06 33.59" style="fill:#009ee3"/><polygon points="127.06 31.18 120.69 32.53 120.69 33.09 127.06 31.74 127.06 31.18" style="fill:#009ee3"/><polygon points="127.06 37.35 120.69 38.7 120.69 39.32 127.06 37.97 127.06 37.35" style="fill:#009ee3"/><polygon points="127.06 34.8 120.69 36.15 120.69 36.77 127.06 35.42 127.06 34.8" style="fill:#009ee3"/><polygon points="127.06 29.98 120.69 31.33 120.69 31.88 127.06 30.53 127.06 29.98" style="fill:#009ee3"/></svg>