<svg xmlns="http://www.w3.org/2000/svg" viewBox="0 0 100 50"><title>Icon-Home-CustomReel</title><path d="M99.48,41.37a2.1,2.1,0,0,0-1.37-.81L86.2,38.74a39.21,39.21,0,0,0-2.67-6.39Q84.7,30.73,87,27.77c1.57-2,2.67-3.42,3.32-4.33a2.51,2.51,0,0,0,.52-1.5,2.1,2.1,0,0,0-.45-1.43Q88.09,17.18,79.69,9.44a2.57,2.57,0,0,0-1.63-.65,2.07,2.07,0,0,0-1.56.59l-9.25,7a40.91,40.91,0,0,0-5.86-2.41L59.57,2a2,2,0,0,0-.75-1.4A2.46,2.46,0,0,0,57.23,0H42.77a2.19,2.19,0,0,0-2.34,1.82,108.82,108.82,0,0,0-1.89,12.11,36.88,36.88,0,0,0-5.92,2.48l-9-7a2.79,2.79,0,0,0-1.69-.65q-1.44,0-6.15,4.66a63.35,63.35,0,0,0-6.41,7,2.72,2.72,0,0,0-.59,1.5,2.46,2.46,0,0,0,.65,1.56q4.37,5.28,7,9a32,32,0,0,0-2.54,6L1.76,40.3a2,2,0,0,0-1.24.85A2.46,2.46,0,0,0,0,42.64V50H100V42.9A2.46,2.46,0,0,0,99.48,41.37Z" style="fill:#fff"/></svg>