<svg xmlns="http://www.w3.org/2000/svg" viewBox="0 0 23.74 24"><title>Icon-Tweak-Bed</title><rect y="22.16" width="23.74" height="1.84" style="fill:#ffc800"/><path d="M6.72,20.61l-2.47-2c1.77-2,1.06-3.58-.46-6.37C2.16,9.22-.09,5.08,4.25,0L6.73,2c-3,3.48-1.7,5.84-.08,8.81,1.47,2.72,3.3,6.1.07,9.82" style="fill:#ffc800"/><path d="M13.25,20.61l-2.46-2c1.75-2,1.05-3.58-.47-6.37-1.63-3-3.88-7.16.45-12.24l2.49,2c-3,3.49-1.7,5.84-.09,8.81,1.48,2.72,3.31,6.1.08,9.82" style="fill:#ffc800"/><path d="M19.82,20.61l-2.46-2c1.76-2,1.05-3.58-.46-6.37C15.26,9.22,13,5.08,17.35,0l2.48,2c-3,3.48-1.7,5.84-.08,8.81,1.47,2.72,3.31,6.1.07,9.82" style="fill:#ffc800"/></svg>