<svg id="Layer_1" data-name="Layer 1" xmlns="http://www.w3.org/2000/svg" viewBox="0 0 120 120"><defs><style>.cls-1,.cls-2{fill:#fff;}.cls-1{fill-rule:evenodd;}</style></defs><title>Icon-Console</title><polygon class="cls-1" points="18.31 90.94 18.31 106.8 80.58 106.8 80.58 109.45 15.66 109.45 15.66 88.32 80.58 88.32 80.58 90.94 18.31 90.94 18.31 90.94"/><polygon class="cls-1" points="72.63 104.15 72.63 93.59 20.96 93.59 20.96 104.15 72.63 104.15 72.63 104.15 72.63 104.15"/><polygon class="cls-1" points="83.21 80.39 83.21 80.39 77.93 80.39 77.93 77.74 83.21 77.74 83.21 80.39 83.21 80.39"/><polygon class="cls-1" points="77.93 117.38 77.93 117.38 83.21 117.38 83.21 120 77.93 120 77.93 117.38 77.93 117.38"/><polygon class="cls-1" points="83.21 80.52 83.21 80.52 88.49 80.52 88.49 117.27 83.21 117.27 83.21 80.52 83.21 80.52"/><polygon class="cls-1" points="88.49 77.74 88.49 77.74 93.79 77.74 93.79 80.39 88.49 80.39 88.49 77.74 88.49 77.74"/><polygon class="cls-1" points="93.79 120 93.79 120 88.49 120 88.49 117.38 93.79 117.38 93.79 120 93.79 120"/><polygon class="cls-1" points="104.34 88.32 104.34 88.32 104.34 109.45 91.14 109.45 91.14 106.8 101.69 106.8 101.69 90.94 91.14 90.94 91.14 88.32 104.34 88.32 104.34 88.32"/><polygon class="cls-1" points="18.31 2.63 80.58 2.63 80.58 0 15.66 0 15.66 85.78 80.58 85.78 80.58 83.13 18.31 83.13 18.31 2.63 18.31 2.63"/><polygon class="cls-1" points="104.34 0 91.14 0 91.14 2.63 101.69 2.63 101.69 83.13 91.14 83.13 91.14 85.78 104.34 85.78 104.34 0 104.34 0 104.34 0"/><polygon class="cls-1" points="23.29 7.11 69.03 7.11 69.03 12.09 23.29 12.09 23.29 7.11 23.29 7.11"/><polygon class="cls-1" points="23.29 15.49 61.84 15.49 61.84 20.48 23.29 20.48 23.29 15.49 23.29 15.49"/><polygon class="cls-1" points="23.29 23.88 54.8 23.88 54.8 28.86 23.29 28.86 23.29 23.88 23.29 23.88"/><polygon class="cls-1" points="23.29 32.27 46.16 32.27 46.16 37.25 23.29 37.25 23.29 32.27 23.29 32.27"/><polygon class="cls-1" points="23.29 40.65 37.38 40.65 37.38 45.64 23.29 45.64 23.29 40.65 23.29 40.65"/><polygon class="cls-1" points="23.29 49.04 74.76 49.04 74.76 54.03 23.29 54.03 23.29 49.04 23.29 49.04"/><polygon class="cls-1" points="23.29 57.43 53.82 57.43 53.82 62.41 23.29 62.41 23.29 57.43 23.29 57.43"/><polygon class="cls-1" points="23.29 65.81 76.96 65.81 76.96 70.8 23.29 70.8 23.29 65.81 23.29 65.81"/><rect class="cls-2" x="23.29" y="74.2" width="22.87" height="4.99"/></svg>