<?xml version="1.0" encoding="utf-8"?>
<!-- Generator: Adobe Illustrator 23.0.0, SVG Export Plug-In . SVG Version: 6.00 Build 0)  -->
<svg version="1.1" id="Layer_1" xmlns="http://www.w3.org/2000/svg" xmlns:xlink="http://www.w3.org/1999/xlink" x="0px" y="0px"
	 viewBox="0 0 240 240" style="enable-background:new 0 0 240 240;" xml:space="preserve">
<style type="text/css">
	.st0{fill:#303030;}
</style>
<g>
	<path class="st0" d="M150.4,0L89.6,0l0,51.2h60.8L150.4,0z M110.8,19.8l-12.3,0l0-9.2l12.3,0L110.8,19.8z M127.5,19.9l0-9.2l12.3,0
		l0,9.2L127.5,19.9z"/>
	<path class="st0" d="M161.2,219.7l0-162l-82.3,0l0,162c0,11.2,9.1,20.3,20.3,20.3l41.8,0C152.1,240,161.2,230.9,161.2,219.7z
		 M144.3,158l-6.9,6.9L120,147.5l-17.4,17.4l-6.9-6.9l17.4-17.4l-17.4-17.4l6.9-6.9l17.4,17.4l17.4-17.4l6.9,6.9l-17.4,17.4
		L144.3,158z"/>
</g>
</svg>
