<svg xmlns="http://www.w3.org/2000/svg" viewBox="0 0 30.97 42"><title>Icon-NameColour-White</title><path d="M25.37,12.73h0a2.42,2.42,0,0,0,1-1.57,2.49,2.49,0,0,0,0-.94,2.31,2.31,0,0,0-.39-.88,2.48,2.48,0,0,0-.71-.66,2.68,2.68,0,0,0-.87-.32,2.64,2.64,0,0,0-.93,0,2.33,2.33,0,0,0-.88.4,2.17,2.17,0,0,0-.65.7,2.64,2.64,0,0,0-.33.87,2.47,2.47,0,0,0,1.13,2.47,2.37,2.37,0,0,0,.87.33,2.43,2.43,0,0,0,.93,0,2.27,2.27,0,0,0,.87-.39Zm-6.85-9.6h0a2.44,2.44,0,0,0-.66.7,2.59,2.59,0,0,0-.32.88A2.46,2.46,0,0,0,18,6.51a2.48,2.48,0,0,0,.71.66,2.51,2.51,0,0,0,.87.34,2.66,2.66,0,0,0,.93,0,2.29,2.29,0,0,0,.87-.4,2.31,2.31,0,0,0,.66-.7,2.49,2.49,0,0,0,.33-.87,2.44,2.44,0,0,0,0-.93,2.52,2.52,0,0,0-.39-.89A2.31,2.31,0,0,0,21.2,3a2.54,2.54,0,0,0-.87-.32,2.43,2.43,0,0,0-.93,0,2.11,2.11,0,0,0-.88.39ZM27.16,20h0a2.28,2.28,0,0,0,.65-.7,2.31,2.31,0,0,0,.33-.87,2.65,2.65,0,0,0,0-.93,2.38,2.38,0,0,0-.4-.89,2.28,2.28,0,0,0-.7-.65,2.59,2.59,0,0,0-.88-.32,2.43,2.43,0,0,0-.93,0,2.23,2.23,0,0,0-.88.39,2.35,2.35,0,0,0-.66.71,2.59,2.59,0,0,0-.32.88,2.2,2.2,0,0,0,0,.92,2.41,2.41,0,0,0,.4.88,2.39,2.39,0,0,0,2.5,1,2.38,2.38,0,0,0,.89-.4ZM11,6.34h0a2.38,2.38,0,0,0,.71.67,2.31,2.31,0,0,0,.87.33,2.44,2.44,0,0,0,.93,0,2.27,2.27,0,0,0,.87-.39,2.3,2.3,0,0,0,.66-.7A2.46,2.46,0,0,0,15,3.53a2.48,2.48,0,0,0-.71-.66,2.54,2.54,0,0,0-.87-.32,2.43,2.43,0,0,0-.93,0,2.29,2.29,0,0,0-.87.4,2.1,2.1,0,0,0-.66.7,2.33,2.33,0,0,0-.33.86A2.44,2.44,0,0,0,11,6.34Zm-2.25,4.6h0a2.17,2.17,0,0,0,.65-.7,2.31,2.31,0,0,0,.33-.87,2.43,2.43,0,0,0,0-.93,2.38,2.38,0,0,0-.4-.89,2.2,2.2,0,0,0-.71-.65,2.29,2.29,0,0,0-.87-.32,2.59,2.59,0,0,0-.92,0A2.47,2.47,0,0,0,5.3,7.71,2.31,2.31,0,0,0,5,8.58,2.2,2.2,0,0,0,5,9.5a2.33,2.33,0,0,0,.4.88,2.39,2.39,0,0,0,2.5,1,2.38,2.38,0,0,0,.89-.4ZM10.7,23.2h0a2.1,2.1,0,0,0,.66-.7,2.31,2.31,0,0,0,.33-.87,2.44,2.44,0,0,0,0-.93,2.31,2.31,0,0,0-.39-.88,2.23,2.23,0,0,0-.71-.66,2.47,2.47,0,0,0-.87-.32,2.65,2.65,0,0,0-.93,0,2.31,2.31,0,0,0-.88.39,2.48,2.48,0,0,0-.66.71,2.85,2.85,0,0,0-.33.88,2.59,2.59,0,0,0,0,.92A2.5,2.5,0,0,0,8,23.3a2.44,2.44,0,0,0,.87.33,2.42,2.42,0,0,0,1.81-.43Zm-4-5.64h0a2.3,2.3,0,0,0,.66-.7A2.37,2.37,0,0,0,7.66,16a2.51,2.51,0,0,0-.42-1.82,2.48,2.48,0,0,0-.71-.66,2.54,2.54,0,0,0-.87-.32,2.64,2.64,0,0,0-.93,0,2.48,2.48,0,0,0-.88.39,2.61,2.61,0,0,0-.66.71A2.43,2.43,0,0,0,3.28,17a2.38,2.38,0,0,0,.71.67,2.31,2.31,0,0,0,.87.33,2.42,2.42,0,0,0,1.81-.43ZM6.39,2.85A15,15,0,0,1,10,.93,15.49,15.49,0,0,1,13.87.06a15.07,15.07,0,0,1,3.91.15,15.61,15.61,0,0,1,3.73,1.13,14.91,14.91,0,0,1,3.37,2.07,15.35,15.35,0,0,1,2.8,3,19,19,0,0,1,1.9,3.22,15,15,0,0,1,1,2.89A12.21,12.21,0,0,1,31,15.07a15.83,15.83,0,0,1-.09,2.22,17.76,17.76,0,0,1-.31,1.89c-.12.58-.22,1.1-.31,1.56a7.76,7.76,0,0,1-.44,1.57A11.59,11.59,0,0,1,29,23.89a11.22,11.22,0,0,1-1,1.4,6.27,6.27,0,0,1-1.11,1,3.75,3.75,0,0,1-.85.46,1.64,1.64,0,0,1-.84.08A3.14,3.14,0,0,1,24,26.43a3.32,3.32,0,0,1-.78-.76,4.17,4.17,0,0,1-.53-1c-.13-.37-.26-.74-.36-1.11s-.23-.73-.36-1.09a4,4,0,0,0-.5-1,2.56,2.56,0,0,0-.67-.64,2.28,2.28,0,0,0-1-.36,2.81,2.81,0,0,0-1.48.16,7.1,7.1,0,0,0-1.47.8,13.68,13.68,0,0,0-1.39,1.17c-.44.44-.86.87-1.24,1.29l-1,1.12a4.92,4.92,0,0,1-.73.7,4.24,4.24,0,0,1-.92.43,8.57,8.57,0,0,1-1.49.36,11.63,11.63,0,0,1-1.83.14,8.33,8.33,0,0,1-2-.26,6.84,6.84,0,0,1-1.88-.79,5.36,5.36,0,0,1-1.59-1.5A15.09,15.09,0,0,1,.93,20.52a15.15,15.15,0,0,1-.72-7.76A15.11,15.11,0,0,1,1.34,9,15.18,15.18,0,0,1,6.39,2.85ZM1.78,32.67v5.09h20v.85H.92V31.83H21.77v.84Zm17.44,4.24V33.52H2.63v3.39Zm3.4-7.63h-1.7v-.85h1.7v.85Zm-1.7,11.88h1.7V42h-1.7v-.84Zm1.7-11.84h1.69v11.8H22.62V29.32Zm1.69-.89H26v.85h-1.7v-.85ZM26,42h-1.7v-.84H26V42ZM29.4,31.83h0v6.78H25.16v-.85h3.39V32.67H25.16v-.84Z" style="fill:#fff;fill-rule:evenodd"/></svg>