<svg xmlns="http://www.w3.org/2000/svg" viewBox="0 0 141 141"><title>Icon-Menu-Grid-Purge</title><path d="M127.21,81.4a61.26,61.26,0,0,1-4.1,13.25,63.63,63.63,0,0,1-6.7,11.75,60.21,60.21,0,0,1-9,9.83,58.23,58.23,0,0,1-10.75,7.49,55.47,55.47,0,0,1-12.13,4.81,51.26,51.26,0,0,1-13.17,1.69,50,50,0,0,1-11.76-1.37A54.21,54.21,0,0,1,48.7,125a54.79,54.79,0,0,1-9.9-6.13,56.7,56.7,0,0,1-8.54-8.07L10.5,130.48V81.4H59.63L40.32,100.71a39.62,39.62,0,0,0,13.84,9.78,43.68,43.68,0,0,0,17.25,3.42,44.26,44.26,0,0,0,14.08-2.23,40.25,40.25,0,0,0,12.12-6.46A39.1,39.1,0,0,0,106.77,95,39.65,39.65,0,0,0,112,81.4Z" style="fill:#b2b2b2;fill-rule:evenodd"/><path d="M130.5,11.23V59.6H81.43l19.25-18.94A39,39,0,0,0,86.74,30.41a44.53,44.53,0,0,0-31.59-1.29A40.76,40.76,0,0,0,43,35.67,39.79,39.79,0,0,0,28.64,59.6H13.39a61.57,61.57,0,0,1,4.12-13.25,63.36,63.36,0,0,1,6.75-11.8,64,64,0,0,1,8.94-9.87,57.09,57.09,0,0,1,10.73-7.6,54.24,54.24,0,0,1,12.14-4.86,51.29,51.29,0,0,1,25.08-.28A54.36,54.36,0,0,1,92.25,16a56.51,56.51,0,0,1,10,6.32,59.51,59.51,0,0,1,8.61,8.34Z" style="fill:#b2b2b2;fill-rule:evenodd"/></svg>