<svg id="Layer_1" data-name="Layer 1" xmlns="http://www.w3.org/2000/svg" viewBox="0 0 120 120"><defs><style>.cls-1,.cls-2{fill:#fff;}.cls-2{fill-rule:evenodd;}</style></defs><title>Icon-WriteReel2</title><path class="cls-1" d="M50,74.38c10.56-10.51,16.5-16.83,16.5-22.5,0-4-2.2-6.88-6.66-6.88-2.92,0-5.44,1.87-7.48,4.24l-2.58-2.59c2.92-3.19,6-5.33,10.62-5.33,6.49,0,10.51,4.13,10.51,10.34,0,6.6-6,13.15-14.3,21.84,1.93-.16,4.07-.33,5.89-.33H72.61v3.91H50Z"/><path class="cls-2" d="M60,0a60,60,0,1,0,60,60A60,60,0,0,0,60,0ZM89,27.63l5.62-6.68a2.81,2.81,0,0,1,.22-.23,3.46,3.46,0,0,1,4.9,0,55.19,55.19,0,0,1,5.86,7c.06.08.11.18.17.27a3.46,3.46,0,0,1-1.27,4.73l-10,5.75A3.47,3.47,0,0,1,90,37.55a38.08,38.08,0,0,0-3.34-3.88,10.21,10.21,0,0,0-2.2-1.7.66.66,0,0,1-.3-.37.68.68,0,0,1,.41-.88A10.29,10.29,0,0,0,89,27.63ZM66.63,22.36a10.36,10.36,0,0,0,2.28-4.87l1.52-8.6c0-.11,0-.21.07-.32a3.46,3.46,0,0,1,4.26-2.43,55.34,55.34,0,0,1,8.56,3.12l.29.14a3.47,3.47,0,0,1,1.27,4.74l-5.76,10a3.47,3.47,0,0,1-4.37,1.45,37.75,37.75,0,0,0-4.83-1.68,10.3,10.3,0,0,0-2.76-.37.69.69,0,0,1-.44-.16A.7.7,0,0,1,66.63,22.36ZM45.84,6a55.71,55.71,0,0,1,9-1.58,2.2,2.2,0,0,1,.32,0,3.47,3.47,0,0,1,3.47,3.46V19.37a3.47,3.47,0,0,1-3.06,3.44,38.39,38.39,0,0,0-5,1,10.08,10.08,0,0,0-2.57,1.06.68.68,0,0,1-.46.08.69.69,0,0,1-.56-.8,10.44,10.44,0,0,0-.47-5.37l-3-8.21a3.09,3.09,0,0,1-.09-.31A3.46,3.46,0,0,1,45.84,6ZM20.74,20.3a56.21,56.21,0,0,1,7-5.86,2.42,2.42,0,0,1,.27-.18,3.47,3.47,0,0,1,4.74,1.27l5.75,10A3.48,3.48,0,0,1,37.55,30a36.56,36.56,0,0,0-3.88,3.34A10.36,10.36,0,0,0,32,35.56a.78.78,0,0,1-.36.31.7.7,0,0,1-.89-.42A10.41,10.41,0,0,0,27.63,31l-6.69-5.61-.24-.22A3.47,3.47,0,0,1,20.74,20.3Zm-14.59,25a55.85,55.85,0,0,1,3.12-8.57l.14-.28a3.48,3.48,0,0,1,4.74-1.27l10,5.75a3.47,3.47,0,0,1,1.45,4.37,37.6,37.6,0,0,0-1.69,4.83,10.54,10.54,0,0,0-.37,2.76.67.67,0,0,1-.16.44.7.7,0,0,1-1,.09,10.45,10.45,0,0,0-4.88-2.28l-8.6-1.51-.31-.07A3.46,3.46,0,0,1,6.14,45.25Zm4.07,31.38A3.47,3.47,0,0,1,6,74.15a56.48,56.48,0,0,1-1.58-9c0-.11,0-.21,0-.32a3.47,3.47,0,0,1,3.47-3.47H19.36a3.47,3.47,0,0,1,3.44,3.06,37.36,37.36,0,0,0,1,5A10.46,10.46,0,0,0,24.81,72a.69.69,0,0,1-.72,1,10.38,10.38,0,0,0-5.36.47l-8.21,3ZM31,92.36l-5.61,6.69-.21.24a3.47,3.47,0,0,1-4.9,0,55.85,55.85,0,0,1-5.86-7c-.06-.08-.12-.18-.17-.27a3.47,3.47,0,0,1,1.27-4.74l10-5.75a3.47,3.47,0,0,1,4.51.92,36.82,36.82,0,0,0,3.34,3.88,10.36,10.36,0,0,0,2.2,1.7.69.69,0,0,1-.11,1.25A10.46,10.46,0,0,0,31,92.36Zm22.34,5.27a10.4,10.4,0,0,0-2.28,4.89l-1.52,8.59a2.68,2.68,0,0,1-.07.32,3.47,3.47,0,0,1-4.26,2.43,56.7,56.7,0,0,1-8.56-3.12l-.28-.15a3.46,3.46,0,0,1-1.27-4.73l5.75-10a3.48,3.48,0,0,1,4.37-1.45,37.33,37.33,0,0,0,4.84,1.69,10.29,10.29,0,0,0,2.75.38.71.71,0,0,1,.45.16A.69.69,0,0,1,53.37,97.63ZM111.1,61.25a9.47,9.47,0,0,1,.74,3.58,9.07,9.07,0,0,1-.54,3.12,12.11,12.11,0,0,1-.89,1.91c-.08.14-.17.26-.26.39l1,.17.32.07a3.47,3.47,0,0,1,2.42,4.26,55.55,55.55,0,0,1-3.12,8.56,2.15,2.15,0,0,1-.15.29,3.46,3.46,0,0,1-4.73,1.27l-6.23-3.59-7.44,7.51.18.17,6.69,5.62.24.22a3.46,3.46,0,0,1,0,4.9,55.06,55.06,0,0,1-7,5.86l-.27.17a3.46,3.46,0,0,1-4.74-1.27L83.36,97.7l-7.83,7.91-.3.3,1.3,3.57a2.74,2.74,0,0,1,.1.31A3.48,3.48,0,0,1,74.15,114a57,57,0,0,1-9,1.58l-.32,0a3.47,3.47,0,0,1-3.47-3.47v0l-1.31.37a4.94,4.94,0,0,1-1.34.18A5,5,0,0,1,54,106.06L57.5,95.75c.38-1.13,1.81-2.65,3.83-4.6l2.27-2.26a28.68,28.68,0,0,1-3.6.25A29.13,29.13,0,1,1,89.13,60a29.48,29.48,0,0,1-.27,3.77L92,60.65l2.27-2.12c.24-.23.49-.44.71-.62a11,11,0,0,1,1.58-1.25c.26-.17.57-.29.84-.44a3.44,3.44,0,0,1-.2-.66,37.05,37.05,0,0,0-1-5A10.47,10.47,0,0,0,95.18,48a.7.7,0,0,1,.72-1,10.4,10.4,0,0,0,5.37-.47l8.21-3,.3-.1A3.47,3.47,0,0,1,114,45.84a56.1,56.1,0,0,1,1.58,9c0,.11,0,.22,0,.33a3.47,3.47,0,0,1-3.47,3.47h-2.8A9.38,9.38,0,0,1,111.1,61.25Z"/><polygon class="cls-1" points="62.23 97.35 69.33 104.72 58.74 107.67 62.23 97.35"/><polygon class="cls-1" points="72.28 101.78 65.18 94.38 91.76 67.83 98.89 75.2 72.28 101.78"/><path class="cls-1" d="M105.16,61.41a5.14,5.14,0,0,1,1.32,1.75,4.41,4.41,0,0,1,.36,1.67,4.09,4.09,0,0,1-.23,1.41,6.9,6.9,0,0,1-.51,1.1,6.47,6.47,0,0,1-.74,1l-.55.58-.7.73-.72.72-.56.56a1.81,1.81,0,0,1-.54.33,1.68,1.68,0,0,1-.59.11,1.26,1.26,0,0,1-.94-.36l-5.34-4.9a1.09,1.09,0,0,1-.36-.85,1.48,1.48,0,0,1,.47-1.07l.58-.53.76-.72.77-.71c.25-.23.45-.41.62-.54a7.06,7.06,0,0,1,1-.85,7.19,7.19,0,0,1,1.16-.6,3.68,3.68,0,0,1,1.46-.27,4.4,4.4,0,0,1,1.56.31A5.58,5.58,0,0,1,105.16,61.41Z"/></svg>