<svg xmlns="http://www.w3.org/2000/svg" viewBox="0 0 48 48.03"><title>Icon_Menu_Next</title><path d="M48,24a23.05,23.05,0,0,1-.87,6.34,24.46,24.46,0,0,1-6.21,10.61,24,24,0,0,1-4.86,3.78,24.86,24.86,0,0,1-5.72,2.45,23.39,23.39,0,0,1-12.64,0A24.31,24.31,0,0,1,12,44.69,24.63,24.63,0,0,1,3.32,36,25.3,25.3,0,0,1,.87,30.3a23.5,23.5,0,0,1,0-12.67,25.3,25.3,0,0,1,2.45-5.72A24,24,0,0,1,7.1,7.05,24.42,24.42,0,0,1,12,3.29,23.79,23.79,0,0,1,17.7.86,23.23,23.23,0,0,1,24,0a22.6,22.6,0,0,1,6.32.88,24.4,24.4,0,0,1,5.72,2.44A24,24,0,0,1,40.92,7.1,24.88,24.88,0,0,1,44.68,12a24.52,24.52,0,0,1,2.45,5.7A22.91,22.91,0,0,1,48,24Zm-2.2,0A21.19,21.19,0,0,0,45,18.26,22,22,0,0,0,39.4,8.65,22.36,22.36,0,0,0,35,5.25,21.75,21.75,0,0,0,29.8,3,21.89,21.89,0,0,0,18.29,3a22.18,22.18,0,0,0-5.2,2.21A22.11,22.11,0,0,0,3,18.26,21.36,21.36,0,0,0,3,29.77,22.45,22.45,0,0,0,5.25,35a21.61,21.61,0,0,0,3.44,4.42A22.32,22.32,0,0,0,18.33,45a21.11,21.11,0,0,0,14.15-.94,22.13,22.13,0,0,0,11.6-11.63A21.13,21.13,0,0,0,45.8,24ZM27.52,34.71H20.13l7.78-7.91H11.05V21.33H27.91l-7.78-7.95h7.39L37.66,24v.09Z" style="fill:#fff"/></svg>