<svg id="Layer_1" data-name="Layer 1" xmlns="http://www.w3.org/2000/svg" viewBox="0 0 120 120"><defs><style>.cls-1{fill:#d0cdcd;}.cls-1,.cls-2,.cls-3,.cls-4{fill-rule:evenodd;}.cls-2{fill:#e1e0e0;}.cls-3{fill:#626363;}.cls-4{fill:#009ee3;}.cls-5{fill:#fff;}</style></defs><title>Icon-Reprint</title><polygon class="cls-1" points="58.77 17.71 85.64 7.77 85.64 79.86 33.14 108.25 33.14 75.8 58.73 64.25 58.77 17.71"/><polygon class="cls-2" points="58.77 17.71 30.74 8.86 58.83 0 85.64 7.77 58.77 17.71"/><polygon class="cls-3" points="30.74 8.86 30.74 53.15 58.73 64.25 58.77 17.71 30.74 8.86"/><polygon class="cls-2" points="58.73 64.25 33.14 75.8 4.6 62.87 30.74 53.15 58.73 64.25"/><polygon class="cls-3" points="33.14 108.25 5.12 93.28 4.6 62.87 33.14 75.8 33.14 108.25"/><path class="cls-4" d="M59.87,92.24A27.77,27.77,0,1,1,87.63,120,27.77,27.77,0,0,1,59.87,92.24Z"/><path class="cls-5" d="M105.08,95.59a18.74,18.74,0,0,1-1.26,4.08,19.48,19.48,0,0,1-2.06,3.61,18.5,18.5,0,0,1-2.75,3,18,18,0,0,1-3.31,2.31A17.16,17.16,0,0,1,92,110.09a15.77,15.77,0,0,1-4.05.52,15.49,15.49,0,0,1-3.62-.42,16.81,16.81,0,0,1-3.37-1.2,17.05,17.05,0,0,1-3-1.89,17.67,17.67,0,0,1-2.63-2.48l-6.08,6.07V95.59H84.29l-5.94,5.94a12.16,12.16,0,0,0,4.26,3,13.4,13.4,0,0,0,5.31,1.06,13.61,13.61,0,0,0,4.33-.69,12.45,12.45,0,0,0,3.73-2,12.08,12.08,0,0,0,2.82-3.15,12.21,12.21,0,0,0,1.61-4.18Z"/><path class="cls-5" d="M106.1,74V88.88H91L96.92,83a12,12,0,0,0-4.29-3.15,13.72,13.72,0,0,0-9.72-.4,12.51,12.51,0,0,0-3.73,2,12.23,12.23,0,0,0-2.83,3.18,12.37,12.37,0,0,0-1.61,4.18H70.06a18.89,18.89,0,0,1,1.27-4.08,19.52,19.52,0,0,1,2.08-3.63,19.73,19.73,0,0,1,2.75-3,17.61,17.61,0,0,1,3.3-2.34,16.75,16.75,0,0,1,3.74-1.5,15.75,15.75,0,0,1,4-.52,15.53,15.53,0,0,1,3.68.44,16.61,16.61,0,0,1,3.42,1.24A17.42,17.42,0,0,1,97.4,77.4,18.29,18.29,0,0,1,100,80Z"/></svg>