<svg xmlns="http://www.w3.org/2000/svg" viewBox="0 0 48 48"><title>Icon-Move-Lights-Hover</title><path d="M25.17,0a24.33,24.33,0,0,0-23,13.88A24,24,0,0,0,33,46.23,24.43,24.43,0,0,0,48,24,24.41,24.41,0,0,0,25.17,0Zm9.2,43.14h0A21.77,21.77,0,0,1,5.2,13.08a22,22,0,0,1,24.58-10,22,22,0,0,1,16,21A22.08,22.08,0,0,1,34.37,43.17Z" style="fill:#fff;fill-rule:evenodd"/><path d="M20.08,36.1V37c.38,0,1.11,0,1.86,0a40.33,40.33,0,0,0,6-.51v-.93a39.8,39.8,0,0,1-6,.52C21.17,36.11,20.46,36.1,20.08,36.1Zm0,1.81c.15.26.71,1.17,1.5,1.17h0s0,.07.08.1c.6.43.56.82.82,1a4.65,4.65,0,0,0,1.45.16,4.65,4.65,0,0,0,1.45-.16c.26-.19.23-.58.82-1a.35.35,0,0,0,.08-.1h0c.92,0,1.54-1.24,1.54-1.24v-.46a39.3,39.3,0,0,1-6,.52C21.21,37.92,20.5,37.91,20.12,37.91Zm0-3.61v.91h1.83a40.6,40.6,0,0,0,6-.51v-.94a37.79,37.79,0,0,1-6,.54Zm13.4-17.18a9.48,9.48,0,0,0-19,0,9.36,9.36,0,0,0,1.31,4.78h0l.08.11c.14.23.29.45.44.67.92,1.43,2.7,4.55,2.47,6.81a2.43,2.43,0,0,0,1.27,2.14V33.4h1.79a41.1,41.1,0,0,0,6.05-.52V31.63a2.43,2.43,0,0,0,1.24-2.13c-.22-2.24,1.54-5.33,2.47-6.78.17-.23.33-.46.48-.71l.07-.1h0A9.45,9.45,0,0,0,33.48,17.12Z" style="fill:#009ee2"/></svg>