<?xml version="1.0" encoding="utf-8"?>
<!-- Generator: Adobe Illustrator 23.0.0, SVG Export Plug-In . SVG Version: 6.00 Build 0)  -->
<svg version="1.1" id="Layer_1" xmlns="http://www.w3.org/2000/svg" xmlns:xlink="http://www.w3.org/1999/xlink" x="0px" y="0px"
	 viewBox="0 0 240 240" style="enable-background:new 0 0 240 240;" xml:space="preserve">
<style type="text/css">
	.st0{fill:#303030;}
</style>
<path class="st0" d="M142.8,172.4l11.1-11.1l28.2,28.2l28.2-28.2l11.1,11.1l-28.2,28.2l28.2,28.2L210.3,240l-28.2-28.2L153.9,240
	l-11.1-11.1l28.2-28.2L142.8,172.4z M139.1,54l-33.4,10.5v48.8L77,124l0.6,36.7l33.3,17.8l60.2-32.6V63.3L139.1,54z M139.2,59.2
	l23.1,6.7L139,74.5l-24.2-7.6L139.2,59.2z M110.7,68.7l26.9,8.5l0,47.9l-26.8-10.6V68.7z M109.4,172.1l-26.9-14.4L82,128.5
	l27.4,12.4V172.1z M110.9,138.3l-26.2-11.9l24.9-9.3l25.6,10.2L110.9,138.3z M166.1,143L112.3,172v-31.1l28.1-12.7l0-51.1l25.6-9.5
	V143z M153.5,212.4H92H56.3c-1.2,0-2.2-1-2.2-2.2V198V61.9V13.5c0-1.2,1-2.2,2.2-2.2h99.8c1.6,0,2.8,1.3,2.8,2.8v30
	c0,3.1,2.5,5.7,5.7,5.7h26.8c1.6,0,2.8,1.3,2.8,2.8l0,119.1l11.3-11.3c0-5.8,0-11.8,0-17.9h0V44.2c0-1.6-0.6-3-1.6-4.2l-35-38
	c-1.2-1.3-2.8-2-4.6-2H56.2c-7.4,0-13.5,6.1-13.5,13.5c0,0-0.1,25.6-0.1,59c-0.1,15.7-0.1,33.7-0.1,51.5c0,34,0,67.5,0.2,86.4
	c0,0.4,0,0.7,0.1,1.1c0,0.2,0,0.3,0.1,0.5c0,0,0,0.1,0,0.1c0.9,6.6,6.5,11.7,13.4,11.7h27.4h58.5L153.5,212.4z M170.3,20.2
	l16.8,18.3h-16.8V20.2z M198.9,200.6l6.4,6.4c0-2.8,0-7.2,0-12.9L198.9,200.6z M182.1,217.5l-6.3,6.3h12.6L182.1,217.5z"/>
</svg>
