<svg xmlns="http://www.w3.org/2000/svg" viewBox="0 0 40 40"><title>Icon_Menu_Purge</title><path d="M38.9,23.63a20.26,20.26,0,0,1-1.36,4.42A21.54,21.54,0,0,1,35.3,32a20.21,20.21,0,0,1-3,3.28,19.85,19.85,0,0,1-3.58,2.5,18.67,18.67,0,0,1-4,1.6,17.07,17.07,0,0,1-8.31.11,18.65,18.65,0,0,1-3.65-1.3,19.07,19.07,0,0,1-6.14-4.73L0,40V23.63H16.38L9.94,30.07a13.21,13.21,0,0,0,4.61,3.26,14.4,14.4,0,0,0,5.75,1.15,14.69,14.69,0,0,0,4.7-.75,13.52,13.52,0,0,0,4-2.15,13.12,13.12,0,0,0,4.8-7.95Z" style="fill:#b2b2b2;fill-rule:evenodd"/><path d="M40,.24V16.37H23.64l6.42-6.32a13.14,13.14,0,0,0-4.65-3.42,14.3,14.3,0,0,0-5.85-1.19,14.39,14.39,0,0,0-4.68.76,13.57,13.57,0,0,0-4,2.19,13,13,0,0,0-3.06,3.45,13.19,13.19,0,0,0-1.74,4.53H1A20.27,20.27,0,0,1,2.34,12,20.71,20.71,0,0,1,7.57,4.72a19,19,0,0,1,3.57-2.53,18.23,18.23,0,0,1,4-1.62,17.1,17.1,0,0,1,8.36-.1,18.39,18.39,0,0,1,3.7,1.35,19.45,19.45,0,0,1,3.33,2.11,19.82,19.82,0,0,1,2.87,2.78Z" style="fill:#b2b2b2;fill-rule:evenodd"/></svg>