<svg xmlns="http://www.w3.org/2000/svg" viewBox="0 0 64 99"><title>Icon-Move-Z-10</title><polygon points="32 99 64 70 56 70 56 0 8 0 8 70 0 70 32 99" style="fill:#646464;fill-rule:evenodd"/><path d="M16.38,37.87h5.28v.93H16.38Z" style="fill:#fff"/><path d="M24.61,43.39h3.6V30.67H25.47V30a9.27,9.27,0,0,0,3-1h.87v14.4h3.34v.93h-8Z" style="fill:#fff"/><path d="M35.24,36.6c0-5.09,1.66-7.9,4.58-7.9s4.59,2.81,4.59,7.9-1.66,8-4.59,8S35.24,41.71,35.24,36.6Zm8.09,0c0-4.68-1.37-7-3.51-7s-3.5,2.31-3.5,7,1.39,7.1,3.5,7.1S43.33,41.28,43.33,36.6Z" style="fill:#fff"/></svg>