<svg id="Layer_1" data-name="Layer 1" xmlns="http://www.w3.org/2000/svg" viewBox="0 0 105.35 120"><defs><style>.cls-1{fill:#00aeef;}</style></defs><title>Icon-RoboxPro</title><path class="cls-1" d="M32.85,0h-.22l-.28,0-.29.09-.29.14L30.53.89,4.52,15.8,4.2,16l-.31.24-.3.28-.3.32-.3.37-.29.4-.28.44-.27.47-.26.5-.25.53-.23.56-.22.59-.2.61L.81,22l-.17.64-.15.66-.13.67-.11.68-.09.68L.09,26,0,26.66l0,.68v1.34L.1,31,2.53,98.31v0l.08,2.11,0,.67.06.63.09.6.11.57.14.53.16.49.18.45.2.41.22.36.24.31.26.26.27.2.28.15.3.1.07,0,10.33,1.94L15,107.8l-.27-.2-.26-.26-.24-.31-.22-.36-.2-.41-.18-.45-.16-.49-.14-.53-.11-.57-.09-.6-.06-.63,0-.67-.08-2.11L12.74,93v-.54l7.75-38.11v-.57L20.1,33.71,20,30.84v-1l0-.49,0-.5,0-.5.06-.5.07-.5.07-.49.08-.49.09-.49.1-.48.11-.48.12-.47L21,24l.14-.45.14-.44.15-.43.16-.41.16-.4.17-.39.18-.37.18-.35.19-.34.19-.32.2-.3.2-.28.2-.26.2-.24L37.61,3.76,42.17,1ZM9.63,95.22l0,.18,0,.17-.07.16-.09.15L9.29,96l-.09.08,0,0-.14.1-.15.08-.16.05-.17,0H8.18l-.19,0-.18-.05-.18-.08-.18-.1L7.28,96l-.16-.13L7,95.72l-.13-.16-.11-.17-.1-.18L6.55,95l-.06-.19,0-.19,0-.19v-.19l0-.18,0-.17.07-.16.09-.15.11-.13.1-.09,0,0,.14-.1.15-.08.16-.05.17,0h.36l.19,0,.18.05.18.08.18.1.17.11.16.13.15.15.13.16.12.17.1.18.08.19.06.19,0,.19,0,.2ZM8.15,51.93,7.65,34.84l10,1.36L18,53.4Z"/><polygon class="cls-1" points="34 83.59 47.7 71.19 70.19 74.77 69.92 89.64 34 83.59"/><polygon class="cls-1" points="79.57 91.27 91.28 78.13 79.03 76.15 78.8 91.12 79.57 91.27"/><g id="LINE"><polygon class="cls-1" points="94.91 7.92 96.19 6.86 43.2 1.13 41.58 2.1 94.91 7.92"/></g><path class="cls-1" d="M105.33,12.84l0-.62,0-.6-.06-.56-.08-.53L105,10l-.11-.45-.12-.41-.13-.37-.15-.32-.16-.27L104.18,8,104,7.84l-.19-.11-.2-.06h0L97.17,7,75.46,24.47l-.25.22L75,25l-.24.31-.24.35-.24.39-.24.43-.23.47-.23.51-.22.54-.21.57-.2.6-.19.62-.18.64-.17.67-.15.68-.14.7-.13.71-.11.71-.1.72-.08.72-.07.72,0,.71,0,.7,0,.7-.07,2.66-.91,69.92,0,2.31v.69l0,.66,0,.62.06.59.08.55.09.5.11.46.13.41.15.36.16.31.18.25.19.2.2.14.22.08h.05L78.43,120h0l.17,0,.23,0,.24-.09.25-.14.25-.2.25-.25.26-.31,22.5-28.79,2.74-75.37,0-.69v-.66Zm-.76,1.3,0,.67-2.73,75.11L79.47,118.51l-.22.26-.2.2-.17.13-.14.08-.1,0h-.06l-.06,0-.07,0-.09-.1-.12-.17-.12-.23-.12-.29L77.9,118l-.11-.43-.09-.46-.07-.52-.05-.56,0-.59,0-.63v-.67l0-2.32,1.23-70.16.1-3.36,0-.69.05-.69.07-.7.08-.71.1-.71.11-.7.12-.7.14-.68.15-.67.16-.65.17-.63.18-.61.19-.58.2-.55.21-.52L81,28l.21-.45.22-.4.22-.36.2-.3.21-.27.2-.22.22-.2L102.33,9.27l.9-.67.15-.11.08,0h0l0,0,.07.07.1.13.11.19.12.25.12.31.11.38.1.41.09.46.07.5.06.53,0,.57,0,.6v1.26Z"/><g id="LINE-2" data-name="LINE"><polygon class="cls-1" points="70.88 118.6 16.66 108.16 16.1 107.83 15.72 107.58 15.32 107.27 15 106.91 14.73 106.51 14.52 106.06 14.35 105.57 14.2 105.03 14.07 104.47 13.96 103.87 13.91 103.24 13.86 102.57 13.79 100.46 69.66 110.57 69.68 112.88 69.68 113.58 69.69 114.23 69.74 114.86 69.79 115.44 69.86 115.99 69.95 116.5 70.03 116.96 70.15 117.37 70.28 117.73 70.44 118.04 70.62 118.33 70.88 118.6"/></g></svg>