<svg xmlns="http://www.w3.org/2000/svg" viewBox="0 0 100 50"><title>Icon-Home-SmartReel</title><path d="M100,50c0-1,0-2-.09-3.07A50,50,0,0,0,0,50ZM90.55,33.62a2.91,2.91,0,0,1,3.66,1.85A46.64,46.64,0,0,1,96,42.85a1.18,1.18,0,0,1,0,.27,2.89,2.89,0,0,1-2.71,3.06l-9.57.59a2.89,2.89,0,0,1-3-2.37,32.59,32.59,0,0,0-1-4.14,8.45,8.45,0,0,0-1-2.07.62.62,0,0,1-.1-.39.59.59,0,0,1,.64-.51,8.82,8.82,0,0,0,4.45-.67l6.67-2.9ZM68.93,24.4a8.62,8.62,0,0,0,3.5-2.8l4.33-5.85c.06-.07.11-.15.17-.21A2.89,2.89,0,0,1,81,15.31a45.36,45.36,0,0,1,5.23,5.51,2.11,2.11,0,0,1,.17.22,2.89,2.89,0,0,1-.82,4l-8,5.3a2.9,2.9,0,0,1-3.81-.54,30.66,30.66,0,0,0-3-3.06,8.89,8.89,0,0,0-1.92-1.3.55.55,0,0,1-.27-.29A.56.56,0,0,1,68.93,24.4Zm-15.35-6a8.62,8.62,0,0,0,1.65-4.17L56.05,7a1.28,1.28,0,0,1,.05-.27,2.87,2.87,0,0,1,3.41-2.23A46.5,46.5,0,0,1,66.8,6.61l.24.1a2.9,2.9,0,0,1,1.3,3.88l-4.28,8.59a2.9,2.9,0,0,1-3.56,1.43,30.15,30.15,0,0,0-4.11-1.16,8.93,8.93,0,0,0-2.31-.16.67.67,0,0,1-.37-.11A.6.6,0,0,1,53.58,18.36ZM35.46,5.8A45.57,45.57,0,0,1,42.84,4a1.24,1.24,0,0,1,.27,0,2.88,2.88,0,0,1,3.06,2.7l.6,9.57a2.89,2.89,0,0,1-2.38,3,32.44,32.44,0,0,0-4.13,1.05,8.8,8.8,0,0,0-2.09,1,.62.62,0,0,1-.38.09.58.58,0,0,1-.51-.64,8.78,8.78,0,0,0-.66-4.44L33.71,9.7a1.34,1.34,0,0,1-.09-.26A2.87,2.87,0,0,1,35.46,5.8ZM15.3,19a47,47,0,0,1,5.51-5.23L21,13.6a2.89,2.89,0,0,1,4,.82l5.3,8a2.9,2.9,0,0,1-.54,3.8,28.61,28.61,0,0,0-3.05,3,8.63,8.63,0,0,0-1.31,1.91.63.63,0,0,1-.28.28.58.58,0,0,1-.76-.3,8.77,8.77,0,0,0-2.8-3.52l-5.85-4.32a1.73,1.73,0,0,1-.21-.17A2.89,2.89,0,0,1,15.3,19ZM6.59,33.2c0-.08.07-.16.11-.25a2.9,2.9,0,0,1,3.88-1.29l8.58,4.28a2.88,2.88,0,0,1,1.44,3.55,31.42,31.42,0,0,0-1.16,4.11,8.55,8.55,0,0,0-.17,2.31.58.58,0,0,1-.11.38.58.58,0,0,1-.81.12,8.66,8.66,0,0,0-4.18-1.64L6.94,44l-.26,0a2.89,2.89,0,0,1-2.24-3.42A47.6,47.6,0,0,1,6.59,33.2Z" style="fill:#fff;fill-rule:evenodd"/></svg>