<svg xmlns="http://www.w3.org/2000/svg" viewBox="0 0 79 64"><title>Icon-Move-Mat1+50</title><polygon points="79 32 50 0 50 8 0 8 0 56 50 56 50 64 79 32" style="fill:#009ee3;fill-rule:evenodd"/><path d="M12.89,32.53H8.45v-.91h4.44V26.8h1v4.82h4.44v.91H13.88v4.83h-1Z" style="fill:#303030"/><path d="M19.76,38.22l.6-.74a5.49,5.49,0,0,0,4.2,1.87,3.9,3.9,0,0,0,3.81-4.13c0-2.47-1.46-4-3.74-4a4.69,4.69,0,0,0-2.86,1L21,31.84l.55-7.18h7.08v.94H22.54l-.48,5.54a5,5,0,0,1,2.73-.81c2.6,0,4.69,1.48,4.69,4.84a4.88,4.88,0,0,1-4.9,5.12A6.33,6.33,0,0,1,19.76,38.22Z" style="fill:#303030"/><path d="M31.78,32.27c0-5.09,1.66-7.9,4.58-7.9S41,27.18,41,32.27s-1.66,8-4.59,8S31.78,37.38,31.78,32.27Zm8.09,0c0-4.68-1.37-7-3.51-7s-3.5,2.3-3.5,7,1.39,7.1,3.5,7.1S39.87,37,39.87,32.27Z" style="fill:#303030"/></svg>