<svg id="Layer_1" data-name="Layer 1" xmlns="http://www.w3.org/2000/svg" viewBox="0 0 360 108"><defs><style>.cls-1,.cls-2{fill:#303030;}.cls-2{fill-rule:evenodd;}</style></defs><title>Logo-AddSettingsMake</title><path class="cls-1" d="M233.44,44.65a2.22,2.22,0,0,0-1.48-.88l-12.87-2a42.37,42.37,0,0,0-2.88-6.89q1.27-1.76,3.8-5t3.59-4.67a2.71,2.71,0,0,0,.56-1.62,2.27,2.27,0,0,0-.49-1.55q-2.53-3.59-11.6-12a2.72,2.72,0,0,0-1.76-.7,2.28,2.28,0,0,0-1.69.63l-10,7.52A43.4,43.4,0,0,0,192.3,15l-2-12.94a2.09,2.09,0,0,0-.81-1.51A2.66,2.66,0,0,0,187.8,0H172.2a2.37,2.37,0,0,0-2.53,2,114.82,114.82,0,0,0-2,13.08,40.15,40.15,0,0,0-6.4,2.67l-9.7-7.52a3,3,0,0,0-1.83-.7q-1.55,0-6.64,5A69.91,69.91,0,0,0,136.12,22a3,3,0,0,0-.63,1.62,2.64,2.64,0,0,0,.7,1.69q4.71,5.69,7.52,9.7A34.69,34.69,0,0,0,141,41.52l-13.08,2a2.12,2.12,0,0,0-1.34.91A2.71,2.71,0,0,0,126,46V61.63a2.67,2.67,0,0,0,.56,1.65,2.22,2.22,0,0,0,1.48.88l12.87,1.9a34.86,34.86,0,0,0,2.88,7q-1.27,1.76-3.8,5t-3.59,4.68a2.71,2.71,0,0,0-.56,1.62,2.75,2.75,0,0,0,.49,1.62q2.74,3.8,11.6,11.81a2.42,2.42,0,0,0,1.76.77,2.53,2.53,0,0,0,1.76-.63l9.91-7.52a43.53,43.53,0,0,0,6.33,2.6l2,12.94a2.08,2.08,0,0,0,.81,1.51,2.65,2.65,0,0,0,1.72.6H187.8a2.37,2.37,0,0,0,2.53-2,114.92,114.92,0,0,0,2-13.08,40.09,40.09,0,0,0,6.4-2.67l9.7,7.59a3.44,3.44,0,0,0,1.83.63q1.55,0,6.61-5a71.56,71.56,0,0,0,7-7.59,2.35,2.35,0,0,0,.63-1.62,2.72,2.72,0,0,0-.7-1.76q-5.06-6.19-7.52-9.7a45.08,45.08,0,0,0,2.74-6.4l13-2a2.13,2.13,0,0,0,1.41-.91,2.72,2.72,0,0,0,.56-1.62V46.31A2.66,2.66,0,0,0,233.44,44.65ZM180,80.19A26.22,26.22,0,1,1,206.22,54,26.22,26.22,0,0,1,180,80.19Z"/><path class="cls-2" d="M259.12,54a46.86,46.86,0,1,1,46.81,46.81A47.05,47.05,0,0,1,259.12,54Zm-7.11,0C252,83.54,276.43,108,306,108s54-24.54,54-53.93S335.44,0,306,0s-54,24.61-54,54.07Zm40.82-20.35L328.31,54,292.82,74.28Z"/><path class="cls-2" d="M7.11,54A47.05,47.05,0,0,1,53.93,7.13,47.22,47.22,0,0,1,100.84,54,46.86,46.86,0,0,1,7.11,54ZM0,54.07C0,83.54,24.43,108,54,108s54-24.54,54-53.93S83.44,0,54,0,0,24.61,0,54.07Z"/><polygon class="cls-2" points="80.95 46.11 61.89 46.11 61.89 27.05 46.1 27.05 46.1 46.11 27.05 46.11 27.05 61.89 46.1 61.89 46.1 80.95 61.89 80.95 61.89 61.89 80.95 61.89 80.95 46.11"/></svg>