<?xml version="1.0" encoding="UTF-8" standalone="no"?>
<svg
   xmlns:dc="http://purl.org/dc/elements/1.1/"
   xmlns:cc="http://creativecommons.org/ns#"
   xmlns:rdf="http://www.w3.org/1999/02/22-rdf-syntax-ns#"
   xmlns:svg="http://www.w3.org/2000/svg"
   xmlns="http://www.w3.org/2000/svg"
   xmlns:sodipodi="http://sodipodi.sourceforge.net/DTD/sodipodi-0.dtd"
   xmlns:inkscape="http://www.inkscape.org/namespaces/inkscape"
   viewBox="0 0 259.01 200"
   version="1.1"
   id="svg855"
   sodipodi:docname="Logo-Robox-White.svg"
   inkscape:version="0.92.2 (5c3e80d, 2017-08-06)">
  <metadata
     id="metadata861">
    <rdf:RDF>
      <cc:Work
         rdf:about="">
        <dc:format>image/svg+xml</dc:format>
        <dc:type
           rdf:resource="http://purl.org/dc/dcmitype/StillImage" />
        <dc:title>Logo-Robox-White-20pc</dc:title>
      </cc:Work>
    </rdf:RDF>
  </metadata>
  <defs
     id="defs859" />
  <sodipodi:namedview
     pagecolor="#ffffff"
     bordercolor="#666666"
     borderopacity="1"
     objecttolerance="10"
     gridtolerance="10"
     guidetolerance="10"
     inkscape:pageopacity="0"
     inkscape:pageshadow="2"
     inkscape:window-width="1920"
     inkscape:window-height="1017"
     id="namedview857"
     showgrid="false"
     inkscape:zoom="4.24"
     inkscape:cx="88.113491"
     inkscape:cy="100"
     inkscape:window-x="-8"
     inkscape:window-y="-8"
     inkscape:window-maximized="1"
     inkscape:current-layer="svg855" />
  <title
     id="title839">Logo-Robox-White-20pc</title>
  <g
     style="opacity:1"
     id="g853">
    <path
       d="m 36.75,141.91 c 0,0 -23.51,-9.25 -24.44,-9.86 -0.93,-0.61 -5.79,-3.05 -7.66,-12.45 0,0 -0.34,-2 -0.48,-3.49 C 4.03,114.62 0,63.56 0,63.56 A 50,50 0 0 1 6.14,39 C 12.98,26.82 19.88,25 26.67,22.47 L 85.57,0.83 A 11.51,11.51 0 0 1 91.8,0.17 l 17.2,3.05 6.23,1.12 a 6.62,6.62 0 0 0 -3.4,0.46 c -1,0.43 -62.37,25.71 -62.37,25.71 0,0 -21.56,6.72 -21.77,42.87 L 30.43,125 c 0.72,12.93 6.32,16.93 6.32,16.93"
       style="fill:#000000"
       id="path841"
       inkscape:connector-curvature="0" />
    <path
       d="m 118.85,4.85 113.5,20.5 a 7.62,7.62 0 0 0 -2,1 l -8.82,6 L 104,10.05 115,5.38 a 8.94,8.94 0 0 1 3.93,-0.53"
       style="fill:#000000"
       id="path843"
       inkscape:connector-curvature="0" />
    <path
       d="m 34.93,135.49 a 18.52,18.52 0 0 0 5,7.61 l 119.67,47.47 c 0,0 -2,-1.92 -2.81,-7.87 z"
       style="fill:#000000"
       id="path845"
       inkscape:connector-curvature="0" />
    <path
       d="m 188.89,125.3 c 0,0.18 -0.8,7.55 -1.8,17.29 l 16.91,-18.33 -14.64,-4 c -0.39,3.08 -0.5,5 -0.5,5.07"
       style="fill:#000000"
       id="path847"
       inkscape:connector-curvature="0" />
    <path
       d="m 161.46,119.3 c 0,-0.25 0.14,-2.75 0.64,-6.61 L 104,96.64 60.14,124.69 158.4,159.57 Z"
       style="fill:#000000"
       id="path849"
       inkscape:connector-curvature="0" />
    <path
       d="M 256.38,51.76 C 253.66,68 246.12,116.58 246,117.09 c 0,0 -0.88,6.41 -1.48,11.41 a 43.12,43.12 0 0 0 -8,8 c -2.45,3.16 -46.36,59.27 -46.74,59.75 a 6.93,6.93 0 0 1 -4.56,2 5.41,5.41 0 0 1 -3.87,-2 16,16 0 0 1 -0.81,-7.14 c 0.94,-10.91 6.54,-64 6.54,-64 0,0 1.92,-32.51 18.38,-54.21 l 47.59,-39.82 1.38,0.23 c 0.51,0.34 2.8,2.07 2.73,6.12 a 66.09,66.09 0 0 1 -0.78,14.33 m 2.53,-14.38 c 0.08,-5.54 -3.61,-7.59 -3.76,-7.68 l -0.86,-0.15 c 0,0 0,0 0.07,0 C 251.8,29.11 237,26.2 237,26.2 a 3.16,3.16 0 0 0 -2.66,0.57 c -1.66,1 -14.22,10.37 -14.22,10.37 L 184.7,63.6 c 0,0 -8.35,5.58 -15.53,25.9 a 121,121 0 0 0 -6,29.9 l -4.1,53.92 c 0,0 -0.84,16.38 4.22,18.71 6.7,3.09 20.78,7.9 20.78,7.9 a 0.75,0.75 0 0 1 -0.14,-0.1 5.88,5.88 0 0 0 1.25,0.17 h 0.18 a 8.88,8.88 0 0 0 5.75,-2.55 c 0.44,-0.57 44.37,-56.67 46.82,-59.82 a 40.8,40.8 0 0 1 7.9,-7.93 l 0.33,-0.23 v -0.39 c 0.6,-5 1.53,-11.74 1.53,-11.74 0.07,-0.49 7.61,-49.08 10.34,-65.28 a 67,67 0 0 0 0.8,-14.68"
       style="fill:#000000"
       id="path851"
       inkscape:connector-curvature="0" />
  </g>
</svg>
