<svg id="Layer_1" data-name="Layer 1" xmlns="http://www.w3.org/2000/svg" viewBox="0 0 200 39.17"><defs><style>.cls-1{fill:#00aeef;}</style></defs><title>Logo-Robox-Text</title><path class="cls-1" d="M188.15,15l-7.31,8.49-7.11-8.47a6.86,6.86,0,0,0-5-2.14h-6.4v2.56h6.4a4.3,4.3,0,0,1,3.12,1.36l7.27,8.67-7.71,9a4.28,4.28,0,0,1-3.13,1.35h-6v2.56h6a6.87,6.87,0,0,0,5.05-2.22l7.45-8.66,7.26,8.66a6.89,6.89,0,0,0,5.07,2.22H200V35.8h-6.86A4.32,4.32,0,0,1,190,34.45l-7.49-8.93,7.5-8.71a4.3,4.3,0,0,1,3.13-1.34H200V12.92h-6.86a6.89,6.89,0,0,0-5,2.14m-76.29.44a4.29,4.29,0,0,1,4.29,4.3V31.53a4.29,4.29,0,0,1-4.29,4.3H87a29.4,29.4,0,0,0-3.39.22c0-.11,0-.23,0-.34V19.78a4.32,4.32,0,0,1,3.85-4.3Zm-30.8,21a22.29,22.29,0,0,1-.21,2.42.25.25,0,0,0,.22.29h.1A22.6,22.6,0,0,1,87,38.39h24.83a6.86,6.86,0,0,0,6.86-6.86V19.78a6.86,6.86,0,0,0-6.86-6.86H87.47a6.83,6.83,0,0,0-3.85,1.5V0H81.06V35.72c0,.2,0,.46,0,.73M124.39,36c0-.12,0-.23,0-.34V19.76a4.29,4.29,0,0,1,4.29-4.29h23.94a4.29,4.29,0,0,1,4.29,4.29V31.51a4.29,4.29,0,0,1-4.29,4.29H127.82a21.82,21.82,0,0,0-3.44.22m35.08-4.51V19.76a6.86,6.86,0,0,0-6.86-6.86H128.68a6.86,6.86,0,0,0-6.86,6.86V35.7a22.27,22.27,0,0,1-.22,3.15.26.26,0,0,0,.22.29h.1a22.52,22.52,0,0,1,5.86-.77h24.83a6.86,6.86,0,0,0,6.86-6.86M43.32,36c0-.12,0-.23,0-.34V19.76a4.29,4.29,0,0,1,4.29-4.29H71.55a4.29,4.29,0,0,1,4.29,4.29V31.51a4.29,4.29,0,0,1-4.29,4.29H46.76a21.85,21.85,0,0,0-3.44.22m35.08-4.51V19.76a6.86,6.86,0,0,0-6.86-6.86H47.61a6.86,6.86,0,0,0-6.86,6.86V35.7a22.27,22.27,0,0,1-.22,3.15.26.26,0,0,0,.22.29h.1a22.52,22.52,0,0,1,5.86-.77H71.55a6.86,6.86,0,0,0,6.86-6.86M31.24,12.92a6.86,6.86,0,0,1,6.41,6.84H35.09a4.31,4.31,0,0,0-3.85-4.29H6.86a4.29,4.29,0,0,0-4.29,4.29v18.6H0V12.91H2.56v1.51A6.83,6.83,0,0,1,6.86,12.9Z"/></svg>