<svg id="Layer_1" data-name="Layer 1" xmlns="http://www.w3.org/2000/svg" viewBox="0 0 360 58"><defs><style>.cls-1{fill:#fff;}.cls-2{fill:#009ee3;}</style></defs><title>Logo-RoboxPro</title><path class="cls-1" d="M210.52,17.31l-8.17,9.49-7.95-9.47a7.68,7.68,0,0,0-5.57-2.39l-7.07,0v2.95h7.16a4.8,4.8,0,0,1,3.49,1.52l8.13,9.76-8.62,10.07a4.79,4.79,0,0,1-3.5,1.52h-6.66v2.93h6.68a7.64,7.64,0,0,0,5.67-2.54l8.36-9.9,8.14,9.9a7.66,7.66,0,0,0,5.68,2.54H224V40.73h-7.67a4.81,4.81,0,0,1-3.51-1.52l-8.38-10,8.38-9.8a4.8,4.8,0,0,1,3.5-1.51H224V14.93l-7.87,0a7.71,7.71,0,0,0-5.59,2.4"/><path class="cls-1" d="M125.41,14.93l-27.2,0a7.85,7.85,0,0,0-4.4,1.7V.27H90.88V40.66c0,.23,0,.52,0,.82a24.91,24.91,0,0,1-.24,2.73.29.29,0,0,0,.25.33H91a25.19,25.19,0,0,1,6.57-.88h27.87A7.67,7.67,0,0,0,133.09,36V22.67A7.71,7.71,0,0,0,125.41,14.93Zm4.76,21a4.8,4.8,0,0,1-4.8,4.8H97.61a26.42,26.42,0,0,0-3.42.21l-.38-.34V22.69a4.85,4.85,0,0,1,4.3-4.83h27.26a4.8,4.8,0,0,1,4.8,4.8Z"/><path class="cls-1" d="M170.58,14.93H143.69A7.67,7.67,0,0,0,136,22.59V40.66a25.55,25.55,0,0,1-.25,3.55.29.29,0,0,0,.24.33h.12a25,25,0,0,1,6.57-.88h27.87A7.67,7.67,0,0,0,178.24,36V22.59A7.67,7.67,0,0,0,170.58,14.93Zm4.73,21a4.8,4.8,0,0,1-4.8,4.8H142.8A24,24,0,0,0,139,41c0-.13,0-.26,0-.39V22.66a4.8,4.8,0,0,1,4.8-4.8h26.75a4.8,4.8,0,0,1,4.8,4.8Z"/><path class="cls-1" d="M80.28,14.93H53.4a7.67,7.67,0,0,0-7.67,7.67V40.66a25,25,0,0,1-.25,3.55.29.29,0,0,0,.25.33h.11a25,25,0,0,1,6.57-.88H80.28A7.67,7.67,0,0,0,87.95,36V22.59A7.67,7.67,0,0,0,80.28,14.93Zm4.73,21a4.8,4.8,0,0,1-4.8,4.8H52.51a24.05,24.05,0,0,0-3.84.24c0-.13,0-.26,0-.39V22.66a4.8,4.8,0,0,1,4.8-4.8H80.21a4.8,4.8,0,0,1,4.8,4.8Z"/><path class="cls-1" d="M35,14.94a7.64,7.64,0,0,1,7.16,7.61H39.3A4.76,4.76,0,0,0,35,17.86H7.73a4.8,4.8,0,0,0-4.8,4.8v21H0V14.93H2.93v1.68a7.67,7.67,0,0,1,4.8-1.68Z"/><path class="cls-2" d="M352.33,14.93H325.45a7.67,7.67,0,0,0-7.67,7.67V40.66a25,25,0,0,1-.25,3.55.29.29,0,0,0,.25.33h.11a25,25,0,0,1,6.57-.88h27.86A7.67,7.67,0,0,0,360,36V22.6A7.67,7.67,0,0,0,352.33,14.93Zm4.74,21a4.8,4.8,0,0,1-4.8,4.8h-27.7a24.05,24.05,0,0,0-3.84.24c0-.13,0-.26,0-.39V22.66a4.8,4.8,0,0,1,4.8-4.8h26.75a4.8,4.8,0,0,1,4.8,4.8Z"/><path class="cls-2" d="M307.06,14.94a7.64,7.64,0,0,1,7.16,7.61h-2.87a4.76,4.76,0,0,0-4.3-4.69H279.79a4.8,4.8,0,0,0-4.8,4.8v21h-2.93V14.93H275v1.68a7.66,7.66,0,0,1,4.8-1.68Z"/><path class="cls-2" d="M261.45,14.93H234.57a7.67,7.67,0,0,0-7.67,7.67V57.73h2.93V22.66a4.8,4.8,0,0,1,4.8-4.8h26.75a4.8,4.8,0,0,1,4.8,4.8V35.92a4.8,4.8,0,0,1-4.8,4.8H232.77v2.93h28.68A7.67,7.67,0,0,0,269.12,36V22.59A7.67,7.67,0,0,0,261.45,14.93Z"/></svg>