<?xml version="1.0" encoding="utf-8"?>
<!-- Generator: Adobe Illustrator 22.1.0, SVG Export Plug-In . SVG Version: 6.00 Build 0)  -->
<svg version="1.1" id="Layer_1" xmlns="http://www.w3.org/2000/svg" xmlns:xlink="http://www.w3.org/1999/xlink" x="0px" y="0px"
	 viewBox="0 0 173 40" style="enable-background:new 0 0 173 40;" xml:space="preserve">
<style type="text/css">
	.st0{fill:#FFFFFF;}
</style>
<title>Logo-CEL</title>
<path class="st0" d="M110.4,17.7H85.7l-1.9,4.6h24.8L110.4,17.7z M104,4.6h19.5l1.9-4.6h-21.5C85.4,0,67.6,6.3,64.4,14.1l-4.9,11.8
	C56.2,33.6,68.7,40,87.2,40h21.5l1.9-4.6H91.2c-11.2,0-18.5-4.3-16.3-9.6l4.8-11.5C81.9,8.9,92.9,4.6,104,4.6 M132.5,0.1l-10.8,25.8
	C118.5,33.6,131,40,149.6,40h21.5l1.9-4.6h-19.5c-11.2,0-18.5-4.3-16.3-9.6l10.7-25.6H132.5z M45.1,4.6h19.5L66.5,0H45
	C26.5,0,8.7,6.3,5.4,14.1L0.5,25.9C-2.7,33.6,9.8,40,28.3,40h21.5l1.9-4.6H32.2c-11.2,0-18.5-4.3-16.3-9.6l4.8-11.5
	C23,8.9,33.9,4.6,45.1,4.6"/>
</svg>
