<svg xmlns="http://www.w3.org/2000/svg" viewBox="0 0 259.01 200"><title>Logo-Robox-White-20pc</title><g style="opacity:0.5"><path d="M36.75,141.91s-23.51-9.25-24.44-9.86S6.52,129,4.65,119.6c0,0-.34-2-.48-3.49S0,63.56,0,63.56A50,50,0,0,1,6.14,39c6.84-12.18,13.74-14,20.53-16.53L85.57.83A11.51,11.51,0,0,1,91.8.17L109,3.22l6.23,1.12a6.62,6.62,0,0,0-3.4.46c-1,.43-62.37,25.71-62.37,25.71S27.9,37.23,27.69,73.38L30.43,125c.72,12.93,6.32,16.93,6.32,16.93" style="fill:#000000"/><path d="M118.85,4.85l113.5,20.5a7.62,7.62,0,0,0-2,1l-8.82,6L104,10.05l11-4.67a8.94,8.94,0,0,1,3.93-.53" style="fill:#000000"/><path d="M34.93,135.49a18.52,18.52,0,0,0,5,7.61L159.6,190.57s-2-1.92-2.81-7.87Z" style="fill:#000000"/><path d="M188.89,125.3c0,.18-.8,7.55-1.8,17.29L204,124.26l-14.64-4c-.39,3.08-.5,5-.5,5.07" style="fill:#000000"/><path d="M161.46,119.3c0-.25.14-2.75.64-6.61L104,96.64,60.14,124.69l98.26,34.88Z" style="fill:#000000"/><path d="M256.38,51.76C253.66,68,246.12,116.58,246,117.09c0,0-.88,6.41-1.48,11.41a43.12,43.12,0,0,0-8,8c-2.45,3.16-46.36,59.27-46.74,59.75a6.93,6.93,0,0,1-4.56,2,5.41,5.41,0,0,1-3.87-2,16,16,0,0,1-.81-7.14c.94-10.91,6.54-64,6.54-64S189,92.6,205.46,70.9l47.59-39.82,1.38.23c.51.34,2.8,2.07,2.73,6.12a66.09,66.09,0,0,1-.78,14.33m2.53-14.38c.08-5.54-3.61-7.59-3.76-7.68l-.86-.15s0,0,.07,0C251.8,29.11,237,26.2,237,26.2a3.16,3.16,0,0,0-2.66.57c-1.66,1-14.22,10.37-14.22,10.37L184.7,63.6s-8.35,5.58-15.53,25.9a121,121,0,0,0-6,29.9l-4.1,53.92s-.84,16.38,4.22,18.71c6.7,3.09,20.78,7.9,20.78,7.9a.75.75,0,0,1-.14-.1,5.88,5.88,0,0,0,1.25.17h.18a8.88,8.88,0,0,0,5.75-2.55c.44-.57,44.37-56.67,46.82-59.82a40.8,40.8,0,0,1,7.9-7.93l.33-.23,0-.39c.6-5,1.53-11.74,1.53-11.74.07-.49,7.61-49.08,10.34-65.28a67,67,0,0,0,.8-14.68" style="fill:#000000"/></g></svg>