<svg xmlns="http://www.w3.org/2000/svg" viewBox="0 0 360 111.35"><title>Logo_AddClickPrint_White</title><path d="M234.67,46.58a2.2,2.2,0,0,0-1.51-.9l-13.16-2a44.18,44.18,0,0,0-2.95-7c.86-1.2,2.16-2.89,3.88-5.07s2.95-3.78,3.67-4.78a2.75,2.75,0,0,0,.58-1.66,2.29,2.29,0,0,0-.51-1.58q-2.58-3.68-11.87-12.23a2.76,2.76,0,0,0-1.8-.72,2.34,2.34,0,0,0-1.72.65l-10.22,7.7a44.09,44.09,0,0,0-6.47-2.67L190.57,3a2.11,2.11,0,0,0-.82-1.55A2.72,2.72,0,0,0,188,.86H172a2.41,2.41,0,0,0-2.58,2,116.66,116.66,0,0,0-2.09,13.38A40.68,40.68,0,0,0,160.79,19l-9.92-7.7a3.09,3.09,0,0,0-1.88-.72c-1.05,0-3.32,1.72-6.79,5.14a71.25,71.25,0,0,0-7.09,7.74,3,3,0,0,0-.65,1.65,2.71,2.71,0,0,0,.72,1.73q4.83,5.82,7.7,9.93a36,36,0,0,0-2.81,6.61l-13.38,2a2.16,2.16,0,0,0-1.36.93,2.75,2.75,0,0,0-.58,1.66V64a2.69,2.69,0,0,0,.58,1.69,2.27,2.27,0,0,0,1.51.9L140,68.48A35.84,35.84,0,0,0,143,75.6c-.86,1.2-2.16,2.89-3.88,5.07s-2.95,3.78-3.67,4.79a2.74,2.74,0,0,0-.58,1.65,2.79,2.79,0,0,0,.51,1.66q2.8,3.89,11.87,12.08a2.44,2.44,0,0,0,1.79.79,2.59,2.59,0,0,0,1.8-.64l10.15-7.7A44.09,44.09,0,0,0,167.41,96l2,13.24a2.09,2.09,0,0,0,.82,1.54,2.71,2.71,0,0,0,1.76.61h16a2.41,2.41,0,0,0,2.59-2A116.66,116.66,0,0,0,192.66,96a41.56,41.56,0,0,0,6.55-2.73l9.92,7.77a3.55,3.55,0,0,0,1.87.64c1.06,0,3.31-1.7,6.77-5.1a74.9,74.9,0,0,0,7.12-7.77,2.41,2.41,0,0,0,.65-1.66,2.8,2.8,0,0,0-.72-1.8q-5.19-6.33-7.7-9.92a47.34,47.34,0,0,0,2.81-6.55l13.3-2a2.19,2.19,0,0,0,1.44-.94,2.74,2.74,0,0,0,.58-1.65v-16A2.67,2.67,0,0,0,234.67,46.58ZM180,82.93a26.83,26.83,0,1,1,26.83-26.82A26.83,26.83,0,0,1,180,82.93Z" style="fill:#fff"/><path d="M259.17,54A46.84,46.84,0,1,1,306,100.78,47,47,0,0,1,259.17,54Zm-7.11,0c0,29.45,24.42,53.9,53.95,53.9S360,83.41,360,54,335.46,0,306,0s-53.95,24.59-53.95,54Zm40.8-20.33L328.33,54,292.86,74.23Z" style="fill:#fff;fill-rule:evenodd"/><path d="M7.11,54.08A47,47,0,0,1,53.9,7.21a47.19,47.19,0,0,1,46.88,46.87,46.84,46.84,0,0,1-93.67,0ZM0,54.13C0,83.58,24.42,108,54,108s54-24.53,54-53.9S83.4.09,54,.09,0,24.68,0,54.13Z" style="fill:#fff;fill-rule:evenodd"/><polygon points="80.9 46.17 61.86 46.17 61.86 27.13 46.08 27.13 46.08 46.17 27.04 46.17 27.04 61.95 46.08 61.95 46.08 80.99 61.86 80.99 61.86 61.95 80.9 61.95 80.9 46.17" style="fill:#fff;fill-rule:evenodd"/></svg>