<svg id="Layer_1" data-name="Layer 1" xmlns="http://www.w3.org/2000/svg" viewBox="0 0 170 83.08"><defs><style>.cls-1{fill:#fff;}.cls-2{fill:#009ee3;}</style></defs><title>Logo-Root</title><path class="cls-1" d="M76.33,13.8H50.65a7.35,7.35,0,0,0-7.35,7.36v17.1a23.86,23.86,0,0,1-.24,3.38.27.27,0,0,0,.24.31h.11a24,24,0,0,1,6.29-.83H76.33a7.36,7.36,0,0,0,7.35-7.36V21.16A7.36,7.36,0,0,0,76.33,13.8Zm4.61,20a4.6,4.6,0,0,1-4.61,4.61H49.73A23.51,23.51,0,0,0,46,38.6c0-.12,0-.25,0-.37V21.16a4.61,4.61,0,0,1,4.61-4.61H76.33a4.61,4.61,0,0,1,4.61,4.61Z"/><path class="cls-1" d="M119.41,13.8H93.73a7.35,7.35,0,0,0-7.36,7.36v17.1a23.71,23.71,0,0,1-.24,3.38.28.28,0,0,0,.24.31h.11a24.05,24.05,0,0,1,6.29-.83h26.64a7.36,7.36,0,0,0,7.35-7.36V21.16A7.36,7.36,0,0,0,119.41,13.8Zm4.6,20a4.6,4.6,0,0,1-4.6,4.61H92.82a23.53,23.53,0,0,0-3.69.23c0-.12,0-.25,0-.37V21.16a4.61,4.61,0,0,1,4.61-4.61h25.68a4.61,4.61,0,0,1,4.6,4.61Z"/><path class="cls-1" d="M33.52,13.82a7.35,7.35,0,0,1,6.87,7.34H37.65a4.63,4.63,0,0,0-4.12-4.61H7.36a4.6,4.6,0,0,0-4.6,4.61v20H0V13.8H2.75v1.62a7.33,7.33,0,0,1,4.6-1.62Z"/><path class="cls-1" d="M167.24,33.76a4.6,4.6,0,0,1-4.61,4.6H136.9a4.6,4.6,0,0,1-4.61-4.6V16.53h18V13.78h-18V0h-2.76V33.76h0a7.37,7.37,0,0,0,7.36,7.36h25.74A7.37,7.37,0,0,0,170,33.76Z"/><path class="cls-2" d="M167.24,43.81a4.6,4.6,0,0,1-4.61,4.6H7.36a4.6,4.6,0,0,1-4.61-4.6H0a7.37,7.37,0,0,0,7.36,7.36h76.3v3.15A5.21,5.21,0,0,1,82.16,58l-6.7,6.75a7.85,7.85,0,0,0-2.28,5.53h2.64a5.21,5.21,0,0,1,1.51-3.67l6.34-6.39V83.08h2.64v-15l6.31,6.27a5.21,5.21,0,0,1,1.54,3.7H96.8a7.86,7.86,0,0,0-2.32-5.57l-6.64-6.59a5.21,5.21,0,0,1-1.54-3.7V51.17h76.33A7.37,7.37,0,0,0,170,43.81Z"/></svg>