<?xml version="1.0" encoding="UTF-8" standalone="no"?>
<svg
   xmlns:dc="http://purl.org/dc/elements/1.1/"
   xmlns:cc="http://creativecommons.org/ns#"
   xmlns:rdf="http://www.w3.org/1999/02/22-rdf-syntax-ns#"
   xmlns:svg="http://www.w3.org/2000/svg"
   xmlns="http://www.w3.org/2000/svg"
   xmlns:sodipodi="http://sodipodi.sourceforge.net/DTD/sodipodi-0.dtd"
   xmlns:inkscape="http://www.inkscape.org/namespaces/inkscape"
   id="Layer_1"
   data-name="Layer 1"
   viewBox="0 0 360 58"
   version="1.1"
   sodipodi:docname="Logo-RBX01.svg"
   inkscape:version="0.92.2 (5c3e80d, 2017-08-06)">
  <metadata
     id="metadata840">
    <rdf:RDF>
      <cc:Work
         rdf:about="">
        <dc:format>image/svg+xml</dc:format>
        <dc:type
           rdf:resource="http://purl.org/dc/dcmitype/StillImage" />
        <dc:title>Logo-RoboxPro</dc:title>
      </cc:Work>
    </rdf:RDF>
  </metadata>
  <sodipodi:namedview
     pagecolor="#ffffff"
     bordercolor="#666666"
     borderopacity="1"
     objecttolerance="10"
     gridtolerance="10"
     guidetolerance="10"
     inkscape:pageopacity="0"
     inkscape:pageshadow="2"
     inkscape:window-width="1920"
     inkscape:window-height="1017"
     id="namedview838"
     showgrid="false"
     inkscape:zoom="3.9555556"
     inkscape:cx="180"
     inkscape:cy="29"
     inkscape:window-x="-8"
     inkscape:window-y="-8"
     inkscape:window-maximized="1"
     inkscape:current-layer="Layer_1" />
  <defs
     id="defs817">
    <style
       id="style815">.cls-1{fill:#fff;}.cls-2{fill:#009ee3;}</style>
  </defs>
  <title
     id="title819">Logo-RoboxPro</title>
  <g
     id="g847"
     transform="translate(68)">
    <path
       id="path821"
       d="m 210.52,17.31 -8.17,9.49 -7.95,-9.47 a 7.68,7.68 0 0 0 -5.57,-2.39 h -7.07 v 2.95 h 7.16 a 4.8,4.8 0 0 1 3.49,1.52 l 8.13,9.76 -8.62,10.07 a 4.79,4.79 0 0 1 -3.5,1.52 h -6.66 v 2.93 h 6.68 a 7.64,7.64 0 0 0 5.67,-2.54 l 8.36,-9.9 8.14,9.9 a 7.66,7.66 0 0 0 5.68,2.54 H 224 v -2.96 h -7.67 a 4.81,4.81 0 0 1 -3.51,-1.52 l -8.38,-10 8.38,-9.8 a 4.8,4.8 0 0 1 3.5,-1.51 H 224 v -2.97 h -7.87 a 7.71,7.71 0 0 0 -5.59,2.4"
       class="cls-1"
       inkscape:connector-curvature="0"
       style="fill:#ffffff" />
    <path
       id="path823"
       d="m 125.41,14.93 h -27.2 a 7.85,7.85 0 0 0 -4.4,1.7 V 0.27 h -2.93 v 40.39 c 0,0.23 0,0.52 0,0.82 a 24.91,24.91 0 0 1 -0.24,2.73 0.29,0.29 0 0 0 0.25,0.33 H 91 a 25.19,25.19 0 0 1 6.57,-0.88 h 27.87 A 7.67,7.67 0 0 0 133.09,36 V 22.67 a 7.71,7.71 0 0 0 -7.68,-7.74 z m 4.76,21 a 4.8,4.8 0 0 1 -4.8,4.8 H 97.61 a 26.42,26.42 0 0 0 -3.42,0.21 L 93.81,40.6 V 22.69 a 4.85,4.85 0 0 1 4.3,-4.83 h 27.26 a 4.8,4.8 0 0 1 4.8,4.8 z"
       class="cls-1"
       inkscape:connector-curvature="0"
       style="fill:#ffffff" />
    <path
       id="path825"
       d="M 170.58,14.93 H 143.69 A 7.67,7.67 0 0 0 136,22.59 v 18.07 a 25.55,25.55 0 0 1 -0.25,3.55 0.29,0.29 0 0 0 0.24,0.33 h 0.12 a 25,25 0 0 1 6.57,-0.88 h 27.87 A 7.67,7.67 0 0 0 178.24,36 V 22.59 a 7.67,7.67 0 0 0 -7.66,-7.66 z m 4.73,21 a 4.8,4.8 0 0 1 -4.8,4.8 H 142.8 A 24,24 0 0 0 139,41 c 0,-0.13 0,-0.26 0,-0.39 V 22.66 a 4.8,4.8 0 0 1 4.8,-4.8 h 26.75 a 4.8,4.8 0 0 1 4.8,4.8 z"
       class="cls-1"
       inkscape:connector-curvature="0"
       style="fill:#ffffff" />
    <path
       id="path827"
       d="M 80.28,14.93 H 53.4 a 7.67,7.67 0 0 0 -7.67,7.67 v 18.06 a 25,25 0 0 1 -0.25,3.55 0.29,0.29 0 0 0 0.25,0.33 h 0.11 a 25,25 0 0 1 6.57,-0.88 H 80.28 A 7.67,7.67 0 0 0 87.95,36 V 22.59 a 7.67,7.67 0 0 0 -7.67,-7.66 z m 4.73,21 a 4.8,4.8 0 0 1 -4.8,4.8 h -27.7 a 24.05,24.05 0 0 0 -3.84,0.24 c 0,-0.13 0,-0.26 0,-0.39 V 22.66 a 4.8,4.8 0 0 1 4.8,-4.8 h 26.74 a 4.8,4.8 0 0 1 4.8,4.8 z"
       class="cls-1"
       inkscape:connector-curvature="0"
       style="fill:#ffffff" />
    <path
       id="path829"
       d="m 35,14.94 a 7.64,7.64 0 0 1 7.16,7.61 H 39.3 A 4.76,4.76 0 0 0 35,17.86 H 7.73 a 4.8,4.8 0 0 0 -4.8,4.8 v 21 H 0 V 14.93 h 2.93 v 1.68 a 7.67,7.67 0 0 1 4.8,-1.68 z"
       class="cls-1"
       inkscape:connector-curvature="0"
       style="fill:#ffffff" />
  </g>
</svg>
