<?xml version="1.0" encoding="UTF-8" standalone="no"?>
<svg
   xmlns:dc="http://purl.org/dc/elements/1.1/"
   xmlns:cc="http://creativecommons.org/ns#"
   xmlns:rdf="http://www.w3.org/1999/02/22-rdf-syntax-ns#"
   xmlns:svg="http://www.w3.org/2000/svg"
   xmlns="http://www.w3.org/2000/svg"
   xmlns:sodipodi="http://sodipodi.sourceforge.net/DTD/sodipodi-0.dtd"
   xmlns:inkscape="http://www.inkscape.org/namespaces/inkscape"
   viewBox="0 0 175.58 200"
   version="1.1"
   id="svg903"
   sodipodi:docname="Logo-RoboxPro-White.svg"
   inkscape:version="0.92.2 (5c3e80d, 2017-08-06)">
  <metadata
     id="metadata909">
    <rdf:RDF>
      <cc:Work
         rdf:about="">
        <dc:format>image/svg+xml</dc:format>
        <dc:type
           rdf:resource="http://purl.org/dc/dcmitype/StillImage" />
        <dc:title>Logo-RoboxPro-White-20pc</dc:title>
      </cc:Work>
    </rdf:RDF>
  </metadata>
  <defs
     id="defs907" />
  <sodipodi:namedview
     pagecolor="#ffffff"
     bordercolor="#666666"
     borderopacity="1"
     objecttolerance="10"
     gridtolerance="10"
     guidetolerance="10"
     inkscape:pageopacity="0"
     inkscape:pageshadow="2"
     inkscape:window-width="1920"
     inkscape:window-height="1017"
     id="namedview905"
     showgrid="false"
     inkscape:zoom="1.18"
     inkscape:cx="87.790001"
     inkscape:cy="100"
     inkscape:window-x="-8"
     inkscape:window-y="-8"
     inkscape:window-maximized="1"
     inkscape:current-layer="svg903" />
  <title
     id="title887">Logo-RoboxPro-White-20pc</title>
  <g
     style="opacity:1"
     id="g901">
    <path
       d="M 54.75,0 H 54.38 L 53.91,0.06 53.43,0.21 53,0.44 50.89,1.49 7.53,26.34 7,26.68 6.48,27.08 5.98,27.55 5.47,28.1 5,28.71 4.52,29.37 4,30.1 l -0.45,0.79 -0.43,0.84 -0.4,0.89 -0.39,0.94 -0.36,1 -0.34,1 -0.31,1.05 -0.28,1.08 -0.25,1.1 L 0.6,39.89 0.42,41 0.26,42.15 0.15,43.3 0.06,44.44 v 1.12 1.12 1.11 l 0.14,3.94 4.02,112.13 v 0 l 0.12,3.53 0.07,1.11 0.1,1.05 0.14,1 0.19,0.94 0.23,0.89 0.26,0.82 0.3,0.75 0.33,0.68 0.37,0.59 0.39,0.51 0.43,0.43 0.45,0.34 0.47,0.25 0.5,0.17 h 0.12 l 17.21,3.23 -0.95,-0.54 -0.45,-0.34 -0.43,-0.43 -0.39,-0.51 -0.37,-0.6 -0.34,-0.67 -0.3,-0.75 -0.26,-0.82 -0.22,-0.89 -0.19,-0.95 -0.14,-1 -0.11,-1.06 -0.06,-1.11 -0.12,-3.48 -0.34,-12 v -0.6 -0.1 -0.09 -0.1 L 34.22,90.57 v -0.1 -0.1 -0.11 -0.64 l -0.8,-33.44 -0.1,-4.78 v -0.81 -0.81 -0.83 l 0.06,-0.82 0.07,-0.83 0.09,-0.83 0.11,-0.83 0.13,-0.82 0.14,-0.82 0.15,-0.82 0.17,-0.8 0.19,-0.79 0.2,-0.78 L 35,40 l 0.23,-0.74 0.24,-0.73 0.25,-0.71 0.26,-0.69 0.28,-0.67 0.28,-0.64 0.3,-0.62 0.3,-0.59 0.31,-0.56 0.32,-0.53 0.32,-0.5 0.34,-0.47 0.33,-0.43 0.34,-0.4 23.58,-25.46 7.6,-4.57 z M 16,158.7 v 0.3 l -0.08,0.28 -0.11,0.26 -0.15,0.25 -0.18,0.22 -0.14,0.13 -0.06,0.06 -0.24,0.16 -0.25,0.12 -0.27,0.09 -0.29,0.06 h -0.3 -0.3 l -0.32,-0.06 -0.3,-0.09 -0.31,-0.13 -0.29,-0.16 -0.28,-0.19 -0.27,-0.22 -0.24,-0.24 -0.22,-0.27 -0.19,-0.28 -0.17,-0.31 -0.13,-0.31 -0.09,-0.31 -0.07,-0.32 v -0.32 -0.32 -0.3 l 0.08,-0.28 0.12,-0.26 0.14,-0.25 0.18,-0.22 0.16,-0.15 v 0 l 0.24,-0.16 0.25,-0.13 0.27,-0.09 0.29,-0.06 h 0.6 l 0.32,0.06 0.3,0.09 0.31,0.13 0.29,0.16 0.29,0.19 0.26,0.22 0.24,0.25 0.22,0.26 0.2,0.29 0.16,0.3 0.13,0.31 0.1,0.31 0.06,0.32 v 0.33 z M 13.58,86.55 12.76,58.06 29.4,60.32 30.08,89 Z"
       style="fill:#000000"
       id="path889"
       inkscape:connector-curvature="0" />
    <polygon
       points="79.49,118.65 116.99,124.62 116.53,149.4 56.67,139.32 "
       style="fill:#000000"
       id="polygon891" />
    <polygon
       points="152.14,130.21 131.71,126.92 131.33,151.87 132.62,152.11 "
       style="fill:#000000"
       id="polygon893" />
    <polygon
       points="160.32,11.44 71.99,1.88 69.3,3.5 158.18,13.19 "
       style="fill:#000000"
       id="polygon895" />
    <path
       d="m 175.55,21.4 -0.05,-1 -0.08,-1 -0.1,-0.94 -0.13,-0.88 -0.16,-0.82 -0.18,-0.75 -0.2,-0.68 -0.22,-0.61 -0.25,-0.53 -0.26,-0.45 -0.29,-0.37 -0.3,-0.28 -0.31,-0.19 -0.33,-0.1 h -0.07 L 162,11.62 l -36.2,29.16 -0.41,0.37 -0.41,0.44 -0.41,0.51 -0.41,0.59 -0.4,0.65 -0.4,0.72 -0.38,0.78 -0.38,0.84 -0.36,0.9 -0.35,0.94 -0.34,1 -0.32,1 -0.29,1.08 -0.28,1.11 -0.26,1.13 -0.28,1.16 -0.21,1.18 -0.19,1.19 -0.16,1.2 -0.14,1.2 -0.11,1.2 -0.08,1.18 -0.06,1.17 v 1.17 L 119,68 117.48,184.54 v 3.85 1.15 1.1 l 0.06,1 0.1,1 0.12,0.92 0.16,0.84 0.19,0.77 0.22,0.68 0.24,0.6 0.27,0.52 0.3,0.42 0.32,0.33 0.34,0.23 0.36,0.14 h 0.09 v 0 l 10.47,1.91 h -0.09 0.09 0.28 l 0.39,-0.05 0.4,-0.15 0.41,-0.23 0.42,-0.33 0.42,-0.42 0.44,-0.51 37.5,-48 4.57,-125.61 v -1.15 -1.1 z m -1.27,2.17 v 1.12 l -4.54,125.18 -37.25,47.65 -0.36,0.42 -0.33,0.33 -0.29,0.22 -0.23,0.14 -0.17,0.06 H 131 130.9 l -0.11,-0.07 -0.16,-0.17 -0.19,-0.27 -0.2,-0.39 -0.2,-0.49 -0.19,-0.59 -0.18,-0.73 -0.14,-0.77 -0.12,-0.86 -0.09,-0.92 -0.06,-1 v -1 -1.12 -3.87 l 2,-116.93 0.17,-5.61 0.06,-1.15 0.08,-1.16 0.11,-1.17 0.14,-1.18 0.18,-1.24 0.18,-1.17 0.21,-1.16 0.23,-1.14 0.25,-1.11 0.27,-1.09 0.29,-1 0.3,-1 0.32,-1 0.33,-0.92 0.35,-0.86 0.35,-0.81 0.36,-0.74 0.36,-0.67 0.36,-0.61 0.34,-0.49 0.34,-0.45 0.33,-0.36 0.37,-0.34 33.06,-27.61 1.5,-1.12 0.25,-0.18 0.13,-0.06 h 0.06 0.06 l 0.13,0.12 0.16,0.22 0.19,0.32 0.2,0.42 0.19,0.52 0.19,0.64 0.16,0.69 0.14,0.76 0.13,0.83 0.09,0.89 0.08,0.95 v 1 1 z"
       style="fill:#000000"
       id="path897"
       inkscape:connector-curvature="0" />
    <polygon
       points="27.77,180.27 26.84,179.72 26.2,179.29 25.54,178.78 25,178.19 24.56,177.51 24.2,176.77 23.91,175.95 23.66,175.06 23.46,174.11 23.27,173.11 23.19,172.06 23.1,170.95 22.98,167.43 116.1,184.29 116.13,188.14 116.13,189.29 116.16,190.39 116.24,191.43 116.31,192.41 116.44,193.32 116.58,194.16 116.72,194.93 116.92,195.62 117.14,196.22 117.39,196.73 117.69,197.22 118.14,197.67 "
       style="fill:#000000"
       id="polygon899" />
  </g>
</svg>
