<svg xmlns="http://www.w3.org/2000/svg" viewBox="0 0 223.97 44.27"><title>Logo-Robox-Text-White</title><path d="M210.52,17l-8.17,9.48-7.95-9.47a7.66,7.66,0,0,0-5.57-2.39l-7.07,0v2.95h7.16a4.81,4.81,0,0,1,3.5,1.52l8.13,9.76-8.63,10.07a4.81,4.81,0,0,1-3.5,1.52h-6.66v2.93h6.68a7.62,7.62,0,0,0,5.67-2.54l8.36-9.91,8.14,9.91a7.63,7.63,0,0,0,5.68,2.54H224V40.46h-7.66a4.83,4.83,0,0,1-3.51-1.52l-8.38-10,8.38-9.8a4.82,4.82,0,0,1,3.51-1.51H224V14.66l-7.87,0a7.71,7.71,0,0,0-5.58,2.4" style="fill:#fff"/><path d="M125.41,14.66l-27.2,0a7.82,7.82,0,0,0-4.4,1.69V0H90.88V40.38c0,.24,0,.52,0,.83a24.78,24.78,0,0,1-.24,2.73.29.29,0,0,0,.25.33.21.21,0,0,0,.11,0,25.17,25.17,0,0,1,6.57-.87h27.87a7.67,7.67,0,0,0,7.66-7.67V22.4A7.71,7.71,0,0,0,125.41,14.66Zm4.75,21a4.8,4.8,0,0,1-4.8,4.81H97.61a26.12,26.12,0,0,0-3.42.2l-.38-.34V22.42a4.84,4.84,0,0,1,4.3-4.83h27.25a4.8,4.8,0,0,1,4.8,4.8Z" style="fill:#fff"/><path d="M170.58,14.66H143.69A7.66,7.66,0,0,0,136,22.32V40.38a26.4,26.4,0,0,1-.25,3.56.29.29,0,0,0,.24.33.25.25,0,0,0,.12,0,24.7,24.7,0,0,1,6.57-.87h27.86a7.67,7.67,0,0,0,7.67-7.67V22.32A7.66,7.66,0,0,0,170.58,14.66Zm4.73,21a4.8,4.8,0,0,1-4.8,4.81H142.8a23,23,0,0,0-3.84.24V22.39a4.8,4.8,0,0,1,4.8-4.8h26.75a4.8,4.8,0,0,1,4.8,4.8Z" style="fill:#fff"/><path d="M80.28,14.66H53.4a7.67,7.67,0,0,0-7.67,7.67V40.38a26.39,26.39,0,0,1-.24,3.56.29.29,0,0,0,.24.33.25.25,0,0,0,.12,0,24.7,24.7,0,0,1,6.57-.87H80.28A7.67,7.67,0,0,0,88,35.72V22.32A7.66,7.66,0,0,0,80.28,14.66Zm4.74,21a4.81,4.81,0,0,1-4.81,4.81H52.51a23,23,0,0,0-3.84.24c0-.13,0-.26,0-.38V22.39a4.8,4.8,0,0,1,4.8-4.8H80.21A4.8,4.8,0,0,1,85,22.39Z" style="fill:#fff"/><path d="M35,14.67a7.65,7.65,0,0,1,7.17,7.61H39.3A4.75,4.75,0,0,0,35,17.59H7.73a4.8,4.8,0,0,0-4.8,4.8v21H0V14.66H2.93v1.68a7.63,7.63,0,0,1,4.8-1.68Z" style="fill:#fff"/></svg>