<svg id="Layer_1" data-name="Layer 1" xmlns="http://www.w3.org/2000/svg" viewBox="0 0 200 110.43"><defs><style>.cls-1{fill:#00aeef;}</style></defs><title>Logo-Robox</title><path class="cls-1" d="M148.63,46H126.74a3.92,3.92,0,0,0-3.92,3.92V64.45c0,.1,0,.21,0,.31a19.71,19.71,0,0,1,3.14-.2h22.66a3.93,3.93,0,0,0,3.92-3.93V49.9A3.92,3.92,0,0,0,148.63,46"/><path class="cls-1" d="M111.37,46H89.07a4,4,0,0,0-3.51,3.93V64.47c0,.1,0,.21,0,.31a26.91,26.91,0,0,1,3.1-.2h22.7a3.92,3.92,0,0,0,3.92-3.93V49.92A3.92,3.92,0,0,0,111.37,46"/><path class="cls-1" d="M74.51,46H52.63a3.92,3.92,0,0,0-3.93,3.92V64.45c0,.1,0,.21,0,.31a19.71,19.71,0,0,1,3.14-.2H74.51a3.93,3.93,0,0,0,3.92-3.93V49.9A3.92,3.92,0,0,0,74.51,46"/><path class="cls-1" d="M191.95,46h-6.27a3.94,3.94,0,0,0-2.86,1.23l-6.86,8,6.85,8.17a3.94,3.94,0,0,0,2.87,1.23h6.27V66.9h-6.27a6.29,6.29,0,0,1-4.63-2L174.41,57l-6.81,7.91a6.28,6.28,0,0,1-4.62,2h-5.45V64.56H163a3.92,3.92,0,0,0,2.86-1.23l7.05-8.19-6.65-7.93A3.94,3.94,0,0,0,163.38,46h-5.86V43.63h5.86a6.28,6.28,0,0,1,4.56,2l6.5,7.74,6.68-7.76a6.29,6.29,0,0,1,4.56-2h6.27ZM154.89,60.63a6.27,6.27,0,0,1-6.27,6.27h-22.7a20.56,20.56,0,0,0-5.36.71h-.09a.23.23,0,0,1-.2-.27,20.55,20.55,0,0,0,.2-2.88V49.9a6.27,6.27,0,0,1,6.27-6.27h21.88a6.27,6.27,0,0,1,6.27,6.27Zm-37.26,0a6.27,6.27,0,0,1-6.27,6.27H88.66a20.62,20.62,0,0,0-5.36.71h-.09a.24.24,0,0,1-.2-.27,20.51,20.51,0,0,0,.2-2.21c0-.25,0-.48,0-.67V31.83h2.34V45a6.23,6.23,0,0,1,3.51-1.37h22.3a6.27,6.27,0,0,1,6.27,6.27Zm-36.85,0a6.27,6.27,0,0,1-6.27,6.27H51.81a20.58,20.58,0,0,0-5.36.71h-.09a.23.23,0,0,1-.2-.27,20.76,20.76,0,0,0,.2-2.88V49.9a6.27,6.27,0,0,1,6.27-6.27H74.51a6.27,6.27,0,0,1,6.27,6.27ZM41.18,49.9A4,4,0,0,0,37.66,46H15.37a3.92,3.92,0,0,0-3.93,3.92v17H9.1V43.63h2.34V45a6.24,6.24,0,0,1,3.93-1.38H37.66a6.27,6.27,0,0,1,5.86,6.25ZM163.79,0H37.39A36.21,36.21,0,0,0,1.18,36.21v56A118.2,118.2,0,0,1,0,108.88a1.36,1.36,0,0,0,1.15,1.54,1.26,1.26,0,0,0,.54,0C9.57,108,24.44,106,32.66,106.29H163.79A36.21,36.21,0,0,0,200,70.08V36.21A36.21,36.21,0,0,0,163.79,0"/></svg>