<svg xmlns="http://www.w3.org/2000/svg" viewBox="0 0 175.58 200"><title>Logo-RoboxPro-White-20pc</title><g style="opacity:0.2"><path d="M54.75,0h-.37l-.47.06-.48.15L53,.44,50.89,1.49,7.53,26.34,7,26.68l-.52.4-.5.47-.51.55L5,28.71l-.48.66L4,30.1l-.45.79-.43.84-.4.89-.39.94-.36,1-.34,1-.31,1.05-.28,1.08-.25,1.1L.6,39.89.42,41,.26,42.15.15,43.3.06,44.44l0,1.12v1.12l0,1.11.14,3.94L4.22,163.86v0l.12,3.53.07,1.11.1,1.05.14,1,.19.94.23.89.26.82.3.75.33.68.37.59.39.51.43.43.45.34.47.25.5.17.12,0,17.21,3.23-.95-.54-.45-.34-.43-.43-.39-.51-.37-.6-.34-.67-.3-.75-.26-.82-.22-.89-.19-.95-.14-1-.11-1.06-.06-1.11L21.57,167,21.23,155v-.6l0-.1v-.09l0-.1L34.22,90.57l0-.1v-.1l0-.11v-.64l-.8-33.44-.1-4.78v-.81l0-.81,0-.83.06-.82.07-.83.09-.83.11-.83.13-.82.14-.82.15-.82.17-.8.19-.79.2-.78L35,40l.23-.74.24-.73.25-.71.26-.69.28-.67.28-.64.3-.62.3-.59.31-.56.32-.53.32-.5.34-.47.33-.43.34-.4L62.68,6.26l7.6-4.57ZM16,158.7l0,.3-.08.28-.11.26-.15.25-.18.22-.14.13-.06.06-.24.16-.25.12-.27.09-.29.06-.3,0-.3,0-.32-.06-.3-.09-.31-.13-.29-.16-.28-.19-.27-.22-.24-.24-.22-.27-.19-.28-.17-.31-.13-.31-.09-.31-.07-.32,0-.32v-.32l0-.3.08-.28.12-.26.14-.25.18-.22.16-.15,0,0,.24-.16.25-.13.27-.09.29-.06h.6l.32.06.3.09.31.13.29.16.29.19.26.22.24.25.22.26.2.29.16.3.13.31.1.31.06.32,0,.33ZM13.58,86.55l-.82-28.49L29.4,60.32,30.08,89Z" style="fill:#000000"/><polygon points="56.67 139.32 79.49 118.65 116.99 124.62 116.53 149.4 56.67 139.32" style="fill:#000000"/><polygon points="132.62 152.11 152.14 130.21 131.71 126.92 131.33 151.87 132.62 152.11" style="fill:#000000"/><polygon points="158.18 13.19 160.32 11.44 71.99 1.88 69.3 3.5 158.18 13.19" style="fill:#000000"/><path d="M175.55,21.4l-.05-1-.08-1-.1-.94-.13-.88-.16-.82-.18-.75-.2-.68-.22-.61-.25-.53-.26-.45-.29-.37-.3-.28-.31-.19-.33-.1h-.07L162,11.62l-36.2,29.16-.41.37-.41.44-.41.51-.41.59-.4.65-.4.72-.38.78-.38.84-.36.9-.35.94-.34,1-.32,1-.29,1.08-.28,1.11-.26,1.13L120.12,54l-.21,1.18-.19,1.19-.16,1.2-.14,1.2-.11,1.2-.08,1.18-.06,1.17,0,1.17L119,68l-1.52,116.54,0,3.85v1.15l0,1.1.06,1,.1,1,.12.92.16.84.19.77.22.68.24.6.27.52.3.42.32.33.34.23.36.14.09,0h0L130.72,200l-.09,0,.09,0,.28,0,.39-.05.4-.15.41-.23.42-.33.42-.42.44-.51,37.5-48,4.57-125.61,0-1.15v-1.1Zm-1.27,2.17,0,1.12-4.54,125.18-37.25,47.65-.36.42-.33.33-.29.22-.23.14-.17.06H131l-.1,0-.11-.07-.16-.17-.19-.27-.2-.39-.2-.49-.19-.59-.18-.73-.14-.77-.12-.86-.09-.92-.06-1,0-1v-1.12l0-3.87,2-116.93.17-5.61.06-1.15.08-1.16.11-1.17.14-1.18L132,58l.18-1.17.21-1.16.23-1.14.25-1.11.27-1.09.29-1,.3-1,.32-1,.33-.92.35-.86.35-.81.36-.74.36-.67.36-.61.34-.49.34-.45.33-.36.37-.34,33.06-27.61,1.5-1.12.25-.18.13-.06h.06l.06,0,.13.12.16.22.19.32.2.42.19.52.19.64.16.69.14.76.13.83.09.89.08.95,0,1,0,1Z" style="fill:#000000"/><polygon points="118.14 197.67 27.77 180.27 26.84 179.72 26.2 179.29 25.54 178.78 25 178.19 24.56 177.51 24.2 176.77 23.91 175.95 23.66 175.06 23.46 174.11 23.27 173.11 23.19 172.06 23.1 170.95 22.98 167.43 116.1 184.29 116.13 188.14 116.13 189.29 116.16 190.39 116.24 191.43 116.31 192.41 116.44 193.32 116.58 194.16 116.72 194.93 116.92 195.62 117.14 196.22 117.39 196.73 117.69 197.22 118.14 197.67" style="fill:#000000"/></g></svg>