<svg id="Layer_1" data-name="Layer 1" xmlns="http://www.w3.org/2000/svg" viewBox="0 0 173 40"><defs><style>.cls-1{fill-rule:evenodd;}</style></defs><title>Logo-CEL</title><path class="cls-1" d="M110.45,17.7H85.7l-1.93,4.62h24.75ZM104,4.6h19.51L125.46,0H103.94C85.41,0,67.6,6.35,64.36,14.1L59.43,25.9C56.19,33.65,68.7,40,87.24,40h21.52l1.92-4.6H91.16c-11.16,0-18.49-4.34-16.27-9.65l4.8-11.5C81.92,8.94,92.86,4.6,104,4.6M132.52.11,121.75,25.9C118.51,33.65,131,40,149.56,40h21.52L173,35.4H153.49c-11.17,0-18.49-4.34-16.27-9.65L147.92.11ZM45.11,4.6H64.62L66.54,0H45C26.5,0,8.68,6.35,5.44,14.1L.51,25.9C-2.73,33.65,9.79,40,28.32,40H49.83l1.92-4.6H32.24c-11.16,0-18.49-4.34-16.27-9.65l4.8-11.5C23,8.94,33.94,4.6,45.11,4.6"/></svg>