<svg xmlns="http://www.w3.org/2000/svg" viewBox="0 0 56 56"><title>Asset 2</title><rect x="19.6" y="31.16" width="16.8" height="3" style="fill:#009ee3"/><polygon points="19.6 28.97 28 19.97 36.4 28.97 19.6 28.97" style="fill:#009ee3;fill-rule:evenodd"/><path d="M28,14.4a13.6,13.6,0,1,1,0,27.19h0a13.6,13.6,0,1,1,0-27.19ZM28,56h0A28,28,0,0,0,28,0h0a28,28,0,0,0,0,56ZM21.39,2.79h0a25,25,0,0,1,4.19-.73h.15a1.61,1.61,0,0,1,1.62,1.61V9a1.61,1.61,0,0,1-1.42,1.6,18.39,18.39,0,0,0-2.35.45,4.66,4.66,0,0,0-1.2.49.34.34,0,0,1-.22,0,.32.32,0,0,1-.26-.38,4.84,4.84,0,0,0-.22-2.5L20.29,4.91a.78.78,0,0,1-.05-.14,1.62,1.62,0,0,1,1.15-2ZM9.68,9.47a1.62,1.62,0,0,0,0,2.29l.12.1,3.12,2.62a4.89,4.89,0,0,1,1.44,2.06.33.33,0,0,0,.41.2.35.35,0,0,0,.17-.15,5,5,0,0,1,.8-1A15.74,15.74,0,0,1,17.53,14,1.63,1.63,0,0,0,18,11.9L15.27,7.25a1.62,1.62,0,0,0-2.21-.59l-.13.08A26.4,26.4,0,0,0,9.68,9.47ZM2.87,21.12h0a25.82,25.82,0,0,1,1.45-4c0-.05,0-.09.07-.13a1.62,1.62,0,0,1,2.21-.6l4.65,2.69a1.62,1.62,0,0,1,.68,2,17.64,17.64,0,0,0-.79,2.25A5.07,5.07,0,0,0,11,24.66a.35.35,0,0,1-.07.2.32.32,0,0,1-.46,0,5,5,0,0,0-2.28-1.06l-4-.7L4,23.1a1.6,1.6,0,0,1-1.13-2Zm1.9,14.64h0a1.63,1.63,0,0,1-2-1.16,26.9,26.9,0,0,1-.74-4.18v-.15a1.61,1.61,0,0,1,1.62-1.62H9a1.61,1.61,0,0,1,1.6,1.42,18.39,18.39,0,0,0,.45,2.35,4.81,4.81,0,0,0,.49,1.2.35.35,0,0,1,0,.22.33.33,0,0,1-.38.26,4.84,4.84,0,0,0-2.5.22l-3.83,1.4-.14,0Zm9.71,7.34a4.89,4.89,0,0,1,2.06-1.44.32.32,0,0,0,.19-.41.26.26,0,0,0-.14-.17,5,5,0,0,1-1-.8A15.74,15.74,0,0,1,14,38.47,1.63,1.63,0,0,0,11.9,38L7.25,40.73a1.61,1.61,0,0,0-.59,2.21.5.5,0,0,0,.08.12,25.77,25.77,0,0,0,2.73,3.26,1.62,1.62,0,0,0,2.29,0l.1-.12,2.62-3.12Zm10.43,2.46h0a4.9,4.9,0,0,0-1.07,2.28l-.7,4a.83.83,0,0,1,0,.15,1.6,1.6,0,0,1-2,1.13,25.82,25.82,0,0,1-4-1.45L17,51.61a1.62,1.62,0,0,1-.6-2.21l2.69-4.66a1.63,1.63,0,0,1,2-.67,19.33,19.33,0,0,0,2.25.79,5.07,5.07,0,0,0,1.29.17.4.4,0,0,1,.21.07.34.34,0,0,1,0,.46Zm9.69,7.65h0a24.71,24.71,0,0,1-4.18.73h-.15a1.61,1.61,0,0,1-1.62-1.61V47a1.61,1.61,0,0,1,1.42-1.6,18.39,18.39,0,0,0,2.35-.45,4.66,4.66,0,0,0,1.2-.49.34.34,0,0,1,.22,0,.32.32,0,0,1,.26.38,4.84,4.84,0,0,0,.22,2.5l1.4,3.83s0,.09,0,.14a1.62,1.62,0,0,1-1.16,2Zm11.72-6.68a1.62,1.62,0,0,0,0-2.29l-.12-.1L43.1,41.52a4.89,4.89,0,0,1-1.44-2.06.33.33,0,0,0-.41-.2.35.35,0,0,0-.17.15,5,5,0,0,1-.8,1A15.74,15.74,0,0,1,38.47,42,1.63,1.63,0,0,0,38,44.1l2.69,4.65a1.62,1.62,0,0,0,2.21.59l.13-.08a26.4,26.4,0,0,0,3.25-2.73Zm6.81-11.65h0a25.82,25.82,0,0,1-1.45,4s0,.09-.07.13a1.62,1.62,0,0,1-2.21.6l-4.65-2.69a1.62,1.62,0,0,1-.68-2,17.64,17.64,0,0,0,.79-2.25A5.07,5.07,0,0,0,45,31.34a.35.35,0,0,1,.07-.2.32.32,0,0,1,.46,0,5,5,0,0,0,2.28,1.06l4,.7.15,0a1.6,1.6,0,0,1,1.13,2Zm-1.9-14.64h0a1.63,1.63,0,0,1,2,1.16A26.9,26.9,0,0,1,54,25.58v.15a1.61,1.61,0,0,1-1.62,1.62H47a1.61,1.61,0,0,1-1.6-1.42,18.39,18.39,0,0,0-.45-2.35,4.81,4.81,0,0,0-.49-1.2.35.35,0,0,1,0-.22.33.33,0,0,1,.38-.26,4.84,4.84,0,0,0,2.5-.22l3.83-1.4.14,0ZM41.52,12.9a4.89,4.89,0,0,1-2.06,1.44.32.32,0,0,0-.19.41.26.26,0,0,0,.14.17,4.68,4.68,0,0,1,1,.8A14.9,14.9,0,0,1,42,17.53,1.63,1.63,0,0,0,44.1,18l4.65-2.69a1.61,1.61,0,0,0,.59-2.21.5.5,0,0,0-.08-.12,25.77,25.77,0,0,0-2.73-3.26,1.62,1.62,0,0,0-2.29,0l-.1.11L41.52,12.9ZM31.09,10.44h0a4.9,4.9,0,0,0,1.07-2.28l.7-4a.83.83,0,0,1,0-.15,1.6,1.6,0,0,1,2-1.13,25.82,25.82,0,0,1,4,1.45l.13.07a1.62,1.62,0,0,1,.6,2.21l-2.69,4.66a1.63,1.63,0,0,1-2,.67,19.33,19.33,0,0,0-2.25-.79A5.07,5.07,0,0,0,31.34,11a.4.4,0,0,1-.21-.07A.34.34,0,0,1,31.09,10.44Z" style="fill:#009ee2;fill-rule:evenodd"/></svg>