<svg xmlns="http://www.w3.org/2000/svg" viewBox="0 0 46.4 48"><title>Asset 1</title><path d="M24.33,0A23.43,23.43,0,0,0,2.15,13.91a24.56,24.56,0,0,0,4.28,26.6,22.6,22.6,0,0,0,25.48,5.72A24.45,24.45,0,0,0,46.4,24c0-12.49-10-23.35-22.07-24Zm8.9,43.14h0A20.57,20.57,0,0,1,8.35,39.41,22.32,22.32,0,0,1,5,13.08C9.8,4.72,19.69.41,28.79,3.05A21.94,21.94,0,0,1,44.27,24,22.2,22.2,0,0,1,33.23,43.17Z" style="fill:#fff;fill-rule:evenodd"/><rect x="12.02" y="33.9" width="22.36" height="1.79" style="fill:#009ee3"/><path d="M18.35,32.39,16,30.44c1.66-2,1-3.49-.44-6.21-1.53-2.94-3.65-7,.43-11.92l2.34,1.93c-2.8,3.39-1.6,5.68-.08,8.59,1.39,2.64,3.12,5.93.07,9.56" style="fill:#009ee3"/><path d="M24.5,32.39l-2.32-1.95c1.66-2,1-3.49-.43-6.21-1.55-2.94-3.66-7,.42-11.92l2.34,1.93c-2.8,3.39-1.6,5.68-.08,8.59,1.39,2.64,3.12,5.93.07,9.56" style="fill:#009ee3"/><path d="M30.69,32.39l-2.32-1.95c1.66-2,1-3.49-.43-6.21-1.55-2.94-3.66-7,.42-11.92l2.34,1.93c-2.8,3.39-1.6,5.68-.08,8.59,1.39,2.64,3.12,5.93.07,9.56" style="fill:#009ee3"/></svg>