<?xml version="1.0" encoding="iso-8859-1"?>
<!-- Generator: Adobe Illustrator 18.0.0, SVG Export Plug-In . SVG Version: 6.00 Build 0)  -->
<!DOCTYPE svg PUBLIC "-//W3C//DTD SVG 1.1//EN" "http://www.w3.org/Graphics/SVG/1.1/DTD/svg11.dtd">
<svg version="1.1" id="Capa_1" xmlns="http://www.w3.org/2000/svg" xmlns:xlink="http://www.w3.org/1999/xlink" x="0px" y="0px"
	 viewBox="0 0 389.752 389.752" style="enable-background:new 0 0 389.752 389.752;" xml:space="preserve">
<g>
	<g>
		<path d="M192.125,1.087c-0.687,0.803-16.811,19.932-16.811,43.878l0.002,0.489c0.224,24.176,16.915,43.251,17.625,44.051
			c0.596,0.671,1.453,1.051,2.35,1.043c0.897-0.008,1.747-0.404,2.33-1.086c0.687-0.803,16.815-19.929,16.817-43.879l-0.002-0.489
			c-0.229-24.175-16.921-43.25-17.631-44.05c-0.597-0.672-1.453-1.052-2.351-1.044C193.558,0.009,192.708,0.405,192.125,1.087z"/>
		<g>
			<path d="M41.579,126.583c0.588,0.877,14.674,21.554,37.737,27.996l0.472,0.13c23.345,6.289,46.208-4.654,47.168-5.123
				c0.807-0.393,1.403-1.116,1.637-1.982c0.234-0.866,0.081-1.791-0.419-2.536c-0.588-0.877-14.669-21.558-37.736-28.003
				l-0.472-0.13c-23.345-6.283-46.208,4.66-47.169,5.129c-0.808,0.393-1.404,1.116-1.638,1.983
				C40.926,124.912,41.079,125.838,41.579,126.583z"/>
			<path d="M348.173,126.583c-0.588,0.877-14.674,21.554-37.737,27.996l-0.472,0.13c-23.345,6.289-46.208-4.654-47.168-5.123
				c-0.807-0.393-1.403-1.116-1.637-1.982c-0.234-0.866-0.081-1.791,0.419-2.536c0.588-0.877,14.669-21.558,37.736-28.003
				l0.472-0.13c23.345-6.283,46.208,4.66,47.169,5.129c0.808,0.393,1.404,1.116,1.638,1.983
				C348.826,124.912,348.673,125.838,348.173,126.583z"/>
		</g>
		<g>
			<path d="M302.227,40.822c-1.428,0.111-35.218,2.992-58.169,25.944l-0.468,0.471c-22.958,23.386-25.243,57.667-25.328,59.114
				c-0.073,1.215,0.384,2.399,1.252,3.252c0.868,0.853,2.062,1.287,3.274,1.193c1.427-0.112,35.218-2.984,58.177-25.939l0.466-0.47
				c22.952-23.392,25.237-57.673,25.323-59.12c0.072-1.216-0.385-2.401-1.253-3.254C304.634,41.163,303.439,40.728,302.227,40.822z"
				/>
			<path d="M87.525,40.822c1.428,0.111,35.218,2.992,58.169,25.944l0.468,0.471c22.958,23.386,25.243,57.667,25.328,59.114
				c0.073,1.215-0.384,2.399-1.252,3.252c-0.868,0.853-2.062,1.287-3.274,1.193c-1.427-0.112-35.219-2.984-58.177-25.939
				l-0.466-0.47c-22.952-23.392-25.237-57.673-25.323-59.12c-0.072-1.216,0.385-2.401,1.253-3.254
				C85.118,41.163,86.313,40.728,87.525,40.822z"/>
		</g>
		<g>
			<g>
				<path d="M69.73,257.254c0.111-1.429,2.992-35.218,25.944-58.169l0.471-0.468c23.386-22.958,57.667-25.243,59.114-25.328
					c1.215-0.073,2.4,0.384,3.252,1.252c0.853,0.867,1.287,2.062,1.193,3.275c-0.112,1.427-2.984,35.219-25.939,58.177l-0.47,0.466
					c-23.392,22.952-57.673,25.237-59.12,25.323c-1.216,0.072-2.401-0.385-3.254-1.253C70.071,259.661,69.636,258.465,69.73,257.254
					z"/>
			</g>
			<g>
				<path d="M320.022,257.254c-0.111-1.429-2.992-35.218-25.944-58.169l-0.471-0.468c-23.386-22.958-57.667-25.243-59.114-25.328
					c-1.215-0.073-2.399,0.384-3.252,1.252c-0.852,0.867-1.287,2.062-1.193,3.275c0.112,1.427,2.984,35.219,25.939,58.177
					l0.47,0.466c23.392,22.952,57.673,25.237,59.12,25.323c1.216,0.072,2.401-0.385,3.254-1.253
					C319.681,259.661,320.116,258.465,320.022,257.254z"/>
			</g>
		</g>
	</g>
	<path d="M225.46,364.491c0,0-0.431-0.114-1.221-0.317l-13.693-123.585c-2.003-17.073-0.768-33.674,4.437-49.888
		c3.458-10.774,8.466-20.948,15.542-29.824c3.206-4.021,6.801-7.768,10.76-11.053c0.798-0.662,6.862-4.275,6.862-4.893
		c0,0.018-11.134,4.528-12.029,5.007c-5.668,3.033-10.762,6.814-15.696,10.908c-6.253,5.702-11.791,11.886-16.638,18.72
		l-9.039-81.582l-8.925,81.248c-5.262-7.409-11.309-14.142-18.33-20c-4.856-4.053-10.204-7.503-15.837-10.368
		c-0.829-0.414-9.965-3.841-9.965-3.933c0,0.678,7.504,5.417,8.424,6.232c3.862,3.475,7.439,7.281,10.54,11.456
		c6.527,8.261,11.002,18.118,14.2,28.082c4.827,15.038,6.107,30.481,4.629,46.231l-12.745,116.02
		c-11.338-1.341-22.081-1.836-29.826-0.563c-16.778,2.76-38.274,13.066-42.713,31.343c27.802-23.405,71.125-7.518,101.88,0.685
		c18.406,4.909,37.915,7.203,56.767,3.513c16.701-3.251,38.23-13.139,42.709-31.394C276.579,372.306,254.843,371.766,225.46,364.491
		z"/>
</g>
<g>
</g>
<g>
</g>
<g>
</g>
<g>
</g>
<g>
</g>
<g>
</g>
<g>
</g>
<g>
</g>
<g>
</g>
<g>
</g>
<g>
</g>
<g>
</g>
<g>
</g>
<g>
</g>
<g>
</g>
</svg>
