<?xml version="1.0" encoding="utf-8"?>
<!-- Generator: Adobe Illustrator 16.0.3, SVG Export Plug-In . SVG Version: 6.00 Build 0)  -->
<!DOCTYPE svg PUBLIC "-//W3C//DTD SVG 1.1//EN" "http://www.w3.org/Graphics/SVG/1.1/DTD/svg11.dtd">
<svg version="1.1" id="Layer_1" xmlns="http://www.w3.org/2000/svg" xmlns:xlink="http://www.w3.org/1999/xlink" x="0px" y="0px"
	 width="180px" height="180px" viewBox="0 0 180 180" enable-background="new 0 0 180 180" xml:space="preserve">
<g>
	<path fill="#009EE3" d="M58.977,128.749c0,4.251-3.773,6.999-9.161,6.999c-4.684,0-7.627-3.523-8.568-6.999
		c2.238-18.196,25.126-34.999,48.754-34.999c23.624,0,46.511,16.803,48.751,34.999c-0.943,3.476-3.888,6.999-8.571,6.999
		c-5.386,0-9.159-2.748-9.159-6.999l-0.46-0.737c-2.539-11.509-15.257-18.389-30.561-18.389c-15.311,0-28.026,6.88-30.565,18.389
		L58.977,128.749z M78.749,63.75c0,10.354-5.876,18.748-13.124,18.748c-7.25,0-13.127-8.394-13.127-18.748l15-18.563
		C73.86,46.487,78.749,54.303,78.749,63.75z M101.248,63.75c0-9.447,4.89-17.263,11.251-18.563L127.5,63.75
		c0,10.354-5.88,18.748-13.127,18.748C107.123,82.498,101.248,74.104,101.248,63.75z"/>
	<path fill="#009EE3" d="M90.001,12.28c20.759,0,40.277,8.084,54.956,22.763c14.68,14.68,22.762,34.197,22.762,54.955
		c0,20.762-8.082,40.277-22.762,54.957c-14.679,14.679-34.197,22.765-54.956,22.765c-20.761,0-40.279-8.086-54.958-22.765
		c-14.68-14.68-22.764-34.197-22.764-54.957c0-20.758,8.084-40.273,22.764-54.955C49.722,20.364,69.24,12.28,90.001,12.28 M90.001,0
		C40.293,0,0,40.293,0,89.998C0,139.704,40.293,180,90.001,180C139.706,180,180,139.704,180,89.998C180,40.293,139.706,0,90.001,0
		L90.001,0z"/>
</g>
</svg>
